<svg viewBox="0 0 128 128" xmlns="http://www.w3.org/2000/svg" style="fill-rule:evenodd;clip-rule:evenodd;stroke-linejoin:round;stroke-miterlimit:2;">
    <g>
        <path d="M10.676,98.477c3.016,-0 5.331,0.53 6.946,1.591c1.615,1.06 2.423,2.797 2.423,5.209c-0,2.433 -0.817,4.189 -2.452,5.269c-1.634,1.08 -3.969,1.62 -7.005,1.62l-1.43,-0l0,6.771l-4.553,-0l0,-19.935c0.993,-0.194 2.043,-0.33 3.152,-0.408c1.109,-0.078 2.082,-0.117 2.919,-0.117Zm0.292,3.882c-0.331,-0 -0.657,0.01 -0.978,0.029c-0.321,0.019 -0.598,0.039 -0.832,0.058l0,5.838l1.43,-0c1.577,-0 2.763,-0.214 3.561,-0.642c0.798,-0.428 1.197,-1.226 1.197,-2.394c-0,-0.564 -0.102,-1.031 -0.307,-1.401c-0.204,-0.369 -0.496,-0.666 -0.875,-0.89c-0.38,-0.224 -0.842,-0.379 -1.387,-0.467c-0.544,-0.087 -1.148,-0.131 -1.809,-0.131Z" style="fill:#dcfeff;fill-rule:nonzero;"/><path d="M32.362,107.437c-0.389,-0.097 -0.847,-0.199 -1.372,-0.306c-0.525,-0.107 -1.09,-0.161 -1.693,-0.161c-0.272,0 -0.598,0.025 -0.978,0.073c-0.379,0.049 -0.666,0.102 -0.861,0.161l0,11.733l-4.348,-0l-0,-14.535c0.778,-0.273 1.697,-0.53 2.758,-0.774c1.06,-0.243 2.242,-0.364 3.546,-0.364c0.233,-0 0.515,0.014 0.846,0.043c0.331,0.03 0.662,0.068 0.993,0.117c0.33,0.049 0.661,0.107 0.992,0.175c0.331,0.068 0.613,0.151 0.846,0.248l-0.729,3.59Z" style="fill:#dcfeff;fill-rule:nonzero;"/><path d="M34.405,111.377c-0,-1.362 0.209,-2.553 0.627,-3.575c0.419,-1.021 0.968,-1.873 1.649,-2.554c0.681,-0.681 1.464,-1.196 2.35,-1.547c0.885,-0.35 1.795,-0.525 2.729,-0.525c2.179,0 3.901,0.666 5.166,1.999c1.265,1.333 1.897,3.294 1.897,5.881c-0,0.253 -0.01,0.531 -0.029,0.832c-0.02,0.302 -0.039,0.569 -0.059,0.803l-9.865,-0c0.098,0.895 0.516,1.605 1.255,2.131c0.74,0.525 1.732,0.788 2.977,0.788c0.798,-0 1.581,-0.073 2.35,-0.219c0.768,-0.146 1.396,-0.326 1.882,-0.54l0.584,3.531c-0.233,0.117 -0.545,0.234 -0.934,0.351c-0.389,0.116 -0.822,0.218 -1.299,0.306c-0.476,0.088 -0.987,0.161 -1.532,0.219c-0.545,0.058 -1.09,0.087 -1.634,0.087c-1.382,0 -2.583,-0.204 -3.605,-0.612c-1.021,-0.409 -1.868,-0.968 -2.539,-1.679c-0.671,-0.71 -1.168,-1.551 -1.489,-2.524c-0.321,-0.973 -0.481,-2.024 -0.481,-3.153Zm10.215,-1.663c-0.019,-0.37 -0.083,-0.73 -0.19,-1.08c-0.107,-0.35 -0.272,-0.662 -0.496,-0.934c-0.224,-0.272 -0.506,-0.496 -0.846,-0.671c-0.341,-0.175 -0.764,-0.263 -1.27,-0.263c-0.486,0 -0.905,0.083 -1.255,0.248c-0.35,0.165 -0.642,0.384 -0.875,0.657c-0.234,0.272 -0.414,0.588 -0.54,0.948c-0.127,0.36 -0.219,0.725 -0.278,1.095l5.75,-0Z" style="fill:#dcfeff;fill-rule:nonzero;"/><path d="M56.587,115.814c0.797,-0 1.362,-0.078 1.692,-0.234c0.331,-0.155 0.497,-0.457 0.497,-0.904c-0,-0.351 -0.214,-0.657 -0.643,-0.92c-0.428,-0.262 -1.079,-0.559 -1.955,-0.89c-0.681,-0.253 -1.299,-0.516 -1.853,-0.788c-0.555,-0.272 -1.027,-0.598 -1.416,-0.978c-0.389,-0.379 -0.691,-0.832 -0.905,-1.357c-0.214,-0.525 -0.321,-1.158 -0.321,-1.897c0,-1.44 0.535,-2.578 1.605,-3.415c1.071,-0.837 2.54,-1.255 4.408,-1.255c0.934,0 1.829,0.083 2.685,0.248c0.856,0.166 1.537,0.346 2.043,0.54l-0.759,3.386c-0.506,-0.175 -1.056,-0.331 -1.649,-0.467c-0.593,-0.136 -1.26,-0.205 -1.999,-0.205c-1.362,0 -2.043,0.38 -2.043,1.139c-0,0.175 0.029,0.331 0.087,0.467c0.059,0.136 0.175,0.267 0.35,0.394c0.176,0.126 0.414,0.262 0.716,0.408c0.301,0.146 0.685,0.307 1.152,0.482c0.954,0.35 1.742,0.696 2.365,1.036c0.622,0.341 1.113,0.71 1.473,1.109c0.36,0.399 0.613,0.842 0.759,1.328c0.146,0.487 0.219,1.051 0.219,1.693c0,1.518 -0.569,2.666 -1.707,3.444c-1.138,0.778 -2.749,1.167 -4.831,1.167c-1.362,0 -2.495,-0.116 -3.4,-0.35c-0.905,-0.233 -1.532,-0.428 -1.882,-0.584l0.729,-3.531c0.74,0.292 1.499,0.52 2.277,0.686c0.778,0.165 1.547,0.248 2.306,0.248Z" style="fill:#dcfeff;fill-rule:nonzero;"/><path d="M70.742,115.814c0.798,-0 1.362,-0.078 1.693,-0.234c0.331,-0.155 0.496,-0.457 0.496,-0.904c0,-0.351 -0.214,-0.657 -0.642,-0.92c-0.428,-0.262 -1.08,-0.559 -1.955,-0.89c-0.682,-0.253 -1.299,-0.516 -1.854,-0.788c-0.554,-0.272 -1.026,-0.598 -1.415,-0.978c-0.39,-0.379 -0.691,-0.832 -0.905,-1.357c-0.214,-0.525 -0.321,-1.158 -0.321,-1.897c-0,-1.44 0.535,-2.578 1.605,-3.415c1.07,-0.837 2.539,-1.255 4.407,-1.255c0.934,0 1.829,0.083 2.685,0.248c0.857,0.166 1.538,0.346 2.043,0.54l-0.758,3.386c-0.506,-0.175 -1.056,-0.331 -1.649,-0.467c-0.594,-0.136 -1.26,-0.205 -2,-0.205c-1.362,0 -2.043,0.38 -2.043,1.139c0,0.175 0.029,0.331 0.088,0.467c0.058,0.136 0.175,0.267 0.35,0.394c0.175,0.126 0.413,0.262 0.715,0.408c0.302,0.146 0.686,0.307 1.153,0.482c0.953,0.35 1.741,0.696 2.364,1.036c0.623,0.341 1.114,0.71 1.474,1.109c0.36,0.399 0.613,0.842 0.759,1.328c0.146,0.487 0.219,1.051 0.219,1.693c-0,1.518 -0.569,2.666 -1.708,3.444c-1.138,0.778 -2.748,1.167 -4.83,1.167c-1.362,0 -2.496,-0.116 -3.4,-0.35c-0.905,-0.233 -1.533,-0.428 -1.883,-0.584l0.73,-3.531c0.739,0.292 1.498,0.52 2.276,0.686c0.779,0.165 1.547,0.248 2.306,0.248Z" style="fill:#dcfeff;fill-rule:nonzero;"/><path d="M93.595,118.411c-0.739,0.215 -1.693,0.414 -2.86,0.599c-1.167,0.185 -2.393,0.277 -3.678,0.277c-1.303,0 -2.388,-0.175 -3.254,-0.525c-0.866,-0.351 -1.552,-0.842 -2.058,-1.474c-0.505,-0.633 -0.865,-1.387 -1.079,-2.262c-0.214,-0.876 -0.321,-1.839 -0.321,-2.89l-0,-8.551l4.348,-0l0,8.026c0,1.401 0.185,2.413 0.555,3.035c0.37,0.623 1.06,0.934 2.072,0.934c0.311,0 0.642,-0.014 0.992,-0.043c0.351,-0.03 0.662,-0.064 0.934,-0.103l0,-11.849l4.349,-0l0,14.826Z" style="fill:#dcfeff;fill-rule:nonzero;"/><path d="M106.934,107.437c-0.39,-0.097 -0.847,-0.199 -1.372,-0.306c-0.526,-0.107 -1.09,-0.161 -1.693,-0.161c-0.272,0 -0.598,0.025 -0.978,0.073c-0.379,0.049 -0.666,0.102 -0.861,0.161l0,11.733l-4.349,-0l0,-14.535c0.779,-0.273 1.698,-0.53 2.759,-0.774c1.06,-0.243 2.242,-0.364 3.546,-0.364c0.233,-0 0.515,0.014 0.846,0.043c0.331,0.03 0.662,0.068 0.992,0.117c0.331,0.049 0.662,0.107 0.993,0.175c0.331,0.068 0.613,0.151 0.846,0.248l-0.729,3.59Z" style="fill:#dcfeff;fill-rule:nonzero;"/><path d="M108.977,111.377c-0,-1.362 0.209,-2.553 0.627,-3.575c0.418,-1.021 0.968,-1.873 1.649,-2.554c0.681,-0.681 1.464,-1.196 2.35,-1.547c0.885,-0.35 1.795,-0.525 2.729,-0.525c2.179,0 3.901,0.666 5.166,1.999c1.264,1.333 1.897,3.294 1.897,5.881c-0,0.253 -0.01,0.531 -0.029,0.832c-0.02,0.302 -0.039,0.569 -0.059,0.803l-9.865,-0c0.097,0.895 0.516,1.605 1.255,2.131c0.74,0.525 1.732,0.788 2.977,0.788c0.798,-0 1.581,-0.073 2.35,-0.219c0.768,-0.146 1.396,-0.326 1.882,-0.54l0.584,3.531c-0.233,0.117 -0.545,0.234 -0.934,0.351c-0.389,0.116 -0.822,0.218 -1.299,0.306c-0.476,0.088 -0.987,0.161 -1.532,0.219c-0.545,0.058 -1.09,0.087 -1.634,0.087c-1.382,0 -2.584,-0.204 -3.605,-0.612c-1.022,-0.409 -1.868,-0.968 -2.539,-1.679c-0.672,-0.71 -1.168,-1.551 -1.489,-2.524c-0.321,-0.973 -0.481,-2.024 -0.481,-3.153Zm10.215,-1.663c-0.02,-0.37 -0.083,-0.73 -0.19,-1.08c-0.107,-0.35 -0.272,-0.662 -0.496,-0.934c-0.224,-0.272 -0.506,-0.496 -0.846,-0.671c-0.341,-0.175 -0.764,-0.263 -1.27,-0.263c-0.486,0 -0.905,0.083 -1.255,0.248c-0.35,0.165 -0.642,0.384 -0.876,0.657c-0.233,0.272 -0.413,0.588 -0.54,0.948c-0.126,0.36 -0.218,0.725 -0.277,1.095l5.75,-0Z" style="fill:#dcfeff;fill-rule:nonzero;"/>
    </g>
    <path d="M58.874,33.265c-0.86,-0.659 -1.392,-1.671 -1.437,-2.769c-0.051,-1.252 0.539,-2.444 1.566,-3.163c6.52,-4.565 18.342,-12.841 25.73,-18.013c1.178,-0.825 2.727,-0.888 3.968,-0.162c1.24,0.726 1.944,2.108 1.802,3.539c-0.892,8.974 -2.319,23.334 -3.107,31.255c-0.124,1.247 -0.874,2.345 -1.99,2.914c-1.117,0.569 -2.446,0.53 -3.528,-0.103l-0.029,-0.017c-0.302,1.306 -0.852,2.629 -1.682,3.897c-2.332,3.561 -5.946,5.268 -9.101,5.136c-0.879,1.349 -1.496,2.413 -1.812,2.899c-0.952,1.463 -3.593,3.258 -3.608,5.211c-0.017,2.057 11.875,4.907 11.142,7.31c-0.758,2.485 -9.679,-2.066 -11.142,-0.25c-1.834,2.276 7.279,5.191 5.793,6.609c-1.674,1.599 -5.916,-0.251 -9.828,-2.222c-3.606,-1.816 -8.327,-4.794 -9.933,-10.55c-0.122,0.293 -0.228,0.592 -0.318,0.897c-0.5,1.697 -0.603,3.584 -0.047,5.417c0.635,2.088 2.287,3.707 3.823,5.666c0.207,0.263 0.436,0.511 0.6,0.808c0.113,0.204 0.175,0.419 0.24,0.645c0.679,2.376 0.789,4.337 1.701,6.806c0.129,0.134 0.125,0.348 -0.009,0.478c-0.134,0.129 -0.347,0.125 -0.477,-0.009c-1.87,-0.72 -3.167,-1.331 -4.831,-2.301c-0.726,-0.423 -1.273,-0.814 -1.895,-1.349c-0.22,-0.188 -0.41,-0.389 -0.573,-0.623c-0.244,-0.349 -0.411,-0.74 -0.56,-1.131c-0.761,-1.99 -1.065,-3.885 -1.293,-5.821c-0.102,-0.864 -0.188,-1.678 -0.27,-2.506c-0.246,-2.471 -0.28,-4.808 0.342,-7.016c0.549,-1.949 1.531,-3.804 3.042,-5.472c0.013,-0.206 0.029,-0.413 0.049,-0.623c0.103,-1.117 0.335,-2.165 0.668,-3.164c-0.562,0.419 -1.124,0.852 -1.681,1.306c-1.287,1.047 -2.536,2.216 -3.688,3.57c-1.369,1.72 -2.495,4.058 -3.353,6.677c-0.204,0.623 -0.346,1.25 -0.486,1.906c-0.346,1.628 -0.54,3.171 -1.092,4.778c-0.199,0.58 -0.385,1.177 -0.772,1.654c-0.547,0.672 -1.192,1.09 -1.963,1.498c-1.861,0.985 -3.257,1.49 -5.484,1.734c-0.156,0.102 -0.365,0.057 -0.467,-0.099c-0.101,-0.156 -0.057,-0.366 0.099,-0.467c0.692,-1.213 0.897,-2.097 1.301,-3.358c0.189,-0.59 0.175,-1.047 0.356,-1.633c0.158,-0.515 0.141,-1.02 0.415,-1.481c1.346,-2.263 3.565,-3.725 4.781,-5.928c1.506,-2.728 2.391,-5.54 3.97,-7.461c1.216,-1.582 2.566,-2.946 3.934,-4.211c3.011,-2.788 6.198,-4.96 8.549,-7.49c-1.717,-2.857 -1.763,-7.18 0.74,-11.004c0.551,-0.841 1.173,-1.579 1.845,-2.214Zm18.266,15.156l-0.495,0.715l-0.493,0.595l-0.608,0.61l-0.378,0.323l-0.086,0.068c-1.82,1.423 -3.959,1.826 -5.476,0.833c-2.117,-1.386 -2.226,-4.97 -0.243,-7.998c1.983,-3.028 5.312,-4.362 7.428,-2.976c2.078,1.361 2.221,4.839 0.351,7.83Zm-13.305,-12.219l-0,0l-0.027,0.073l-0.027,0.072l-0.027,0.072l-0.027,0.071l-0.028,0.072l-0.028,0.071l-0.028,0.072l-0.028,0.071l-0.028,0.071l-0.029,0.07l-0.029,0.071l-0.029,0.07l-0.029,0.07l-0.018,0.044c-0.017,0.04 -0.033,0.079 -0.05,0.119l-0.02,0.046l-0.018,0.042c-0.048,0.112 -0.096,0.222 -0.146,0.332l0,0.001c-0.705,1.575 -1.546,3.013 -2.45,4.363l-0.024,0.035l-0.039,0.059l-0.035,0.051l-0.05,0.074l-0.046,0.067l-0.048,0.071l-0.048,0.07l-0.029,0.042c-0.032,0.046 -0.064,0.092 -0.096,0.137l-0.021,0.031l-0.049,0.07l-0.017,0.025c-0.336,0.478 -0.678,0.947 -1.024,1.407c-0.277,-0.542 -0.439,-1.172 -0.484,-1.853c-0.1,-1.497 0.365,-3.24 1.406,-4.829l0.028,-0.043l0.028,-0.042l0.029,-0.043l0.028,-0.042l0.029,-0.042l0.029,-0.041l0.03,-0.042l0.029,-0.041l0.03,-0.041l0.029,-0.041l0.03,-0.04l0.03,-0.04l0.03,-0.04l0.031,-0.04l0.03,-0.04l0.031,-0.039l0.031,-0.039l0.039,-0.049l0.03,-0.037l0.03,-0.037l0.03,-0.036l0.03,-0.037l0.031,-0.036l0.03,-0.035l0.032,-0.037l0.032,-0.037l0.032,-0.036l0.033,-0.037l0.032,-0.036l0.033,-0.036l0.033,-0.035l0.033,-0.036l0.033,-0.035l0.033,-0.035l0.033,-0.035l0.034,-0.034l0.033,-0.034l0.034,-0.034l0.034,-0.034l0.034,-0.033l0.045,-0.044l0.033,-0.032l0.033,-0.031l0.033,-0.031l0.033,-0.031l0.029,-0.027c0.889,-0.815 1.883,-1.378 2.858,-1.637c-0.187,0.702 -0.404,1.378 -0.644,2.03Z" style="fill:#dcfeff;"/>
</svg>
