<?xml version="1.0" encoding="UTF-8" standalone="no"?>
<!DOCTYPE svg PUBLIC "-//W3C//DTD SVG 1.1//EN" "http://www.w3.org/Graphics/SVG/1.1/DTD/svg11.dtd">
<svg width="100%" height="100%" viewBox="0 0 128 128" version="1.1" xmlns="http://www.w3.org/2000/svg" xmlns:xlink="http://www.w3.org/1999/xlink" xml:space="preserve" xmlns:serif="http://www.serif.com/" style="fill-rule:evenodd;clip-rule:evenodd;stroke-linejoin:round;stroke-miterlimit:2;">
    <g transform="matrix(1,0,0,1,-5356,-6809)">
        <g id="Logo" transform="matrix(0.901408,0,0,0.901408,528.958,659.592)">
            <rect x="5355" y="6822" width="142" height="142" style="fill:none;"/>
            <g transform="matrix(1.03938,0,0,1.03938,-213.242,-270.161)">
                <g transform="matrix(2.59602,0,0,2.59602,-10639.5,-2235.02)">
                    <text x="6162.99px" y="3538.27px" style="font-family:'Ubuntu-Bold', 'Ubuntu', sans-serif;font-weight:700;font-size:12px;fill:rgb(220,254,255);">Pr<tspan x="6175.66px " y="3538.27px ">e</tspan>ssur<tspan x="6206.32px " y="3538.27px ">e</tspan></text>
                </g>
                <path d="M5420.13,6858.98C5419.21,6858.27 5418.64,6857.19 5418.59,6856.02C5418.54,6854.69 5419.17,6853.41 5420.26,6852.65C5427.22,6847.77 5439.84,6838.94 5447.73,6833.42C5448.98,6832.54 5450.64,6832.47 5451.96,6833.25C5453.29,6834.02 5454.04,6835.5 5453.89,6837.02C5452.93,6846.6 5451.41,6861.93 5450.57,6870.38C5450.44,6871.72 5449.64,6872.89 5448.44,6873.49C5447.25,6874.1 5445.83,6874.06 5444.68,6873.38L5444.65,6873.36C5444.33,6874.76 5443.74,6876.17 5442.85,6877.53C5440.36,6881.33 5436.51,6883.15 5433.14,6883.01C5432.2,6884.45 5431.54,6885.58 5431.21,6886.1C5430.19,6887.66 5427.37,6889.58 5427.35,6891.66C5427.34,6893.86 5440.03,6896.9 5439.25,6899.47C5438.44,6902.12 5428.92,6897.26 5427.35,6899.2C5425.4,6901.63 5435.12,6904.74 5433.54,6906.25C5431.75,6907.96 5427.22,6905.98 5423.05,6903.88C5419.2,6901.94 5414.16,6898.76 5412.44,6892.62C5412.32,6892.93 5412.2,6893.25 5412.11,6893.58C5411.57,6895.39 5411.46,6897.4 5412.06,6899.36C5412.73,6901.59 5414.5,6903.32 5416.14,6905.41C5416.36,6905.69 5416.6,6905.95 5416.78,6906.27C5416.9,6906.49 5416.96,6906.72 5417.03,6906.96C5417.76,6909.49 5417.88,6911.59 5418.85,6914.22C5418.99,6914.37 5418.98,6914.59 5418.84,6914.73C5418.7,6914.87 5418.47,6914.87 5418.33,6914.72C5416.33,6913.95 5414.95,6913.3 5413.17,6912.27C5412.4,6911.82 5411.82,6911.4 5411.15,6910.83C5410.92,6910.63 5410.71,6910.41 5410.54,6910.16C5410.28,6909.79 5410.1,6909.37 5409.94,6908.95C5409.13,6906.83 5408.81,6904.81 5408.56,6902.74C5408.45,6901.82 5408.36,6900.95 5408.27,6900.07C5408.01,6897.43 5407.97,6894.94 5408.64,6892.58C5409.22,6890.5 5410.27,6888.52 5411.89,6886.74C5411.9,6886.52 5411.92,6886.3 5411.94,6886.07C5412.05,6884.88 5412.3,6883.76 5412.65,6882.7C5412.05,6883.14 5411.45,6883.61 5410.86,6884.09C5409.48,6885.21 5408.15,6886.46 5406.92,6887.9C5405.46,6889.74 5404.26,6892.23 5403.34,6895.03C5403.12,6895.69 5402.97,6896.36 5402.82,6897.06C5402.45,6898.8 5402.25,6900.45 5401.66,6902.16C5401.44,6902.78 5401.25,6903.42 5400.83,6903.93C5400.25,6904.64 5399.56,6905.09 5398.74,6905.53C5396.75,6906.58 5395.26,6907.12 5392.88,6907.38C5392.72,6907.49 5392.49,6907.44 5392.39,6907.27C5392.28,6907.1 5392.32,6906.88 5392.49,6906.77C5393.23,6905.48 5393.45,6904.53 5393.88,6903.19C5394.08,6902.56 5394.07,6902.07 5394.26,6901.44C5394.43,6900.9 5394.41,6900.36 5394.7,6899.86C5396.14,6897.45 5398.51,6895.89 5399.81,6893.54C5401.41,6890.62 5402.36,6887.62 5404.04,6885.57C5405.34,6883.89 5406.78,6882.43 5408.24,6881.08C5411.46,6878.1 5414.86,6875.78 5417.37,6873.09C5415.53,6870.04 5415.48,6865.42 5418.16,6861.34C5418.74,6860.44 5419.41,6859.65 5420.13,6858.98ZM5439.62,6875.15L5439.1,6875.92L5438.57,6876.55L5437.92,6877.2L5437.52,6877.55L5437.42,6877.62C5435.48,6879.14 5433.2,6879.57 5431.58,6878.51C5429.32,6877.03 5429.2,6873.2 5431.32,6869.97C5433.44,6866.74 5436.99,6865.32 5439.25,6866.8C5441.47,6868.25 5441.62,6871.96 5439.62,6875.15ZM5425.42,6862.11L5425.42,6862.11L5425.39,6862.19L5425.36,6862.27L5425.34,6862.34L5425.31,6862.42L5425.28,6862.5L5425.25,6862.57L5425.22,6862.65L5425.19,6862.72L5425.16,6862.8L5425.13,6862.88L5425.1,6862.95L5425.06,6863.03L5425.03,6863.1L5425.01,6863.15C5425,6863.19 5424.98,6863.23 5424.96,6863.27L5424.94,6863.32L5424.92,6863.37C5424.87,6863.49 5424.82,6863.61 5424.76,6863.72L5424.76,6863.72C5424.01,6865.4 5423.11,6866.94 5422.15,6868.38L5422.12,6868.42L5422.08,6868.48L5422.04,6868.53L5421.99,6868.61L5421.94,6868.69L5421.89,6868.76L5421.84,6868.84L5421.81,6868.88C5421.77,6868.93 5421.74,6868.98 5421.71,6869.03L5421.68,6869.06L5421.63,6869.13L5421.61,6869.16C5421.26,6869.67 5420.89,6870.17 5420.52,6870.66C5420.23,6870.09 5420.05,6869.41 5420,6868.69C5419.9,6867.09 5420.39,6865.23 5421.5,6863.53L5421.53,6863.49L5421.56,6863.44L5421.6,6863.4L5421.62,6863.35L5421.66,6863.31L5421.69,6863.26L5421.72,6863.22L5421.75,6863.17L5421.78,6863.13L5421.81,6863.09L5421.85,6863.04L5421.88,6863L5421.91,6862.96L5421.94,6862.91L5421.97,6862.87L5422.01,6862.83L5422.04,6862.79L5422.08,6862.74L5422.11,6862.7L5422.15,6862.66L5422.18,6862.62L5422.21,6862.58L5422.24,6862.54L5422.28,6862.5L5422.31,6862.46L5422.34,6862.43L5422.38,6862.39L5422.41,6862.35L5422.45,6862.31L5422.48,6862.27L5422.52,6862.23L5422.55,6862.19L5422.59,6862.16L5422.62,6862.12L5422.66,6862.08L5422.69,6862.05L5422.73,6862.01L5422.77,6861.97L5422.8,6861.94L5422.84,6861.9L5422.89,6861.85L5422.92,6861.82L5422.96,6861.79L5422.99,6861.75L5423.03,6861.72L5423.06,6861.69C5424.01,6860.82 5425.07,6860.22 5426.11,6859.94C5425.91,6860.69 5425.68,6861.42 5425.42,6862.11Z" style="fill:rgb(220,254,255);"/>
            </g>
        </g>
    </g>
</svg>
