<?xml version="1.0" encoding="UTF-8" standalone="no"?>
<!DOCTYPE svg PUBLIC "-//W3C//DTD SVG 1.1//EN" "http://www.w3.org/Graphics/SVG/1.1/DTD/svg11.dtd">
<svg width="100%" height="100%" viewBox="0 0 45 40" version="1.1" xmlns="http://www.w3.org/2000/svg" xmlns:xlink="http://www.w3.org/1999/xlink" xml:space="preserve" xmlns:serif="http://www.serif.com/" style="fill-rule:evenodd;clip-rule:evenodd;stroke-linejoin:round;stroke-miterlimit:2;">
    <rect id="Desktop" x="-49.457" y="-24.539" width="1920" height="1222" style="fill:#0f192a;"/>
    <path d="M33.736,28.404l-1.03,-1.297c-0.672,-1.216 -1.066,-2.47 -1.77,-3.326c-0.542,-0.705 -1.144,-1.313 -1.753,-1.877c-1.343,-1.242 -2.763,-2.211 -3.811,-3.338c0.503,-0.838 0.685,-1.958 0.432,-3.112c2.373,-1.694 4.143,-3.446 5.045,-4.979c0.547,-0.93 0.78,-1.793 0.688,-2.536l0.002,-0.001c-0.032,-0.251 -0.101,-0.489 -0.208,-0.712l-0.042,-0.083c-0.33,-0.623 -0.949,-1.084 -1.819,-1.361c-0.161,-0.051 -0.332,-0.096 -0.511,-0.135l-0.036,-0.008c-0.137,-0.029 -0.278,-0.054 -0.425,-0.076c-0.391,-0.057 -0.817,-0.088 -1.275,-0.093c-0.833,-0.01 -1.766,0.065 -2.777,0.227l0,0c-0.837,0.132 -1.69,-0.096 -2.354,-0.629l-0.004,-0.003c-1.269,-0.975 -3.256,-2.339 -5.966,-3.732c-1.256,-0.645 -3.397,-1.367 -5.293,-1.332c-1.353,0.026 -2.58,0.436 -3.344,1.453c-0.869,1.156 -0.827,2.387 -0.451,3.448c0.533,1.505 1.752,2.649 1.752,2.649l0.423,0.396c0,-0 0.357,-0.777 0.357,-0.778c-0.144,1.455 -0.45,3.491 -1.095,5.653c-1.431,1.106 -2.592,2.222 -3.413,3.273l-0.038,0.049c-0.258,0.333 -0.481,0.658 -0.667,0.974c-0.027,0.047 -0.054,0.094 -0.08,0.141l-0.145,0.273c-0.502,1.004 -0.615,1.916 -0.33,2.666l0.115,0.253c0.175,0.329 0.429,0.612 0.757,0.846l0.003,-0.001c0.508,0.361 1.193,0.61 2.031,0.733c2.023,0.299 4.992,-0.115 8.326,-1.192c1.033,1.303 2.479,1.926 3.756,1.872c0.392,0.601 0.666,1.076 0.807,1.292c0.425,0.652 1.602,1.453 1.609,2.323c0.007,0.917 -5.294,2.187 -4.967,3.259c0.338,1.107 4.314,-0.922 4.967,-0.112c0.596,0.741 -1.409,1.634 -2.276,2.308l-0.833,0.189l-0.372,-0.421c-0.406,-0.461 -1.109,-0.504 -1.57,-0.098l-0.122,0.126c-0.393,-0.194 -0.881,-0.144 -1.23,0.164l-0.122,0.126c-0.393,-0.194 -0.881,-0.144 -1.23,0.164l-0.122,0.126c-0.323,-0.16 -0.71,-0.154 -1.031,0.023c-0.762,-0.438 -1.685,-0.6 -2.608,-0.386c-3.072,0.711 -9.519,5.513 -9.519,5.513c-0.132,0.1 -0.194,0.268 -0.156,0.429c0.037,0.161 0.166,0.285 0.329,0.316c-0,0 7.901,1.48 10.973,0.769c1.379,-0.32 2.388,-1.392 2.696,-2.682c0.413,0.321 1.009,0.313 1.416,-0.046l0.122,-0.126c0.393,0.194 0.881,0.144 1.23,-0.164l0.122,-0.126c0.393,0.194 0.881,0.144 1.23,-0.163l0.122,-0.127c0.393,0.194 0.881,0.145 1.229,-0.163l0.001,-0c0.315,-0.279 0.435,-0.696 0.349,-1.08l5.641,-1.285c-0.267,0.995 -0.33,1.838 -0.717,2.888c-0.058,0.06 -0.056,0.155 0.003,0.213c0.06,0.058 0.155,0.056 0.213,-0.004c0.834,-0.321 1.412,-0.593 2.154,-1.026c0.323,-0.188 0.567,-0.363 0.844,-0.601c0.098,-0.084 0.183,-0.173 0.256,-0.278c0.108,-0.155 0.183,-0.329 0.249,-0.504c0.191,-0.498 0.317,-0.983 0.409,-1.465l3.31,-0.754c-0,-0 0.08,0.113 0.085,0.119c0.244,0.3 0.531,0.486 0.875,0.668c0.155,0.083 0.331,0.118 0.513,0.122l0.023,0c0.786,0.004 1.693,-0.579 1.699,-0.646c0.045,-0.487 -0.336,-0.073 -0.365,-0.762l-0.007,-0.145l8.348,-1.902c0.674,-0.153 1.096,-0.825 0.943,-1.499c-0.154,-0.675 -0.826,-1.097 -1.5,-0.944l-9.07,2.067Zm-18.805,6.987c-0.015,0.027 -0.034,0.052 -0.059,0.074c0,-0 0,-0 0,-0c-0.115,0.101 -0.29,0.09 -0.391,-0.025l-0.482,-0.546c-0.117,-0.132 -0.305,-0.177 -0.469,-0.111c-0.164,0.066 -0.269,0.229 -0.261,0.406c0.056,1.306 -0.824,2.51 -2.144,2.816c-2.33,0.539 -7.524,-0.241 -9.672,-0.605c1.769,-1.271 6.092,-4.255 8.421,-4.794c0.793,-0.184 1.585,-0.007 2.205,0.423c0.172,0.119 0.406,0.093 0.547,-0.062l0.022,-0.022c0.115,-0.102 0.29,-0.091 0.392,0.024l0.041,0.047c0.029,0.21 0.118,0.413 0.268,0.583l1.582,1.792Zm-0.955,-2.345l-0.028,-0.037l-0.022,-0.043l-0.009,-0.028c-0.006,-0.018 -0.009,-0.037 -0.01,-0.056l-0,-0.031c0.002,-0.042 0.013,-0.083 0.033,-0.12c0.007,-0.013 0.015,-0.026 0.024,-0.038l0.036,-0.038l0.026,-0.021l0.047,-0.026l0.026,-0.009l0.052,-0.012l0.05,-0.001l0.046,0.007l0.037,0.011c0.04,0.016 0.077,0.041 0.107,0.075l1.863,2.111l0.03,0.044l0.021,0.05l0.011,0.053l0.001,0.005c0.006,0.068 -0.013,0.138 -0.056,0.194l-0.037,0.039l-0.043,0.031l-0.022,0.012l-0.04,0.015l-0.047,0.01c-0.052,0.005 -0.104,-0.003 -0.151,-0.026c-0.009,-0.004 -0.017,-0.008 -0.025,-0.013l-0.033,-0.024l-0.072,-0.077l-1.815,-2.057Zm1.285,-0.43c-0.011,-0.074 0.007,-0.15 0.054,-0.212l0.037,-0.039c0.024,-0.021 0.051,-0.038 0.079,-0.049l0.052,-0.015l0.053,-0.005l0.053,0.005l0.048,0.014c0.024,0.009 0.047,0.022 0.068,0.039l0.038,0.035l1.862,2.111l0.031,0.044l0.021,0.049l0.01,0.042c0.011,0.073 -0.007,0.15 -0.054,0.211l-0.037,0.039l-0.025,0.02l-0.036,0.021l-0.044,0.017l-0.041,0.009l-0.041,0.003l-0.03,-0.002l-0.04,-0.008l-0.037,-0.013c-0.011,-0.005 -0.022,-0.011 -0.033,-0.017c-0.016,-0.01 -0.031,-0.021 -0.045,-0.035l-0.104,-0.115l-1.773,-2.009c-0.034,-0.039 -0.057,-0.088 -0.066,-0.14Zm3.177,1.844l-1.759,-1.993c-0.035,-0.04 -0.057,-0.089 -0.066,-0.141c-0.007,-0.046 -0.002,-0.094 0.014,-0.138c0.009,-0.026 0.022,-0.05 0.038,-0.071l0.034,-0.038l0.005,-0.004c0.018,-0.016 0.038,-0.029 0.059,-0.04l0.035,-0.014c0.007,-0.003 0.014,-0.005 0.021,-0.007c0.036,-0.009 0.073,-0.01 0.109,-0.005l0.046,0.011l0.015,0.005c0.039,0.016 0.076,0.041 0.106,0.075l1.863,2.111l0.019,0.025l0.025,0.049l0.014,0.047c0.001,0.004 0.002,0.008 0.002,0.011c0.009,0.054 0.002,0.109 -0.021,0.159l-0.014,0.027c-0.014,0.023 -0.031,0.045 -0.052,0.064l-0.04,0.03l-0.039,0.02l-0.027,0.01c-0.021,0.006 -0.043,0.01 -0.065,0.011l-0.054,-0.002l-0.035,-0.007l-0.028,-0.009c-0.022,-0.009 -0.042,-0.02 -0.061,-0.033c-0.004,-0.003 -0.008,-0.006 -0.012,-0.01l-0.132,-0.143Zm0.914,-1.065l12.526,-2.854l-0.206,-0.81l-12.949,2.951l0.629,0.713Zm5.258,-2.911l2.875,-0.656c0.04,-0.094 0.075,-0.191 0.105,-0.29c0.248,-0.817 0.202,-1.658 -0.021,-2.414c-0.04,-0.136 -0.087,-0.269 -0.142,-0.4c-0.49,1.756 -1.631,2.933 -2.817,3.76Zm9.771,-1.37l0.509,0.74l8.287,-1.888c0.225,-0.051 0.366,-0.275 0.314,-0.5c-0.051,-0.225 -0.275,-0.365 -0.499,-0.314l-8.611,1.962Zm-5.176,0.322l2.308,-0.525l-0.067,-0.332c-0.062,-0.293 -0.126,-0.572 -0.217,-0.85c-0.382,-1.167 -0.884,-2.209 -1.494,-2.976c-0.514,-0.604 -1.07,-1.124 -1.644,-1.591c-0.248,-0.203 -0.499,-0.396 -0.749,-0.582c0.148,0.445 0.251,0.912 0.298,1.41c0.008,0.093 0.015,0.186 0.021,0.277c0.674,0.744 1.112,1.571 1.356,2.439c0.244,0.866 0.262,1.775 0.188,2.73Zm-14.66,-9.317c-0.269,-0.472 -0.455,-0.956 -0.566,-1.436l-0.013,0.008c-0.482,0.282 -1.074,0.299 -1.572,0.046c-0.498,-0.254 -0.832,-0.743 -0.887,-1.299l-0.166,-1.671c1.327,-1.344 3.399,-2.776 5.88,-3.963c2.372,-1.136 4.684,-1.839 6.525,-2.065l0.417,0.291c0.457,0.321 0.72,0.852 0.697,1.41c-0.019,0.489 -0.257,0.94 -0.64,1.234c0.299,0.283 0.577,0.612 0.822,0.987c0.205,0.313 0.372,0.634 0.502,0.956c1.612,-1.17 2.919,-2.363 3.826,-3.485c0.588,-0.728 1.005,-1.421 1.212,-2.055c0.098,-0.3 0.148,-0.585 0.142,-0.85c-0.846,-0.51 -2.211,-0.66 -3.902,-0.522c-2.85,0.232 -6.59,1.317 -10.438,3.158c-4.049,1.938 -7.37,4.307 -9.304,6.469c-1.131,1.264 -1.794,2.432 -1.767,3.389c0.141,0.084 0.298,0.158 0.469,0.223c0.625,0.237 1.425,0.348 2.361,0.346c1.759,-0.003 3.974,-0.403 6.402,-1.171Zm1.533,-0.689l0.221,0.319l0.219,0.264l0.234,0.238l0.168,0.147c0.827,0.684 1.82,0.89 2.517,0.433c0.944,-0.618 0.992,-2.215 0.108,-3.565c-0.883,-1.35 -2.367,-1.944 -3.31,-1.326c-0.926,0.606 -0.99,2.156 -0.157,3.49Zm-5.069,-18.595c0.083,0.001 0.167,0.003 0.25,0.006l0.21,0.012c0.132,0.009 0.264,0.021 0.396,0.036l0.198,0.025c0.236,0.033 0.472,0.075 0.705,0.123l0.339,0.077l0.327,0.084l0.365,0.105c0.256,0.078 0.503,0.162 0.739,0.249c0.095,0.035 0.188,0.071 0.279,0.108c0.067,0.026 0.133,0.053 0.198,0.081c0.233,0.097 0.449,0.196 0.644,0.294c0.027,0.014 0.054,0.027 0.081,0.041c0.732,0.376 1.41,0.751 2.035,1.115l0.224,0.132c0.086,0.051 0.171,0.101 0.254,0.152c0.378,0.227 0.733,0.449 1.067,0.665c0.05,0.032 0.099,0.064 0.148,0.096c0.834,0.544 1.528,1.045 2.084,1.471l0.285,0.209l0.238,0.148l0.175,0.094c0.693,0.349 1.481,0.483 2.261,0.374l0.494,-0.074l0.145,-0.019l0.268,-0.034c0.087,-0.01 0.174,-0.019 0.26,-0.028c1.237,-0.126 2.314,-0.097 3.165,0.099l0.096,0.023c0.096,0.024 0.189,0.051 0.278,0.079c0.411,0.131 0.753,0.307 1.007,0.539l-0.315,-0.084l-0.383,-0.078l-0.405,-0.06l-0.482,-0.046l-0.508,-0.022l-0.383,-0.002l-0.364,0.009l-0.375,0.02l-0.255,0.018c-0.841,0.069 -1.758,0.209 -2.732,0.419c-2.25,0.485 -4.803,1.342 -7.421,2.547c-0.192,0.089 -0.385,0.179 -0.578,0.272c-4.165,1.993 -7.576,4.441 -9.566,6.665c-0.998,1.116 -1.637,2.191 -1.874,3.135c-0.202,-0.513 -0.109,-1.127 0.198,-1.807l0.094,-0.197l0.138,-0.259l0.15,-0.254c0.527,-0.852 1.333,-1.766 2.363,-2.698l0.296,-0.262l0.437,-0.372l0.544,-0.438l0.39,-0.301l0.039,-0.129c0.12,-0.394 0.228,-0.785 0.327,-1.168l0.046,-0.18c0.132,-0.531 0.246,-1.048 0.343,-1.545l0.101,-0.54l0.086,-0.501l0.068,-0.438l0.061,-0.437l0.074,-0.589l0.058,-0.531l0.052,-0.572l0.042,-0.59l0.026,-0.501l0.015,-0.584l0.001,-0.041l-0.798,-0.173l-0.781,1.702c-0.239,-0.281 -0.545,-0.682 -0.805,-1.158l-0.095,-0.183l-0.104,-0.22c-0.026,-0.059 -0.051,-0.119 -0.075,-0.18c-0.038,-0.095 -0.072,-0.192 -0.103,-0.291c-0.023,-0.076 -0.045,-0.153 -0.064,-0.231l-0.012,-0.051c-0.016,-0.072 -0.03,-0.146 -0.041,-0.219c-0.058,-0.369 -0.051,-0.752 0.056,-1.135l0.003,-0.009c0.065,-0.23 0.166,-0.461 0.312,-0.688l0.128,-0.184c0.031,-0.042 0.063,-0.082 0.096,-0.12c0.064,-0.075 0.132,-0.145 0.202,-0.21l0.155,-0.131l0.185,-0.131l0.05,-0.031c0.046,-0.028 0.093,-0.055 0.14,-0.08c0.024,-0.013 0.048,-0.025 0.072,-0.037c0.067,-0.033 0.135,-0.063 0.204,-0.092c0.025,-0.01 0.049,-0.019 0.074,-0.029c0.203,-0.076 0.418,-0.134 0.641,-0.175l0.226,-0.036l0.301,-0.032l0.143,-0.009c0.067,-0.003 0.135,-0.005 0.202,-0.007c0.055,-0.001 0.11,-0.001 0.165,-0.001Zm11.682,12.722l-0.223,-0.15l-0.129,-0.075c-0.204,-0.114 -0.412,-0.199 -0.618,-0.254c0.481,1.797 1.379,3.204 2.334,4.476c0.396,-0.773 0.264,-1.947 -0.41,-2.978c-0.273,-0.416 -0.602,-0.76 -0.954,-1.019Z" style="fill:#dcfeff;"/>
</svg>
