<svg clip-rule="evenodd" fill-rule="evenodd" stroke-linejoin="round" stroke-miterlimit="2" viewBox="0 0 100 125" xmlns="http://www.w3.org/2000/svg">
<path d="m38.063 64.344c0.72 1.158 1.326 2.467 1.999 3.689 0.844 1.532 1.799 2.928 3.08 3.868 1.28 0.94 2.9 1.433 4.617 1.78 1.5 0.303 3.076 0.499 4.499 0.905 0.661 0.189 1.352-0.194 1.54-0.855 0.189-0.661-0.194-1.352-0.855-1.541-1.484-0.424-3.127-0.636-4.69-0.952-1.346-0.272-2.633-0.61-3.637-1.346-1.003-0.736-1.71-1.861-2.371-3.062-0.769-1.395-1.461-2.896-2.31-4.183-0.023-0.035-0.048-0.069-0.074-0.101l0.739-0.739c0.03 0.024 0.061 0.047 0.094 0.069 4.973 3.33 5.8 5.499 9.944 8.415 3.396 2.389 11.603 6.575 14.917 9.076 0.549 0.414 1.331 0.305 1.746-0.244 0.414-0.549 0.304-1.331-0.245-1.745-1.161-0.876-2.92-1.959-4.862-3.099 0.376-0.369 0.49-0.952 0.243-1.448-0.397-0.793-0.635-1.712-0.955-2.568-0.419-1.118-0.972-2.132-1.888-2.843-0.848-0.658-2.159-1.209-3.616-1.726-1.87-0.663-4.011-1.283-5.431-2.238-2.268-1.526-3.803-3.926-5.699-5.897l2.007-2.007c1.134 1.716 2.084 3.859 3.198 5.624 0.914 1.449 1.95 2.653 3.193 3.337 1.557 0.856 3.715 0.716 5.851 0.382 1.625-0.254 3.225-0.658 4.323-0.292 0.888 0.296 1.522 0.992 2.127 1.746 0.788 0.98 1.508 2.075 2.37 2.937 0.486 0.486 1.276 0.486 1.762-0 0.486-0.487 0.486-1.276-0-1.762-0.8-0.8-1.458-1.826-2.189-2.736-0.914-1.138-1.941-2.102-3.282-2.549-1.394-0.465-3.433-0.129-5.497 0.194-1.553 0.243-3.131 0.519-4.264-0.104-1.167-0.642-2.015-1.963-2.839-3.407-0.967-1.696-1.857-3.578-2.905-5.086-0.018-0.026-0.037-0.051-0.057-0.075l0.41-0.41c0.571-0.571 0.891-1.345 0.891-2.153s-0.32-1.582-0.891-2.153c-0.151-0.151-0.307-0.306-0.467-0.466-2.046-2.047-4.823-3.197-7.717-3.197-2.895-0-5.671 1.15-7.718 3.197h-1e-3c-2.047 2.047-3.196 4.823-3.196 7.718s1.149 5.671 3.196 7.718l0.466 0.466c0.572 0.571 1.346 0.892 2.154 0.892 0.807-0 1.582-0.321 2.153-0.892l0.137-0.137zm5.023-5.023-0.695 0.695c4.721 3.226 5.606 5.37 9.68 8.237 1.738 1.222 4.727 2.913 7.682 4.611-0.209-0.57-0.393-1.16-0.605-1.726-0.252-0.674-0.53-1.321-1.082-1.749-0.872-0.677-2.366-1.158-3.913-1.692-1.801-0.62-3.672-1.283-4.997-2.173-2.4-1.615-4.065-4.115-6.07-6.203zm-2.503-11.447c1.719-0 3.115 1.116 3.115 2.492-0 1.375-1.396 2.492-3.115 2.492s-3.115-1.117-3.115-2.492c-0-1.376 1.396-2.492 3.115-2.492z" fill="#030a1d"/>
<path d="m23.476 25.702c-0.103-0.336-0.217-0.681-0.343-1.036s-0.25-0.709-0.371-1.064h-3.78c-0.121 0.355-0.245 0.709-0.371 1.064s-0.24 0.7-0.343 1.036h-2.268c0.364-1.045 0.709-2.011 1.036-2.898s0.646-1.722 0.959-2.506 0.621-1.528 0.924-2.233 0.618-1.393 0.945-2.065h2.086c0.317 0.672 0.63 1.36 0.938 2.065s0.618 1.449 0.931 2.233 0.632 1.619 0.959 2.506 0.672 1.853 1.036 2.898h-2.338zm-2.618-7.504c-0.047 0.14-0.117 0.331-0.21 0.574s-0.201 0.523-0.322 0.84-0.254 0.667-0.399 1.05-0.292 0.784-0.441 1.204h2.758c-0.149-0.42-0.294-0.821-0.434-1.204s-0.273-0.733-0.399-1.05-0.236-0.597-0.329-0.84-0.168-0.434-0.224-0.574z" fill="#030a1d" fill-rule="nonzero"/>
<path d="m76.524 99.298c0.103 0.336 0.217 0.681 0.343 1.036s0.25 0.709 0.371 1.064h3.78c0.121-0.355 0.245-0.709 0.371-1.064s0.24-0.7 0.343-1.036h2.268c-0.364 1.045-0.709 2.011-1.036 2.898s-0.646 1.722-0.959 2.506-0.621 1.528-0.924 2.233-0.618 1.393-0.945 2.065h-2.086c-0.317-0.672-0.63-1.36-0.938-2.065s-0.618-1.449-0.931-2.233-0.632-1.619-0.959-2.506-0.672-1.853-1.036-2.898h2.338zm2.618 7.504c0.047-0.14 0.117-0.331 0.21-0.574s0.201-0.523 0.322-0.84 0.254-0.667 0.399-1.05 0.292-0.784 0.441-1.204h-2.758c0.149 0.42 0.294 0.821 0.434 1.204s0.273 0.733 0.399 1.05 0.236 0.597 0.329 0.84 0.168 0.434 0.224 0.574z" fill="#030a1d" fill-rule="nonzero"/>
<path d="m76.048 83.751-0.047 0.094c-0.242 0.484-0.476 0.969-0.476 1.453-0 1 0.833 2 1 3 0.164 0.986-0 3-0 3h3.546c0.034-0.908 0.059-2.228-0.041-2.929-0.068-0.475-0.304-0.926-0.514-1.375-0.264-0.564-0.491-1.126-0.491-1.696-0-0.572 0.266-1.151 0.552-1.724 0.214-0.427 0.448-0.848 0.448-1.276-0-0.928-0.948-2.776-0.948-2.776-0.123-0.247-0.023-0.548 0.224-0.671 0.247-0.124 0.547-0.023 0.671 0.223-0 0 1.053 2.152 1.053 3.224-0 0.572-0.267 1.151-0.553 1.724-0.214 0.427-0.447 0.848-0.447 1.276-0 0.43 0.198 0.846 0.397 1.272 0.252 0.539 0.516 1.088 0.598 1.657 0.105 0.736 0.082 2.116 0.049 3.071h2.832s0.223-2.025-0-3c-0.23-1-1.314-2-1.376-3-0.063-1 1-2 1-3s-0.489-2.079-1-3c-0.834-1.5-4-6-4-6s-2.667 4.5-3 6c-0.229 1.029 1 2 1 3-0 0.484-0.235 0.969-0.477 1.453z" fill="#030a1d"/>
<path d="m23.952 41.249 0.047-0.094c0.242-0.484 0.476-0.969 0.476-1.453 0-1-0.833-2-1-3-0.164-0.986 0-3 0-3h-3.546c-0.034 0.908-0.059 2.228 0.041 2.929 0.068 0.475 0.304 0.926 0.514 1.375 0.264 0.564 0.491 1.126 0.491 1.696 0 0.572-0.266 1.151-0.552 1.724-0.214 0.427-0.448 0.848-0.448 1.276 0 0.928 0.948 2.776 0.948 2.776 0.123 0.247 0.023 0.548-0.224 0.671-0.247 0.124-0.547 0.023-0.671-0.223 0-0-1.053-2.152-1.053-3.224 0-0.572 0.267-1.151 0.553-1.724 0.214-0.427 0.447-0.848 0.447-1.276 0-0.43-0.198-0.846-0.397-1.272-0.252-0.539-0.516-1.088-0.598-1.657-0.105-0.736-0.082-2.116-0.049-3.071h-2.832s-0.223 2.025 0 3c0.23 1 1.314 2 1.376 3 0.063 1-1 2-1 3s0.489 2.079 1 3c0.834 1.5 4 6 4 6s2.667-4.5 3-6c0.229-1.029-1-2-1-3 0-0.484 0.235-0.969 0.477-1.453z" fill="#030a1d"/>
</svg>
