<svg clip-rule="evenodd" fill-rule="evenodd" stroke-linejoin="round" stroke-miterlimit="2" viewBox="0 0 100 125" xmlns="http://www.w3.org/2000/svg">
    <g fill="url(#b)">
        <path d="m96.456 21.48v9.023c-0 0.308-0.123 0.604-0.341 0.823-0.218 0.218-0.514 0.341-0.823 0.341h-0.258c-0.432-0-0.793-0.327-0.836-0.757l-0.506-5.063h-1.746l-0.499 4.993c-0.047 0.469-0.442 0.827-0.914 0.827h-0.187c-0.309-0-0.605-0.123-0.823-0.341-0.218-0.219-0.341-0.515-0.341-0.823v-9.021l-2.917 1.168c-0.437 0.174-0.936 0.072-1.269-0.261-2e-3 -3e-3 -5e-3 -6e-3 -8e-3 -8e-3 -0.232-0.232-0.356-0.55-0.343-0.877 0.012-0.328 0.161-0.635 0.41-0.848 1.476-1.265 4.127-3.537 4.127-3.537v-0.975c-1.559-0.903-2.753-2.368-3.304-4.117h-0.624c-0.643-0-1.164-0.521-1.164-1.164v-2.037c0-0.643 0.521-1.164 1.164-1.164h0.624c0.928-2.949 3.686-5.091 6.941-5.091s6.013 2.142 6.94 5.091h0.625c0.643 0 1.164 0.521 1.164 1.164v2.037c-0 0.643-0.521 1.164-1.164 1.164h-0.625c-0.55 1.749-1.743 3.214-3.303 4.117v0.972s2.664 2.284 4.138 3.549c0.246 0.211 0.393 0.515 0.405 0.838 0.013 0.324-0.11 0.639-0.339 0.868-8e-3 8e-3 -0.016 0.016-0.024 0.023-0.329 0.33-0.824 0.431-1.256 0.258-1.059-0.425-2.924-1.172-2.924-1.172zm-3.637-13.818c1.204 0 2.182 0.978 2.182 2.183 0 1.204-0.978 2.182-2.182 2.182s-2.182-0.978-2.182-2.182c-0-1.205 0.978-2.183 2.182-2.183z"/>
        <path d="m110.16 52.313v9.023c-0 0.309-0.123 0.605-0.341 0.823s-0.514 0.341-0.823 0.341h-0.258c-0.432 0-0.793-0.327-0.836-0.756l-0.506-5.063h-1.746l-0.499 4.992c-0.047 0.47-0.442 0.827-0.914 0.827h-0.187c-0.309 0-0.605-0.123-0.823-0.341s-0.341-0.514-0.341-0.823v-9.02l-2.917 1.167c-0.437 0.175-0.936 0.072-1.269-0.261l-8e-3 -8e-3c-0.231-0.232-0.356-0.549-0.343-0.877 0.012-0.327 0.161-0.634 0.41-0.848 1.476-1.265 4.127-3.537 4.127-3.537v-0.974c-1.559-0.903-2.753-2.368-3.303-4.118h-0.625c-0.643 0-1.164-0.521-1.164-1.164v-2.036c0-0.643 0.521-1.164 1.164-1.164h0.625c0.927-2.95 3.685-5.092 6.94-5.092s6.013 2.142 6.94 5.092h0.625c0.643-0 1.164 0.521 1.164 1.164v2.036c-0 0.643-0.521 1.164-1.164 1.164h-0.625c-0.55 1.749-1.743 3.215-3.303 4.118v0.971s2.664 2.285 4.138 3.549c0.246 0.211 0.393 0.515 0.406 0.839 0.012 0.324-0.111 0.638-0.34 0.867l-0.024 0.024c-0.329 0.329-0.824 0.431-1.256 0.257-1.059-0.424-2.924-1.172-2.924-1.172zm-3.637-13.817c1.204-0 2.182 0.978 2.182 2.182s-0.978 2.182-2.182 2.182-2.182-0.978-2.182-2.182 0.978-2.182 2.182-2.182z"/>
        <path d="m-10.164 74.424v-9.023c0-0.308 0.123-0.604 0.341-0.823 0.218-0.218 0.514-0.341 0.823-0.341h0.258c0.432 0 0.793 0.327 0.836 0.757l0.506 5.063h1.746l0.499-4.993c0.047-0.469 0.442-0.827 0.914-0.827h0.187c0.309 0 0.605 0.123 0.823 0.341 0.218 0.219 0.341 0.515 0.341 0.823v9.021l2.917-1.168c0.437-0.174 0.936-0.072 1.269 0.261 2e-3 3e-3 5e-3 6e-3 8e-3 8e-3 0.231 0.232 0.356 0.55 0.343 0.877-0.012 0.328-0.161 0.635-0.41 0.848-1.476 1.265-4.127 3.537-4.127 3.537v0.975c1.559 0.903 2.753 2.368 3.303 4.117h0.625c0.643 0 1.164 0.521 1.164 1.164v2.037c-0 0.643-0.521 1.164-1.164 1.164h-0.625c-0.927 2.949-3.685 5.091-6.94 5.091s-6.013-2.142-6.94-5.091h-0.625c-0.643-0-1.164-0.521-1.164-1.164v-2.037c0-0.643 0.521-1.164 1.164-1.164h0.625c0.55-1.749 1.743-3.214 3.303-4.117v-0.972s-2.664-2.284-4.138-3.549c-0.246-0.211-0.393-0.515-0.406-0.838-0.012-0.324 0.111-0.639 0.34-0.868 8e-3 -8e-3 0.016-0.016 0.024-0.023 0.329-0.33 0.824-0.431 1.256-0.258 1.059 0.425 2.924 1.172 2.924 1.172zm3.637 13.818c-1.204-0-2.182-0.978-2.182-2.183-0-1.204 0.978-2.182 2.182-2.182s2.182 0.978 2.182 2.182c0 1.205-0.978 2.183-2.182 2.183z"/>
        <path d="m3.064 103.52v-9.023c-0-0.308 0.123-0.604 0.341-0.823 0.218-0.218 0.514-0.341 0.823-0.341h0.258c0.432 0 0.793 0.327 0.836 0.757l0.506 5.063h1.746l0.499-4.993c0.047-0.469 0.442-0.827 0.914-0.827h0.187c0.309 0 0.605 0.123 0.823 0.341 0.218 0.219 0.341 0.515 0.341 0.823v9.021l2.917-1.168c0.437-0.174 0.936-0.072 1.269 0.261 2e-3 3e-3 5e-3 6e-3 8e-3 8e-3 0.231 0.232 0.356 0.55 0.343 0.877-0.012 0.328-0.161 0.635-0.41 0.848-1.476 1.265-4.127 3.537-4.127 3.537v0.975c1.559 0.903 2.753 2.368 3.303 4.117h0.625c0.643 0 1.164 0.521 1.164 1.164v2.037c-0 0.643-0.521 1.164-1.164 1.164h-0.625c-0.927 2.949-3.685 5.091-6.94 5.091s-6.013-2.142-6.94-5.091h-0.625c-0.643-0-1.164-0.521-1.164-1.164v-2.037c0-0.643 0.521-1.164 1.164-1.164h0.625c0.55-1.749 1.743-3.214 3.303-4.117v-0.972s-2.664-2.284-4.138-3.549c-0.246-0.211-0.393-0.515-0.406-0.838-0.012-0.324 0.111-0.639 0.34-0.868 8e-3 -8e-3 0.016-0.016 0.024-0.023 0.329-0.33 0.824-0.431 1.256-0.258 1.059 0.425 2.924 1.172 2.924 1.172zm3.637 13.818c-1.204-0-2.182-0.978-2.182-2.183-0-1.204 0.978-2.182 2.182-2.182s2.182 0.978 2.182 2.182c0 1.205-0.978 2.183-2.182 2.183z"/>
        <path d="m71.619 21.48v9.023c0 0.308-0.122 0.604-0.34 0.823-0.219 0.218-0.515 0.341-0.823 0.341h-0.259c-0.431-0-0.792-0.327-0.835-0.757l-0.507-5.063h-1.745l-0.5 4.993c-0.047 0.469-0.442 0.827-0.913 0.827h-0.188c-0.308-0-0.604-0.123-0.823-0.341-0.218-0.219-0.341-0.515-0.341-0.823v-9.021l-2.916 1.168c-0.437 0.174-0.936 0.072-1.269-0.261l-8e-3 -8e-3c-0.232-0.232-0.357-0.55-0.344-0.877 0.013-0.328 0.161-0.635 0.41-0.848 1.476-1.265 4.127-3.537 4.127-3.537v-0.975c-1.559-0.903-2.753-2.368-3.303-4.117h-0.625c-0.642-0-1.163-0.521-1.163-1.164v-2.037c-0-0.643 0.521-1.164 1.163-1.164h0.625c0.927-2.949 3.686-5.091 6.94-5.091 3.255-0 6.013 2.142 6.941 5.091h0.624c0.643 0 1.164 0.521 1.164 1.164v2.037c0 0.643-0.521 1.164-1.164 1.164h-0.624c-0.55 1.749-1.744 3.214-3.304 4.117v0.972s2.664 2.284 4.139 3.549c0.246 0.211 0.393 0.515 0.405 0.838 0.012 0.324-0.111 0.639-0.34 0.868l-0.023 0.023c-0.33 0.33-0.824 0.431-1.257 0.258-1.059-0.425-2.924-1.172-2.924-1.172zm-3.637-13.818c1.205 0 2.183 0.978 2.183 2.183-0 1.204-0.978 2.182-2.183 2.182-1.204-0-2.182-0.978-2.182-2.182 0-1.205 0.978-2.183 2.182-2.183z"/>
        <path d="m85.328 52.313v9.023c-0 0.309-0.123 0.605-0.341 0.823-0.219 0.218-0.515 0.341-0.823 0.341h-0.259c-0.431 0-0.792-0.327-0.835-0.756l-0.507-5.063h-1.745l-0.5 4.992c-0.047 0.47-0.441 0.827-0.913 0.827h-0.188c-0.308 0-0.604-0.123-0.823-0.341-0.218-0.218-0.34-0.514-0.34-0.823v-9.02l-2.917 1.167c-0.437 0.175-0.936 0.072-1.269-0.261-3e-3 -2e-3 -6e-3 -5e-3 -8e-3 -8e-3 -0.232-0.232-0.356-0.549-0.344-0.877 0.013-0.327 0.161-0.634 0.41-0.848 1.476-1.265 4.128-3.537 4.128-3.537v-0.974c-1.56-0.903-2.754-2.368-3.304-4.118h-0.624c-0.643 0-1.164-0.521-1.164-1.164v-2.036c-0-0.643 0.521-1.164 1.164-1.164h0.624c0.928-2.95 3.686-5.092 6.941-5.092 3.254 0 6.012 2.142 6.94 5.092h0.624c0.643-0 1.164 0.521 1.164 1.164v2.036c0 0.643-0.521 1.164-1.164 1.164h-0.624c-0.55 1.749-1.744 3.215-3.303 4.118v0.971s2.664 2.285 4.138 3.549c0.246 0.211 0.393 0.515 0.405 0.839s-0.111 0.638-0.34 0.867c-8e-3 8e-3 -0.016 0.016-0.023 0.024-0.33 0.329-0.824 0.431-1.257 0.257-1.059-0.424-2.923-1.172-2.923-1.172zm-3.637-13.817c1.204-0 2.182 0.978 2.182 2.182s-0.978 2.182-2.182 2.182c-1.205 0-2.183-0.978-2.183-2.182s0.978-2.182 2.183-2.182z"/>
        <path d="m14.672 74.424v-9.023c0-0.308 0.123-0.604 0.341-0.823 0.219-0.218 0.515-0.341 0.823-0.341h0.259c0.431 0 0.792 0.327 0.835 0.757l0.507 5.063h1.745l0.5-4.993c0.047-0.469 0.441-0.827 0.913-0.827h0.188c0.308 0 0.604 0.123 0.823 0.341 0.218 0.219 0.34 0.515 0.34 0.823v9.021l2.917-1.168c0.437-0.174 0.936-0.072 1.269 0.261l8e-3 8e-3c0.232 0.232 0.356 0.55 0.344 0.877-0.013 0.328-0.161 0.635-0.41 0.848-1.476 1.265-4.128 3.537-4.128 3.537v0.975c1.56 0.903 2.754 2.368 3.304 4.117h0.624c0.643 0 1.164 0.521 1.164 1.164v2.037c0 0.643-0.521 1.164-1.164 1.164h-0.624c-0.928 2.949-3.686 5.091-6.941 5.091-3.254 0-6.012-2.142-6.94-5.091h-0.624c-0.643-0-1.164-0.521-1.164-1.164v-2.037c-0-0.643 0.521-1.164 1.164-1.164h0.624c0.55-1.749 1.744-3.214 3.303-4.117v-0.972s-2.664-2.284-4.138-3.549c-0.246-0.211-0.393-0.515-0.405-0.838-0.012-0.324 0.111-0.639 0.34-0.868l0.023-0.023c0.33-0.33 0.824-0.431 1.257-0.258 1.059 0.425 2.923 1.172 2.923 1.172zm3.637 13.818c-1.204-0-2.182-0.978-2.182-2.183 0-1.204 0.978-2.182 2.182-2.182 1.205 0 2.183 0.978 2.183 2.182-0 1.205-0.978 2.183-2.183 2.183z"/>
        <path d="m27.9 103.52v-9.023c0-0.308 0.123-0.604 0.341-0.823 0.219-0.218 0.515-0.341 0.823-0.341h0.259c0.431 0 0.792 0.327 0.835 0.757l0.507 5.063h1.745l0.5-4.993c0.047-0.469 0.441-0.827 0.913-0.827h0.188c0.308 0 0.604 0.123 0.823 0.341 0.218 0.219 0.34 0.515 0.34 0.823v9.021l2.917-1.168c0.437-0.174 0.936-0.072 1.269 0.261l8e-3 8e-3c0.232 0.232 0.356 0.55 0.344 0.877-0.013 0.328-0.161 0.635-0.41 0.848-1.476 1.265-4.128 3.537-4.128 3.537v0.975c1.56 0.903 2.754 2.368 3.304 4.117h0.624c0.643 0 1.164 0.521 1.164 1.164v2.037c0 0.643-0.521 1.164-1.164 1.164h-0.624c-0.928 2.949-3.686 5.091-6.941 5.091-3.254 0-6.012-2.142-6.94-5.091h-0.624c-0.643-0-1.164-0.521-1.164-1.164v-2.037c-0-0.643 0.521-1.164 1.164-1.164h0.624c0.55-1.749 1.744-3.214 3.303-4.117v-0.972s-2.664-2.284-4.138-3.549c-0.246-0.211-0.393-0.515-0.405-0.838-0.012-0.324 0.111-0.639 0.34-0.868l0.023-0.023c0.33-0.33 0.824-0.431 1.257-0.258 1.059 0.425 2.923 1.172 2.923 1.172zm3.637 13.818c-1.204-0-2.182-0.978-2.182-2.183 0-1.204 0.978-2.182 2.182-2.182 1.205 0 2.183 0.978 2.183 2.182-0 1.205-0.978 2.183-2.183 2.183z"/>
        <path d="m46.783 21.48v9.023c-0 0.308-0.123 0.604-0.341 0.823-0.218 0.218-0.514 0.341-0.823 0.341h-0.258c-0.432-0-0.793-0.327-0.836-0.757l-0.506-5.063h-1.746l-0.499 4.993c-0.047 0.469-0.442 0.827-0.914 0.827h-0.187c-0.309-0-0.605-0.123-0.823-0.341-0.218-0.219-0.341-0.515-0.341-0.823v-9.021l-2.917 1.168c-0.437 0.174-0.936 0.072-1.269-0.261-2e-3 -3e-3 -5e-3 -6e-3 -8e-3 -8e-3 -0.232-0.232-0.356-0.55-0.343-0.877 0.012-0.328 0.161-0.635 0.41-0.848 1.476-1.265 4.127-3.537 4.127-3.537v-0.975c-1.559-0.903-2.753-2.368-3.303-4.117h-0.625c-0.643-0-1.164-0.521-1.164-1.164v-2.037c0-0.643 0.521-1.164 1.164-1.164h0.625c0.927-2.949 3.685-5.091 6.94-5.091s6.013 2.142 6.94 5.091h0.625c0.643 0 1.164 0.521 1.164 1.164v2.037c-0 0.643-0.521 1.164-1.164 1.164h-0.625c-0.55 1.749-1.743 3.214-3.303 4.117v0.972s2.664 2.284 4.138 3.549c0.246 0.211 0.393 0.515 0.405 0.838 0.013 0.324-0.11 0.639-0.339 0.868-8e-3 8e-3 -0.016 0.016-0.024 0.023-0.329 0.33-0.824 0.431-1.256 0.258-1.059-0.425-2.924-1.172-2.924-1.172zm-3.637-13.818c1.204 0 2.182 0.978 2.182 2.183 0 1.204-0.978 2.182-2.182 2.182s-2.182-0.978-2.182-2.182c-0-1.205 0.978-2.183 2.182-2.183z"/>
        <path d="m60.491 52.313v9.023c0 0.309-0.123 0.605-0.341 0.823s-0.514 0.341-0.823 0.341h-0.258c-0.432 0-0.793-0.327-0.836-0.756l-0.506-5.063h-1.746l-0.499 4.992c-0.047 0.47-0.442 0.827-0.914 0.827h-0.187c-0.309 0-0.605-0.123-0.823-0.341s-0.341-0.514-0.341-0.823v-9.02l-2.917 1.167c-0.437 0.175-0.936 0.072-1.269-0.261l-8e-3 -8e-3c-0.231-0.232-0.356-0.549-0.343-0.877 0.012-0.327 0.161-0.634 0.41-0.848 1.476-1.265 4.127-3.537 4.127-3.537v-0.974c-1.559-0.903-2.753-2.368-3.303-4.118h-0.625c-0.643 0-1.164-0.521-1.164-1.164v-2.036c0-0.643 0.521-1.164 1.164-1.164h0.625c0.927-2.95 3.685-5.092 6.94-5.092s6.013 2.142 6.94 5.092h0.625c0.643-0 1.164 0.521 1.164 1.164v2.036c-0 0.643-0.521 1.164-1.164 1.164h-0.625c-0.55 1.749-1.743 3.215-3.303 4.118v0.971s2.664 2.285 4.138 3.549c0.246 0.211 0.393 0.515 0.406 0.839 0.012 0.324-0.111 0.638-0.34 0.867l-0.024 0.024c-0.329 0.329-0.824 0.431-1.256 0.257-1.059-0.424-2.924-1.172-2.924-1.172zm-3.637-13.817c1.204-0 2.182 0.978 2.182 2.182s-0.978 2.182-2.182 2.182-2.182-0.978-2.182-2.182 0.978-2.182 2.182-2.182z"/>
        <path d="m39.509 74.424v-9.023c-0-0.308 0.123-0.604 0.341-0.823 0.218-0.218 0.514-0.341 0.823-0.341h0.258c0.432 0 0.793 0.327 0.836 0.757l0.506 5.063h1.746l0.499-4.993c0.047-0.469 0.442-0.827 0.914-0.827h0.187c0.309 0 0.605 0.123 0.823 0.341 0.218 0.219 0.341 0.515 0.341 0.823v9.021l2.917-1.168c0.437-0.174 0.936-0.072 1.269 0.261 2e-3 3e-3 5e-3 6e-3 8e-3 8e-3 0.231 0.232 0.356 0.55 0.343 0.877-0.012 0.328-0.161 0.635-0.41 0.848-1.476 1.265-4.127 3.537-4.127 3.537v0.975c1.559 0.903 2.753 2.368 3.303 4.117h0.625c0.643 0 1.164 0.521 1.164 1.164v2.037c-0 0.643-0.521 1.164-1.164 1.164h-0.625c-0.927 2.949-3.685 5.091-6.94 5.091s-6.013-2.142-6.94-5.091h-0.625c-0.643-0-1.164-0.521-1.164-1.164v-2.037c0-0.643 0.521-1.164 1.164-1.164h0.625c0.55-1.749 1.743-3.214 3.303-4.117v-0.972s-2.664-2.284-4.138-3.549c-0.246-0.211-0.393-0.515-0.406-0.838-0.012-0.324 0.111-0.639 0.34-0.868 8e-3 -8e-3 0.016-0.016 0.024-0.023 0.329-0.33 0.824-0.431 1.256-0.258 1.059 0.425 2.924 1.172 2.924 1.172zm3.637 13.818c-1.204-0-2.182-0.978-2.182-2.183-0-1.204 0.978-2.182 2.182-2.182s2.182 0.978 2.182 2.182c0 1.205-0.978 2.183-2.182 2.183z"/>
        <path d="m52.737 103.52v-9.023c-0-0.308 0.123-0.604 0.341-0.823 0.218-0.218 0.514-0.341 0.823-0.341h0.258c0.432 0 0.793 0.327 0.836 0.757l0.506 5.063h1.746l0.499-4.993c0.047-0.469 0.442-0.827 0.914-0.827h0.187c0.309 0 0.605 0.123 0.823 0.341 0.218 0.219 0.341 0.515 0.341 0.823v9.021l2.917-1.168c0.437-0.174 0.936-0.072 1.269 0.261 2e-3 3e-3 5e-3 6e-3 8e-3 8e-3 0.231 0.232 0.356 0.55 0.343 0.877-0.012 0.328-0.161 0.635-0.41 0.848-1.476 1.265-4.127 3.537-4.127 3.537v0.975c1.559 0.903 2.753 2.368 3.303 4.117h0.625c0.643 0 1.164 0.521 1.164 1.164v2.037c-0 0.643-0.521 1.164-1.164 1.164h-0.625c-0.927 2.949-3.685 5.091-6.94 5.091s-6.013-2.142-6.94-5.091h-0.625c-0.643-0-1.164-0.521-1.164-1.164v-2.037c0-0.643 0.521-1.164 1.164-1.164h0.625c0.55-1.749 1.743-3.214 3.303-4.117v-0.972s-2.664-2.284-4.138-3.549c-0.246-0.211-0.393-0.515-0.406-0.838-0.012-0.324 0.111-0.639 0.34-0.868 8e-3 -8e-3 0.016-0.016 0.024-0.023 0.329-0.33 0.824-0.431 1.256-0.258 1.059 0.425 2.924 1.172 2.924 1.172zm3.637 13.818c-1.204-0-2.182-0.978-2.182-2.183-0-1.204 0.978-2.182 2.182-2.182s2.182 0.978 2.182 2.182c0 1.205-0.978 2.183-2.182 2.183z"/>
        <path d="m21.946 21.48v9.023c0 0.308-0.122 0.604-0.34 0.823-0.219 0.218-0.515 0.341-0.823 0.341h-0.259c-0.431-0-0.792-0.327-0.835-0.757l-0.507-5.063h-1.745l-0.5 4.993c-0.047 0.469-0.441 0.827-0.913 0.827h-0.188c-0.308-0-0.604-0.123-0.823-0.341-0.218-0.219-0.341-0.515-0.341-0.823v-9.021l-2.916 1.168c-0.437 0.174-0.936 0.072-1.269-0.261l-8e-3 -8e-3c-0.232-0.232-0.356-0.55-0.344-0.877 0.013-0.328 0.161-0.635 0.41-0.848 1.476-1.265 4.127-3.537 4.127-3.537v-0.975c-1.559-0.903-2.753-2.368-3.303-4.117h-0.624c-0.643-0-1.164-0.521-1.164-1.164v-2.037c-0-0.643 0.521-1.164 1.164-1.164h0.624c0.928-2.949 3.686-5.091 6.94-5.091 3.255-0 6.013 2.142 6.941 5.091h0.624c0.643 0 1.164 0.521 1.164 1.164v2.037c0 0.643-0.521 1.164-1.164 1.164h-0.624c-0.55 1.749-1.744 3.214-3.304 4.117v0.972s2.664 2.284 4.139 3.549c0.246 0.211 0.393 0.515 0.405 0.838 0.012 0.324-0.111 0.639-0.34 0.868l-0.023 0.023c-0.33 0.33-0.824 0.431-1.257 0.258-1.059-0.425-2.924-1.172-2.924-1.172zm-3.637-13.818c1.205 0 2.183 0.978 2.183 2.183-0 1.204-0.978 2.182-2.183 2.182-1.204-0-2.182-0.978-2.182-2.182 0-1.205 0.978-2.183 2.182-2.183z"/>
        <path d="m35.655 52.313v9.023c-0 0.309-0.123 0.605-0.341 0.823-0.219 0.218-0.515 0.341-0.823 0.341h-0.259c-0.431 0-0.792-0.327-0.835-0.756l-0.507-5.063h-1.745l-0.5 4.992c-0.046 0.47-0.441 0.827-0.913 0.827h-0.188c-0.308 0-0.604-0.123-0.823-0.341-0.218-0.218-0.34-0.514-0.34-0.823v-9.02l-2.917 1.167c-0.437 0.175-0.936 0.072-1.269-0.261-3e-3 -2e-3 -6e-3 -5e-3 -8e-3 -8e-3 -0.232-0.232-0.356-0.549-0.344-0.877 0.013-0.327 0.161-0.634 0.41-0.848 1.477-1.265 4.128-3.537 4.128-3.537v-0.974c-1.56-0.903-2.754-2.368-3.304-4.118h-0.624c-0.643 0-1.164-0.521-1.164-1.164v-2.036c-0-0.643 0.521-1.164 1.164-1.164h0.624c0.928-2.95 3.686-5.092 6.941-5.092 3.254 0 6.013 2.142 6.94 5.092h0.625c0.642-0 1.163 0.521 1.163 1.164v2.036c0 0.643-0.521 1.164-1.163 1.164h-0.625c-0.55 1.749-1.744 3.215-3.303 4.118v0.971s2.664 2.285 4.138 3.549c0.246 0.211 0.393 0.515 0.405 0.839 0.013 0.324-0.111 0.638-0.34 0.867-8e-3 8e-3 -0.015 0.016-0.023 0.024-0.33 0.329-0.824 0.431-1.257 0.257-1.058-0.424-2.923-1.172-2.923-1.172zm-3.637-13.817c1.204-0 2.182 0.978 2.182 2.182s-0.978 2.182-2.182 2.182c-1.205 0-2.183-0.978-2.183-2.182s0.978-2.182 2.183-2.182z"/>
        <path d="m64.345 74.424v-9.023c0-0.308 0.123-0.604 0.341-0.823 0.219-0.218 0.515-0.341 0.823-0.341h0.259c0.431 0 0.792 0.327 0.835 0.757l0.507 5.063h1.745l0.5-4.993c0.046-0.469 0.441-0.827 0.913-0.827h0.188c0.308 0 0.604 0.123 0.823 0.341 0.218 0.219 0.34 0.515 0.34 0.823v9.021l2.917-1.168c0.437-0.174 0.936-0.072 1.269 0.261l8e-3 8e-3c0.232 0.232 0.356 0.55 0.344 0.877-0.013 0.328-0.161 0.635-0.41 0.848-1.477 1.265-4.128 3.537-4.128 3.537v0.975c1.56 0.903 2.754 2.368 3.304 4.117h0.624c0.643 0 1.164 0.521 1.164 1.164v2.037c0 0.643-0.521 1.164-1.164 1.164h-0.624c-0.928 2.949-3.686 5.091-6.941 5.091-3.254 0-6.013-2.142-6.94-5.091h-0.625c-0.642-0-1.163-0.521-1.163-1.164v-2.037c-0-0.643 0.521-1.164 1.163-1.164h0.625c0.55-1.749 1.744-3.214 3.303-4.117v-0.972s-2.664-2.284-4.138-3.549c-0.246-0.211-0.393-0.515-0.405-0.838-0.013-0.324 0.111-0.639 0.34-0.868 8e-3 -8e-3 0.015-0.016 0.023-0.023 0.33-0.33 0.824-0.431 1.257-0.258 1.058 0.425 2.923 1.172 2.923 1.172zm3.637 13.818c-1.204-0-2.182-0.978-2.182-2.183 0-1.204 0.978-2.182 2.182-2.182 1.205 0 2.183 0.978 2.183 2.182-0 1.205-0.978 2.183-2.183 2.183z"/>
        <path d="m77.573 103.52v-9.023c0-0.308 0.123-0.604 0.341-0.823 0.219-0.218 0.515-0.341 0.823-0.341h0.259c0.431 0 0.792 0.327 0.835 0.757l0.507 5.063h1.745l0.5-4.993c0.046-0.469 0.441-0.827 0.913-0.827h0.188c0.308 0 0.604 0.123 0.823 0.341 0.218 0.219 0.34 0.515 0.34 0.823v9.021l2.917-1.168c0.437-0.174 0.936-0.072 1.269 0.261 3e-3 3e-3 5e-3 6e-3 8e-3 8e-3 0.232 0.232 0.356 0.55 0.344 0.877-0.013 0.328-0.161 0.635-0.41 0.848-1.477 1.265-4.128 3.537-4.128 3.537v0.975c1.56 0.903 2.754 2.368 3.304 4.117h0.624c0.643 0 1.164 0.521 1.164 1.164v2.037c0 0.643-0.521 1.164-1.164 1.164h-0.624c-0.928 2.949-3.686 5.091-6.941 5.091-3.254 0-6.013-2.142-6.94-5.091h-0.625c-0.642-0-1.163-0.521-1.163-1.164v-2.037c-0-0.643 0.521-1.164 1.163-1.164h0.625c0.55-1.749 1.744-3.214 3.303-4.117v-0.972s-2.664-2.284-4.138-3.549c-0.246-0.211-0.393-0.515-0.405-0.838-0.013-0.324 0.111-0.639 0.34-0.868 8e-3 -8e-3 0.015-0.016 0.023-0.023 0.33-0.33 0.824-0.431 1.256-0.258 1.059 0.425 2.924 1.172 2.924 1.172zm3.637 13.818c-1.204-0-2.182-0.978-2.182-2.183 0-1.204 0.978-2.182 2.182-2.182 1.205 0 2.183 0.978 2.183 2.182-0 1.205-0.978 2.183-2.183 2.183z"/>
        <path d="m-2.89 21.48v9.023c0 0.308-0.123 0.604-0.341 0.823-0.218 0.218-0.514 0.341-0.823 0.341h-0.258c-0.432-0-0.793-0.327-0.836-0.757l-0.506-5.063h-1.746l-0.499 4.993c-0.047 0.469-0.442 0.827-0.914 0.827h-0.187c-0.309-0-0.605-0.123-0.823-0.341-0.218-0.219-0.341-0.515-0.341-0.823v-9.021l-2.917 1.168c-0.437 0.174-0.936 0.072-1.269-0.261-2e-3 -3e-3 -5e-3 -6e-3 -8e-3 -8e-3 -0.231-0.232-0.356-0.55-0.343-0.877 0.012-0.328 0.161-0.635 0.41-0.848 1.476-1.265 4.127-3.537 4.127-3.537v-0.975c-1.559-0.903-2.753-2.368-3.303-4.117h-0.625c-0.643-0-1.164-0.521-1.164-1.164v-2.037c0-0.643 0.521-1.164 1.164-1.164h0.625c0.927-2.949 3.685-5.091 6.94-5.091s6.013 2.142 6.94 5.091h0.625c0.643 0 1.164 0.521 1.164 1.164v2.037c-0 0.643-0.521 1.164-1.164 1.164h-0.625c-0.55 1.749-1.743 3.214-3.303 4.117v0.972s2.664 2.284 4.138 3.549c0.246 0.211 0.393 0.515 0.406 0.838 0.012 0.324-0.111 0.639-0.34 0.868-8e-3 8e-3 -0.016 0.016-0.024 0.023-0.329 0.33-0.824 0.431-1.256 0.258-1.059-0.425-2.924-1.172-2.924-1.172zm-3.637-13.818c1.204 0 2.182 0.978 2.182 2.183 0 1.204-0.978 2.182-2.182 2.182s-2.182-0.978-2.182-2.182c-0-1.205 0.978-2.183 2.182-2.183z"/>
        <path d="m10.818 52.313v9.023c0 0.309-0.123 0.605-0.341 0.823s-0.514 0.341-0.823 0.341h-0.258c-0.431 0-0.793-0.327-0.836-0.756l-0.506-5.063h-1.746l-0.499 4.992c-0.047 0.47-0.442 0.827-0.913 0.827h-0.188c-0.309 0-0.605-0.123-0.823-0.341s-0.341-0.514-0.341-0.823v-9.02l-2.916 1.167c-0.438 0.175-0.937 0.072-1.269-0.261-3e-3 -2e-3 -6e-3 -5e-3 -9e-3 -8e-3 -0.231-0.232-0.356-0.549-0.343-0.877 0.012-0.327 0.161-0.634 0.41-0.848 1.476-1.265 4.127-3.537 4.127-3.537v-0.974c-1.559-0.903-2.753-2.368-3.303-4.118h-0.625c-0.643 0-1.164-0.521-1.164-1.164v-2.036c0-0.643 0.521-1.164 1.164-1.164h0.625c0.927-2.95 3.685-5.092 6.94-5.092s6.013 2.142 6.941 5.092h0.624c0.643-0 1.164 0.521 1.164 1.164v2.036c-0 0.643-0.521 1.164-1.164 1.164h-0.624c-0.55 1.749-1.744 3.215-3.304 4.118v0.971s2.664 2.285 4.138 3.549c0.246 0.211 0.393 0.515 0.406 0.839 0.012 0.324-0.111 0.638-0.34 0.867l-0.024 0.024c-0.329 0.329-0.823 0.431-1.256 0.257-1.059-0.424-2.924-1.172-2.924-1.172zm-3.637-13.817c1.204-0 2.182 0.978 2.182 2.182s-0.978 2.182-2.182 2.182-2.182-0.978-2.182-2.182 0.978-2.182 2.182-2.182z"/>
        <path d="m89.182 74.424v-9.023c-0-0.308 0.123-0.604 0.341-0.823 0.218-0.218 0.514-0.341 0.823-0.341h0.258c0.431 0 0.793 0.327 0.836 0.757l0.506 5.063h1.746l0.499-4.993c0.047-0.469 0.442-0.827 0.913-0.827h0.188c0.309 0 0.605 0.123 0.823 0.341 0.218 0.219 0.341 0.515 0.341 0.823v9.021l2.916-1.168c0.438-0.174 0.937-0.072 1.269 0.261 3e-3 3e-3 6e-3 6e-3 9e-3 8e-3 0.231 0.232 0.356 0.55 0.343 0.877-0.012 0.328-0.161 0.635-0.41 0.848-1.476 1.265-4.127 3.537-4.127 3.537v0.975c1.559 0.903 2.753 2.368 3.303 4.117h0.625c0.643 0 1.164 0.521 1.164 1.164v2.037c-0 0.643-0.521 1.164-1.164 1.164h-0.625c-0.927 2.949-3.685 5.091-6.94 5.091s-6.013-2.142-6.941-5.091h-0.624c-0.643-0-1.164-0.521-1.164-1.164v-2.037c0-0.643 0.521-1.164 1.164-1.164h0.624c0.55-1.749 1.744-3.214 3.304-4.117v-0.972s-2.664-2.284-4.138-3.549c-0.246-0.211-0.393-0.515-0.406-0.838-0.012-0.324 0.111-0.639 0.34-0.868 8e-3 -8e-3 0.016-0.016 0.024-0.023 0.329-0.33 0.823-0.431 1.256-0.258 1.059 0.425 2.924 1.172 2.924 1.172zm3.637 13.818c-1.204-0-2.182-0.978-2.182-2.183-0-1.204 0.978-2.182 2.182-2.182s2.182 0.978 2.182 2.182c0 1.205-0.978 2.183-2.182 2.183z"/>
        <path d="m102.41 103.52v-9.023c-0-0.308 0.123-0.604 0.341-0.823 0.218-0.218 0.514-0.341 0.823-0.341h0.258c0.431 0 0.793 0.327 0.836 0.757l0.506 5.063h1.746l0.499-4.993c0.047-0.469 0.442-0.827 0.913-0.827h0.188c0.309 0 0.605 0.123 0.823 0.341 0.218 0.219 0.341 0.515 0.341 0.823v9.021l2.916-1.168c0.437-0.174 0.937-0.072 1.269 0.261 3e-3 3e-3 6e-3 6e-3 9e-3 8e-3 0.231 0.232 0.356 0.55 0.343 0.877-0.012 0.328-0.161 0.635-0.41 0.848-1.476 1.265-4.127 3.537-4.127 3.537v0.975c1.559 0.903 2.753 2.368 3.303 4.117h0.625c0.643 0 1.164 0.521 1.164 1.164v2.037c-0 0.643-0.521 1.164-1.164 1.164h-0.625c-0.927 2.949-3.685 5.091-6.94 5.091s-6.013-2.142-6.941-5.091h-0.624c-0.643-0-1.164-0.521-1.164-1.164v-2.037c0-0.643 0.521-1.164 1.164-1.164h0.624c0.55-1.749 1.744-3.214 3.304-4.117v-0.972s-2.664-2.284-4.138-3.549c-0.246-0.211-0.393-0.515-0.406-0.838-0.012-0.324 0.111-0.639 0.34-0.868 8e-3 -8e-3 0.016-0.016 0.024-0.023 0.329-0.33 0.823-0.431 1.256-0.258 1.059 0.425 2.924 1.172 2.924 1.172zm3.637 13.818c-1.204-0-2.182-0.978-2.182-2.183-0-1.204 0.978-2.182 2.182-2.182s2.182 0.978 2.182 2.182c0 1.205-0.978 2.183-2.182 2.183z"/>
    </g>
    <defs>
        <radialGradient id="b" cx="0" cy="0" r="1" gradientTransform="matrix(-113.68 -125 125 -113.68 106.05 125)" gradientUnits="userSpaceOnUse"><stop stop-color="#556672" stop-opacity=".51765" offset="0"/><stop stop-color="#556672" stop-opacity=".16078" offset=".24"/><stop stop-color="#556672" stop-opacity=".047059" offset=".5"/><stop stop-color="#556672" stop-opacity=".71765" offset="1"/></radialGradient>
    </defs>
</svg>
