<svg viewBox="0 0 100 125" xmlns="http://www.w3.org/2000/svg">
        <path d="m66.642 40.17c-0.318 0.038-0.9 0.099-1.303 0.106-1.192 0.022-2.533-0.164-3.985-0.397-8.005-1.283-18.409-4.634-25.773-4.399-7.253 0.233-12.192 3.501-14.265 9.955-2.254 7.016-0.562 12.093 1.945 16.417 1.43 2.466 4.226 6.336 4.998 7.394l-0.499 0.768c-0.757 1.159-1.994 2.361-3.639 3.831-3.874 3.461-7.248 5.827-10.262 7.658-7.741 4.704-13.483 6.189-19.582 10.448-4.195 3.159-5.036 9.129-1.878 13.324 3.159 4.195 9.129 5.036 13.324 1.878 5.441-4.411 10.791-6.101 17.745-11.039 3.574-2.538 7.557-5.761 12.052-10.397 5.391-5.56 7.566-9.94 8.144-13.456 0.858-5.228-0.739-9.415-3.907-13.292-1.078-1.318-2.347-2.608-3.486-4.046-1.139-1.44-2.314-3.083-1.666-5.737-0.023 0.093-0.246-0.038-0.246-0.038s1.118-0.507 1.834-0.597c1.582-0.198 3.377-0.185 5.286-0.022 9.048 0.776 19.944 3.577 26.176 2.442 3.901-0.71 6.692-2.464 8.141-5.369 1.014-2.034 1.603-4.79 0.74-8.538-1.978-8.589-5.553-13.474-8.445-17.005-0.794-0.97-1.527-1.807-2.098-2.609-0.292-0.409-0.677-0.685-0.704-1.099-0.089-1.404 1.34-2.683 4.125-5.282 0.976-0.911 2.176-1.757 3.556-2.582 2.984-1.784 6.649-3.513 10.554-5.633 1.576-0.784 2.218-2.699 1.435-4.274-0.784-1.575-2.699-2.218-4.274-1.434-4.151 1.883-8.023 3.39-11.207 4.996-1.95 0.984-3.643 2.039-5.055 3.179-5.981 4.829-7.465 8.424-7.487 11.263-0.018 2.231 0.98 4.359 2.65 6.809 2.121 3.11 5.737 7.23 7.041 15.583 0.061 0.389 0.044 0.848 0.015 1.194z" fill="#dcfeff"/>
        <path d="m58.591 133.92c1.186-1.383 1.098-2.928 2.485-3.775 1.537-0.938 1.942-2.533 3.474-2.436 1.494 0.968 3.493 0.54 4.46-0.953 0.968-1.494 0.541-3.493-0.953-4.461-1.232-2.344-3.24-2.739-5.777-4.341-3.137-1.981-6.036-1.424-10.285-2.12-4.991 1.82-7.565 7.35-5.745 12.341s7.35 7.565 12.341 5.745z" fill="#a6c1c7"/>
        <path d="m96.908 126.87c0.522-5.481-0.751-11.137-3.907-16.549-2.815-4.827-6.913-9.364-8.497-13.907-0.627-1.802-1.052-3.617 0.734-5.26 1.872-1.722 3.468-2.486 5.061-2.201 3.838 0.685 6.875 3.448 8.499 3.921 1.631 0.664 3.493-0.122 4.156-1.752 0.664-1.631-0.122-3.493-1.752-4.156-0.765-0.407-1.696-1.632-3.046-2.783-2.18-1.856-4.995-3.432-8.285-4.048-3.172-0.594-6.716 0.121-10.9 2.621-4.657 2.782-6.382 6.548-7.202 10.38-1.057 4.938 0.89 10.64 3.263 16.647 1.815 4.593 4.475 9.254 3.208 13.351-1.031 5.152 2.314 10.171 7.466 11.202s10.171-2.315 11.202-7.466z" fill="#a6c1c7"/>
        <path d="m26.446 2.749c1.309 3.091 2.811 5.953 2.477 9.058-0.279 2.596-1.161 5.302-3.727 7.993-2.193 2.298-4.893 4.053-8.129 5.277-5.218 1.975-11.148 3.127-17.257 4.161-1.763 0.105-3.109 1.622-3.004 3.384 0.105 1.763 1.621 3.109 3.384 3.005 6.797 0.332 13.43 0.438 19.493-0.448 5.285-0.772 9.905-2.608 13.974-5.345 6.391-4.3 9.285-9.455 11.006-14.583 1.905-5.674 1.25-11.673 0.075-18-1.517-5.048-6.847-7.914-11.895-6.397s-7.914 6.847-6.397 11.895z" fill="#a6c1c7"/>
        <path d="m46.5 127.26c1.737-9.723 3.539-19.733 8.196-29.659 3.824-8.148 9.338-16.259 18.162-24.066 5.236-4.632 9.794-8.41 13.872-11.552 5.914-4.557 10.686-7.76 14.763-10.244 1.562-0.824 2.161-2.761 1.337-4.323s-2.761-2.161-4.323-1.337c-4.549 2.051-9.913 4.757-16.635 8.722-4.595 2.71-9.767 6.012-15.745 10.108-11.42 7.825-18.97 16.536-24.609 25.484-6.665 10.577-10.245 21.595-13.578 32.353-1.245 5.121 1.901 10.291 7.023 11.537 5.121 1.245 10.291-1.901 11.537-7.023z" fill="#dcfeff"/>
</svg>
