<svg clip-rule="evenodd" fill-rule="evenodd" stroke-linejoin="round" stroke-miterlimit="2" version="1.1" viewBox="0 0 100 125" xmlns="http://www.w3.org/2000/svg">
    <path d="m24.28 23c-0 0.42-0.072 0.805-0.217 1.155s-0.362 0.656-0.651 0.917-0.651 0.464-1.085 0.609-0.936 0.217-1.505 0.217c-0.653 0-1.197-0.091-1.631-0.273s-0.784-0.408-1.05-0.679-0.455-0.567-0.567-0.889-0.168-0.618-0.168-0.889c-0-0.28 0.037-0.537 0.112-0.77s0.177-0.446 0.308-0.637 0.278-0.366 0.441-0.525 0.338-0.308 0.525-0.448c-0.401-0.327-0.698-0.649-0.889-0.966s-0.287-0.723-0.287-1.218c-0-0.373 0.077-0.733 0.231-1.078s0.371-0.646 0.651-0.903 0.618-0.462 1.015-0.616 0.838-0.231 1.323-0.231c0.569 0 1.057 0.082 1.463 0.245s0.74 0.371 1.001 0.623 0.45 0.534 0.567 0.847 0.175 0.623 0.175 0.931c-0 0.448-0.119 0.866-0.357 1.253s-0.534 0.693-0.889 0.917c0.532 0.345 0.912 0.707 1.141 1.085s0.343 0.819 0.343 1.323zm-4.844 0.084c-0 0.112 0.026 0.236 0.077 0.371s0.133 0.259 0.245 0.371 0.257 0.205 0.434 0.28 0.392 0.112 0.644 0.112c0.485 0 0.84-0.117 1.064-0.35s0.336-0.495 0.336-0.784c-0-0.215-0.049-0.406-0.147-0.574s-0.231-0.315-0.399-0.441-0.366-0.238-0.595-0.336-0.474-0.189-0.735-0.273c-0.261 0.196-0.481 0.425-0.658 0.686s-0.266 0.574-0.266 0.938zm2.59-4.606c-0-0.103-0.021-0.212-0.063-0.329s-0.112-0.226-0.21-0.329-0.222-0.189-0.371-0.259-0.331-0.105-0.546-0.105c-0.205 0-0.383 0.033-0.532 0.098s-0.273 0.152-0.371 0.259-0.17 0.222-0.217 0.343-0.07 0.238-0.07 0.35c-0 0.299 0.11 0.579 0.329 0.84s0.595 0.485 1.127 0.672c0.299-0.187 0.527-0.401 0.686-0.644s0.238-0.541 0.238-0.896z" fill="#030a1d" fill-rule="nonzero"/>
    <path d="m77.72 102c-0-0.42 0.072-0.805 0.217-1.155s0.362-0.656 0.651-0.917 0.651-0.464 1.085-0.609 0.936-0.217 1.505-0.217c0.653 0 1.197 0.091 1.631 0.273s0.784 0.408 1.05 0.679 0.455 0.567 0.567 0.889 0.168 0.618 0.168 0.889c-0 0.28-0.037 0.537-0.112 0.77s-0.177 0.446-0.308 0.637-0.278 0.366-0.441 0.525-0.338 0.308-0.525 0.448c0.401 0.327 0.698 0.649 0.889 0.966s0.287 0.723 0.287 1.218c-0 0.373-0.077 0.733-0.231 1.078s-0.371 0.646-0.651 0.903-0.618 0.462-1.015 0.616-0.838 0.231-1.323 0.231c-0.569 0-1.057-0.082-1.463-0.245s-0.74-0.371-1.001-0.623-0.45-0.534-0.567-0.847-0.175-0.623-0.175-0.931c-0-0.448 0.119-0.866 0.357-1.253s0.534-0.693 0.889-0.917c-0.532-0.345-0.912-0.707-1.141-1.085s-0.343-0.819-0.343-1.323zm4.844-0.084c-0-0.112-0.026-0.236-0.077-0.371s-0.133-0.259-0.245-0.371-0.257-0.205-0.434-0.28-0.392-0.112-0.644-0.112c-0.485 0-0.84 0.117-1.064 0.35s-0.336 0.495-0.336 0.784c-0 0.215 0.049 0.406 0.147 0.574s0.231 0.315 0.399 0.441 0.366 0.238 0.595 0.336 0.474 0.189 0.735 0.273c0.261-0.196 0.481-0.425 0.658-0.686s0.266-0.574 0.266-0.938zm-2.59 4.606c-0 0.103 0.021 0.212 0.063 0.329s0.112 0.226 0.21 0.329 0.222 0.189 0.371 0.259 0.331 0.105 0.546 0.105c0.205 0 0.383-0.033 0.532-0.098s0.273-0.152 0.371-0.259 0.17-0.222 0.217-0.343 0.07-0.238 0.07-0.35c-0-0.299-0.11-0.579-0.329-0.84s-0.595-0.485-1.127-0.672c-0.299 0.187-0.527 0.401-0.686 0.644s-0.238 0.541-0.238 0.896z" fill="#030a1d" fill-rule="nonzero"/>
    <path d="m52.752 52.953-0.046 0.094c-0.242 0.484-0.477 0.969-0.477 1.453 0 1 0.833 2 1 3 0.164 0.986 0 3 0 3h3.546c0.034-0.908 0.059-2.228-0.041-2.929-0.068-0.475-0.303-0.926-0.514-1.375-0.264-0.564-0.491-1.126-0.491-1.696 0-0.572 0.267-1.151 0.553-1.724 0.214-0.427 0.447-0.848 0.447-1.276 0-0.928-0.947-2.776-0.947-2.776-0.124-0.247-0.023-0.548 0.223-0.671 0.247-0.124 0.548-0.023 0.671 0.223 0 0 1.053 2.152 1.053 3.224 0 0.572-0.267 1.151-0.553 1.724-0.214 0.427-0.447 0.848-0.447 1.276 0 0.43 0.198 0.846 0.397 1.272 0.252 0.539 0.517 1.088 0.598 1.657 0.105 0.736 0.082 2.116 0.05 3.071h2.831s0.224-2.025 0-3c-0.229-1-1.313-2-1.376-3s1-2 1-3-0.488-2.079-1-3c-0.833-1.5-4-6-4-6s-2.667 4.5-3 6c-0.229 1.029 1 2 1 3 0 0.484-0.235 0.969-0.477 1.453z" fill="#030a1d"/>
    <path d="m39.752 52.953-0.046 0.094c-0.242 0.484-0.477 0.969-0.477 1.453 0 1 0.833 2 1 3 0.164 0.986 0 3 0 3h3.546c0.034-0.908 0.059-2.228-0.041-2.929-0.068-0.475-0.303-0.926-0.514-1.375-0.264-0.564-0.491-1.126-0.491-1.696 0-0.572 0.267-1.151 0.553-1.724 0.214-0.427 0.447-0.848 0.447-1.276 0-0.928-0.947-2.776-0.947-2.776-0.124-0.247-0.023-0.548 0.223-0.671 0.247-0.124 0.548-0.023 0.671 0.223 0 0 1.053 2.152 1.053 3.224 0 0.572-0.267 1.151-0.553 1.724-0.214 0.427-0.447 0.848-0.447 1.276 0 0.43 0.198 0.846 0.397 1.272 0.252 0.539 0.517 1.088 0.598 1.657 0.105 0.736 0.082 2.116 0.05 3.071h2.831s0.224-2.025 0-3c-0.229-1-1.313-2-1.376-3s1-2 1-3-0.488-2.079-1-3c-0.833-1.5-4-6-4-6s-2.667 4.5-3 6c-0.229 1.029 1 2 1 3 0 0.484-0.235 0.969-0.477 1.453z" fill="#030a1d"/>
    <path d="m26.847 52.953-0.047 0.094c-0.241 0.484-0.476 0.969-0.476 1.453-0 1 0.833 2 1 3 0.164 0.986-0 3-0 3h3.546c0.034-0.908 0.059-2.228-0.041-2.929-0.068-0.475-0.304-0.926-0.514-1.375-0.264-0.564-0.491-1.126-0.491-1.696-0-0.572 0.267-1.151 0.553-1.724 0.214-0.427 0.447-0.848 0.447-1.276-0-0.928-0.947-2.776-0.947-2.776-0.124-0.247-0.024-0.548 0.223-0.671 0.247-0.124 0.548-0.023 0.671 0.223 0 0 1.053 2.152 1.053 3.224-0 0.572-0.267 1.151-0.553 1.724-0.214 0.427-0.447 0.848-0.447 1.276-0 0.43 0.198 0.846 0.397 1.272 0.252 0.539 0.517 1.088 0.598 1.657 0.105 0.736 0.082 2.116 0.049 3.071h2.832s0.224-2.025 0-3c-0.229-1-1.313-2-1.376-3s1-2 1-3-0.488-2.079-1-3c-0.833-1.5-4-6-4-6s-2.667 4.5-3 6c-0.229 1.029 1 2 1 3-0 0.484-0.235 0.969-0.477 1.453z" fill="#030a1d"/>
    <path d="m65.752 52.953-0.046 0.094c-0.242 0.484-0.477 0.969-0.477 1.453 0 1 0.833 2 1 3 0.164 0.986 0 3 0 3h3.546c0.034-0.908 0.059-2.228-0.041-2.929-0.068-0.475-0.303-0.926-0.514-1.375-0.264-0.564-0.491-1.126-0.491-1.696 0-0.572 0.267-1.151 0.553-1.724 0.214-0.427 0.447-0.848 0.447-1.276 0-0.928-0.947-2.776-0.947-2.776-0.124-0.247-0.023-0.548 0.223-0.671 0.247-0.124 0.548-0.023 0.671 0.223 0 0 1.053 2.152 1.053 3.224 0 0.572-0.267 1.151-0.553 1.724-0.214 0.427-0.447 0.848-0.447 1.276 0 0.43 0.198 0.846 0.397 1.272 0.252 0.539 0.517 1.088 0.598 1.657 0.105 0.736 0.082 2.116 0.05 3.071h2.831s0.224-2.025 0-3c-0.229-1-1.313-2-1.376-3s1-2 1-3-0.488-2.079-1-3c-0.833-1.5-4-6-4-6s-2.667 4.5-3 6c-0.229 1.029 1 2 1 3 0 0.484-0.235 0.969-0.477 1.453z" fill="#030a1d"/>
    <path d="m60.153 72.047 0.047-0.094c0.241-0.484 0.476-0.969 0.476-1.453 0-1-0.833-2-1-3-0.164-0.986 0-3 0-3h-3.546c-0.034 0.908-0.059 2.228 0.041 2.929 0.068 0.475 0.304 0.926 0.514 1.375 0.264 0.564 0.491 1.126 0.491 1.696 0 0.572-0.267 1.151-0.553 1.724-0.214 0.427-0.447 0.848-0.447 1.276 0 0.928 0.947 2.776 0.947 2.776 0.124 0.247 0.024 0.548-0.223 0.671-0.247 0.124-0.548 0.023-0.671-0.223-0-0-1.053-2.152-1.053-3.224 0-0.572 0.267-1.151 0.553-1.724 0.214-0.427 0.447-0.848 0.447-1.276 0-0.43-0.198-0.846-0.397-1.272-0.252-0.539-0.517-1.088-0.598-1.657-0.105-0.736-0.082-2.116-0.049-3.071h-2.832s-0.224 2.025-0 3c0.229 1 1.313 2 1.376 3s-1 2-1 3 0.488 2.079 1 3c0.833 1.5 4 6 4 6s2.667-4.5 3-6c0.229-1.029-1-2-1-3 0-0.484 0.235-0.969 0.477-1.453z" fill="#030a1d"/>
    <path d="m47.153 72.047 0.047-0.094c0.241-0.484 0.476-0.969 0.476-1.453 0-1-0.833-2-1-3-0.164-0.986 0-3 0-3h-3.546c-0.034 0.908-0.059 2.228 0.041 2.929 0.068 0.475 0.304 0.926 0.514 1.375 0.264 0.564 0.491 1.126 0.491 1.696 0 0.572-0.267 1.151-0.553 1.724-0.214 0.427-0.447 0.848-0.447 1.276 0 0.928 0.947 2.776 0.947 2.776 0.124 0.247 0.024 0.548-0.223 0.671-0.247 0.124-0.548 0.023-0.671-0.223-0-0-1.053-2.152-1.053-3.224 0-0.572 0.267-1.151 0.553-1.724 0.214-0.427 0.447-0.848 0.447-1.276 0-0.43-0.198-0.846-0.397-1.272-0.252-0.539-0.517-1.088-0.598-1.657-0.105-0.736-0.082-2.116-0.049-3.071h-2.832s-0.224 2.025-0 3c0.229 1 1.313 2 1.376 3s-1 2-1 3 0.488 2.079 1 3c0.833 1.5 4 6 4 6s2.667-4.5 3-6c0.229-1.029-1-2-1-3 0-0.484 0.235-0.969 0.477-1.453z" fill="#030a1d"/>
    <path d="m34.248 72.047 0.046-0.094c0.242-0.484 0.477-0.969 0.477-1.453-0-1-0.833-2-1-3-0.164-0.986-0-3-0-3h-3.546c-0.034 0.908-0.059 2.228 0.041 2.929 0.068 0.475 0.303 0.926 0.514 1.375 0.264 0.564 0.491 1.126 0.491 1.696-0 0.572-0.267 1.151-0.553 1.724-0.214 0.427-0.447 0.848-0.447 1.276-0 0.928 0.947 2.776 0.947 2.776 0.124 0.247 0.023 0.548-0.223 0.671-0.247 0.124-0.548 0.023-0.671-0.223-0-0-1.053-2.152-1.053-3.224-0-0.572 0.267-1.151 0.553-1.724 0.214-0.427 0.447-0.848 0.447-1.276-0-0.43-0.198-0.846-0.397-1.272-0.252-0.539-0.517-1.088-0.598-1.657-0.105-0.736-0.082-2.116-0.05-3.071h-2.831s-0.224 2.025-0 3c0.229 1 1.313 2 1.376 3s-1 2-1 3 0.488 2.079 1 3c0.833 1.5 4 6 4 6s2.667-4.5 3-6c0.229-1.029-1-2-1-3-0-0.484 0.235-0.969 0.477-1.453z" fill="#030a1d"/>
    <path d="m73.153 72.047 0.047-0.094c0.241-0.484 0.476-0.969 0.476-1.453 0-1-0.833-2-1-3-0.164-0.986 0-3 0-3h-3.546c-0.034 0.908-0.059 2.228 0.041 2.929 0.068 0.475 0.304 0.926 0.514 1.375 0.264 0.564 0.491 1.126 0.491 1.696 0 0.572-0.267 1.151-0.553 1.724-0.214 0.427-0.447 0.848-0.447 1.276 0 0.928 0.947 2.776 0.947 2.776 0.124 0.247 0.024 0.548-0.223 0.671-0.247 0.124-0.548 0.023-0.671-0.223-0-0-1.053-2.152-1.053-3.224 0-0.572 0.267-1.151 0.553-1.724 0.214-0.427 0.447-0.848 0.447-1.276 0-0.43-0.198-0.846-0.397-1.272-0.252-0.539-0.517-1.088-0.598-1.657-0.105-0.736-0.082-2.116-0.049-3.071h-2.832s-0.224 2.025-0 3c0.229 1 1.313 2 1.376 3s-1 2-1 3 0.488 2.079 1 3c0.833 1.5 4 6 4 6s2.667-4.5 3-6c0.229-1.029-1-2-1-3 0-0.484 0.235-0.969 0.477-1.453z" fill="#030a1d"/>
</svg>
