<?xml version="1.0" encoding="UTF-8" standalone="no"?>
<!DOCTYPE svg PUBLIC "-//W3C//DTD SVG 1.1//EN" "http://www.w3.org/Graphics/SVG/1.1/DTD/svg11.dtd">
<svg width="100%" height="100%" viewBox="0 0 100 125" version="1.1" xmlns="http://www.w3.org/2000/svg" xmlns:xlink="http://www.w3.org/1999/xlink" xml:space="preserve" xmlns:serif="http://www.serif.com/" style="fill-rule:evenodd;clip-rule:evenodd;stroke-linejoin:round;stroke-miterlimit:2;">
    <rect id="Eight-of-Seaweed" serif:id="Eight of Seaweed" x="0" y="0" width="100" height="125" style="fill:none;"/>
    <path d="M24.28,23c-0,0.42 -0.072,0.805 -0.217,1.155c-0.145,0.35 -0.362,0.656 -0.651,0.917c-0.289,0.261 -0.651,0.464 -1.085,0.609c-0.434,0.145 -0.936,0.217 -1.505,0.217c-0.653,0 -1.197,-0.091 -1.631,-0.273c-0.434,-0.182 -0.784,-0.408 -1.05,-0.679c-0.266,-0.271 -0.455,-0.567 -0.567,-0.889c-0.112,-0.322 -0.168,-0.618 -0.168,-0.889c-0,-0.28 0.037,-0.537 0.112,-0.77c0.075,-0.233 0.177,-0.446 0.308,-0.637c0.131,-0.191 0.278,-0.366 0.441,-0.525c0.163,-0.159 0.338,-0.308 0.525,-0.448c-0.401,-0.327 -0.698,-0.649 -0.889,-0.966c-0.191,-0.317 -0.287,-0.723 -0.287,-1.218c-0,-0.373 0.077,-0.733 0.231,-1.078c0.154,-0.345 0.371,-0.646 0.651,-0.903c0.28,-0.257 0.618,-0.462 1.015,-0.616c0.397,-0.154 0.838,-0.231 1.323,-0.231c0.569,0 1.057,0.082 1.463,0.245c0.406,0.163 0.74,0.371 1.001,0.623c0.261,0.252 0.45,0.534 0.567,0.847c0.117,0.313 0.175,0.623 0.175,0.931c-0,0.448 -0.119,0.866 -0.357,1.253c-0.238,0.387 -0.534,0.693 -0.889,0.917c0.532,0.345 0.912,0.707 1.141,1.085c0.229,0.378 0.343,0.819 0.343,1.323Zm-4.844,0.084c-0,0.112 0.026,0.236 0.077,0.371c0.051,0.135 0.133,0.259 0.245,0.371c0.112,0.112 0.257,0.205 0.434,0.28c0.177,0.075 0.392,0.112 0.644,0.112c0.485,0 0.84,-0.117 1.064,-0.35c0.224,-0.233 0.336,-0.495 0.336,-0.784c-0,-0.215 -0.049,-0.406 -0.147,-0.574c-0.098,-0.168 -0.231,-0.315 -0.399,-0.441c-0.168,-0.126 -0.366,-0.238 -0.595,-0.336c-0.229,-0.098 -0.474,-0.189 -0.735,-0.273c-0.261,0.196 -0.481,0.425 -0.658,0.686c-0.177,0.261 -0.266,0.574 -0.266,0.938Zm2.59,-4.606c-0,-0.103 -0.021,-0.212 -0.063,-0.329c-0.042,-0.117 -0.112,-0.226 -0.21,-0.329c-0.098,-0.103 -0.222,-0.189 -0.371,-0.259c-0.149,-0.07 -0.331,-0.105 -0.546,-0.105c-0.205,0 -0.383,0.033 -0.532,0.098c-0.149,0.065 -0.273,0.152 -0.371,0.259c-0.098,0.107 -0.17,0.222 -0.217,0.343c-0.047,0.121 -0.07,0.238 -0.07,0.35c-0,0.299 0.11,0.579 0.329,0.84c0.219,0.261 0.595,0.485 1.127,0.672c0.299,-0.187 0.527,-0.401 0.686,-0.644c0.159,-0.243 0.238,-0.541 0.238,-0.896Z" style="fill:#030a1d;fill-rule:nonzero;"/>
    <path d="M77.72,102c-0,-0.42 0.072,-0.805 0.217,-1.155c0.145,-0.35 0.362,-0.656 0.651,-0.917c0.289,-0.261 0.651,-0.464 1.085,-0.609c0.434,-0.145 0.936,-0.217 1.505,-0.217c0.653,0 1.197,0.091 1.631,0.273c0.434,0.182 0.784,0.408 1.05,0.679c0.266,0.271 0.455,0.567 0.567,0.889c0.112,0.322 0.168,0.618 0.168,0.889c-0,0.28 -0.037,0.537 -0.112,0.77c-0.075,0.233 -0.177,0.446 -0.308,0.637c-0.131,0.191 -0.278,0.366 -0.441,0.525c-0.163,0.159 -0.338,0.308 -0.525,0.448c0.401,0.327 0.698,0.649 0.889,0.966c0.191,0.317 0.287,0.723 0.287,1.218c-0,0.373 -0.077,0.733 -0.231,1.078c-0.154,0.345 -0.371,0.646 -0.651,0.903c-0.28,0.257 -0.618,0.462 -1.015,0.616c-0.397,0.154 -0.838,0.231 -1.323,0.231c-0.569,0 -1.057,-0.082 -1.463,-0.245c-0.406,-0.163 -0.74,-0.371 -1.001,-0.623c-0.261,-0.252 -0.45,-0.534 -0.567,-0.847c-0.117,-0.313 -0.175,-0.623 -0.175,-0.931c-0,-0.448 0.119,-0.866 0.357,-1.253c0.238,-0.387 0.534,-0.693 0.889,-0.917c-0.532,-0.345 -0.912,-0.707 -1.141,-1.085c-0.229,-0.378 -0.343,-0.819 -0.343,-1.323Zm4.844,-0.084c-0,-0.112 -0.026,-0.236 -0.077,-0.371c-0.051,-0.135 -0.133,-0.259 -0.245,-0.371c-0.112,-0.112 -0.257,-0.205 -0.434,-0.28c-0.177,-0.075 -0.392,-0.112 -0.644,-0.112c-0.485,0 -0.84,0.117 -1.064,0.35c-0.224,0.233 -0.336,0.495 -0.336,0.784c-0,0.215 0.049,0.406 0.147,0.574c0.098,0.168 0.231,0.315 0.399,0.441c0.168,0.126 0.366,0.238 0.595,0.336c0.229,0.098 0.474,0.189 0.735,0.273c0.261,-0.196 0.481,-0.425 0.658,-0.686c0.177,-0.261 0.266,-0.574 0.266,-0.938Zm-2.59,4.606c-0,0.103 0.021,0.212 0.063,0.329c0.042,0.117 0.112,0.226 0.21,0.329c0.098,0.103 0.222,0.189 0.371,0.259c0.149,0.07 0.331,0.105 0.546,0.105c0.205,0 0.383,-0.033 0.532,-0.098c0.149,-0.065 0.273,-0.152 0.371,-0.259c0.098,-0.107 0.17,-0.222 0.217,-0.343c0.047,-0.121 0.07,-0.238 0.07,-0.35c-0,-0.299 -0.11,-0.579 -0.329,-0.84c-0.219,-0.261 -0.595,-0.485 -1.127,-0.672c-0.299,0.187 -0.527,0.401 -0.686,0.644c-0.159,0.243 -0.238,0.541 -0.238,0.896Z" style="fill:#030a1d;fill-rule:nonzero;"/>
    <path d="M52.752,52.953l-0.046,0.094c-0.242,0.484 -0.477,0.969 -0.477,1.453c0,1 0.833,2 1,3c0.164,0.986 0,3 0,3l3.546,0c0.034,-0.908 0.059,-2.228 -0.041,-2.929c-0.068,-0.475 -0.303,-0.926 -0.514,-1.375c-0.264,-0.564 -0.491,-1.126 -0.491,-1.696c0,-0.572 0.267,-1.151 0.553,-1.724c0.214,-0.427 0.447,-0.848 0.447,-1.276c0,-0.928 -0.947,-2.776 -0.947,-2.776c-0.124,-0.247 -0.023,-0.548 0.223,-0.671c0.247,-0.124 0.548,-0.023 0.671,0.223c0,0 1.053,2.152 1.053,3.224c0,0.572 -0.267,1.151 -0.553,1.724c-0.214,0.427 -0.447,0.848 -0.447,1.276c0,0.43 0.198,0.846 0.397,1.272c0.252,0.539 0.517,1.088 0.598,1.657c0.105,0.736 0.082,2.116 0.05,3.071l2.831,0c0,0 0.224,-2.025 0,-3c-0.229,-1 -1.313,-2 -1.376,-3c-0.063,-1 1,-2 1,-3c0,-1 -0.488,-2.079 -1,-3c-0.833,-1.5 -4,-6 -4,-6c0,0 -2.667,4.5 -3,6c-0.229,1.029 1,2 1,3c0,0.484 -0.235,0.969 -0.477,1.453Z" style="fill:#030a1d;"/>
    <path d="M39.752,52.953l-0.046,0.094c-0.242,0.484 -0.477,0.969 -0.477,1.453c0,1 0.833,2 1,3c0.164,0.986 0,3 0,3l3.546,0c0.034,-0.908 0.059,-2.228 -0.041,-2.929c-0.068,-0.475 -0.303,-0.926 -0.514,-1.375c-0.264,-0.564 -0.491,-1.126 -0.491,-1.696c0,-0.572 0.267,-1.151 0.553,-1.724c0.214,-0.427 0.447,-0.848 0.447,-1.276c0,-0.928 -0.947,-2.776 -0.947,-2.776c-0.124,-0.247 -0.023,-0.548 0.223,-0.671c0.247,-0.124 0.548,-0.023 0.671,0.223c0,0 1.053,2.152 1.053,3.224c0,0.572 -0.267,1.151 -0.553,1.724c-0.214,0.427 -0.447,0.848 -0.447,1.276c0,0.43 0.198,0.846 0.397,1.272c0.252,0.539 0.517,1.088 0.598,1.657c0.105,0.736 0.082,2.116 0.05,3.071l2.831,0c0,0 0.224,-2.025 0,-3c-0.229,-1 -1.313,-2 -1.376,-3c-0.063,-1 1,-2 1,-3c0,-1 -0.488,-2.079 -1,-3c-0.833,-1.5 -4,-6 -4,-6c0,0 -2.667,4.5 -3,6c-0.229,1.029 1,2 1,3c0,0.484 -0.235,0.969 -0.477,1.453Z" style="fill:#030a1d;"/>
    <path d="M26.847,52.953l-0.047,0.094c-0.241,0.484 -0.476,0.969 -0.476,1.453c-0,1 0.833,2 1,3c0.164,0.986 -0,3 -0,3l3.546,0c0.034,-0.908 0.059,-2.228 -0.041,-2.929c-0.068,-0.475 -0.304,-0.926 -0.514,-1.375c-0.264,-0.564 -0.491,-1.126 -0.491,-1.696c-0,-0.572 0.267,-1.151 0.553,-1.724c0.214,-0.427 0.447,-0.848 0.447,-1.276c-0,-0.928 -0.947,-2.776 -0.947,-2.776c-0.124,-0.247 -0.024,-0.548 0.223,-0.671c0.247,-0.124 0.548,-0.023 0.671,0.223c0,0 1.053,2.152 1.053,3.224c-0,0.572 -0.267,1.151 -0.553,1.724c-0.214,0.427 -0.447,0.848 -0.447,1.276c-0,0.43 0.198,0.846 0.397,1.272c0.252,0.539 0.517,1.088 0.598,1.657c0.105,0.736 0.082,2.116 0.049,3.071l2.832,0c0,0 0.224,-2.025 0,-3c-0.229,-1 -1.313,-2 -1.376,-3c-0.063,-1 1,-2 1,-3c-0,-1 -0.488,-2.079 -1,-3c-0.833,-1.5 -4,-6 -4,-6c-0,0 -2.667,4.5 -3,6c-0.229,1.029 1,2 1,3c-0,0.484 -0.235,0.969 -0.477,1.453Z" style="fill:#030a1d;"/>
    <path d="M65.752,52.953l-0.046,0.094c-0.242,0.484 -0.477,0.969 -0.477,1.453c0,1 0.833,2 1,3c0.164,0.986 0,3 0,3l3.546,0c0.034,-0.908 0.059,-2.228 -0.041,-2.929c-0.068,-0.475 -0.303,-0.926 -0.514,-1.375c-0.264,-0.564 -0.491,-1.126 -0.491,-1.696c0,-0.572 0.267,-1.151 0.553,-1.724c0.214,-0.427 0.447,-0.848 0.447,-1.276c0,-0.928 -0.947,-2.776 -0.947,-2.776c-0.124,-0.247 -0.023,-0.548 0.223,-0.671c0.247,-0.124 0.548,-0.023 0.671,0.223c0,0 1.053,2.152 1.053,3.224c0,0.572 -0.267,1.151 -0.553,1.724c-0.214,0.427 -0.447,0.848 -0.447,1.276c0,0.43 0.198,0.846 0.397,1.272c0.252,0.539 0.517,1.088 0.598,1.657c0.105,0.736 0.082,2.116 0.05,3.071l2.831,0c0,0 0.224,-2.025 0,-3c-0.229,-1 -1.313,-2 -1.376,-3c-0.063,-1 1,-2 1,-3c0,-1 -0.488,-2.079 -1,-3c-0.833,-1.5 -4,-6 -4,-6c0,0 -2.667,4.5 -3,6c-0.229,1.029 1,2 1,3c0,0.484 -0.235,0.969 -0.477,1.453Z" style="fill:#030a1d;"/>
    <path d="M60.153,72.047l0.047,-0.094c0.241,-0.484 0.476,-0.969 0.476,-1.453c0,-1 -0.833,-2 -1,-3c-0.164,-0.986 0,-3 0,-3l-3.546,0c-0.034,0.908 -0.059,2.228 0.041,2.929c0.068,0.475 0.304,0.926 0.514,1.375c0.264,0.564 0.491,1.126 0.491,1.696c0,0.572 -0.267,1.151 -0.553,1.724c-0.214,0.427 -0.447,0.848 -0.447,1.276c0,0.928 0.947,2.776 0.947,2.776c0.124,0.247 0.024,0.548 -0.223,0.671c-0.247,0.124 -0.548,0.023 -0.671,-0.223c-0,-0 -1.053,-2.152 -1.053,-3.224c0,-0.572 0.267,-1.151 0.553,-1.724c0.214,-0.427 0.447,-0.848 0.447,-1.276c0,-0.43 -0.198,-0.846 -0.397,-1.272c-0.252,-0.539 -0.517,-1.088 -0.598,-1.657c-0.105,-0.736 -0.082,-2.116 -0.049,-3.071l-2.832,0c-0,0 -0.224,2.025 -0,3c0.229,1 1.313,2 1.376,3c0.063,1 -1,2 -1,3c0,1 0.488,2.079 1,3c0.833,1.5 4,6 4,6c0,0 2.667,-4.5 3,-6c0.229,-1.029 -1,-2 -1,-3c0,-0.484 0.235,-0.969 0.477,-1.453Z" style="fill:#030a1d;"/>
    <path d="M47.153,72.047l0.047,-0.094c0.241,-0.484 0.476,-0.969 0.476,-1.453c0,-1 -0.833,-2 -1,-3c-0.164,-0.986 0,-3 0,-3l-3.546,0c-0.034,0.908 -0.059,2.228 0.041,2.929c0.068,0.475 0.304,0.926 0.514,1.375c0.264,0.564 0.491,1.126 0.491,1.696c0,0.572 -0.267,1.151 -0.553,1.724c-0.214,0.427 -0.447,0.848 -0.447,1.276c0,0.928 0.947,2.776 0.947,2.776c0.124,0.247 0.024,0.548 -0.223,0.671c-0.247,0.124 -0.548,0.023 -0.671,-0.223c-0,-0 -1.053,-2.152 -1.053,-3.224c0,-0.572 0.267,-1.151 0.553,-1.724c0.214,-0.427 0.447,-0.848 0.447,-1.276c0,-0.43 -0.198,-0.846 -0.397,-1.272c-0.252,-0.539 -0.517,-1.088 -0.598,-1.657c-0.105,-0.736 -0.082,-2.116 -0.049,-3.071l-2.832,0c-0,0 -0.224,2.025 -0,3c0.229,1 1.313,2 1.376,3c0.063,1 -1,2 -1,3c0,1 0.488,2.079 1,3c0.833,1.5 4,6 4,6c0,0 2.667,-4.5 3,-6c0.229,-1.029 -1,-2 -1,-3c0,-0.484 0.235,-0.969 0.477,-1.453Z" style="fill:#030a1d;"/>
    <path d="M34.248,72.047l0.046,-0.094c0.242,-0.484 0.477,-0.969 0.477,-1.453c-0,-1 -0.833,-2 -1,-3c-0.164,-0.986 -0,-3 -0,-3l-3.546,0c-0.034,0.908 -0.059,2.228 0.041,2.929c0.068,0.475 0.303,0.926 0.514,1.375c0.264,0.564 0.491,1.126 0.491,1.696c-0,0.572 -0.267,1.151 -0.553,1.724c-0.214,0.427 -0.447,0.848 -0.447,1.276c-0,0.928 0.947,2.776 0.947,2.776c0.124,0.247 0.023,0.548 -0.223,0.671c-0.247,0.124 -0.548,0.023 -0.671,-0.223c-0,-0 -1.053,-2.152 -1.053,-3.224c-0,-0.572 0.267,-1.151 0.553,-1.724c0.214,-0.427 0.447,-0.848 0.447,-1.276c-0,-0.43 -0.198,-0.846 -0.397,-1.272c-0.252,-0.539 -0.517,-1.088 -0.598,-1.657c-0.105,-0.736 -0.082,-2.116 -0.05,-3.071l-2.831,0c-0,0 -0.224,2.025 -0,3c0.229,1 1.313,2 1.376,3c0.063,1 -1,2 -1,3c-0,1 0.488,2.079 1,3c0.833,1.5 4,6 4,6c-0,0 2.667,-4.5 3,-6c0.229,-1.029 -1,-2 -1,-3c-0,-0.484 0.235,-0.969 0.477,-1.453Z" style="fill:#030a1d;"/>
    <path d="M73.153,72.047l0.047,-0.094c0.241,-0.484 0.476,-0.969 0.476,-1.453c0,-1 -0.833,-2 -1,-3c-0.164,-0.986 0,-3 0,-3l-3.546,0c-0.034,0.908 -0.059,2.228 0.041,2.929c0.068,0.475 0.304,0.926 0.514,1.375c0.264,0.564 0.491,1.126 0.491,1.696c0,0.572 -0.267,1.151 -0.553,1.724c-0.214,0.427 -0.447,0.848 -0.447,1.276c0,0.928 0.947,2.776 0.947,2.776c0.124,0.247 0.024,0.548 -0.223,0.671c-0.247,0.124 -0.548,0.023 -0.671,-0.223c-0,-0 -1.053,-2.152 -1.053,-3.224c0,-0.572 0.267,-1.151 0.553,-1.724c0.214,-0.427 0.447,-0.848 0.447,-1.276c0,-0.43 -0.198,-0.846 -0.397,-1.272c-0.252,-0.539 -0.517,-1.088 -0.598,-1.657c-0.105,-0.736 -0.082,-2.116 -0.049,-3.071l-2.832,0c-0,0 -0.224,2.025 -0,3c0.229,1 1.313,2 1.376,3c0.063,1 -1,2 -1,3c0,1 0.488,2.079 1,3c0.833,1.5 4,6 4,6c0,0 2.667,-4.5 3,-6c0.229,-1.029 -1,-2 -1,-3c0,-0.484 0.235,-0.969 0.477,-1.453Z" style="fill:#030a1d;"/>
</svg>
