<svg clip-rule="evenodd" fill-rule="evenodd" stroke-linejoin="round" stroke-miterlimit="2" viewBox="0 0 100 125" xmlns="http://www.w3.org/2000/svg">
    <path d="m20.9 22.846c-0-0.271-0.061-0.511-0.182-0.721s-0.331-0.385-0.63-0.525-0.7-0.247-1.204-0.322-1.139-0.112-1.904-0.112c0.103-0.868 0.187-1.75 0.252-2.646s0.117-1.736 0.154-2.52h5.25v1.75h-3.5c-0.019 0.336-0.04 0.66-0.063 0.973s-0.049 0.586-0.077 0.819c1.363 0.093 2.368 0.413 3.017 0.959s0.973 1.304 0.973 2.275c-0 0.448-0.079 0.863-0.238 1.246s-0.397 0.714-0.714 0.994-0.716 0.499-1.197 0.658-1.043 0.238-1.687 0.238c-0.252-0-0.516-0.016-0.791-0.049s-0.541-0.075-0.798-0.126-0.488-0.105-0.693-0.161-0.364-0.112-0.476-0.168l0.378-1.722c0.233 0.103 0.541 0.203 0.924 0.301s0.84 0.147 1.372 0.147c0.644-0 1.111-0.128 1.4-0.385s0.434-0.558 0.434-0.903z" fill="#030a1d" fill-rule="nonzero"/>
    <path d="m79.1 102.15c-0 0.271 0.061 0.511 0.182 0.721s0.331 0.385 0.63 0.525 0.7 0.247 1.204 0.322 1.139 0.112 1.904 0.112c-0.103 0.868-0.187 1.75-0.252 2.646s-0.117 1.736-0.154 2.52h-5.25v-1.75h3.5c0.019-0.336 0.04-0.66 0.063-0.973s0.049-0.586 0.077-0.819c-1.363-0.093-2.368-0.413-3.017-0.959s-0.973-1.304-0.973-2.275c-0-0.448 0.079-0.863 0.238-1.246s0.397-0.714 0.714-0.994 0.716-0.499 1.197-0.658 1.043-0.238 1.687-0.238c0.252-0 0.516 0.016 0.791 0.049s0.541 0.075 0.798 0.126 0.488 0.105 0.693 0.161 0.364 0.112 0.476 0.168l-0.378 1.722c-0.233-0.103-0.541-0.203-0.924-0.301s-0.84-0.147-1.372-0.147c-0.644-0-1.111 0.128-1.4 0.385s-0.434 0.558-0.434 0.903z" fill="#030a1d" fill-rule="nonzero"/>
    <path d="m58.804 52.953-0.047 0.094c-0.242 0.484-0.477 0.969-0.477 1.453 0 1 0.834 2 1 3 0.165 0.986 0 3 0 3h3.547c0.034-0.908 0.059-2.228-0.042-2.929-0.067-0.475-0.303-0.926-0.514-1.375-0.263-0.564-0.491-1.126-0.491-1.696 0-0.572 0.267-1.151 0.553-1.724 0.214-0.427 0.447-0.848 0.447-1.276 0-0.928-0.947-2.776-0.947-2.776-0.123-0.247-0.023-0.548 0.224-0.671 0.246-0.124 0.547-0.023 0.67 0.223 0 0 1.053 2.152 1.053 3.224 0 0.572-0.266 1.151-0.553 1.724-0.213 0.427-0.447 0.848-0.447 1.276 0 0.43 0.198 0.846 0.397 1.272 0.253 0.539 0.517 1.088 0.598 1.657 0.105 0.736 0.083 2.116 0.05 3.071h2.831s0.224-2.025 0-3c-0.229-1-1.313-2-1.376-3-0.062-1 1-2 1-3s-0.488-2.079-1-3c-0.833-1.5-4-6-4-6s-2.666 4.5-3 6c-0.228 1.029 1 2 1 3 0 0.484-0.234 0.969-0.476 1.453z" fill="#030a1d"/>
    <path d="m41.196 72.047 0.047-0.094c0.242-0.484 0.477-0.969 0.477-1.453-0-1-0.834-2-1-3-0.165-0.986-0-3-0-3h-3.547c-0.034 0.908-0.059 2.228 0.042 2.929 0.067 0.475 0.303 0.926 0.514 1.375 0.263 0.564 0.491 1.126 0.491 1.696-0 0.572-0.267 1.151-0.553 1.724-0.214 0.427-0.447 0.848-0.447 1.276-0 0.928 0.947 2.776 0.947 2.776 0.123 0.247 0.023 0.548-0.224 0.671-0.246 0.124-0.547 0.023-0.67-0.223-0-0-1.053-2.152-1.053-3.224-0-0.572 0.266-1.151 0.553-1.724 0.213-0.427 0.447-0.848 0.447-1.276-0-0.43-0.198-0.846-0.397-1.272-0.253-0.539-0.517-1.088-0.598-1.657-0.105-0.736-0.083-2.116-0.05-3.071h-2.831s-0.224 2.025-0 3c0.229 1 1.313 2 1.376 3 0.062 1-1 2-1 3s0.488 2.079 1 3c0.833 1.5 4 6 4 6s2.666-4.5 3-6c0.228-1.029-1-2-1-3-0-0.484 0.234-0.969 0.476-1.453z" fill="#030a1d"/>
    <path d="m33.796 52.953-0.047 0.094c-0.242 0.484-0.476 0.969-0.476 1.453-0 1 0.833 2 1 3 0.164 0.986-0 3-0 3h3.546c0.034-0.908 0.059-2.228-0.041-2.929-0.068-0.475-0.304-0.926-0.514-1.375-0.264-0.564-0.491-1.126-0.491-1.696-0-0.572 0.266-1.151 0.552-1.724 0.214-0.427 0.448-0.848 0.448-1.276-0-0.928-0.948-2.776-0.948-2.776-0.123-0.247-0.023-0.548 0.224-0.671 0.247-0.124 0.547-0.023 0.671 0.223-0 0 1.053 2.152 1.053 3.224-0 0.572-0.267 1.151-0.553 1.724-0.214 0.427-0.447 0.848-0.447 1.276-0 0.43 0.198 0.846 0.397 1.272 0.252 0.539 0.516 1.088 0.598 1.657 0.105 0.736 0.082 2.116 0.049 3.071h2.832s0.223-2.025-0-3c-0.23-1-1.314-2-1.376-3-0.063-1 1-2 1-3s-0.488-2.079-1-3c-0.834-1.5-4-6-4-6s-2.667 4.5-3 6c-0.229 1.029 1 2 1 3-0 0.484-0.235 0.969-0.477 1.453z" fill="#030a1d"/>
    <path d="m66.204 72.047 0.047-0.094c0.242-0.484 0.476-0.969 0.476-1.453 0-1-0.833-2-1-3-0.164-0.986 0-3 0-3h-3.546c-0.034 0.908-0.059 2.228 0.041 2.929 0.068 0.475 0.304 0.926 0.514 1.375 0.264 0.564 0.491 1.126 0.491 1.696 0 0.572-0.266 1.151-0.552 1.724-0.214 0.427-0.448 0.848-0.448 1.276 0 0.928 0.948 2.776 0.948 2.776 0.123 0.247 0.023 0.548-0.224 0.671-0.247 0.124-0.547 0.023-0.671-0.223 0-0-1.053-2.152-1.053-3.224 0-0.572 0.267-1.151 0.553-1.724 0.214-0.427 0.447-0.848 0.447-1.276 0-0.43-0.198-0.846-0.397-1.272-0.252-0.539-0.516-1.088-0.598-1.657-0.105-0.736-0.082-2.116-0.049-3.071h-2.832s-0.223 2.025 0 3c0.23 1 1.314 2 1.376 3 0.063 1-1 2-1 3s0.488 2.079 1 3c0.834 1.5 4 6 4 6s2.667-4.5 3-6c0.229-1.029-1-2-1-3 0-0.484 0.235-0.969 0.477-1.453z" fill="#030a1d"/>
    <path d="m53.7 63.047 0.047-0.094c0.242-0.484 0.477-0.969 0.477-1.453-0-1-0.834-2-1-3-0.165-0.986-0-3-0-3h-3.547c-0.034 0.908-0.059 2.228 0.042 2.929 0.067 0.475 0.303 0.926 0.513 1.375 0.264 0.564 0.492 1.126 0.492 1.696-0 0.572-0.267 1.151-0.553 1.724-0.214 0.427-0.447 0.848-0.447 1.276-0 0.928 0.947 2.776 0.947 2.776 0.123 0.247 0.023 0.548-0.224 0.671-0.247 0.124-0.547 0.023-0.671-0.223 0-0-1.052-2.152-1.052-3.224-0-0.572 0.266-1.151 0.552-1.724 0.214-0.427 0.448-0.848 0.448-1.276-0-0.43-0.198-0.846-0.397-1.272-0.253-0.539-0.517-1.088-0.598-1.657-0.105-0.736-0.083-2.116-0.05-3.071h-2.832s-0.223 2.025 0 3c0.23 1 1.314 2 1.377 3 0.062 1-1 2-1 3s0.488 2.079 1 3c0.833 1.5 4 6 4 6s2.666-4.5 3-6c0.228-1.029-1-2-1-3-0-0.484 0.234-0.969 0.476-1.453z" fill="#030a1d"/>
</svg>
