<?xml version="1.0" encoding="UTF-8" standalone="no"?>
<!DOCTYPE svg PUBLIC "-//W3C//DTD SVG 1.1//EN" "http://www.w3.org/Graphics/SVG/1.1/DTD/svg11.dtd">
<svg width="100%" height="100%" viewBox="0 0 100 125" version="1.1" xmlns="http://www.w3.org/2000/svg" xmlns:xlink="http://www.w3.org/1999/xlink" xml:space="preserve" xmlns:serif="http://www.serif.com/" style="fill-rule:evenodd;clip-rule:evenodd;stroke-linejoin:round;stroke-miterlimit:2;">
    <rect id="Five-of-Seaweed" serif:id="Five of Seaweed" x="0" y="0" width="100" height="125" style="fill:none;"/>
    <path d="M20.9,22.846c-0,-0.271 -0.061,-0.511 -0.182,-0.721c-0.121,-0.21 -0.331,-0.385 -0.63,-0.525c-0.299,-0.14 -0.7,-0.247 -1.204,-0.322c-0.504,-0.075 -1.139,-0.112 -1.904,-0.112c0.103,-0.868 0.187,-1.75 0.252,-2.646c0.065,-0.896 0.117,-1.736 0.154,-2.52l5.25,-0l-0,1.75l-3.5,-0c-0.019,0.336 -0.04,0.66 -0.063,0.973c-0.023,0.313 -0.049,0.586 -0.077,0.819c1.363,0.093 2.368,0.413 3.017,0.959c0.649,0.546 0.973,1.304 0.973,2.275c-0,0.448 -0.079,0.863 -0.238,1.246c-0.159,0.383 -0.397,0.714 -0.714,0.994c-0.317,0.28 -0.716,0.499 -1.197,0.658c-0.481,0.159 -1.043,0.238 -1.687,0.238c-0.252,-0 -0.516,-0.016 -0.791,-0.049c-0.275,-0.033 -0.541,-0.075 -0.798,-0.126c-0.257,-0.051 -0.488,-0.105 -0.693,-0.161c-0.205,-0.056 -0.364,-0.112 -0.476,-0.168l0.378,-1.722c0.233,0.103 0.541,0.203 0.924,0.301c0.383,0.098 0.84,0.147 1.372,0.147c0.644,-0 1.111,-0.128 1.4,-0.385c0.289,-0.257 0.434,-0.558 0.434,-0.903Z" style="fill:#030a1d;fill-rule:nonzero;"/>
    <path d="M79.1,102.154c-0,0.271 0.061,0.511 0.182,0.721c0.121,0.21 0.331,0.385 0.63,0.525c0.299,0.14 0.7,0.247 1.204,0.322c0.504,0.075 1.139,0.112 1.904,0.112c-0.103,0.868 -0.187,1.75 -0.252,2.646c-0.065,0.896 -0.117,1.736 -0.154,2.52l-5.25,-0l-0,-1.75l3.5,-0c0.019,-0.336 0.04,-0.66 0.063,-0.973c0.023,-0.313 0.049,-0.586 0.077,-0.819c-1.363,-0.093 -2.368,-0.413 -3.017,-0.959c-0.649,-0.546 -0.973,-1.304 -0.973,-2.275c-0,-0.448 0.079,-0.863 0.238,-1.246c0.159,-0.383 0.397,-0.714 0.714,-0.994c0.317,-0.28 0.716,-0.499 1.197,-0.658c0.481,-0.159 1.043,-0.238 1.687,-0.238c0.252,-0 0.516,0.016 0.791,0.049c0.275,0.033 0.541,0.075 0.798,0.126c0.257,0.051 0.488,0.105 0.693,0.161c0.205,0.056 0.364,0.112 0.476,0.168l-0.378,1.722c-0.233,-0.103 -0.541,-0.203 -0.924,-0.301c-0.383,-0.098 -0.84,-0.147 -1.372,-0.147c-0.644,-0 -1.111,0.128 -1.4,0.385c-0.289,0.257 -0.434,0.558 -0.434,0.903Z" style="fill:#030a1d;fill-rule:nonzero;"/>
    <path d="M58.804,52.953l-0.047,0.094c-0.242,0.484 -0.477,0.969 -0.477,1.453c0,1 0.834,2 1,3c0.165,0.986 0,3 0,3l3.547,-0c0.034,-0.908 0.059,-2.228 -0.042,-2.929c-0.067,-0.475 -0.303,-0.926 -0.514,-1.375c-0.263,-0.564 -0.491,-1.126 -0.491,-1.696c0,-0.572 0.267,-1.151 0.553,-1.724c0.214,-0.427 0.447,-0.848 0.447,-1.276c0,-0.928 -0.947,-2.776 -0.947,-2.776c-0.123,-0.247 -0.023,-0.548 0.224,-0.671c0.246,-0.124 0.547,-0.023 0.67,0.223c0,0 1.053,2.152 1.053,3.224c0,0.572 -0.266,1.151 -0.553,1.724c-0.213,0.427 -0.447,0.848 -0.447,1.276c0,0.43 0.198,0.846 0.397,1.272c0.253,0.539 0.517,1.088 0.598,1.657c0.105,0.736 0.083,2.116 0.05,3.071l2.831,-0c0,-0 0.224,-2.025 0,-3c-0.229,-1 -1.313,-2 -1.376,-3c-0.062,-1 1,-2 1,-3c0,-1 -0.488,-2.079 -1,-3c-0.833,-1.5 -4,-6 -4,-6c0,-0 -2.666,4.5 -3,6c-0.228,1.029 1,2 1,3c0,0.484 -0.234,0.969 -0.476,1.453Z" style="fill:#030a1d;"/>
    <path d="M41.196,72.047l0.047,-0.094c0.242,-0.484 0.477,-0.969 0.477,-1.453c-0,-1 -0.834,-2 -1,-3c-0.165,-0.986 -0,-3 -0,-3l-3.547,-0c-0.034,0.908 -0.059,2.228 0.042,2.929c0.067,0.475 0.303,0.926 0.514,1.375c0.263,0.564 0.491,1.126 0.491,1.696c-0,0.572 -0.267,1.151 -0.553,1.724c-0.214,0.427 -0.447,0.848 -0.447,1.276c-0,0.928 0.947,2.776 0.947,2.776c0.123,0.247 0.023,0.548 -0.224,0.671c-0.246,0.124 -0.547,0.023 -0.67,-0.223c-0,-0 -1.053,-2.152 -1.053,-3.224c-0,-0.572 0.266,-1.151 0.553,-1.724c0.213,-0.427 0.447,-0.848 0.447,-1.276c-0,-0.43 -0.198,-0.846 -0.397,-1.272c-0.253,-0.539 -0.517,-1.088 -0.598,-1.657c-0.105,-0.736 -0.083,-2.116 -0.05,-3.071l-2.831,-0c-0,-0 -0.224,2.025 -0,3c0.229,1 1.313,2 1.376,3c0.062,1 -1,2 -1,3c-0,1 0.488,2.079 1,3c0.833,1.5 4,6 4,6c-0,-0 2.666,-4.5 3,-6c0.228,-1.029 -1,-2 -1,-3c-0,-0.484 0.234,-0.969 0.476,-1.453Z" style="fill:#030a1d;"/>
    <path d="M33.796,52.953l-0.047,0.094c-0.242,0.484 -0.476,0.969 -0.476,1.453c-0,1 0.833,2 1,3c0.164,0.986 -0,3 -0,3l3.546,-0c0.034,-0.908 0.059,-2.228 -0.041,-2.929c-0.068,-0.475 -0.304,-0.926 -0.514,-1.375c-0.264,-0.564 -0.491,-1.126 -0.491,-1.696c-0,-0.572 0.266,-1.151 0.552,-1.724c0.214,-0.427 0.448,-0.848 0.448,-1.276c-0,-0.928 -0.948,-2.776 -0.948,-2.776c-0.123,-0.247 -0.023,-0.548 0.224,-0.671c0.247,-0.124 0.547,-0.023 0.671,0.223c-0,0 1.053,2.152 1.053,3.224c-0,0.572 -0.267,1.151 -0.553,1.724c-0.214,0.427 -0.447,0.848 -0.447,1.276c-0,0.43 0.198,0.846 0.397,1.272c0.252,0.539 0.516,1.088 0.598,1.657c0.105,0.736 0.082,2.116 0.049,3.071l2.832,-0c-0,-0 0.223,-2.025 -0,-3c-0.23,-1 -1.314,-2 -1.376,-3c-0.063,-1 1,-2 1,-3c-0,-1 -0.488,-2.079 -1,-3c-0.834,-1.5 -4,-6 -4,-6c-0,-0 -2.667,4.5 -3,6c-0.229,1.029 1,2 1,3c-0,0.484 -0.235,0.969 -0.477,1.453Z" style="fill:#030a1d;"/>
    <path d="M66.204,72.047l0.047,-0.094c0.242,-0.484 0.476,-0.969 0.476,-1.453c0,-1 -0.833,-2 -1,-3c-0.164,-0.986 0,-3 0,-3l-3.546,-0c-0.034,0.908 -0.059,2.228 0.041,2.929c0.068,0.475 0.304,0.926 0.514,1.375c0.264,0.564 0.491,1.126 0.491,1.696c0,0.572 -0.266,1.151 -0.552,1.724c-0.214,0.427 -0.448,0.848 -0.448,1.276c0,0.928 0.948,2.776 0.948,2.776c0.123,0.247 0.023,0.548 -0.224,0.671c-0.247,0.124 -0.547,0.023 -0.671,-0.223c0,-0 -1.053,-2.152 -1.053,-3.224c0,-0.572 0.267,-1.151 0.553,-1.724c0.214,-0.427 0.447,-0.848 0.447,-1.276c0,-0.43 -0.198,-0.846 -0.397,-1.272c-0.252,-0.539 -0.516,-1.088 -0.598,-1.657c-0.105,-0.736 -0.082,-2.116 -0.049,-3.071l-2.832,-0c0,-0 -0.223,2.025 0,3c0.23,1 1.314,2 1.376,3c0.063,1 -1,2 -1,3c0,1 0.488,2.079 1,3c0.834,1.5 4,6 4,6c0,-0 2.667,-4.5 3,-6c0.229,-1.029 -1,-2 -1,-3c0,-0.484 0.235,-0.969 0.477,-1.453Z" style="fill:#030a1d;"/>
    <path d="M53.7,63.047l0.047,-0.094c0.242,-0.484 0.477,-0.969 0.477,-1.453c-0,-1 -0.834,-2 -1,-3c-0.165,-0.986 -0,-3 -0,-3l-3.547,-0c-0.034,0.908 -0.059,2.228 0.042,2.929c0.067,0.475 0.303,0.926 0.513,1.375c0.264,0.564 0.492,1.126 0.492,1.696c-0,0.572 -0.267,1.151 -0.553,1.724c-0.214,0.427 -0.447,0.848 -0.447,1.276c-0,0.928 0.947,2.776 0.947,2.776c0.123,0.247 0.023,0.548 -0.224,0.671c-0.247,0.124 -0.547,0.023 -0.671,-0.223c0,-0 -1.052,-2.152 -1.052,-3.224c-0,-0.572 0.266,-1.151 0.552,-1.724c0.214,-0.427 0.448,-0.848 0.448,-1.276c-0,-0.43 -0.198,-0.846 -0.397,-1.272c-0.253,-0.539 -0.517,-1.088 -0.598,-1.657c-0.105,-0.736 -0.083,-2.116 -0.05,-3.071l-2.832,-0c0,-0 -0.223,2.025 0,3c0.23,1 1.314,2 1.377,3c0.062,1 -1,2 -1,3c-0,1 0.488,2.079 1,3c0.833,1.5 4,6 4,6c-0,-0 2.666,-4.5 3,-6c0.228,-1.029 -1,-2 -1,-3c-0,-0.484 0.234,-0.969 0.476,-1.453Z" style="fill:#030a1d;"/>
</svg>
