<svg clip-rule="evenodd" fill-rule="evenodd" stroke-linejoin="round" stroke-miterlimit="2" version="1.1" viewBox="0 0 100 125" xml:space="preserve" xmlns="http://www.w3.org/2000/svg" xmlns:serif="http://www.serif.com/">
    <path d="m23.286 22.44c0 0.476-0.054 0.924-0.161 1.344s-0.294 0.786-0.56 1.099-0.625 0.56-1.078 0.742-1.024 0.273-1.715 0.273c-0.635 0-1.181-0.077-1.638-0.231s-0.835-0.334-1.134-0.539l0.728-1.694c0.271 0.159 0.56 0.299 0.868 0.42s0.644 0.182 1.008 0.182c0.532 0 0.915-0.131 1.148-0.392s0.35-0.7 0.35-1.316v-6.328h2.184v6.44z" fill="#030a1d" fill-rule="nonzero"/>
    <path d="m78.714 102.56c0-0.476 0.054-0.924 0.161-1.344s0.294-0.786 0.56-1.099 0.625-0.56 1.078-0.742 1.024-0.273 1.715-0.273c0.635 0 1.181 0.077 1.638 0.231s0.835 0.334 1.134 0.539l-0.728 1.694c-0.271-0.159-0.56-0.299-0.868-0.42s-0.644-0.182-1.008-0.182c-0.532 0-0.915 0.131-1.148 0.392s-0.35 0.7-0.35 1.316v6.328h-2.184v-6.44z" fill="#030a1d" fill-rule="nonzero"/>
    <path d="m55.28 68.831v13.098c-0 0.448-0.178 0.877-0.495 1.194s-0.747 0.495-1.195 0.495h-0.375c-0.626 0-1.151-0.475-1.213-1.098l-0.735-7.349h-2.534l-0.725 7.247c-0.068 0.681-0.641 1.2-1.326 1.2h-0.272c-0.448 0-0.878-0.178-1.195-0.495s-0.495-0.746-0.495-1.194v-13.094l-4.233 1.694c-0.635 0.254-1.359 0.105-1.842-0.378l-0.012-0.012c-0.337-0.337-0.517-0.798-0.499-1.273 0.018-0.476 0.234-0.922 0.595-1.231 2.143-1.837 5.991-5.135 5.991-5.135v-1.414c-2.263-1.311-3.996-3.438-4.795-5.977h-0.906c-0.933-0-1.69-0.757-1.69-1.69v-2.956c0-0.933 0.757-1.69 1.69-1.69h0.906c1.347-4.281 5.35-7.391 10.075-7.391s8.728 3.11 10.075 7.391h0.906c0.933 0 1.69 0.757 1.69 1.69v2.956c-0 0.933-0.757 1.69-1.69 1.69h-0.906c-0.799 2.539-2.532 4.666-4.795 5.977v1.41s3.867 3.316 6.007 5.151c0.357 0.307 0.57 0.748 0.588 1.218s-0.161 0.927-0.493 1.259l-0.035 0.035c-0.478 0.478-1.195 0.625-1.823 0.373-1.537-0.616-4.244-1.701-4.244-1.701zm-5.28-20.058c1.748 0 3.168 1.42 3.168 3.168s-1.42 3.168-3.168 3.168-3.168-1.42-3.168-3.168 1.42-3.168 3.168-3.168z" fill="#030a1d"/>
    <path d="m76.048 83.555-0.047 0.094c-0.242 0.484-0.476 0.969-0.476 1.453-0 1 0.833 2 1 3 0.164 0.986-0 3-0 3h3.546c0.034-0.908 0.059-2.228-0.041-2.929-0.068-0.475-0.304-0.926-0.514-1.375-0.264-0.564-0.491-1.126-0.491-1.696-0-0.572 0.266-1.151 0.552-1.724 0.214-0.427 0.448-0.848 0.448-1.276-0-0.928-0.948-2.776-0.948-2.776-0.123-0.247-0.023-0.548 0.224-0.671 0.247-0.124 0.547-0.023 0.671 0.223-0 0 1.053 2.152 1.053 3.224-0 0.572-0.267 1.151-0.553 1.724-0.214 0.427-0.447 0.848-0.447 1.276-0 0.43 0.198 0.846 0.397 1.272 0.252 0.539 0.516 1.088 0.598 1.657 0.105 0.736 0.082 2.116 0.049 3.071h2.832s0.223-2.025-0-3c-0.23-1-1.314-2-1.376-3-0.063-1 1-2 1-3s-0.489-2.079-1-3c-0.834-1.5-4-6-4-6s-2.667 4.5-3 6c-0.229 1.029 1 2 1 3-0 0.484-0.235 0.969-0.477 1.453z" fill="#030a1d"/>
    <path d="m23.952 41.445 0.047-0.094c0.242-0.484 0.476-0.969 0.476-1.453 0-1-0.833-2-1-3-0.164-0.986 0-3 0-3h-3.546c-0.034 0.908-0.059 2.228 0.041 2.929 0.068 0.475 0.304 0.926 0.514 1.375 0.264 0.564 0.491 1.126 0.491 1.696 0 0.572-0.266 1.151-0.552 1.724-0.214 0.427-0.448 0.848-0.448 1.276 0 0.928 0.948 2.776 0.948 2.776 0.123 0.247 0.023 0.548-0.224 0.671-0.247 0.124-0.547 0.023-0.671-0.223 0-0-1.053-2.152-1.053-3.224 0-0.572 0.267-1.151 0.553-1.724 0.214-0.427 0.447-0.848 0.447-1.276 0-0.43-0.198-0.846-0.397-1.272-0.252-0.539-0.516-1.088-0.598-1.657-0.105-0.736-0.082-2.116-0.049-3.071h-2.832s-0.223 2.025 0 3c0.23 1 1.314 2 1.376 3 0.063 1-1 2-1 3s0.489 2.079 1 3c0.834 1.5 4 6 4 6s2.667-4.5 3-6c0.229-1.029-1-2-1-3 0-0.484 0.235-0.969 0.477-1.453z" fill="#030a1d"/>
</svg>
