<?xml version="1.0" encoding="UTF-8" standalone="no"?>
<!DOCTYPE svg PUBLIC "-//W3C//DTD SVG 1.1//EN" "http://www.w3.org/Graphics/SVG/1.1/DTD/svg11.dtd">
<svg width="100%" height="100%" viewBox="0 0 100 125" version="1.1" xmlns="http://www.w3.org/2000/svg" xmlns:xlink="http://www.w3.org/1999/xlink" xml:space="preserve" xmlns:serif="http://www.serif.com/" style="fill-rule:evenodd;clip-rule:evenodd;stroke-linejoin:round;stroke-miterlimit:2;">
    <rect id="Jack-of-Seaweed" serif:id="Jack of Seaweed" x="0" y="0" width="100" height="125" style="fill:none;"/>
    <path d="M23.286,22.44c0,0.476 -0.054,0.924 -0.161,1.344c-0.107,0.42 -0.294,0.786 -0.56,1.099c-0.266,0.313 -0.625,0.56 -1.078,0.742c-0.453,0.182 -1.024,0.273 -1.715,0.273c-0.635,0 -1.181,-0.077 -1.638,-0.231c-0.457,-0.154 -0.835,-0.334 -1.134,-0.539l0.728,-1.694c0.271,0.159 0.56,0.299 0.868,0.42c0.308,0.121 0.644,0.182 1.008,0.182c0.532,0 0.915,-0.131 1.148,-0.392c0.233,-0.261 0.35,-0.7 0.35,-1.316l0,-6.328l2.184,0l0,6.44Z" style="fill:#030a1d;fill-rule:nonzero;"/>
    <path d="M78.714,102.56c0,-0.476 0.054,-0.924 0.161,-1.344c0.107,-0.42 0.294,-0.786 0.56,-1.099c0.266,-0.313 0.625,-0.56 1.078,-0.742c0.453,-0.182 1.024,-0.273 1.715,-0.273c0.635,0 1.181,0.077 1.638,0.231c0.457,0.154 0.835,0.334 1.134,0.539l-0.728,1.694c-0.271,-0.159 -0.56,-0.299 -0.868,-0.42c-0.308,-0.121 -0.644,-0.182 -1.008,-0.182c-0.532,0 -0.915,0.131 -1.148,0.392c-0.233,0.261 -0.35,0.7 -0.35,1.316l0,6.328l-2.184,0l0,-6.44Z" style="fill:#030a1d;fill-rule:nonzero;"/>
    <path d="M55.28,68.831l-0,13.098c-0,0.448 -0.178,0.877 -0.495,1.194c-0.317,0.317 -0.747,0.495 -1.195,0.495c-0.127,0 -0.253,0 -0.375,0c-0.626,0 -1.151,-0.475 -1.213,-1.098l-0.735,-7.349l-2.534,-0l-0.725,7.247c-0.068,0.681 -0.641,1.2 -1.326,1.2c-0.089,0 -0.18,0 -0.272,0c-0.448,0 -0.878,-0.178 -1.195,-0.495c-0.317,-0.317 -0.495,-0.746 -0.495,-1.194l0,-13.094l-4.233,1.694c-0.635,0.254 -1.359,0.105 -1.842,-0.378c-0.004,-0.004 -0.008,-0.008 -0.012,-0.012c-0.337,-0.337 -0.517,-0.798 -0.499,-1.273c0.018,-0.476 0.234,-0.922 0.595,-1.231c2.143,-1.837 5.991,-5.135 5.991,-5.135l0,-1.414c-2.263,-1.311 -3.996,-3.438 -4.795,-5.977l-0.906,-0c-0.933,-0 -1.69,-0.757 -1.69,-1.69c0,-0.915 0,-2.041 0,-2.956c0,-0.933 0.757,-1.69 1.69,-1.69l0.906,0c1.347,-4.281 5.35,-7.391 10.075,-7.391c4.725,-0 8.728,3.11 10.075,7.391l0.906,0c0.933,0 1.69,0.757 1.69,1.69c-0,0.915 -0,2.041 -0,2.956c-0,0.933 -0.757,1.69 -1.69,1.69l-0.906,-0c-0.799,2.539 -2.532,4.666 -4.795,5.977l-0,1.41c-0,0 3.867,3.316 6.007,5.151c0.357,0.307 0.57,0.748 0.588,1.218c0.018,0.47 -0.161,0.927 -0.493,1.259c-0.012,0.012 -0.023,0.023 -0.035,0.035c-0.478,0.478 -1.195,0.625 -1.823,0.373c-1.537,-0.616 -4.244,-1.701 -4.244,-1.701Zm-5.28,-20.058c1.748,0 3.168,1.42 3.168,3.168c-0,1.748 -1.42,3.168 -3.168,3.168c-1.748,-0 -3.168,-1.42 -3.168,-3.168c0,-1.748 1.42,-3.168 3.168,-3.168Z" style="fill:#030a1d;"/>
    <path d="M76.048,83.555l-0.047,0.094c-0.242,0.484 -0.476,0.969 -0.476,1.453c-0,1 0.833,2 1,3c0.164,0.986 -0,3 -0,3l3.546,0c0.034,-0.908 0.059,-2.228 -0.041,-2.929c-0.068,-0.475 -0.304,-0.926 -0.514,-1.375c-0.264,-0.564 -0.491,-1.126 -0.491,-1.696c-0,-0.572 0.266,-1.151 0.552,-1.724c0.214,-0.427 0.448,-0.848 0.448,-1.276c-0,-0.928 -0.948,-2.776 -0.948,-2.776c-0.123,-0.247 -0.023,-0.548 0.224,-0.671c0.247,-0.124 0.547,-0.023 0.671,0.223c-0,0 1.053,2.152 1.053,3.224c-0,0.572 -0.267,1.151 -0.553,1.724c-0.214,0.427 -0.447,0.848 -0.447,1.276c-0,0.43 0.198,0.846 0.397,1.272c0.252,0.539 0.516,1.088 0.598,1.657c0.105,0.736 0.082,2.116 0.049,3.071l2.832,0c-0,0 0.223,-2.025 -0,-3c-0.23,-1 -1.314,-2 -1.376,-3c-0.063,-1 1,-2 1,-3c-0,-1 -0.489,-2.079 -1,-3c-0.834,-1.5 -4,-6 -4,-6c-0,0 -2.667,4.5 -3,6c-0.229,1.029 1,2 1,3c-0,0.484 -0.235,0.969 -0.477,1.453Z" style="fill:#030a1d;"/>
    <path d="M23.952,41.445l0.047,-0.094c0.242,-0.484 0.476,-0.969 0.476,-1.453c0,-1 -0.833,-2 -1,-3c-0.164,-0.986 0,-3 0,-3l-3.546,0c-0.034,0.908 -0.059,2.228 0.041,2.929c0.068,0.475 0.304,0.926 0.514,1.375c0.264,0.564 0.491,1.126 0.491,1.696c0,0.572 -0.266,1.151 -0.552,1.724c-0.214,0.427 -0.448,0.848 -0.448,1.276c0,0.928 0.948,2.776 0.948,2.776c0.123,0.247 0.023,0.548 -0.224,0.671c-0.247,0.124 -0.547,0.023 -0.671,-0.223c0,-0 -1.053,-2.152 -1.053,-3.224c0,-0.572 0.267,-1.151 0.553,-1.724c0.214,-0.427 0.447,-0.848 0.447,-1.276c0,-0.43 -0.198,-0.846 -0.397,-1.272c-0.252,-0.539 -0.516,-1.088 -0.598,-1.657c-0.105,-0.736 -0.082,-2.116 -0.049,-3.071l-2.832,0c0,0 -0.223,2.025 0,3c0.23,1 1.314,2 1.376,3c0.063,1 -1,2 -1,3c0,1 0.489,2.079 1,3c0.834,1.5 4,6 4,6c0,0 2.667,-4.5 3,-6c0.229,-1.029 -1,-2 -1,-3c0,-0.484 0.235,-0.969 0.477,-1.453Z" style="fill:#030a1d;"/>
</svg>
