<svg clip-rule="evenodd" fill-rule="evenodd" stroke-linejoin="round" stroke-miterlimit="2" viewBox="0 0 100 125" xmlns="http://www.w3.org/2000/svg">
    <path d="m23.706 25.702c-0.196-0.317-0.427-0.66-0.693-1.029s-0.555-0.737-0.868-1.106-0.637-0.723-0.973-1.064-0.672-0.642-1.008-0.903v4.102h-2.184v-9.702h2.184v3.668c0.569-0.597 1.141-1.22 1.715-1.869s1.108-1.248 1.603-1.799h2.59c-0.663 0.784-1.328 1.54-1.995 2.268s-1.37 1.461-2.107 2.198c0.775 0.644 1.524 1.409 2.247 2.296s1.416 1.867 2.079 2.94h-2.59z" fill="#030a1d" fill-rule="nonzero"/>
    <path d="m78.294 99.298c0.196 0.317 0.427 0.66 0.693 1.029s0.555 0.737 0.868 1.106 0.637 0.723 0.973 1.064 0.672 0.642 1.008 0.903v-4.102h2.184v9.702h-2.184v-3.668c-0.569 0.597-1.141 1.22-1.715 1.869s-1.108 1.248-1.603 1.799h-2.59c0.663-0.784 1.328-1.54 1.995-2.268s1.37-1.461 2.107-2.198c-0.775-0.644-1.524-1.409-2.247-2.296s-1.416-1.867-2.079-2.94h2.59z" fill="#030a1d" fill-rule="nonzero"/>
    <path d="m48.364 54.03c-0.525-0.403-0.851-1.021-0.878-1.692-0.031-0.765 0.33-1.494 0.957-1.933 3.985-2.789 11.209-7.847 15.723-11.008 0.72-0.503 1.667-0.542 2.425-0.098 0.758 0.443 1.188 1.288 1.101 2.162-0.545 5.484-1.417 14.259-1.898 19.1-0.076 0.762-0.534 1.433-1.217 1.78-0.682 0.348-1.494 0.324-2.155-0.063l-0.018-0.01c-0.185 0.798-0.521 1.606-1.028 2.381-1.425 2.176-3.633 3.219-5.561 3.139-0.538 0.824-0.914 1.474-1.108 1.771-0.582 0.894-2.195 1.991-2.205 3.185-0.01 1.256 7.257 2.998 6.809 4.467-0.463 1.518-5.914-1.263-6.809-0.153-1.12 1.391 4.448 3.172 3.541 4.039-1.024 0.977-3.615-0.154-6.006-1.358-2.204-1.11-5.089-2.93-6.07-6.447-0.075 0.179-0.139 0.361-0.194 0.548-0.306 1.037-0.369 2.19-0.029 3.31 0.388 1.276 1.398 2.265 2.336 3.462 0.126 0.161 0.266 0.313 0.367 0.494 0.069 0.125 0.107 0.256 0.146 0.394 0.416 1.452 0.483 2.651 1.04 4.16 0.079 0.081 0.076 0.212-5e-3 0.291-0.082 0.079-0.213 0.077-0.292-5e-3 -1.143-0.44-1.936-0.813-2.953-1.406-0.443-0.259-0.777-0.498-1.157-0.825-0.134-0.115-0.251-0.237-0.351-0.381-0.149-0.213-0.25-0.451-0.342-0.69-0.465-1.217-0.65-2.374-0.79-3.558-0.062-0.527-0.115-1.025-0.165-1.531-0.15-1.51-0.171-2.938 0.209-4.287 0.336-1.191 0.936-2.325 1.859-3.344 8e-3 -0.126 0.018-0.253 0.03-0.381 0.063-0.682 0.205-1.323 0.408-1.933-0.343 0.256-0.686 0.521-1.027 0.798-0.786 0.64-1.55 1.354-2.254 2.182-0.836 1.051-1.524 2.479-2.048 4.079-0.125 0.381-0.212 0.764-0.297 1.165-0.212 0.995-0.33 1.938-0.668 2.92-0.122 0.354-0.235 0.719-0.472 1.011-0.334 0.411-0.728 0.666-1.199 0.915-1.137 0.602-1.991 0.911-3.351 1.06-0.096 0.062-0.224 0.035-0.286-0.061-0.062-0.095-0.034-0.223 0.061-0.285 0.422-0.741 0.548-1.281 0.795-2.052 0.115-0.361 0.107-0.64 0.217-0.998 0.097-0.314 0.087-0.623 0.254-0.905 0.823-1.383 2.178-2.276 2.921-3.622 0.921-1.668 1.461-3.386 2.426-4.56 0.744-0.967 1.569-1.8 2.404-2.573 1.841-1.704 3.788-3.031 5.225-4.577-1.05-1.746-1.078-4.388 0.452-6.724 0.337-0.514 0.717-0.965 1.127-1.353zm11.162 9.261-0.302 0.438-0.301 0.363-0.372 0.373-0.231 0.197-0.052 0.042c-1.113 0.869-2.42 1.115-3.347 0.508-1.293-0.847-1.36-3.037-0.148-4.887s3.245-2.665 4.539-1.818c1.27 0.831 1.357 2.956 0.214 4.784zm-8.825-5.876-1e-3 2e-3c-0.033 0.066-0.067 0.131-0.101 0.196l-0.011 0.023-0.013 0.023c-0.027 0.052-0.054 0.102-0.081 0.153l-8e-3 0.015-0.026 0.047-0.026 0.048-0.026 0.047c-9e-3 0.015-0.017 0.031-0.026 0.047l-0.026 0.047-0.027 0.047-0.026 0.046-0.027 0.047-0.027 0.046-0.026 0.046-0.027 0.047-0.054 0.092-0.028 0.045-0.054 0.092-0.056 0.09-0.027 0.046-0.056 0.09-0.03 0.048-0.026 0.041-0.028 0.045-0.029 0.045-0.028 0.044-0.03 0.047-0.027 0.042-0.029 0.044-0.028 0.044-0.029 0.044-0.058 0.087-0.029 0.044-0.029 0.043-0.035 0.052-0.027 0.04-0.026 0.038-0.029 0.044-0.03 0.043-0.034 0.049-0.025 0.036-0.029 0.043-0.03 0.043-0.03 0.042-0.032 0.046-0.028 0.039-0.029 0.043-0.06 0.084-0.033 0.045-0.028 0.039-0.06 0.084-0.037 0.051-0.024 0.032-0.03 0.042-0.024 0.032c-0.015 0.021-0.031 0.042-0.046 0.063l-5e-3 7e-3c-0.032 0.043-0.064 0.087-0.096 0.13l-4e-3 4e-3c-0.016 0.022-0.032 0.043-0.048 0.065l-3e-3 4e-3c-0.016 0.022-0.033 0.044-0.049 0.066-0.51-0.998-0.381-2.484 0.408-3.834 0.049-0.084 0.101-0.167 0.155-0.25l0.017-0.026 0.018-0.026 0.017-0.026 0.018-0.026 0.017-0.025 0.018-0.026 0.072-0.1 0.019-0.025 0.018-0.025 0.019-0.024 0.018-0.025 0.038-0.048 0.023-0.03 0.019-0.023 0.018-0.022 0.018-0.023 0.019-0.022 0.017-0.021c0.026-0.031 0.052-0.061 0.078-0.091l0.023-0.026 0.02-0.022 0.02-0.023 0.02-0.021 0.04-0.044 0.01-0.01 0.019-0.02 0.02-0.021 0.019-0.02 0.073-0.073c0.579-0.574 1.242-0.966 1.892-1.139-0.275 1.028-0.65 1.963-1.089 2.831z" fill="#030a1d"/>
    <path d="m74.908 83.751-0.047 0.094c-0.242 0.484-0.476 0.969-0.476 1.453-0 1 0.833 2 1 3 0.164 0.986-0 3-0 3h3.546c0.034-0.908 0.059-2.228-0.041-2.929-0.068-0.475-0.304-0.926-0.514-1.375-0.264-0.564-0.491-1.126-0.491-1.696-0-0.572 0.266-1.151 0.552-1.724 0.214-0.427 0.448-0.848 0.448-1.276-0-0.928-0.948-2.776-0.948-2.776-0.123-0.247-0.023-0.548 0.224-0.671 0.247-0.124 0.547-0.023 0.671 0.223-0 0 1.053 2.152 1.053 3.224-0 0.572-0.267 1.151-0.553 1.724-0.214 0.427-0.447 0.848-0.447 1.276-0 0.43 0.198 0.846 0.397 1.272 0.252 0.539 0.516 1.088 0.598 1.657 0.105 0.736 0.082 2.116 0.049 3.071h2.832s0.223-2.025-0-3c-0.23-1-1.314-2-1.376-3-0.063-1 1-2 1-3s-0.489-2.079-1-3c-0.834-1.5-4-6-4-6s-2.667 4.5-3 6c-0.229 1.029 1 2 1 3-0 0.484-0.235 0.969-0.477 1.453z" fill="#030a1d"/>
    <path d="m24.932 41.249 0.047-0.094c0.242-0.484 0.476-0.969 0.476-1.453 0-1-0.833-2-1-3-0.164-0.986 0-3 0-3h-3.546c-0.034 0.908-0.059 2.228 0.041 2.929 0.068 0.475 0.304 0.926 0.514 1.375 0.264 0.564 0.491 1.126 0.491 1.696 0 0.572-0.266 1.151-0.552 1.724-0.214 0.427-0.448 0.848-0.448 1.276 0 0.928 0.948 2.776 0.948 2.776 0.123 0.247 0.023 0.548-0.224 0.671-0.247 0.124-0.547 0.023-0.671-0.223 0-0-1.053-2.152-1.053-3.224 0-0.572 0.267-1.151 0.553-1.724 0.214-0.427 0.447-0.848 0.447-1.276 0-0.43-0.198-0.846-0.397-1.272-0.252-0.539-0.516-1.088-0.598-1.657-0.105-0.736-0.082-2.116-0.049-3.071h-2.832s-0.223 2.025 0 3c0.23 1 1.314 2 1.376 3 0.063 1-1 2-1 3s0.489 2.079 1 3c0.834 1.5 4 6 4 6s2.667-4.5 3-6c0.229-1.029-1-2-1-3 0-0.484 0.235-0.969 0.477-1.453z" fill="#030a1d"/>
</svg>
