<?xml version="1.0" encoding="UTF-8" standalone="no"?>
<!DOCTYPE svg PUBLIC "-//W3C//DTD SVG 1.1//EN" "http://www.w3.org/Graphics/SVG/1.1/DTD/svg11.dtd">
<svg width="100%" height="100%" viewBox="0 0 100 125" version="1.1" xmlns="http://www.w3.org/2000/svg" xmlns:xlink="http://www.w3.org/1999/xlink" xml:space="preserve" xmlns:serif="http://www.serif.com/" style="fill-rule:evenodd;clip-rule:evenodd;stroke-linejoin:round;stroke-miterlimit:2;">
    <rect id="King-of-Seaweed" serif:id="King of Seaweed" x="0" y="0" width="100" height="125" style="fill:none;"/>
    <path d="M23.706,25.702c-0.196,-0.317 -0.427,-0.66 -0.693,-1.029c-0.266,-0.369 -0.555,-0.737 -0.868,-1.106c-0.313,-0.369 -0.637,-0.723 -0.973,-1.064c-0.336,-0.341 -0.672,-0.642 -1.008,-0.903l-0,4.102l-2.184,0l-0,-9.702l2.184,0l-0,3.668c0.569,-0.597 1.141,-1.22 1.715,-1.869c0.574,-0.649 1.108,-1.248 1.603,-1.799l2.59,0c-0.663,0.784 -1.328,1.54 -1.995,2.268c-0.667,0.728 -1.37,1.461 -2.107,2.198c0.775,0.644 1.524,1.409 2.247,2.296c0.723,0.887 1.416,1.867 2.079,2.94l-2.59,0Z" style="fill:#030a1d;fill-rule:nonzero;"/>
    <path d="M78.294,99.298c0.196,0.317 0.427,0.66 0.693,1.029c0.266,0.369 0.555,0.737 0.868,1.106c0.313,0.369 0.637,0.723 0.973,1.064c0.336,0.341 0.672,0.642 1.008,0.903l-0,-4.102l2.184,0l-0,9.702l-2.184,0l-0,-3.668c-0.569,0.597 -1.141,1.22 -1.715,1.869c-0.574,0.649 -1.108,1.248 -1.603,1.799l-2.59,0c0.663,-0.784 1.328,-1.54 1.995,-2.268c0.667,-0.728 1.37,-1.461 2.107,-2.198c-0.775,-0.644 -1.524,-1.409 -2.247,-2.296c-0.723,-0.887 -1.416,-1.867 -2.079,-2.94l2.59,0Z" style="fill:#030a1d;fill-rule:nonzero;"/>
    <path d="M48.364,54.03c-0.525,-0.403 -0.851,-1.021 -0.878,-1.692c-0.031,-0.765 0.33,-1.494 0.957,-1.933c3.985,-2.789 11.209,-7.847 15.723,-11.008c0.72,-0.503 1.667,-0.542 2.425,-0.098c0.758,0.443 1.188,1.288 1.101,2.162c-0.545,5.484 -1.417,14.259 -1.898,19.1c-0.076,0.762 -0.534,1.433 -1.217,1.78c-0.682,0.348 -1.494,0.324 -2.155,-0.063l-0.018,-0.01c-0.185,0.798 -0.521,1.606 -1.028,2.381c-1.425,2.176 -3.633,3.219 -5.561,3.139c-0.538,0.824 -0.914,1.474 -1.108,1.771c-0.582,0.894 -2.195,1.991 -2.205,3.185c-0.01,1.256 7.257,2.998 6.809,4.467c-0.463,1.518 -5.914,-1.263 -6.809,-0.153c-1.12,1.391 4.448,3.172 3.541,4.039c-1.024,0.977 -3.615,-0.154 -6.006,-1.358c-2.204,-1.11 -5.089,-2.93 -6.07,-6.447c-0.075,0.179 -0.139,0.361 -0.194,0.548c-0.306,1.037 -0.369,2.19 -0.029,3.31c0.388,1.276 1.398,2.265 2.336,3.462c0.126,0.161 0.266,0.313 0.367,0.494c0.069,0.125 0.107,0.256 0.146,0.394c0.416,1.452 0.483,2.651 1.04,4.16c0.079,0.081 0.076,0.212 -0.005,0.291c-0.082,0.079 -0.213,0.077 -0.292,-0.005c-1.143,-0.44 -1.936,-0.813 -2.953,-1.406c-0.443,-0.259 -0.777,-0.498 -1.157,-0.825c-0.134,-0.115 -0.251,-0.237 -0.351,-0.381c-0.149,-0.213 -0.25,-0.451 -0.342,-0.69c-0.465,-1.217 -0.65,-2.374 -0.79,-3.558c-0.062,-0.527 -0.115,-1.025 -0.165,-1.531c-0.15,-1.51 -0.171,-2.938 0.209,-4.287c0.336,-1.191 0.936,-2.325 1.859,-3.344c0.008,-0.126 0.018,-0.253 0.03,-0.381c0.063,-0.682 0.205,-1.323 0.408,-1.933c-0.343,0.256 -0.686,0.521 -1.027,0.798c-0.786,0.64 -1.55,1.354 -2.254,2.182c-0.836,1.051 -1.524,2.479 -2.048,4.079c-0.125,0.381 -0.212,0.764 -0.297,1.165c-0.212,0.995 -0.33,1.938 -0.668,2.92c-0.122,0.354 -0.235,0.719 -0.472,1.011c-0.334,0.411 -0.728,0.666 -1.199,0.915c-1.137,0.602 -1.991,0.911 -3.351,1.06c-0.096,0.062 -0.224,0.035 -0.286,-0.061c-0.062,-0.095 -0.034,-0.223 0.061,-0.285c0.422,-0.741 0.548,-1.281 0.795,-2.052c0.115,-0.361 0.107,-0.64 0.217,-0.998c0.097,-0.314 0.087,-0.623 0.254,-0.905c0.823,-1.383 2.178,-2.276 2.921,-3.622c0.921,-1.668 1.461,-3.386 2.426,-4.56c0.744,-0.967 1.569,-1.8 2.404,-2.573c1.841,-1.704 3.788,-3.031 5.225,-4.577c-1.05,-1.746 -1.078,-4.388 0.452,-6.724c0.337,-0.514 0.717,-0.965 1.127,-1.353Zm11.162,9.261l-0.302,0.438l-0.301,0.363l-0.372,0.373l-0.231,0.197l-0.052,0.042c-1.113,0.869 -2.42,1.115 -3.347,0.508c-1.293,-0.847 -1.36,-3.037 -0.148,-4.887c1.212,-1.85 3.245,-2.665 4.539,-1.818c1.27,0.831 1.357,2.956 0.214,4.784Zm-8.825,-5.876l-0.001,0.002c-0.033,0.066 -0.067,0.131 -0.101,0.196l-0.011,0.023l-0.013,0.023c-0.027,0.052 -0.054,0.102 -0.081,0.153l-0.008,0.015l-0.026,0.047l-0.026,0.048l-0.026,0.047c-0.009,0.015 -0.017,0.031 -0.026,0.047l-0.026,0.047l-0.027,0.047l-0.026,0.046l-0.027,0.047l-0.027,0.046l-0.026,0.046l-0.027,0.047l-0.027,0.046l-0.027,0.046l-0.028,0.045l-0.027,0.046l-0.027,0.046l-0.028,0.045l-0.028,0.045l-0.027,0.046l-0.028,0.045l-0.028,0.045l-0.03,0.048l-0.026,0.041l-0.028,0.045l-0.029,0.045l-0.028,0.044l-0.03,0.047l-0.027,0.042l-0.029,0.044l-0.028,0.044l-0.029,0.044l-0.03,0.045l-0.028,0.042l-0.029,0.044l-0.029,0.043l-0.035,0.052l-0.027,0.04l-0.026,0.038l-0.029,0.044l-0.03,0.043l-0.034,0.049l-0.025,0.036l-0.029,0.043l-0.03,0.043l-0.03,0.042l-0.032,0.046l-0.028,0.039l-0.029,0.043l-0.03,0.042l-0.03,0.042l-0.033,0.045l-0.028,0.039l-0.03,0.042l-0.03,0.042l-0.037,0.051l-0.024,0.032l-0.03,0.042l-0.024,0.032c-0.015,0.021 -0.031,0.042 -0.046,0.063l-0.005,0.007c-0.032,0.043 -0.064,0.087 -0.096,0.13l-0.004,0.004c-0.016,0.022 -0.032,0.043 -0.048,0.065l-0.003,0.004c-0.016,0.022 -0.033,0.044 -0.049,0.066c-0.51,-0.998 -0.381,-2.484 0.408,-3.834c0.049,-0.084 0.101,-0.167 0.155,-0.25l0.017,-0.026l0.018,-0.026l0.017,-0.026l0.018,-0.026l0.017,-0.025l0.018,-0.026l0.018,-0.025l0.018,-0.025l0.018,-0.025l0.018,-0.025l0.019,-0.025l0.018,-0.025l0.019,-0.024l0.018,-0.025l0.019,-0.024l0.019,-0.024l0.023,-0.03l0.019,-0.023l0.018,-0.022l0.018,-0.023l0.019,-0.022l0.017,-0.021c0.026,-0.031 0.052,-0.061 0.078,-0.091l0.023,-0.026l0.02,-0.022l0.02,-0.023l0.02,-0.021l0.02,-0.022l0.02,-0.022l0.01,-0.01l0.019,-0.02l0.02,-0.021l0.019,-0.02l0.02,-0.02l0.02,-0.02l0.02,-0.02l0.013,-0.013c0.579,-0.574 1.242,-0.966 1.892,-1.139c-0.275,1.028 -0.65,1.963 -1.089,2.831Z" style="fill:#030a1d;"/>
    <path d="M74.908,83.751l-0.047,0.094c-0.242,0.484 -0.476,0.969 -0.476,1.453c-0,1 0.833,2 1,3c0.164,0.986 -0,3 -0,3l3.546,0c0.034,-0.908 0.059,-2.228 -0.041,-2.929c-0.068,-0.475 -0.304,-0.926 -0.514,-1.375c-0.264,-0.564 -0.491,-1.126 -0.491,-1.696c-0,-0.572 0.266,-1.151 0.552,-1.724c0.214,-0.427 0.448,-0.848 0.448,-1.276c-0,-0.928 -0.948,-2.776 -0.948,-2.776c-0.123,-0.247 -0.023,-0.548 0.224,-0.671c0.247,-0.124 0.547,-0.023 0.671,0.223c-0,0 1.053,2.152 1.053,3.224c-0,0.572 -0.267,1.151 -0.553,1.724c-0.214,0.427 -0.447,0.848 -0.447,1.276c-0,0.43 0.198,0.846 0.397,1.272c0.252,0.539 0.516,1.088 0.598,1.657c0.105,0.736 0.082,2.116 0.049,3.071l2.832,0c-0,0 0.223,-2.025 -0,-3c-0.23,-1 -1.314,-2 -1.376,-3c-0.063,-1 1,-2 1,-3c-0,-1 -0.489,-2.079 -1,-3c-0.834,-1.5 -4,-6 -4,-6c-0,0 -2.667,4.5 -3,6c-0.229,1.029 1,2 1,3c-0,0.484 -0.235,0.969 -0.477,1.453Z" style="fill:#030a1d;"/>
    <path d="M24.932,41.249l0.047,-0.094c0.242,-0.484 0.476,-0.969 0.476,-1.453c0,-1 -0.833,-2 -1,-3c-0.164,-0.986 0,-3 0,-3l-3.546,0c-0.034,0.908 -0.059,2.228 0.041,2.929c0.068,0.475 0.304,0.926 0.514,1.375c0.264,0.564 0.491,1.126 0.491,1.696c0,0.572 -0.266,1.151 -0.552,1.724c-0.214,0.427 -0.448,0.848 -0.448,1.276c0,0.928 0.948,2.776 0.948,2.776c0.123,0.247 0.023,0.548 -0.224,0.671c-0.247,0.124 -0.547,0.023 -0.671,-0.223c0,-0 -1.053,-2.152 -1.053,-3.224c0,-0.572 0.267,-1.151 0.553,-1.724c0.214,-0.427 0.447,-0.848 0.447,-1.276c0,-0.43 -0.198,-0.846 -0.397,-1.272c-0.252,-0.539 -0.516,-1.088 -0.598,-1.657c-0.105,-0.736 -0.082,-2.116 -0.049,-3.071l-2.832,0c0,0 -0.223,2.025 0,3c0.23,1 1.314,2 1.376,3c0.063,1 -1,2 -1,3c0,1 0.489,2.079 1,3c0.834,1.5 4,6 4,6c0,0 2.667,-4.5 3,-6c0.229,-1.029 -1,-2 -1,-3c0,-0.484 0.235,-0.969 0.477,-1.453Z" style="fill:#030a1d;"/>
</svg>
