<?xml version="1.0" encoding="UTF-8" standalone="no"?>
<!DOCTYPE svg PUBLIC "-//W3C//DTD SVG 1.1//EN" "http://www.w3.org/Graphics/SVG/1.1/DTD/svg11.dtd">
<svg width="100%" height="100%" viewBox="0 0 100 125" version="1.1" xmlns="http://www.w3.org/2000/svg" xmlns:xlink="http://www.w3.org/1999/xlink" xml:space="preserve" xmlns:serif="http://www.serif.com/" style="fill-rule:evenodd;clip-rule:evenodd;stroke-linejoin:round;stroke-miterlimit:2;">
    <rect id="Nine-of-Seaweed" serif:id="Nine of Seaweed" x="0" y="0" width="100" height="125" style="fill:none;"/>
    <path d="M20.906,20.494c0.215,-0 0.439,-0.021 0.672,-0.063c0.233,-0.042 0.406,-0.1 0.518,-0.175l-0,-0.126c-0,-0.037 0.002,-0.075 0.007,-0.112c0.005,-0.037 0.007,-0.07 0.007,-0.098c-0.009,-0.336 -0.037,-0.651 -0.084,-0.945c-0.047,-0.294 -0.126,-0.551 -0.238,-0.77c-0.112,-0.219 -0.264,-0.392 -0.455,-0.518c-0.191,-0.126 -0.427,-0.189 -0.707,-0.189c-0.224,-0 -0.42,0.047 -0.588,0.14c-0.168,0.093 -0.303,0.215 -0.406,0.364c-0.103,0.149 -0.18,0.313 -0.231,0.49c-0.051,0.177 -0.077,0.35 -0.077,0.518c-0,0.504 0.124,0.877 0.371,1.12c0.247,0.243 0.651,0.364 1.211,0.364Zm1.022,1.358c-0.196,0.093 -0.413,0.161 -0.651,0.203c-0.238,0.042 -0.441,0.063 -0.609,0.063c-0.607,-0 -1.125,-0.072 -1.554,-0.217c-0.429,-0.145 -0.782,-0.35 -1.057,-0.616c-0.275,-0.266 -0.478,-0.586 -0.609,-0.959c-0.131,-0.373 -0.196,-0.784 -0.196,-1.232c-0,-0.373 0.063,-0.756 0.189,-1.148c0.126,-0.392 0.324,-0.749 0.595,-1.071c0.271,-0.322 0.614,-0.588 1.029,-0.798c0.415,-0.21 0.917,-0.315 1.505,-0.315c1.204,-0 2.112,0.371 2.723,1.113c0.611,0.742 0.917,1.808 0.917,3.199c-0,0.915 -0.119,1.722 -0.357,2.422c-0.238,0.7 -0.607,1.288 -1.106,1.764c-0.499,0.476 -1.136,0.838 -1.911,1.085c-0.775,0.247 -1.694,0.376 -2.758,0.385c-0.009,-0.299 -0.023,-0.588 -0.042,-0.868c-0.019,-0.28 -0.037,-0.569 -0.056,-0.868c0.532,-0.009 1.013,-0.049 1.442,-0.119c0.429,-0.07 0.807,-0.187 1.134,-0.35c0.327,-0.163 0.604,-0.38 0.833,-0.651c0.229,-0.271 0.408,-0.611 0.539,-1.022Z" style="fill:#030a1d;fill-rule:nonzero;"/>
    <path d="M81.094,104.506c-0.215,-0 -0.439,0.021 -0.672,0.063c-0.233,0.042 -0.406,0.1 -0.518,0.175l-0,0.126c-0,0.037 -0.002,0.075 -0.007,0.112c-0.005,0.037 -0.007,0.07 -0.007,0.098c0.009,0.336 0.037,0.651 0.084,0.945c0.047,0.294 0.126,0.551 0.238,0.77c0.112,0.219 0.264,0.392 0.455,0.518c0.191,0.126 0.427,0.189 0.707,0.189c0.224,-0 0.42,-0.047 0.588,-0.14c0.168,-0.093 0.303,-0.215 0.406,-0.364c0.103,-0.149 0.18,-0.313 0.231,-0.49c0.051,-0.177 0.077,-0.35 0.077,-0.518c-0,-0.504 -0.124,-0.877 -0.371,-1.12c-0.247,-0.243 -0.651,-0.364 -1.211,-0.364Zm-1.022,-1.358c0.196,-0.093 0.413,-0.161 0.651,-0.203c0.238,-0.042 0.441,-0.063 0.609,-0.063c0.607,-0 1.125,0.072 1.554,0.217c0.429,0.145 0.782,0.35 1.057,0.616c0.275,0.266 0.478,0.586 0.609,0.959c0.131,0.373 0.196,0.784 0.196,1.232c-0,0.373 -0.063,0.756 -0.189,1.148c-0.126,0.392 -0.324,0.749 -0.595,1.071c-0.271,0.322 -0.614,0.588 -1.029,0.798c-0.415,0.21 -0.917,0.315 -1.505,0.315c-1.204,-0 -2.112,-0.371 -2.723,-1.113c-0.611,-0.742 -0.917,-1.808 -0.917,-3.199c-0,-0.915 0.119,-1.722 0.357,-2.422c0.238,-0.7 0.607,-1.288 1.106,-1.764c0.499,-0.476 1.136,-0.838 1.911,-1.085c0.775,-0.247 1.694,-0.376 2.758,-0.385c0.009,0.299 0.023,0.588 0.042,0.868c0.019,0.28 0.037,0.569 0.056,0.868c-0.532,0.009 -1.013,0.049 -1.442,0.119c-0.429,0.07 -0.807,0.187 -1.134,0.35c-0.327,0.163 -0.604,0.38 -0.833,0.651c-0.229,0.271 -0.408,0.611 -0.539,1.022Z" style="fill:#030a1d;fill-rule:nonzero;"/>
    <path d="M58.804,43.953l-0.047,0.094c-0.242,0.484 -0.477,0.969 -0.477,1.453c0,1 0.834,2 1,3c0.165,0.986 0,3 0,3l3.547,-0c0.034,-0.908 0.059,-2.228 -0.042,-2.929c-0.067,-0.475 -0.303,-0.926 -0.514,-1.375c-0.263,-0.564 -0.491,-1.126 -0.491,-1.696c0,-0.572 0.267,-1.151 0.553,-1.724c0.214,-0.427 0.447,-0.848 0.447,-1.276c0,-0.928 -0.947,-2.776 -0.947,-2.776c-0.123,-0.247 -0.023,-0.548 0.224,-0.671c0.246,-0.124 0.547,-0.023 0.67,0.223c0,0 1.053,2.152 1.053,3.224c0,0.572 -0.266,1.151 -0.553,1.724c-0.213,0.427 -0.447,0.848 -0.447,1.276c0,0.43 0.198,0.846 0.397,1.272c0.253,0.539 0.517,1.088 0.598,1.657c0.105,0.736 0.083,2.116 0.05,3.071l2.831,-0c0,-0 0.224,-2.025 0,-3c-0.229,-1 -1.313,-2 -1.376,-3c-0.062,-1 1,-2 1,-3c0,-1 -0.488,-2.079 -1,-3c-0.833,-1.5 -4,-6 -4,-6c0,-0 -2.666,4.5 -3,6c-0.228,1.029 1,2 1,3c0,0.484 -0.234,0.969 -0.476,1.453Z" style="fill:#030a1d;"/>
    <path d="M41.196,63.047l0.047,-0.094c0.242,-0.484 0.477,-0.969 0.477,-1.453c-0,-1 -0.834,-2 -1,-3c-0.165,-0.986 -0,-3 -0,-3l-3.547,-0c-0.034,0.908 -0.059,2.228 0.042,2.929c0.067,0.475 0.303,0.926 0.514,1.375c0.263,0.564 0.491,1.126 0.491,1.696c-0,0.572 -0.267,1.151 -0.553,1.724c-0.214,0.427 -0.447,0.848 -0.447,1.276c-0,0.928 0.947,2.776 0.947,2.776c0.123,0.247 0.023,0.548 -0.224,0.671c-0.246,0.124 -0.547,0.023 -0.67,-0.223c-0,-0 -1.053,-2.152 -1.053,-3.224c-0,-0.572 0.266,-1.151 0.553,-1.724c0.213,-0.427 0.447,-0.848 0.447,-1.276c-0,-0.43 -0.198,-0.846 -0.397,-1.272c-0.253,-0.539 -0.517,-1.088 -0.598,-1.657c-0.105,-0.736 -0.083,-2.116 -0.05,-3.071l-2.831,-0c-0,-0 -0.224,2.025 -0,3c0.229,1 1.313,2 1.376,3c0.062,1 -1,2 -1,3c-0,1 0.488,2.079 1,3c0.833,1.5 4,6 4,6c-0,-0 2.666,-4.5 3,-6c0.228,-1.029 -1,-2 -1,-3c-0,-0.484 0.234,-0.969 0.476,-1.453Z" style="fill:#030a1d;"/>
    <path d="M33.796,43.953l-0.047,0.094c-0.242,0.484 -0.476,0.969 -0.476,1.453c-0,1 0.833,2 1,3c0.164,0.986 -0,3 -0,3l3.546,-0c0.034,-0.908 0.059,-2.228 -0.041,-2.929c-0.068,-0.475 -0.304,-0.926 -0.514,-1.375c-0.264,-0.564 -0.491,-1.126 -0.491,-1.696c-0,-0.572 0.266,-1.151 0.552,-1.724c0.214,-0.427 0.448,-0.848 0.448,-1.276c-0,-0.928 -0.948,-2.776 -0.948,-2.776c-0.123,-0.247 -0.023,-0.548 0.224,-0.671c0.247,-0.124 0.547,-0.023 0.671,0.223c-0,0 1.053,2.152 1.053,3.224c-0,0.572 -0.267,1.151 -0.553,1.724c-0.214,0.427 -0.447,0.848 -0.447,1.276c-0,0.43 0.198,0.846 0.397,1.272c0.252,0.539 0.516,1.088 0.598,1.657c0.105,0.736 0.082,2.116 0.049,3.071l2.832,-0c-0,-0 0.223,-2.025 -0,-3c-0.23,-1 -1.314,-2 -1.376,-3c-0.063,-1 1,-2 1,-3c-0,-1 -0.488,-2.079 -1,-3c-0.834,-1.5 -4,-6 -4,-6c-0,-0 -2.667,4.5 -3,6c-0.229,1.029 1,2 1,3c-0,0.484 -0.235,0.969 -0.477,1.453Z" style="fill:#030a1d;"/>
    <path d="M33.796,87.953l-0.047,0.094c-0.242,0.484 -0.476,0.969 -0.476,1.453c-0,1 0.833,2 1,3c0.164,0.986 -0,3 -0,3l3.546,-0c0.034,-0.908 0.059,-2.228 -0.041,-2.929c-0.068,-0.475 -0.304,-0.926 -0.514,-1.375c-0.264,-0.564 -0.491,-1.126 -0.491,-1.696c-0,-0.572 0.266,-1.151 0.552,-1.724c0.214,-0.427 0.448,-0.848 0.448,-1.276c-0,-0.928 -0.948,-2.776 -0.948,-2.776c-0.123,-0.247 -0.023,-0.548 0.224,-0.671c0.247,-0.124 0.547,-0.023 0.671,0.223c-0,0 1.053,2.152 1.053,3.224c-0,0.572 -0.267,1.151 -0.553,1.724c-0.214,0.427 -0.447,0.848 -0.447,1.276c-0,0.43 0.198,0.846 0.397,1.272c0.252,0.539 0.516,1.088 0.598,1.657c0.105,0.736 0.082,2.116 0.049,3.071l2.832,-0c-0,-0 0.223,-2.025 -0,-3c-0.23,-1 -1.314,-2 -1.376,-3c-0.063,-1 1,-2 1,-3c-0,-1 -0.488,-2.079 -1,-3c-0.834,-1.5 -4,-6 -4,-6c-0,-0 -2.667,4.5 -3,6c-0.229,1.029 1,2 1,3c-0,0.484 -0.235,0.969 -0.477,1.453Z" style="fill:#030a1d;"/>
    <path d="M66.204,63.047l0.047,-0.094c0.242,-0.484 0.476,-0.969 0.476,-1.453c0,-1 -0.833,-2 -1,-3c-0.164,-0.986 0,-3 0,-3l-3.546,-0c-0.034,0.908 -0.059,2.228 0.041,2.929c0.068,0.475 0.304,0.926 0.514,1.375c0.264,0.564 0.491,1.126 0.491,1.696c0,0.572 -0.266,1.151 -0.552,1.724c-0.214,0.427 -0.448,0.848 -0.448,1.276c0,0.928 0.948,2.776 0.948,2.776c0.123,0.247 0.023,0.548 -0.224,0.671c-0.247,0.124 -0.547,0.023 -0.671,-0.223c0,-0 -1.053,-2.152 -1.053,-3.224c0,-0.572 0.267,-1.151 0.553,-1.724c0.214,-0.427 0.447,-0.848 0.447,-1.276c0,-0.43 -0.198,-0.846 -0.397,-1.272c-0.252,-0.539 -0.516,-1.088 -0.598,-1.657c-0.105,-0.736 -0.082,-2.116 -0.049,-3.071l-2.832,-0c0,-0 -0.223,2.025 0,3c0.23,1 1.314,2 1.376,3c0.063,1 -1,2 -1,3c0,1 0.488,2.079 1,3c0.834,1.5 4,6 4,6c0,-0 2.667,-4.5 3,-6c0.229,-1.029 -1,-2 -1,-3c0,-0.484 0.235,-0.969 0.477,-1.453Z" style="fill:#030a1d;"/>
    <path d="M58.804,87.953l-0.047,0.094c-0.242,0.484 -0.477,0.969 -0.477,1.453c0,1 0.834,2 1,3c0.165,0.986 0,3 0,3l3.547,-0c0.034,-0.908 0.059,-2.228 -0.042,-2.929c-0.067,-0.475 -0.303,-0.926 -0.514,-1.375c-0.263,-0.564 -0.491,-1.126 -0.491,-1.696c0,-0.572 0.267,-1.151 0.553,-1.724c0.214,-0.427 0.447,-0.848 0.447,-1.276c0,-0.928 -0.947,-2.776 -0.947,-2.776c-0.123,-0.247 -0.023,-0.548 0.224,-0.671c0.246,-0.124 0.547,-0.023 0.67,0.223c0,0 1.053,2.152 1.053,3.224c0,0.572 -0.266,1.151 -0.553,1.724c-0.213,0.427 -0.447,0.848 -0.447,1.276c0,0.43 0.198,0.846 0.397,1.272c0.253,0.539 0.517,1.088 0.598,1.657c0.105,0.736 0.083,2.116 0.05,3.071l2.831,-0c0,-0 0.224,-2.025 0,-3c-0.229,-1 -1.313,-2 -1.376,-3c-0.062,-1 1,-2 1,-3c0,-1 -0.488,-2.079 -1,-3c-0.833,-1.5 -4,-6 -4,-6c0,-0 -2.666,4.5 -3,6c-0.228,1.029 1,2 1,3c0,0.484 -0.234,0.969 -0.476,1.453Z" style="fill:#030a1d;"/>
    <path d="M53.7,63.047l0.047,-0.094c0.242,-0.484 0.477,-0.969 0.477,-1.453c-0,-1 -0.834,-2 -1,-3c-0.165,-0.986 -0,-3 -0,-3l-3.547,-0c-0.034,0.908 -0.059,2.228 0.042,2.929c0.067,0.475 0.303,0.926 0.513,1.375c0.264,0.564 0.492,1.126 0.492,1.696c-0,0.572 -0.267,1.151 -0.553,1.724c-0.214,0.427 -0.447,0.848 -0.447,1.276c-0,0.928 0.947,2.776 0.947,2.776c0.123,0.247 0.023,0.548 -0.224,0.671c-0.247,0.124 -0.547,0.023 -0.671,-0.223c0,-0 -1.052,-2.152 -1.052,-3.224c-0,-0.572 0.266,-1.151 0.552,-1.724c0.214,-0.427 0.448,-0.848 0.448,-1.276c-0,-0.43 -0.198,-0.846 -0.397,-1.272c-0.253,-0.539 -0.517,-1.088 -0.598,-1.657c-0.105,-0.736 -0.083,-2.116 -0.05,-3.071l-2.832,-0c0,-0 -0.223,2.025 0,3c0.23,1 1.314,2 1.377,3c0.062,1 -1,2 -1,3c-0,1 0.488,2.079 1,3c0.833,1.5 4,6 4,6c-0,-0 2.666,-4.5 3,-6c0.228,-1.029 -1,-2 -1,-3c-0,-0.484 0.234,-0.969 0.476,-1.453Z" style="fill:#030a1d;"/>
    <path d="M53.7,85.047l0.047,-0.094c0.242,-0.484 0.477,-0.969 0.477,-1.453c-0,-1 -0.834,-2 -1,-3c-0.165,-0.986 -0,-3 -0,-3l-3.547,-0c-0.034,0.908 -0.059,2.228 0.042,2.929c0.067,0.475 0.303,0.926 0.513,1.375c0.264,0.564 0.492,1.126 0.492,1.696c-0,0.572 -0.267,1.151 -0.553,1.724c-0.214,0.427 -0.447,0.848 -0.447,1.276c-0,0.928 0.947,2.776 0.947,2.776c0.123,0.247 0.023,0.548 -0.224,0.671c-0.247,0.124 -0.547,0.023 -0.671,-0.223c0,-0 -1.052,-2.152 -1.052,-3.224c-0,-0.572 0.266,-1.151 0.552,-1.724c0.214,-0.427 0.448,-0.848 0.448,-1.276c-0,-0.43 -0.198,-0.846 -0.397,-1.272c-0.253,-0.539 -0.517,-1.088 -0.598,-1.657c-0.105,-0.736 -0.083,-2.116 -0.05,-3.071l-2.832,-0c0,-0 -0.223,2.025 0,3c0.23,1 1.314,2 1.377,3c0.062,1 -1,2 -1,3c-0,1 0.488,2.079 1,3c0.833,1.5 4,6 4,6c-0,-0 2.666,-4.5 3,-6c0.228,-1.029 -1,-2 -1,-3c-0,-0.484 0.234,-0.969 0.476,-1.453Z" style="fill:#030a1d;"/>
    <path d="M53.7,41.047l0.047,-0.094c0.242,-0.484 0.477,-0.969 0.477,-1.453c-0,-1 -0.834,-2 -1,-3c-0.165,-0.986 -0,-3 -0,-3l-3.547,-0c-0.034,0.908 -0.059,2.228 0.042,2.929c0.067,0.475 0.303,0.926 0.513,1.375c0.264,0.564 0.492,1.126 0.492,1.696c-0,0.572 -0.267,1.151 -0.553,1.724c-0.214,0.427 -0.447,0.848 -0.447,1.276c-0,0.928 0.947,2.776 0.947,2.776c0.123,0.247 0.023,0.548 -0.224,0.671c-0.247,0.124 -0.547,0.023 -0.671,-0.223c0,-0 -1.052,-2.152 -1.052,-3.224c-0,-0.572 0.266,-1.151 0.552,-1.724c0.214,-0.427 0.448,-0.848 0.448,-1.276c-0,-0.43 -0.198,-0.846 -0.397,-1.272c-0.253,-0.539 -0.517,-1.088 -0.598,-1.657c-0.105,-0.736 -0.083,-2.116 -0.05,-3.071l-2.832,-0c0,-0 -0.223,2.025 0,3c0.23,1 1.314,2 1.377,3c0.062,1 -1,2 -1,3c-0,1 0.488,2.079 1,3c0.833,1.5 4,6 4,6c-0,-0 2.666,-4.5 3,-6c0.228,-1.029 -1,-2 -1,-3c-0,-0.484 0.234,-0.969 0.476,-1.453Z" style="fill:#030a1d;"/>
</svg>
