<svg clip-rule="evenodd" fill-rule="evenodd" stroke-linejoin="round" stroke-miterlimit="2" viewBox="0 0 100 125" xmlns="http://www.w3.org/2000/svg">
    <path d="m20.906 20.494c0.215-0 0.439-0.021 0.672-0.063s0.406-0.1 0.518-0.175v-0.126c-0-0.037 2e-3 -0.075 7e-3 -0.112s7e-3 -0.07 7e-3 -0.098c-9e-3 -0.336-0.037-0.651-0.084-0.945s-0.126-0.551-0.238-0.77-0.264-0.392-0.455-0.518-0.427-0.189-0.707-0.189c-0.224-0-0.42 0.047-0.588 0.14s-0.303 0.215-0.406 0.364-0.18 0.313-0.231 0.49-0.077 0.35-0.077 0.518c-0 0.504 0.124 0.877 0.371 1.12s0.651 0.364 1.211 0.364zm1.022 1.358c-0.196 0.093-0.413 0.161-0.651 0.203s-0.441 0.063-0.609 0.063c-0.607-0-1.125-0.072-1.554-0.217s-0.782-0.35-1.057-0.616-0.478-0.586-0.609-0.959-0.196-0.784-0.196-1.232c-0-0.373 0.063-0.756 0.189-1.148s0.324-0.749 0.595-1.071 0.614-0.588 1.029-0.798 0.917-0.315 1.505-0.315c1.204-0 2.112 0.371 2.723 1.113s0.917 1.808 0.917 3.199c-0 0.915-0.119 1.722-0.357 2.422s-0.607 1.288-1.106 1.764-1.136 0.838-1.911 1.085-1.694 0.376-2.758 0.385c-9e-3 -0.299-0.023-0.588-0.042-0.868s-0.037-0.569-0.056-0.868c0.532-9e-3 1.013-0.049 1.442-0.119s0.807-0.187 1.134-0.35 0.604-0.38 0.833-0.651 0.408-0.611 0.539-1.022z" fill="#030a1d" fill-rule="nonzero"/>
    <path d="m81.094 104.51c-0.215-0-0.439 0.021-0.672 0.063s-0.406 0.1-0.518 0.175v0.126c-0 0.037-2e-3 0.075-7e-3 0.112s-7e-3 0.07-7e-3 0.098c9e-3 0.336 0.037 0.651 0.084 0.945s0.126 0.551 0.238 0.77 0.264 0.392 0.455 0.518 0.427 0.189 0.707 0.189c0.224-0 0.42-0.047 0.588-0.14s0.303-0.215 0.406-0.364 0.18-0.313 0.231-0.49 0.077-0.35 0.077-0.518c-0-0.504-0.124-0.877-0.371-1.12s-0.651-0.364-1.211-0.364zm-1.022-1.358c0.196-0.093 0.413-0.161 0.651-0.203s0.441-0.063 0.609-0.063c0.607-0 1.125 0.072 1.554 0.217s0.782 0.35 1.057 0.616 0.478 0.586 0.609 0.959 0.196 0.784 0.196 1.232c-0 0.373-0.063 0.756-0.189 1.148s-0.324 0.749-0.595 1.071-0.614 0.588-1.029 0.798-0.917 0.315-1.505 0.315c-1.204-0-2.112-0.371-2.723-1.113s-0.917-1.808-0.917-3.199c-0-0.915 0.119-1.722 0.357-2.422s0.607-1.288 1.106-1.764 1.136-0.838 1.911-1.085 1.694-0.376 2.758-0.385c9e-3 0.299 0.023 0.588 0.042 0.868s0.037 0.569 0.056 0.868c-0.532 9e-3 -1.013 0.049-1.442 0.119s-0.807 0.187-1.134 0.35-0.604 0.38-0.833 0.651-0.408 0.611-0.539 1.022z" fill="#030a1d" fill-rule="nonzero"/>
    <path d="m58.804 43.953-0.047 0.094c-0.242 0.484-0.477 0.969-0.477 1.453 0 1 0.834 2 1 3 0.165 0.986 0 3 0 3h3.547c0.034-0.908 0.059-2.228-0.042-2.929-0.067-0.475-0.303-0.926-0.514-1.375-0.263-0.564-0.491-1.126-0.491-1.696 0-0.572 0.267-1.151 0.553-1.724 0.214-0.427 0.447-0.848 0.447-1.276 0-0.928-0.947-2.776-0.947-2.776-0.123-0.247-0.023-0.548 0.224-0.671 0.246-0.124 0.547-0.023 0.67 0.223 0 0 1.053 2.152 1.053 3.224 0 0.572-0.266 1.151-0.553 1.724-0.213 0.427-0.447 0.848-0.447 1.276 0 0.43 0.198 0.846 0.397 1.272 0.253 0.539 0.517 1.088 0.598 1.657 0.105 0.736 0.083 2.116 0.05 3.071h2.831s0.224-2.025 0-3c-0.229-1-1.313-2-1.376-3-0.062-1 1-2 1-3s-0.488-2.079-1-3c-0.833-1.5-4-6-4-6s-2.666 4.5-3 6c-0.228 1.029 1 2 1 3 0 0.484-0.234 0.969-0.476 1.453z" fill="#030a1d"/>
    <path d="m41.196 63.047 0.047-0.094c0.242-0.484 0.477-0.969 0.477-1.453-0-1-0.834-2-1-3-0.165-0.986-0-3-0-3h-3.547c-0.034 0.908-0.059 2.228 0.042 2.929 0.067 0.475 0.303 0.926 0.514 1.375 0.263 0.564 0.491 1.126 0.491 1.696-0 0.572-0.267 1.151-0.553 1.724-0.214 0.427-0.447 0.848-0.447 1.276-0 0.928 0.947 2.776 0.947 2.776 0.123 0.247 0.023 0.548-0.224 0.671-0.246 0.124-0.547 0.023-0.67-0.223-0-0-1.053-2.152-1.053-3.224-0-0.572 0.266-1.151 0.553-1.724 0.213-0.427 0.447-0.848 0.447-1.276-0-0.43-0.198-0.846-0.397-1.272-0.253-0.539-0.517-1.088-0.598-1.657-0.105-0.736-0.083-2.116-0.05-3.071h-2.831s-0.224 2.025-0 3c0.229 1 1.313 2 1.376 3 0.062 1-1 2-1 3s0.488 2.079 1 3c0.833 1.5 4 6 4 6s2.666-4.5 3-6c0.228-1.029-1-2-1-3-0-0.484 0.234-0.969 0.476-1.453z" fill="#030a1d"/>
    <path d="m33.796 43.953-0.047 0.094c-0.242 0.484-0.476 0.969-0.476 1.453-0 1 0.833 2 1 3 0.164 0.986-0 3-0 3h3.546c0.034-0.908 0.059-2.228-0.041-2.929-0.068-0.475-0.304-0.926-0.514-1.375-0.264-0.564-0.491-1.126-0.491-1.696-0-0.572 0.266-1.151 0.552-1.724 0.214-0.427 0.448-0.848 0.448-1.276-0-0.928-0.948-2.776-0.948-2.776-0.123-0.247-0.023-0.548 0.224-0.671 0.247-0.124 0.547-0.023 0.671 0.223-0 0 1.053 2.152 1.053 3.224-0 0.572-0.267 1.151-0.553 1.724-0.214 0.427-0.447 0.848-0.447 1.276-0 0.43 0.198 0.846 0.397 1.272 0.252 0.539 0.516 1.088 0.598 1.657 0.105 0.736 0.082 2.116 0.049 3.071h2.832s0.223-2.025-0-3c-0.23-1-1.314-2-1.376-3-0.063-1 1-2 1-3s-0.488-2.079-1-3c-0.834-1.5-4-6-4-6s-2.667 4.5-3 6c-0.229 1.029 1 2 1 3-0 0.484-0.235 0.969-0.477 1.453z" fill="#030a1d"/>
    <path d="m33.796 87.953-0.047 0.094c-0.242 0.484-0.476 0.969-0.476 1.453-0 1 0.833 2 1 3 0.164 0.986-0 3-0 3h3.546c0.034-0.908 0.059-2.228-0.041-2.929-0.068-0.475-0.304-0.926-0.514-1.375-0.264-0.564-0.491-1.126-0.491-1.696-0-0.572 0.266-1.151 0.552-1.724 0.214-0.427 0.448-0.848 0.448-1.276-0-0.928-0.948-2.776-0.948-2.776-0.123-0.247-0.023-0.548 0.224-0.671 0.247-0.124 0.547-0.023 0.671 0.223-0 0 1.053 2.152 1.053 3.224-0 0.572-0.267 1.151-0.553 1.724-0.214 0.427-0.447 0.848-0.447 1.276-0 0.43 0.198 0.846 0.397 1.272 0.252 0.539 0.516 1.088 0.598 1.657 0.105 0.736 0.082 2.116 0.049 3.071h2.832s0.223-2.025-0-3c-0.23-1-1.314-2-1.376-3-0.063-1 1-2 1-3s-0.488-2.079-1-3c-0.834-1.5-4-6-4-6s-2.667 4.5-3 6c-0.229 1.029 1 2 1 3-0 0.484-0.235 0.969-0.477 1.453z" fill="#030a1d"/>
    <path d="m66.204 63.047 0.047-0.094c0.242-0.484 0.476-0.969 0.476-1.453 0-1-0.833-2-1-3-0.164-0.986 0-3 0-3h-3.546c-0.034 0.908-0.059 2.228 0.041 2.929 0.068 0.475 0.304 0.926 0.514 1.375 0.264 0.564 0.491 1.126 0.491 1.696 0 0.572-0.266 1.151-0.552 1.724-0.214 0.427-0.448 0.848-0.448 1.276 0 0.928 0.948 2.776 0.948 2.776 0.123 0.247 0.023 0.548-0.224 0.671-0.247 0.124-0.547 0.023-0.671-0.223 0-0-1.053-2.152-1.053-3.224 0-0.572 0.267-1.151 0.553-1.724 0.214-0.427 0.447-0.848 0.447-1.276 0-0.43-0.198-0.846-0.397-1.272-0.252-0.539-0.516-1.088-0.598-1.657-0.105-0.736-0.082-2.116-0.049-3.071h-2.832s-0.223 2.025 0 3c0.23 1 1.314 2 1.376 3 0.063 1-1 2-1 3s0.488 2.079 1 3c0.834 1.5 4 6 4 6s2.667-4.5 3-6c0.229-1.029-1-2-1-3 0-0.484 0.235-0.969 0.477-1.453z" fill="#030a1d"/>
    <path d="m58.804 87.953-0.047 0.094c-0.242 0.484-0.477 0.969-0.477 1.453 0 1 0.834 2 1 3 0.165 0.986 0 3 0 3h3.547c0.034-0.908 0.059-2.228-0.042-2.929-0.067-0.475-0.303-0.926-0.514-1.375-0.263-0.564-0.491-1.126-0.491-1.696 0-0.572 0.267-1.151 0.553-1.724 0.214-0.427 0.447-0.848 0.447-1.276 0-0.928-0.947-2.776-0.947-2.776-0.123-0.247-0.023-0.548 0.224-0.671 0.246-0.124 0.547-0.023 0.67 0.223 0 0 1.053 2.152 1.053 3.224 0 0.572-0.266 1.151-0.553 1.724-0.213 0.427-0.447 0.848-0.447 1.276 0 0.43 0.198 0.846 0.397 1.272 0.253 0.539 0.517 1.088 0.598 1.657 0.105 0.736 0.083 2.116 0.05 3.071h2.831s0.224-2.025 0-3c-0.229-1-1.313-2-1.376-3-0.062-1 1-2 1-3s-0.488-2.079-1-3c-0.833-1.5-4-6-4-6s-2.666 4.5-3 6c-0.228 1.029 1 2 1 3 0 0.484-0.234 0.969-0.476 1.453z" fill="#030a1d"/>
    <path d="m53.7 63.047 0.047-0.094c0.242-0.484 0.477-0.969 0.477-1.453-0-1-0.834-2-1-3-0.165-0.986-0-3-0-3h-3.547c-0.034 0.908-0.059 2.228 0.042 2.929 0.067 0.475 0.303 0.926 0.513 1.375 0.264 0.564 0.492 1.126 0.492 1.696-0 0.572-0.267 1.151-0.553 1.724-0.214 0.427-0.447 0.848-0.447 1.276-0 0.928 0.947 2.776 0.947 2.776 0.123 0.247 0.023 0.548-0.224 0.671-0.247 0.124-0.547 0.023-0.671-0.223 0-0-1.052-2.152-1.052-3.224-0-0.572 0.266-1.151 0.552-1.724 0.214-0.427 0.448-0.848 0.448-1.276-0-0.43-0.198-0.846-0.397-1.272-0.253-0.539-0.517-1.088-0.598-1.657-0.105-0.736-0.083-2.116-0.05-3.071h-2.832s-0.223 2.025 0 3c0.23 1 1.314 2 1.377 3 0.062 1-1 2-1 3s0.488 2.079 1 3c0.833 1.5 4 6 4 6s2.666-4.5 3-6c0.228-1.029-1-2-1-3-0-0.484 0.234-0.969 0.476-1.453z" fill="#030a1d"/>
    <path d="m53.7 85.047 0.047-0.094c0.242-0.484 0.477-0.969 0.477-1.453-0-1-0.834-2-1-3-0.165-0.986-0-3-0-3h-3.547c-0.034 0.908-0.059 2.228 0.042 2.929 0.067 0.475 0.303 0.926 0.513 1.375 0.264 0.564 0.492 1.126 0.492 1.696-0 0.572-0.267 1.151-0.553 1.724-0.214 0.427-0.447 0.848-0.447 1.276-0 0.928 0.947 2.776 0.947 2.776 0.123 0.247 0.023 0.548-0.224 0.671-0.247 0.124-0.547 0.023-0.671-0.223 0-0-1.052-2.152-1.052-3.224-0-0.572 0.266-1.151 0.552-1.724 0.214-0.427 0.448-0.848 0.448-1.276-0-0.43-0.198-0.846-0.397-1.272-0.253-0.539-0.517-1.088-0.598-1.657-0.105-0.736-0.083-2.116-0.05-3.071h-2.832s-0.223 2.025 0 3c0.23 1 1.314 2 1.377 3 0.062 1-1 2-1 3s0.488 2.079 1 3c0.833 1.5 4 6 4 6s2.666-4.5 3-6c0.228-1.029-1-2-1-3-0-0.484 0.234-0.969 0.476-1.453z" fill="#030a1d"/>
    <path d="m53.7 41.047 0.047-0.094c0.242-0.484 0.477-0.969 0.477-1.453-0-1-0.834-2-1-3-0.165-0.986-0-3-0-3h-3.547c-0.034 0.908-0.059 2.228 0.042 2.929 0.067 0.475 0.303 0.926 0.513 1.375 0.264 0.564 0.492 1.126 0.492 1.696-0 0.572-0.267 1.151-0.553 1.724-0.214 0.427-0.447 0.848-0.447 1.276-0 0.928 0.947 2.776 0.947 2.776 0.123 0.247 0.023 0.548-0.224 0.671-0.247 0.124-0.547 0.023-0.671-0.223 0-0-1.052-2.152-1.052-3.224-0-0.572 0.266-1.151 0.552-1.724 0.214-0.427 0.448-0.848 0.448-1.276-0-0.43-0.198-0.846-0.397-1.272-0.253-0.539-0.517-1.088-0.598-1.657-0.105-0.736-0.083-2.116-0.05-3.071h-2.832s-0.223 2.025 0 3c0.23 1 1.314 2 1.377 3 0.062 1-1 2-1 3s0.488 2.079 1 3c0.833 1.5 4 6 4 6s2.666-4.5 3-6c0.228-1.029-1-2-1-3-0-0.484 0.234-0.969 0.476-1.453z" fill="#030a1d"/>
</svg>
