<svg clip-rule="evenodd" fill-rule="evenodd" stroke-linejoin="round" stroke-miterlimit="2" viewBox="0 0 100 125" xmlns="http://www.w3.org/2000/svg" >
    <path d="m16.84 18.016c0.271-0.112 0.553-0.24 0.847-0.385s0.581-0.303 0.861-0.476 0.548-0.355 0.805-0.546 0.488-0.394 0.693-0.609h1.456v9.702h-2.086v-6.986c-0.28 0.187-0.593 0.357-0.938 0.511s-0.681 0.287-1.008 0.399l-0.63-1.61z" fill="#030a1d" fill-rule="nonzero"/>
    <path d="m83.16 106.98c-0.271 0.112-0.553 0.24-0.847 0.385s-0.581 0.303-0.861 0.476-0.548 0.355-0.805 0.546-0.488 0.394-0.693 0.609h-1.456v-9.702h2.086v6.986c0.28-0.187 0.593-0.357 0.938-0.511s0.681-0.287 1.008-0.399l0.63 1.61z" fill="#030a1d" fill-rule="nonzero"/>
    <path d="m46.3 63.953-0.047 0.094c-0.242 0.484-0.477 0.969-0.477 1.453 0 1 0.834 2 1 3 0.165 0.986 0 3 0 3h3.547c0.034-0.908 0.059-2.228-0.042-2.929-0.067-0.475-0.303-0.926-0.513-1.375-0.264-0.564-0.492-1.126-0.492-1.696 0-0.572 0.267-1.151 0.553-1.724 0.214-0.427 0.447-0.848 0.447-1.276 0-0.928-0.947-2.776-0.947-2.776-0.123-0.247-0.023-0.548 0.224-0.671 0.247-0.124 0.547-0.023 0.671 0.223-0 0 1.052 2.152 1.052 3.224 0 0.572-0.266 1.151-0.552 1.724-0.214 0.427-0.448 0.848-0.448 1.276 0 0.43 0.198 0.846 0.397 1.272 0.253 0.539 0.517 1.088 0.598 1.657 0.105 0.736 0.083 2.116 0.05 3.071h2.832s0.223-2.025-0-3c-0.23-1-1.314-2-1.377-3-0.062-1 1-2 1-3s-0.488-2.079-1-3c-0.833-1.5-4-6-4-6s-2.666 4.5-3 6c-0.228 1.029 1 2 1 3 0 0.484-0.234 0.969-0.476 1.453z" fill="#030a1d"/>
</svg>
