<?xml version="1.0" encoding="UTF-8" standalone="no"?>
<!DOCTYPE svg PUBLIC "-//W3C//DTD SVG 1.1//EN" "http://www.w3.org/Graphics/SVG/1.1/DTD/svg11.dtd">
<svg width="100%" height="100%" viewBox="0 0 100 125" version="1.1" xmlns="http://www.w3.org/2000/svg" xmlns:xlink="http://www.w3.org/1999/xlink" xml:space="preserve" xmlns:serif="http://www.serif.com/" style="fill-rule:evenodd;clip-rule:evenodd;stroke-linejoin:round;stroke-miterlimit:2;">
    <rect id="One-of-Seaweed" serif:id="One of Seaweed" x="0" y="0" width="100" height="125" style="fill:none;"/>
    <path d="M16.84,18.016c0.271,-0.112 0.553,-0.24 0.847,-0.385c0.294,-0.145 0.581,-0.303 0.861,-0.476c0.28,-0.173 0.548,-0.355 0.805,-0.546c0.257,-0.191 0.488,-0.394 0.693,-0.609l1.456,0l0,9.702l-2.086,0l0,-6.986c-0.28,0.187 -0.593,0.357 -0.938,0.511c-0.345,0.154 -0.681,0.287 -1.008,0.399l-0.63,-1.61Z" style="fill:#030a1d;fill-rule:nonzero;"/>
    <path d="M83.16,106.984c-0.271,0.112 -0.553,0.24 -0.847,0.385c-0.294,0.145 -0.581,0.303 -0.861,0.476c-0.28,0.173 -0.548,0.355 -0.805,0.546c-0.257,0.191 -0.488,0.394 -0.693,0.609l-1.456,0l0,-9.702l2.086,0l0,6.986c0.28,-0.187 0.593,-0.357 0.938,-0.511c0.345,-0.154 0.681,-0.287 1.008,-0.399l0.63,1.61Z" style="fill:#030a1d;fill-rule:nonzero;"/>
    <path d="M46.3,63.953l-0.047,0.094c-0.242,0.484 -0.477,0.969 -0.477,1.453c0,1 0.834,2 1,3c0.165,0.986 0,3 0,3l3.547,0c0.034,-0.908 0.059,-2.228 -0.042,-2.929c-0.067,-0.475 -0.303,-0.926 -0.513,-1.375c-0.264,-0.564 -0.492,-1.126 -0.492,-1.696c0,-0.572 0.267,-1.151 0.553,-1.724c0.214,-0.427 0.447,-0.848 0.447,-1.276c0,-0.928 -0.947,-2.776 -0.947,-2.776c-0.123,-0.247 -0.023,-0.548 0.224,-0.671c0.247,-0.124 0.547,-0.023 0.671,0.223c-0,0 1.052,2.152 1.052,3.224c0,0.572 -0.266,1.151 -0.552,1.724c-0.214,0.427 -0.448,0.848 -0.448,1.276c0,0.43 0.198,0.846 0.397,1.272c0.253,0.539 0.517,1.088 0.598,1.657c0.105,0.736 0.083,2.116 0.05,3.071l2.832,0c-0,0 0.223,-2.025 -0,-3c-0.23,-1 -1.314,-2 -1.377,-3c-0.062,-1 1,-2 1,-3c0,-1 -0.488,-2.079 -1,-3c-0.833,-1.5 -4,-6 -4,-6c0,0 -2.666,4.5 -3,6c-0.228,1.029 1,2 1,3c0,0.484 -0.234,0.969 -0.476,1.453Z" style="fill:#030a1d;"/>
</svg>
