<?xml version="1.0" encoding="UTF-8" standalone="no"?>
<!DOCTYPE svg PUBLIC "-//W3C//DTD SVG 1.1//EN" "http://www.w3.org/Graphics/SVG/1.1/DTD/svg11.dtd">
<svg width="100%" height="100%" viewBox="0 0 100 125" version="1.1" xmlns="http://www.w3.org/2000/svg" xmlns:xlink="http://www.w3.org/1999/xlink" xml:space="preserve" xmlns:serif="http://www.serif.com/" style="fill-rule:evenodd;clip-rule:evenodd;stroke-linejoin:round;stroke-miterlimit:2;">
    <rect id="Queen-of-Seaweed" serif:id="Queen of Seaweed" x="0" y="0" width="100" height="125" style="fill:none;"/>
    <path d="M19.814,20.844c-0,0.476 0.058,0.905 0.175,1.288c0.117,0.383 0.285,0.712 0.504,0.987c0.219,0.275 0.488,0.488 0.805,0.637c0.317,0.149 0.681,0.224 1.092,0.224c0.401,-0 0.763,-0.075 1.085,-0.224c0.322,-0.149 0.593,-0.362 0.812,-0.637c0.219,-0.275 0.387,-0.604 0.504,-0.987c0.117,-0.383 0.175,-0.812 0.175,-1.288c-0,-0.476 -0.058,-0.908 -0.175,-1.295c-0.117,-0.387 -0.285,-0.719 -0.504,-0.994c-0.219,-0.275 -0.49,-0.488 -0.812,-0.637c-0.322,-0.149 -0.684,-0.224 -1.085,-0.224c-0.411,-0 -0.775,0.077 -1.092,0.231c-0.317,0.154 -0.586,0.369 -0.805,0.644c-0.219,0.275 -0.387,0.607 -0.504,0.994c-0.117,0.387 -0.175,0.814 -0.175,1.281Zm7.406,-0c-0,0.681 -0.084,1.295 -0.252,1.841c-0.168,0.546 -0.404,1.024 -0.707,1.435c-0.303,0.411 -0.665,0.751 -1.085,1.022c-0.42,0.271 -0.882,0.467 -1.386,0.588c0.047,0.187 0.149,0.338 0.308,0.455c0.159,0.117 0.359,0.212 0.602,0.287c0.243,0.075 0.525,0.131 0.847,0.168c0.322,0.037 0.67,0.07 1.043,0.098l-0.448,1.596c-0.728,-0.028 -1.351,-0.1 -1.869,-0.217c-0.518,-0.117 -0.957,-0.278 -1.316,-0.483c-0.359,-0.205 -0.644,-0.457 -0.854,-0.756c-0.21,-0.299 -0.371,-0.644 -0.483,-1.036c-0.579,-0.075 -1.115,-0.236 -1.61,-0.483c-0.495,-0.247 -0.924,-0.581 -1.288,-1.001c-0.364,-0.42 -0.649,-0.924 -0.854,-1.512c-0.205,-0.588 -0.308,-1.255 -0.308,-2.002c-0,-0.831 0.131,-1.561 0.392,-2.191c0.261,-0.63 0.614,-1.16 1.057,-1.589c0.443,-0.429 0.957,-0.751 1.54,-0.966c0.583,-0.215 1.197,-0.322 1.841,-0.322c0.663,-0 1.288,0.107 1.876,0.322c0.588,0.215 1.101,0.537 1.54,0.966c0.439,0.429 0.784,0.959 1.036,1.589c0.252,0.63 0.378,1.36 0.378,2.191Z" style="fill:#030a1d;fill-rule:nonzero;"/>
    <path d="M82.186,104.156c-0,-0.476 -0.058,-0.905 -0.175,-1.288c-0.117,-0.383 -0.285,-0.712 -0.504,-0.987c-0.219,-0.275 -0.488,-0.488 -0.805,-0.637c-0.317,-0.149 -0.681,-0.224 -1.092,-0.224c-0.401,-0 -0.763,0.075 -1.085,0.224c-0.322,0.149 -0.593,0.362 -0.812,0.637c-0.219,0.275 -0.387,0.604 -0.504,0.987c-0.117,0.383 -0.175,0.812 -0.175,1.288c-0,0.476 0.058,0.908 0.175,1.295c0.117,0.387 0.285,0.719 0.504,0.994c0.219,0.275 0.49,0.488 0.812,0.637c0.322,0.149 0.684,0.224 1.085,0.224c0.411,-0 0.775,-0.077 1.092,-0.231c0.317,-0.154 0.586,-0.369 0.805,-0.644c0.219,-0.275 0.387,-0.607 0.504,-0.994c0.117,-0.387 0.175,-0.814 0.175,-1.281Zm-7.406,-0c-0,-0.681 0.084,-1.295 0.252,-1.841c0.168,-0.546 0.404,-1.024 0.707,-1.435c0.303,-0.411 0.665,-0.751 1.085,-1.022c0.42,-0.271 0.882,-0.467 1.386,-0.588c-0.047,-0.187 -0.149,-0.338 -0.308,-0.455c-0.159,-0.117 -0.359,-0.212 -0.602,-0.287c-0.243,-0.075 -0.525,-0.131 -0.847,-0.168c-0.322,-0.037 -0.67,-0.07 -1.043,-0.098l0.448,-1.596c0.728,0.028 1.351,0.1 1.869,0.217c0.518,0.117 0.957,0.278 1.316,0.483c0.359,0.205 0.644,0.457 0.854,0.756c0.21,0.299 0.371,0.644 0.483,1.036c0.579,0.075 1.115,0.236 1.61,0.483c0.495,0.247 0.924,0.581 1.288,1.001c0.364,0.42 0.649,0.924 0.854,1.512c0.205,0.588 0.308,1.255 0.308,2.002c-0,0.831 -0.131,1.561 -0.392,2.191c-0.261,0.63 -0.614,1.16 -1.057,1.589c-0.443,0.429 -0.957,0.751 -1.54,0.966c-0.583,0.215 -1.197,0.322 -1.841,0.322c-0.663,-0 -1.288,-0.107 -1.876,-0.322c-0.588,-0.215 -1.101,-0.537 -1.54,-0.966c-0.439,-0.429 -0.784,-0.959 -1.036,-1.589c-0.252,-0.63 -0.378,-1.36 -0.378,-2.191Z" style="fill:#030a1d;fill-rule:nonzero;"/>
    <path d="M42.61,80.037l-0.216,-1.885c-0.441,-1.529 -1.137,-2.863 -1.26,-4.126c-0.132,-1.01 -0.137,-1.989 -0.1,-2.94c0.08,-2.093 0.447,-4.027 0.382,-5.789c-1.086,-0.27 -2.14,-1.031 -2.87,-2.17c-3.293,0.55 -6.145,0.565 -8.117,0.053c-1.195,-0.31 -2.083,-0.82 -2.61,-1.496l-0.002,0.001c-0.178,-0.229 -0.315,-0.477 -0.409,-0.745l-0.033,-0.101c-0.237,-0.772 -0.11,-1.646 0.371,-2.575c0.089,-0.172 0.191,-0.347 0.305,-0.523l0.023,-0.036c0.087,-0.134 0.181,-0.269 0.282,-0.405c0.27,-0.364 0.59,-0.734 0.957,-1.108c0.666,-0.683 1.483,-1.378 2.433,-2.065l-0,0c0.784,-0.571 1.29,-1.446 1.396,-2.416l0.001,-0.005c0.238,-1.817 0.743,-4.531 1.81,-7.854c0.494,-1.539 1.643,-3.857 3.207,-5.364c1.116,-1.075 2.442,-1.736 3.884,-1.532c1.64,0.233 2.602,1.264 3.157,2.427c0.787,1.65 0.726,3.564 0.726,3.564l-0.022,0.663c0,0 -0.918,-0.34 -0.919,-0.341c1.296,1.062 3.192,2.463 5.465,3.692c2.054,-0.264 3.898,-0.3 5.414,-0.114l0.071,0.009c0.477,0.06 0.921,0.143 1.328,0.249c0.061,0.016 0.12,0.032 0.179,0.049l0.339,0.104c1.219,0.406 2.049,1.052 2.425,1.891l0.112,0.298c0.125,0.408 0.149,0.843 0.073,1.299l-0.004,0.001c-0.119,0.703 -0.472,1.459 -1.05,2.238c-1.397,1.88 -4.137,3.949 -7.708,5.777c0.219,1.892 -0.448,3.566 -1.525,4.557c0.169,0.804 0.331,1.411 0.392,1.7c0.184,0.872 -0.121,2.473 0.579,3.184c0.736,0.748 6.057,-2.516 6.66,-1.384c0.623,1.171 -4.239,2.748 -4.112,3.932c0.117,1.083 2.463,0.182 3.711,0.026l0.828,-0.521l-0.04,-0.642c-0.044,-0.703 0.49,-1.307 1.192,-1.351l0.202,0.003c0.161,-0.475 0.596,-0.83 1.128,-0.863l0.201,0.003c0.161,-0.475 0.596,-0.83 1.128,-0.863l0.202,0.003c0.132,-0.391 0.449,-0.7 0.853,-0.816c0.262,-0.972 0.879,-1.85 1.799,-2.425c3.064,-1.911 12.173,-3.243 12.173,-3.243c0.187,-0.027 0.373,0.059 0.474,0.22c0.1,0.161 0.096,0.366 -0.011,0.523c-0,-0 -5.199,7.596 -8.263,9.508c-1.375,0.858 -3.061,0.807 -4.354,0.011c-0.076,0.595 -0.565,1.071 -1.185,1.11l-0.201,-0.003c-0.161,0.475 -0.596,0.83 -1.128,0.863l-0.202,-0.003c-0.16,0.475 -0.596,0.83 -1.127,0.863l-0.202,-0.003c-0.161,0.475 -0.596,0.83 -1.128,0.863l0,-0c-0.481,0.03 -0.916,-0.211 -1.156,-0.591l-5.61,3.527c1.023,0.589 1.756,1.221 2.92,1.758c0.095,0.001 0.171,0.08 0.17,0.175c-0.002,0.095 -0.081,0.171 -0.176,0.169c-0.935,0.415 -1.623,0.663 -2.574,0.913c-0.415,0.11 -0.753,0.166 -1.171,0.197c-0.147,0.012 -0.288,0.008 -0.432,-0.018c-0.214,-0.038 -0.415,-0.118 -0.61,-0.206c-0.558,-0.249 -1.053,-0.539 -1.518,-0.855l-3.291,2.069c0,0 0.027,0.157 0.028,0.166c0.046,0.44 -0.036,0.824 -0.167,1.249c-0.06,0.193 -0.173,0.364 -0.318,0.515l-0.018,0.018c-0.634,0.64 -1.84,0.901 -1.899,0.853c-0.431,-0.358 0.213,-0.331 -0.321,-0.913l-0.112,-0.123l-8.3,5.22c-0.67,0.421 -1.556,0.219 -1.978,-0.451c-0.421,-0.67 -0.219,-1.557 0.451,-1.978l9.018,-5.671Zm20.885,-9.569c0.034,0.009 0.07,0.013 0.108,0.011c-0,0 -0,0 -0,0c0.175,-0.011 0.308,-0.162 0.297,-0.337l-0.052,-0.832c-0.013,-0.202 0.103,-0.391 0.29,-0.47c0.186,-0.079 0.403,-0.032 0.54,0.117c1.012,1.104 2.7,1.366 4.016,0.544c2.324,-1.449 5.898,-6.287 7.342,-8.321c-2.462,0.403 -8.378,1.487 -10.701,2.937c-0.79,0.493 -1.289,1.278 -1.443,2.128c-0.042,0.236 -0.254,0.404 -0.493,0.392l-0.036,0c-0.175,0.011 -0.308,0.162 -0.297,0.337l0.004,0.072c0.146,0.193 0.239,0.43 0.255,0.689l0.17,2.733Zm-1.125,-2.674l-0.007,-0.052l-0.017,-0.052l-0.015,-0.031c-0.011,-0.019 -0.024,-0.037 -0.038,-0.053l-0.025,-0.026c-0.035,-0.032 -0.078,-0.056 -0.124,-0.07c-0.016,-0.005 -0.033,-0.009 -0.05,-0.011l-0.06,-0.002l-0.038,0.005l-0.059,0.017l-0.029,0.013l-0.051,0.033l-0.042,0.039l-0.032,0.043l-0.02,0.04c-0.02,0.045 -0.03,0.095 -0.027,0.147l0.201,3.217l0.012,0.061l0.023,0.058l0.034,0.051l0.004,0.005c0.05,0.06 0.121,0.1 0.202,0.111l0.061,0.002l0.06,-0.009l0.028,-0.009l0.044,-0.02l0.047,-0.031c0.046,-0.036 0.081,-0.086 0.101,-0.142c0.004,-0.01 0.007,-0.021 0.009,-0.032l0.008,-0.046l-0.004,-0.12l-0.196,-3.136Zm-1.389,0.693c-0.051,-0.069 -0.128,-0.116 -0.215,-0.128l-0.062,-0.002c-0.037,0.003 -0.072,0.011 -0.104,0.025l-0.054,0.029l-0.047,0.039l-0.039,0.047l-0.027,0.051c-0.012,0.027 -0.02,0.056 -0.024,0.086l-0.002,0.06l0.201,3.217l0.011,0.06l0.023,0.057l0.026,0.042c0.05,0.068 0.127,0.116 0.214,0.127l0.062,0.002l0.037,-0.004l0.046,-0.012l0.049,-0.022l0.041,-0.026l0.035,-0.031l0.023,-0.026l0.025,-0.039l0.02,-0.04c0.005,-0.013 0.009,-0.027 0.013,-0.041c0.005,-0.021 0.008,-0.042 0.009,-0.064l-0.01,-0.178l-0.191,-3.061c-0.004,-0.061 -0.025,-0.119 -0.06,-0.168Zm-1.08,4.066l-0.189,-3.038c-0.004,-0.061 -0.025,-0.119 -0.061,-0.168c-0.031,-0.043 -0.074,-0.078 -0.122,-0.101c-0.029,-0.013 -0.059,-0.022 -0.09,-0.026l-0.057,-0.003l-0.007,0c-0.028,0.002 -0.055,0.008 -0.081,0.016l-0.04,0.017c-0.007,0.003 -0.015,0.007 -0.022,0.012c-0.036,0.021 -0.067,0.05 -0.092,0.083l-0.029,0.046l-0.007,0.017c-0.02,0.044 -0.029,0.094 -0.026,0.146l0.201,3.219l0.005,0.035l0.019,0.06l0.027,0.049c0.002,0.004 0.005,0.008 0.007,0.011c0.037,0.05 0.087,0.089 0.145,0.111l0.034,0.011c0.03,0.008 0.062,0.011 0.095,0.009l0.056,-0.007l0.047,-0.015l0.03,-0.014c0.023,-0.012 0.043,-0.027 0.062,-0.044l0.042,-0.045l0.023,-0.034l0.015,-0.031c0.011,-0.024 0.018,-0.049 0.023,-0.076c0,-0.006 0.001,-0.011 0.002,-0.017l-0.01,-0.223Zm-1.602,-0.123l-12.454,7.832l-0.489,-0.822l12.875,-8.097l0.068,1.087Zm-6.615,1.9l-2.859,1.798c-0.109,-0.044 -0.215,-0.094 -0.32,-0.15c-0.862,-0.46 -1.506,-1.179 -1.938,-1.972c-0.078,-0.142 -0.147,-0.288 -0.209,-0.438c1.819,1.025 3.696,1.054 5.326,0.762Zm-9.022,6.804l0.188,1.012l-8.24,5.181c-0.223,0.141 -0.519,0.073 -0.659,-0.15c-0.141,-0.224 -0.073,-0.519 0.15,-0.66l8.561,-5.383Zm4.453,-3.93l-2.295,1.443l-0.214,-0.323c-0.187,-0.288 -0.362,-0.565 -0.513,-0.864c-0.635,-1.254 -1.073,-2.505 -1.199,-3.62c-0.073,-0.904 -0.044,-1.777 0.042,-2.62c0.037,-0.364 0.084,-0.724 0.135,-1.078c0.241,0.481 0.535,0.943 0.901,1.384c0.069,0.082 0.138,0.163 0.207,0.242c0.057,1.147 0.372,2.171 0.877,3.073c0.504,0.898 1.226,1.649 2.059,2.363Zm4.326,-19.416c-0.164,-0.6 -0.406,-1.143 -0.705,-1.621l0.017,-0.005c0.619,-0.162 1.113,-0.627 1.311,-1.236c0.197,-0.608 0.072,-1.275 -0.334,-1.77l-1.218,-1.487c-2.163,-0.014 -5.001,0.504 -7.971,1.552c-2.841,1.002 -5.282,2.304 -6.956,3.612l-0.101,0.573c-0.111,0.63 0.106,1.273 0.576,1.707c0.413,0.38 0.97,0.553 1.518,0.481c-0.013,0.471 0.029,0.962 0.134,1.464c0.087,0.42 0.212,0.814 0.367,1.182c-2.252,0.356 -4.277,0.449 -5.92,0.275c-1.066,-0.113 -1.964,-0.337 -2.645,-0.683c-0.323,-0.164 -0.594,-0.353 -0.804,-0.573c0.273,-1.098 1.256,-2.325 2.738,-3.583c2.495,-2.119 6.402,-4.27 11.009,-5.894c4.847,-1.71 9.456,-2.481 12.772,-2.296c1.94,0.108 3.422,0.516 4.176,1.314c-0.047,0.182 -0.114,0.369 -0.2,0.56c-0.313,0.698 -0.872,1.435 -1.631,2.192c-1.427,1.422 -3.545,2.891 -6.133,4.236Zm-1.8,0.683l0.08,0.437l0.037,0.392l0.003,0.382l-0.017,0.255c-0.116,1.223 -0.753,2.194 -1.688,2.389c-1.264,0.263 -2.597,-0.991 -2.974,-2.8c-0.377,-1.808 0.343,-3.491 1.607,-3.754c1.241,-0.259 2.548,0.944 2.952,2.699Zm-10.952,-19.162c-0.067,0.068 -0.133,0.137 -0.197,0.207l-0.161,0.18c-0.1,0.114 -0.197,0.231 -0.291,0.35l-0.14,0.18c-0.165,0.218 -0.322,0.443 -0.471,0.671l-0.213,0.336l-0.197,0.333l-0.21,0.381c-0.144,0.27 -0.277,0.539 -0.397,0.8c-0.048,0.106 -0.094,0.21 -0.139,0.313c-0.033,0.076 -0.064,0.152 -0.095,0.226c-0.109,0.267 -0.204,0.523 -0.282,0.76c-0.012,0.033 -0.022,0.066 -0.033,0.099c-0.288,0.897 -0.534,1.75 -0.745,2.55l-0.075,0.289c-0.028,0.11 -0.056,0.22 -0.083,0.329c-0.121,0.489 -0.229,0.957 -0.325,1.402c-0.014,0.067 -0.028,0.133 -0.042,0.198c-0.234,1.116 -0.391,2.083 -0.497,2.878l-0.061,0.401l-0.073,0.311l-0.065,0.218c-0.279,0.844 -0.808,1.591 -1.528,2.135l-0.46,0.34l-0.133,0.101l-0.244,0.19c-0.079,0.063 -0.157,0.125 -0.234,0.188c-1.103,0.9 -1.952,1.794 -2.482,2.643l-0.059,0.097c-0.058,0.097 -0.112,0.193 -0.162,0.289c-0.227,0.438 -0.361,0.858 -0.379,1.252l0.188,-0.324l0.246,-0.373l0.279,-0.377l0.354,-0.427l0.393,-0.429l0.309,-0.312l0.302,-0.287l0.319,-0.288l0.222,-0.192c0.737,-0.625 1.593,-1.254 2.551,-1.873c2.215,-1.43 4.976,-2.803 8.072,-3.946c0.227,-0.084 0.457,-0.167 0.688,-0.248c4.987,-1.759 9.731,-2.539 13.144,-2.349c1.712,0.095 3.1,0.448 4.056,1.021c-0.252,-0.58 -0.824,-1.001 -1.624,-1.303l-0.235,-0.084l-0.322,-0.098l-0.327,-0.084c-1.117,-0.263 -2.51,-0.351 -4.098,-0.271l-0.451,0.027l-0.656,0.053l-0.795,0.085l-0.56,0.072l-0.136,-0.072c-0.416,-0.223 -0.82,-0.451 -1.211,-0.681l-0.182,-0.109c-0.537,-0.322 -1.048,-0.649 -1.53,-0.973l-0.519,-0.355l-0.474,-0.337l-0.41,-0.299l-0.404,-0.304l-0.537,-0.417l-0.477,-0.384l-0.504,-0.421l-0.513,-0.444l-0.426,-0.384l-0.486,-0.46l-0.033,-0.034l0.505,-0.785l2.012,0.745c-0.034,-0.421 -0.112,-0.993 -0.287,-1.589l-0.071,-0.225l-0.094,-0.262c-0.026,-0.069 -0.055,-0.138 -0.084,-0.207c-0.047,-0.108 -0.098,-0.214 -0.153,-0.319c-0.043,-0.081 -0.088,-0.161 -0.135,-0.239l-0.032,-0.051c-0.045,-0.072 -0.093,-0.142 -0.144,-0.211c-0.252,-0.345 -0.568,-0.65 -0.965,-0.873l-0.009,-0.005c-0.239,-0.134 -0.508,-0.238 -0.81,-0.305l-0.253,-0.046c-0.058,-0.008 -0.117,-0.014 -0.175,-0.019c-0.112,-0.009 -0.223,-0.011 -0.334,-0.006l-0.231,0.02l-0.256,0.044l-0.065,0.015c-0.06,0.014 -0.119,0.03 -0.179,0.048c-0.029,0.009 -0.058,0.019 -0.088,0.029c-0.08,0.027 -0.16,0.057 -0.239,0.09c-0.028,0.012 -0.056,0.024 -0.083,0.037c-0.227,0.102 -0.448,0.229 -0.661,0.376l-0.213,0.154l-0.269,0.219l-0.123,0.109c-0.057,0.051 -0.114,0.104 -0.169,0.157c-0.046,0.044 -0.09,0.088 -0.135,0.133Zm0.843,19.761l0.058,-0.302l0.043,-0.165c0.074,-0.257 0.173,-0.494 0.296,-0.705c1.066,1.843 1.478,3.71 1.734,5.514c-0.946,-0.306 -1.791,-1.363 -2.079,-2.744c-0.116,-0.557 -0.128,-1.102 -0.052,-1.598Z" style="fill:#030a1d;"/>
    <path d="M75.488,80.81l-0.047,0.094c-0.242,0.484 -0.476,0.969 -0.476,1.453c-0,1 0.833,2 1,3c0.164,0.986 -0,3 -0,3l3.546,-0c0.034,-0.908 0.059,-2.228 -0.041,-2.929c-0.068,-0.475 -0.304,-0.926 -0.514,-1.376c-0.264,-0.563 -0.491,-1.125 -0.491,-1.695c-0,-0.572 0.266,-1.151 0.552,-1.724c0.214,-0.427 0.448,-0.848 0.448,-1.276c-0,-0.928 -0.948,-2.776 -0.948,-2.776c-0.123,-0.247 -0.023,-0.548 0.224,-0.671c0.247,-0.124 0.547,-0.023 0.671,0.223c-0,0 1.053,2.152 1.053,3.224c-0,0.572 -0.267,1.151 -0.553,1.724c-0.214,0.427 -0.447,0.848 -0.447,1.276c-0,0.43 0.198,0.846 0.397,1.272c0.252,0.539 0.516,1.088 0.598,1.657c0.105,0.735 0.082,2.116 0.049,3.071l2.832,-0c-0,-0 0.223,-2.025 -0,-3c-0.23,-1 -1.314,-2 -1.376,-3c-0.063,-1 1,-2 1,-3c-0,-1 -0.489,-2.079 -1,-3c-0.834,-1.5 -4,-6 -4,-6c-0,-0 -2.667,4.5 -3,6c-0.229,1.029 1,2 1,3c-0,0.484 -0.235,0.969 -0.477,1.453Z" style="fill:#030a1d;"/>
    <path d="M24.512,38.7l0.047,-0.094c0.242,-0.484 0.476,-0.969 0.476,-1.453c0,-1 -0.833,-2 -1,-3c-0.164,-0.986 0,-3 0,-3l-3.546,-0c-0.034,0.908 -0.059,2.228 0.041,2.929c0.068,0.474 0.304,0.926 0.514,1.375c0.264,0.564 0.491,1.126 0.491,1.696c0,0.572 -0.266,1.151 -0.552,1.724c-0.214,0.427 -0.448,0.848 -0.448,1.276c0,0.928 0.948,2.776 0.948,2.776c0.123,0.247 0.023,0.548 -0.224,0.671c-0.247,0.124 -0.547,0.023 -0.671,-0.223c0,-0 -1.053,-2.152 -1.053,-3.224c0,-0.572 0.267,-1.151 0.553,-1.724c0.214,-0.427 0.447,-0.848 0.447,-1.276c0,-0.43 -0.198,-0.846 -0.397,-1.272c-0.252,-0.539 -0.516,-1.088 -0.598,-1.657c-0.105,-0.736 -0.082,-2.117 -0.049,-3.071l-2.832,-0c0,-0 -0.223,2.025 0,3c0.23,1 1.314,2 1.376,3c0.063,1 -1,2 -1,3c0,1 0.489,2.078 1,3c0.834,1.5 4,6 4,6c0,-0 2.667,-4.5 3,-6c0.229,-1.029 -1,-2 -1,-3c0,-0.484 0.235,-0.969 0.477,-1.453Z" style="fill:#030a1d;"/>
</svg>
