<?xml version="1.0" encoding="UTF-8" standalone="no"?>
<!DOCTYPE svg PUBLIC "-//W3C//DTD SVG 1.1//EN" "http://www.w3.org/Graphics/SVG/1.1/DTD/svg11.dtd">
<svg width="100%" height="100%" viewBox="0 0 100 125" version="1.1" xmlns="http://www.w3.org/2000/svg" xmlns:xlink="http://www.w3.org/1999/xlink" xml:space="preserve" xmlns:serif="http://www.serif.com/" style="fill-rule:evenodd;clip-rule:evenodd;stroke-linejoin:round;stroke-miterlimit:2;">
    <rect id="Six-of-Seaweed" serif:id="Six of Seaweed" x="0" y="0" width="100" height="125" style="fill:none;"/>
    <path d="M20.696,21.138c-0.205,0 -0.425,0.019 -0.658,0.056c-0.233,0.037 -0.415,0.089 -0.546,0.154c-0,0.037 -0.002,0.093 -0.007,0.168c-0.005,0.075 -0.007,0.14 -0.007,0.196c-0,0.336 0.023,0.653 0.07,0.952c0.047,0.299 0.126,0.56 0.238,0.784c0.112,0.224 0.261,0.399 0.448,0.525c0.187,0.126 0.42,0.189 0.7,0.189c0.233,0 0.432,-0.049 0.595,-0.147c0.163,-0.098 0.299,-0.222 0.406,-0.371c0.107,-0.149 0.187,-0.315 0.238,-0.497c0.051,-0.182 0.077,-0.357 0.077,-0.525c-0,-0.476 -0.119,-0.842 -0.357,-1.099c-0.238,-0.257 -0.637,-0.385 -1.197,-0.385Zm0.266,-1.624c0.607,0 1.122,0.082 1.547,0.245c0.425,0.163 0.772,0.385 1.043,0.665c0.271,0.28 0.467,0.607 0.588,0.98c0.121,0.373 0.182,0.77 0.182,1.19c-0,0.373 -0.068,0.756 -0.203,1.148c-0.135,0.392 -0.341,0.747 -0.616,1.064c-0.275,0.317 -0.625,0.579 -1.05,0.784c-0.425,0.205 -0.926,0.308 -1.505,0.308c-1.167,0 -2.053,-0.369 -2.66,-1.106c-0.607,-0.737 -0.91,-1.755 -0.91,-3.052c-0,-0.933 0.145,-1.759 0.434,-2.478c0.289,-0.719 0.702,-1.323 1.239,-1.813c0.537,-0.49 1.185,-0.863 1.946,-1.12c0.761,-0.257 1.617,-0.39 2.569,-0.399c0.019,0.289 0.037,0.572 0.056,0.847c0.019,0.275 0.037,0.562 0.056,0.861c-0.476,0.009 -0.922,0.054 -1.337,0.133c-0.415,0.079 -0.793,0.203 -1.134,0.371c-0.341,0.168 -0.637,0.385 -0.889,0.651c-0.252,0.266 -0.448,0.59 -0.588,0.973c0.205,-0.093 0.415,-0.159 0.63,-0.196c0.215,-0.037 0.415,-0.056 0.602,-0.056Z" style="fill:#030a1d;fill-rule:nonzero;"/>
    <path d="M81.304,103.862c0.205,0 0.425,-0.019 0.658,-0.056c0.233,-0.037 0.415,-0.089 0.546,-0.154c-0,-0.037 0.002,-0.093 0.007,-0.168c0.005,-0.075 0.007,-0.14 0.007,-0.196c-0,-0.336 -0.023,-0.653 -0.07,-0.952c-0.047,-0.299 -0.126,-0.56 -0.238,-0.784c-0.112,-0.224 -0.261,-0.399 -0.448,-0.525c-0.187,-0.126 -0.42,-0.189 -0.7,-0.189c-0.233,0 -0.432,0.049 -0.595,0.147c-0.163,0.098 -0.299,0.222 -0.406,0.371c-0.107,0.149 -0.187,0.315 -0.238,0.497c-0.051,0.182 -0.077,0.357 -0.077,0.525c-0,0.476 0.119,0.842 0.357,1.099c0.238,0.257 0.637,0.385 1.197,0.385Zm-0.266,1.624c-0.607,0 -1.122,-0.082 -1.547,-0.245c-0.425,-0.163 -0.772,-0.385 -1.043,-0.665c-0.271,-0.28 -0.467,-0.607 -0.588,-0.98c-0.121,-0.373 -0.182,-0.77 -0.182,-1.19c-0,-0.373 0.068,-0.756 0.203,-1.148c0.135,-0.392 0.341,-0.747 0.616,-1.064c0.275,-0.317 0.625,-0.579 1.05,-0.784c0.425,-0.205 0.926,-0.308 1.505,-0.308c1.167,0 2.053,0.369 2.66,1.106c0.607,0.737 0.91,1.755 0.91,3.052c-0,0.933 -0.145,1.759 -0.434,2.478c-0.289,0.719 -0.702,1.323 -1.239,1.813c-0.537,0.49 -1.185,0.863 -1.946,1.12c-0.761,0.257 -1.617,0.39 -2.569,0.399c-0.019,-0.289 -0.037,-0.572 -0.056,-0.847c-0.019,-0.275 -0.037,-0.562 -0.056,-0.861c0.476,-0.009 0.922,-0.054 1.337,-0.133c0.415,-0.079 0.793,-0.203 1.134,-0.371c0.341,-0.168 0.637,-0.385 0.889,-0.651c0.252,-0.266 0.448,-0.59 0.588,-0.973c-0.205,0.093 -0.415,0.159 -0.63,0.196c-0.215,0.037 -0.415,0.056 -0.602,0.056Z" style="fill:#030a1d;fill-rule:nonzero;"/>
    <path d="M46.3,52.953l-0.047,0.094c-0.242,0.484 -0.477,0.969 -0.477,1.453c0,1 0.834,2 1,3c0.165,0.986 0,3 0,3l3.547,0c0.034,-0.908 0.059,-2.228 -0.042,-2.929c-0.067,-0.475 -0.303,-0.926 -0.513,-1.375c-0.264,-0.564 -0.492,-1.126 -0.492,-1.696c0,-0.572 0.267,-1.151 0.553,-1.724c0.214,-0.427 0.447,-0.848 0.447,-1.276c0,-0.928 -0.947,-2.776 -0.947,-2.776c-0.123,-0.247 -0.023,-0.548 0.224,-0.671c0.247,-0.124 0.547,-0.023 0.671,0.223c-0,0 1.052,2.152 1.052,3.224c0,0.572 -0.266,1.151 -0.552,1.724c-0.214,0.427 -0.448,0.848 -0.448,1.276c0,0.43 0.198,0.846 0.397,1.272c0.253,0.539 0.517,1.088 0.598,1.657c0.105,0.736 0.083,2.116 0.05,3.071l2.832,0c-0,0 0.223,-2.025 -0,-3c-0.23,-1 -1.314,-2 -1.377,-3c-0.062,-1 1,-2 1,-3c0,-1 -0.488,-2.079 -1,-3c-0.833,-1.5 -4,-6 -4,-6c0,0 -2.666,4.5 -3,6c-0.228,1.029 1,2 1,3c0,0.484 -0.234,0.969 -0.476,1.453Z" style="fill:#030a1d;"/>
    <path d="M33.3,52.953l-0.047,0.094c-0.242,0.484 -0.477,0.969 -0.477,1.453c0,1 0.834,2 1,3c0.165,0.986 0,3 0,3l3.547,0c0.034,-0.908 0.059,-2.228 -0.042,-2.929c-0.067,-0.475 -0.303,-0.926 -0.513,-1.375c-0.264,-0.564 -0.492,-1.126 -0.492,-1.696c0,-0.572 0.267,-1.151 0.553,-1.724c0.214,-0.427 0.447,-0.848 0.447,-1.276c0,-0.928 -0.947,-2.776 -0.947,-2.776c-0.123,-0.247 -0.023,-0.548 0.224,-0.671c0.247,-0.124 0.547,-0.023 0.671,0.223c-0,0 1.052,2.152 1.052,3.224c0,0.572 -0.266,1.151 -0.552,1.724c-0.214,0.427 -0.448,0.848 -0.448,1.276c0,0.43 0.198,0.846 0.397,1.272c0.253,0.539 0.517,1.088 0.598,1.657c0.105,0.736 0.083,2.116 0.05,3.071l2.832,0c-0,0 0.223,-2.025 -0,-3c-0.23,-1 -1.314,-2 -1.377,-3c-0.062,-1 1,-2 1,-3c0,-1 -0.488,-2.079 -1,-3c-0.833,-1.5 -4,-6 -4,-6c0,0 -2.666,4.5 -3,6c-0.228,1.029 1,2 1,3c0,0.484 -0.234,0.969 -0.476,1.453Z" style="fill:#030a1d;"/>
    <path d="M59.3,52.953l-0.047,0.094c-0.242,0.484 -0.477,0.969 -0.477,1.453c0,1 0.834,2 1,3c0.165,0.986 0,3 0,3l3.547,0c0.034,-0.908 0.059,-2.228 -0.042,-2.929c-0.067,-0.475 -0.303,-0.926 -0.513,-1.375c-0.264,-0.564 -0.492,-1.126 -0.492,-1.696c0,-0.572 0.267,-1.151 0.553,-1.724c0.214,-0.427 0.447,-0.848 0.447,-1.276c0,-0.928 -0.947,-2.776 -0.947,-2.776c-0.123,-0.247 -0.023,-0.548 0.224,-0.671c0.247,-0.124 0.547,-0.023 0.671,0.223c-0,0 1.052,2.152 1.052,3.224c0,0.572 -0.266,1.151 -0.552,1.724c-0.214,0.427 -0.448,0.848 -0.448,1.276c0,0.43 0.198,0.846 0.397,1.272c0.253,0.539 0.517,1.088 0.598,1.657c0.105,0.736 0.083,2.116 0.05,3.071l2.832,0c-0,0 0.223,-2.025 -0,-3c-0.23,-1 -1.314,-2 -1.377,-3c-0.062,-1 1,-2 1,-3c0,-1 -0.488,-2.079 -1,-3c-0.833,-1.5 -4,-6 -4,-6c0,0 -2.666,4.5 -3,6c-0.228,1.029 1,2 1,3c0,0.484 -0.234,0.969 -0.476,1.453Z" style="fill:#030a1d;"/>
    <path d="M53.7,72.047l0.047,-0.094c0.242,-0.484 0.477,-0.969 0.477,-1.453c-0,-1 -0.834,-2 -1,-3c-0.165,-0.986 -0,-3 -0,-3l-3.547,0c-0.034,0.908 -0.059,2.228 0.042,2.929c0.067,0.475 0.303,0.926 0.513,1.375c0.264,0.564 0.492,1.126 0.492,1.696c-0,0.572 -0.267,1.151 -0.553,1.724c-0.214,0.427 -0.447,0.848 -0.447,1.276c-0,0.928 0.947,2.776 0.947,2.776c0.123,0.247 0.023,0.548 -0.224,0.671c-0.247,0.124 -0.547,0.023 -0.671,-0.223c0,-0 -1.052,-2.152 -1.052,-3.224c-0,-0.572 0.266,-1.151 0.552,-1.724c0.214,-0.427 0.448,-0.848 0.448,-1.276c-0,-0.43 -0.198,-0.846 -0.397,-1.272c-0.253,-0.539 -0.517,-1.088 -0.598,-1.657c-0.105,-0.736 -0.083,-2.116 -0.05,-3.071l-2.832,0c0,0 -0.223,2.025 0,3c0.23,1 1.314,2 1.377,3c0.062,1 -1,2 -1,3c-0,1 0.488,2.079 1,3c0.833,1.5 4,6 4,6c-0,0 2.666,-4.5 3,-6c0.228,-1.029 -1,-2 -1,-3c-0,-0.484 0.234,-0.969 0.476,-1.453Z" style="fill:#030a1d;"/>
    <path d="M40.7,72.047l0.047,-0.094c0.242,-0.484 0.477,-0.969 0.477,-1.453c-0,-1 -0.834,-2 -1,-3c-0.165,-0.986 -0,-3 -0,-3l-3.547,0c-0.034,0.908 -0.059,2.228 0.042,2.929c0.067,0.475 0.303,0.926 0.513,1.375c0.264,0.564 0.492,1.126 0.492,1.696c-0,0.572 -0.267,1.151 -0.553,1.724c-0.214,0.427 -0.447,0.848 -0.447,1.276c-0,0.928 0.947,2.776 0.947,2.776c0.123,0.247 0.023,0.548 -0.224,0.671c-0.247,0.124 -0.547,0.023 -0.671,-0.223c0,-0 -1.052,-2.152 -1.052,-3.224c-0,-0.572 0.266,-1.151 0.552,-1.724c0.214,-0.427 0.448,-0.848 0.448,-1.276c-0,-0.43 -0.198,-0.846 -0.397,-1.272c-0.253,-0.539 -0.517,-1.088 -0.598,-1.657c-0.105,-0.736 -0.083,-2.116 -0.05,-3.071l-2.832,0c0,0 -0.223,2.025 0,3c0.23,1 1.314,2 1.377,3c0.062,1 -1,2 -1,3c-0,1 0.488,2.079 1,3c0.833,1.5 4,6 4,6c-0,0 2.666,-4.5 3,-6c0.228,-1.029 -1,-2 -1,-3c-0,-0.484 0.234,-0.969 0.476,-1.453Z" style="fill:#030a1d;"/>
    <path d="M66.7,72.047l0.047,-0.094c0.242,-0.484 0.477,-0.969 0.477,-1.453c-0,-1 -0.834,-2 -1,-3c-0.165,-0.986 -0,-3 -0,-3l-3.547,0c-0.034,0.908 -0.059,2.228 0.042,2.929c0.067,0.475 0.303,0.926 0.513,1.375c0.264,0.564 0.492,1.126 0.492,1.696c-0,0.572 -0.267,1.151 -0.553,1.724c-0.214,0.427 -0.447,0.848 -0.447,1.276c-0,0.928 0.947,2.776 0.947,2.776c0.123,0.247 0.023,0.548 -0.224,0.671c-0.247,0.124 -0.547,0.023 -0.671,-0.223c0,-0 -1.052,-2.152 -1.052,-3.224c-0,-0.572 0.266,-1.151 0.552,-1.724c0.214,-0.427 0.448,-0.848 0.448,-1.276c-0,-0.43 -0.198,-0.846 -0.397,-1.272c-0.253,-0.539 -0.517,-1.088 -0.598,-1.657c-0.105,-0.736 -0.083,-2.116 -0.05,-3.071l-2.832,0c0,0 -0.223,2.025 0,3c0.23,1 1.314,2 1.377,3c0.062,1 -1,2 -1,3c-0,1 0.488,2.079 1,3c0.833,1.5 4,6 4,6c-0,0 2.666,-4.5 3,-6c0.228,-1.029 -1,-2 -1,-3c-0,-0.484 0.234,-0.969 0.476,-1.453Z" style="fill:#030a1d;"/>
</svg>
