<svg clip-rule="evenodd" fill-rule="evenodd" stroke-linejoin="round" stroke-miterlimit="2" viewBox="0 0 100 125" xmlns="http://www.w3.org/2000/svg">
    <path d="m20.696 21.138c-0.205 0-0.425 0.019-0.658 0.056s-0.415 0.089-0.546 0.154c-0 0.037-2e-3 0.093-7e-3 0.168s-7e-3 0.14-7e-3 0.196c-0 0.336 0.023 0.653 0.07 0.952s0.126 0.56 0.238 0.784 0.261 0.399 0.448 0.525 0.42 0.189 0.7 0.189c0.233 0 0.432-0.049 0.595-0.147s0.299-0.222 0.406-0.371 0.187-0.315 0.238-0.497 0.077-0.357 0.077-0.525c-0-0.476-0.119-0.842-0.357-1.099s-0.637-0.385-1.197-0.385zm0.266-1.624c0.607 0 1.122 0.082 1.547 0.245s0.772 0.385 1.043 0.665 0.467 0.607 0.588 0.98 0.182 0.77 0.182 1.19c-0 0.373-0.068 0.756-0.203 1.148s-0.341 0.747-0.616 1.064-0.625 0.579-1.05 0.784-0.926 0.308-1.505 0.308c-1.167 0-2.053-0.369-2.66-1.106s-0.91-1.755-0.91-3.052c-0-0.933 0.145-1.759 0.434-2.478s0.702-1.323 1.239-1.813 1.185-0.863 1.946-1.12 1.617-0.39 2.569-0.399c0.019 0.289 0.037 0.572 0.056 0.847s0.037 0.562 0.056 0.861c-0.476 9e-3 -0.922 0.054-1.337 0.133s-0.793 0.203-1.134 0.371-0.637 0.385-0.889 0.651-0.448 0.59-0.588 0.973c0.205-0.093 0.415-0.159 0.63-0.196s0.415-0.056 0.602-0.056z" fill="#030a1d" fill-rule="nonzero"/>
    <path d="m81.304 103.86c0.205 0 0.425-0.019 0.658-0.056s0.415-0.089 0.546-0.154c-0-0.037 2e-3 -0.093 7e-3 -0.168s7e-3 -0.14 7e-3 -0.196c-0-0.336-0.023-0.653-0.07-0.952s-0.126-0.56-0.238-0.784-0.261-0.399-0.448-0.525-0.42-0.189-0.7-0.189c-0.233 0-0.432 0.049-0.595 0.147s-0.299 0.222-0.406 0.371-0.187 0.315-0.238 0.497-0.077 0.357-0.077 0.525c-0 0.476 0.119 0.842 0.357 1.099s0.637 0.385 1.197 0.385zm-0.266 1.624c-0.607 0-1.122-0.082-1.547-0.245s-0.772-0.385-1.043-0.665-0.467-0.607-0.588-0.98-0.182-0.77-0.182-1.19c-0-0.373 0.068-0.756 0.203-1.148s0.341-0.747 0.616-1.064 0.625-0.579 1.05-0.784 0.926-0.308 1.505-0.308c1.167 0 2.053 0.369 2.66 1.106s0.91 1.755 0.91 3.052c-0 0.933-0.145 1.759-0.434 2.478s-0.702 1.323-1.239 1.813-1.185 0.863-1.946 1.12-1.617 0.39-2.569 0.399c-0.019-0.289-0.037-0.572-0.056-0.847s-0.037-0.562-0.056-0.861c0.476-9e-3 0.922-0.054 1.337-0.133s0.793-0.203 1.134-0.371 0.637-0.385 0.889-0.651 0.448-0.59 0.588-0.973c-0.205 0.093-0.415 0.159-0.63 0.196s-0.415 0.056-0.602 0.056z" fill="#030a1d" fill-rule="nonzero"/>
    <path d="m46.3 52.953-0.047 0.094c-0.242 0.484-0.477 0.969-0.477 1.453 0 1 0.834 2 1 3 0.165 0.986 0 3 0 3h3.547c0.034-0.908 0.059-2.228-0.042-2.929-0.067-0.475-0.303-0.926-0.513-1.375-0.264-0.564-0.492-1.126-0.492-1.696 0-0.572 0.267-1.151 0.553-1.724 0.214-0.427 0.447-0.848 0.447-1.276 0-0.928-0.947-2.776-0.947-2.776-0.123-0.247-0.023-0.548 0.224-0.671 0.247-0.124 0.547-0.023 0.671 0.223-0 0 1.052 2.152 1.052 3.224 0 0.572-0.266 1.151-0.552 1.724-0.214 0.427-0.448 0.848-0.448 1.276 0 0.43 0.198 0.846 0.397 1.272 0.253 0.539 0.517 1.088 0.598 1.657 0.105 0.736 0.083 2.116 0.05 3.071h2.832s0.223-2.025-0-3c-0.23-1-1.314-2-1.377-3-0.062-1 1-2 1-3s-0.488-2.079-1-3c-0.833-1.5-4-6-4-6s-2.666 4.5-3 6c-0.228 1.029 1 2 1 3 0 0.484-0.234 0.969-0.476 1.453z" fill="#030a1d"/>
    <path d="m33.3 52.953-0.047 0.094c-0.242 0.484-0.477 0.969-0.477 1.453 0 1 0.834 2 1 3 0.165 0.986 0 3 0 3h3.547c0.034-0.908 0.059-2.228-0.042-2.929-0.067-0.475-0.303-0.926-0.513-1.375-0.264-0.564-0.492-1.126-0.492-1.696 0-0.572 0.267-1.151 0.553-1.724 0.214-0.427 0.447-0.848 0.447-1.276 0-0.928-0.947-2.776-0.947-2.776-0.123-0.247-0.023-0.548 0.224-0.671 0.247-0.124 0.547-0.023 0.671 0.223-0 0 1.052 2.152 1.052 3.224 0 0.572-0.266 1.151-0.552 1.724-0.214 0.427-0.448 0.848-0.448 1.276 0 0.43 0.198 0.846 0.397 1.272 0.253 0.539 0.517 1.088 0.598 1.657 0.105 0.736 0.083 2.116 0.05 3.071h2.832s0.223-2.025-0-3c-0.23-1-1.314-2-1.377-3-0.062-1 1-2 1-3s-0.488-2.079-1-3c-0.833-1.5-4-6-4-6s-2.666 4.5-3 6c-0.228 1.029 1 2 1 3 0 0.484-0.234 0.969-0.476 1.453z" fill="#030a1d"/>
    <path d="m59.3 52.953-0.047 0.094c-0.242 0.484-0.477 0.969-0.477 1.453 0 1 0.834 2 1 3 0.165 0.986 0 3 0 3h3.547c0.034-0.908 0.059-2.228-0.042-2.929-0.067-0.475-0.303-0.926-0.513-1.375-0.264-0.564-0.492-1.126-0.492-1.696 0-0.572 0.267-1.151 0.553-1.724 0.214-0.427 0.447-0.848 0.447-1.276 0-0.928-0.947-2.776-0.947-2.776-0.123-0.247-0.023-0.548 0.224-0.671 0.247-0.124 0.547-0.023 0.671 0.223-0 0 1.052 2.152 1.052 3.224 0 0.572-0.266 1.151-0.552 1.724-0.214 0.427-0.448 0.848-0.448 1.276 0 0.43 0.198 0.846 0.397 1.272 0.253 0.539 0.517 1.088 0.598 1.657 0.105 0.736 0.083 2.116 0.05 3.071h2.832s0.223-2.025-0-3c-0.23-1-1.314-2-1.377-3-0.062-1 1-2 1-3s-0.488-2.079-1-3c-0.833-1.5-4-6-4-6s-2.666 4.5-3 6c-0.228 1.029 1 2 1 3 0 0.484-0.234 0.969-0.476 1.453z" fill="#030a1d"/>
    <path d="m53.7 72.047 0.047-0.094c0.242-0.484 0.477-0.969 0.477-1.453-0-1-0.834-2-1-3-0.165-0.986-0-3-0-3h-3.547c-0.034 0.908-0.059 2.228 0.042 2.929 0.067 0.475 0.303 0.926 0.513 1.375 0.264 0.564 0.492 1.126 0.492 1.696-0 0.572-0.267 1.151-0.553 1.724-0.214 0.427-0.447 0.848-0.447 1.276-0 0.928 0.947 2.776 0.947 2.776 0.123 0.247 0.023 0.548-0.224 0.671-0.247 0.124-0.547 0.023-0.671-0.223 0-0-1.052-2.152-1.052-3.224-0-0.572 0.266-1.151 0.552-1.724 0.214-0.427 0.448-0.848 0.448-1.276-0-0.43-0.198-0.846-0.397-1.272-0.253-0.539-0.517-1.088-0.598-1.657-0.105-0.736-0.083-2.116-0.05-3.071h-2.832s-0.223 2.025 0 3c0.23 1 1.314 2 1.377 3 0.062 1-1 2-1 3s0.488 2.079 1 3c0.833 1.5 4 6 4 6s2.666-4.5 3-6c0.228-1.029-1-2-1-3-0-0.484 0.234-0.969 0.476-1.453z" fill="#030a1d"/>
    <path d="m40.7 72.047 0.047-0.094c0.242-0.484 0.477-0.969 0.477-1.453-0-1-0.834-2-1-3-0.165-0.986-0-3-0-3h-3.547c-0.034 0.908-0.059 2.228 0.042 2.929 0.067 0.475 0.303 0.926 0.513 1.375 0.264 0.564 0.492 1.126 0.492 1.696-0 0.572-0.267 1.151-0.553 1.724-0.214 0.427-0.447 0.848-0.447 1.276-0 0.928 0.947 2.776 0.947 2.776 0.123 0.247 0.023 0.548-0.224 0.671-0.247 0.124-0.547 0.023-0.671-0.223 0-0-1.052-2.152-1.052-3.224-0-0.572 0.266-1.151 0.552-1.724 0.214-0.427 0.448-0.848 0.448-1.276-0-0.43-0.198-0.846-0.397-1.272-0.253-0.539-0.517-1.088-0.598-1.657-0.105-0.736-0.083-2.116-0.05-3.071h-2.832s-0.223 2.025 0 3c0.23 1 1.314 2 1.377 3 0.062 1-1 2-1 3s0.488 2.079 1 3c0.833 1.5 4 6 4 6s2.666-4.5 3-6c0.228-1.029-1-2-1-3-0-0.484 0.234-0.969 0.476-1.453z" fill="#030a1d"/>
    <path d="m66.7 72.047 0.047-0.094c0.242-0.484 0.477-0.969 0.477-1.453-0-1-0.834-2-1-3-0.165-0.986-0-3-0-3h-3.547c-0.034 0.908-0.059 2.228 0.042 2.929 0.067 0.475 0.303 0.926 0.513 1.375 0.264 0.564 0.492 1.126 0.492 1.696-0 0.572-0.267 1.151-0.553 1.724-0.214 0.427-0.447 0.848-0.447 1.276-0 0.928 0.947 2.776 0.947 2.776 0.123 0.247 0.023 0.548-0.224 0.671-0.247 0.124-0.547 0.023-0.671-0.223 0-0-1.052-2.152-1.052-3.224-0-0.572 0.266-1.151 0.552-1.724 0.214-0.427 0.448-0.848 0.448-1.276-0-0.43-0.198-0.846-0.397-1.272-0.253-0.539-0.517-1.088-0.598-1.657-0.105-0.736-0.083-2.116-0.05-3.071h-2.832s-0.223 2.025 0 3c0.23 1 1.314 2 1.377 3 0.062 1-1 2-1 3s0.488 2.079 1 3c0.833 1.5 4 6 4 6s2.666-4.5 3-6c0.228-1.029-1-2-1-3-0-0.484 0.234-0.969 0.476-1.453z" fill="#030a1d"/>
</svg>
