<?xml version="1.0" encoding="UTF-8" standalone="no"?>
<!DOCTYPE svg PUBLIC "-//W3C//DTD SVG 1.1//EN" "http://www.w3.org/Graphics/SVG/1.1/DTD/svg11.dtd">
<svg width="100%" height="100%" viewBox="0 0 100 125" version="1.1" xmlns="http://www.w3.org/2000/svg" xmlns:xlink="http://www.w3.org/1999/xlink" xml:space="preserve" xmlns:serif="http://www.serif.com/" style="fill-rule:evenodd;clip-rule:evenodd;stroke-linejoin:round;stroke-miterlimit:2;">
    <rect id="Ten-of-Seaweed" serif:id="Ten of Seaweed" x="0" y="0" width="100" height="125" style="fill:none;"/>
    <g>
        <path d="M17.84,18.016c0.271,-0.112 0.553,-0.24 0.847,-0.385c0.294,-0.145 0.581,-0.303 0.861,-0.476c0.28,-0.173 0.548,-0.355 0.805,-0.546c0.257,-0.191 0.488,-0.394 0.693,-0.609l1.456,-0l-0,9.702l-2.086,-0l-0,-6.986c-0.28,0.187 -0.593,0.357 -0.938,0.511c-0.345,0.154 -0.681,0.287 -1.008,0.399l-0.63,-1.61Z" style="fill:#030a1d;fill-rule:nonzero;"/>
        <path d="M32.288,20.83c-0,1.633 -0.31,2.886 -0.931,3.759c-0.621,0.873 -1.477,1.309 -2.569,1.309c-1.092,-0 -1.948,-0.436 -2.569,-1.309c-0.621,-0.873 -0.931,-2.126 -0.931,-3.759c-0,-0.812 0.082,-1.531 0.245,-2.156c0.163,-0.625 0.399,-1.153 0.707,-1.582c0.308,-0.429 0.677,-0.756 1.106,-0.98c0.429,-0.224 0.91,-0.336 1.442,-0.336c1.092,-0 1.948,0.436 2.569,1.309c0.621,0.873 0.931,2.121 0.931,3.745Zm-2.128,-0c-0,-0.485 -0.023,-0.926 -0.07,-1.323c-0.047,-0.397 -0.121,-0.74 -0.224,-1.029c-0.103,-0.289 -0.243,-0.513 -0.42,-0.672c-0.177,-0.159 -0.397,-0.238 -0.658,-0.238c-0.261,-0 -0.478,0.079 -0.651,0.238c-0.173,0.159 -0.313,0.383 -0.42,0.672c-0.107,0.289 -0.184,0.632 -0.231,1.029c-0.047,0.397 -0.07,0.838 -0.07,1.323c-0,0.485 0.023,0.929 0.07,1.33c0.047,0.401 0.124,0.747 0.231,1.036c0.107,0.289 0.247,0.513 0.42,0.672c0.173,0.159 0.39,0.238 0.651,0.238c0.261,-0 0.481,-0.079 0.658,-0.238c0.177,-0.159 0.317,-0.383 0.42,-0.672c0.103,-0.289 0.177,-0.635 0.224,-1.036c0.047,-0.401 0.07,-0.845 0.07,-1.33Z" style="fill:#030a1d;fill-rule:nonzero;"/>
    </g>
    <g>
        <path d="M84.16,106.984c-0.271,0.112 -0.553,0.24 -0.847,0.385c-0.294,0.145 -0.581,0.303 -0.861,0.476c-0.28,0.173 -0.548,0.355 -0.805,0.546c-0.257,0.191 -0.488,0.394 -0.693,0.609l-1.456,-0l0,-9.702l2.086,-0l0,6.986c0.28,-0.187 0.593,-0.357 0.938,-0.511c0.345,-0.154 0.681,-0.287 1.008,-0.399l0.63,1.61Z" style="fill:#030a1d;fill-rule:nonzero;"/>
        <path d="M69.712,104.17c0,-1.633 0.31,-2.886 0.931,-3.759c0.621,-0.873 1.477,-1.309 2.569,-1.309c1.092,-0 1.948,0.436 2.569,1.309c0.621,0.873 0.931,2.126 0.931,3.759c0,0.812 -0.082,1.531 -0.245,2.156c-0.163,0.625 -0.399,1.153 -0.707,1.582c-0.308,0.429 -0.677,0.756 -1.106,0.98c-0.429,0.224 -0.91,0.336 -1.442,0.336c-1.092,-0 -1.948,-0.436 -2.569,-1.309c-0.621,-0.873 -0.931,-2.121 -0.931,-3.745Zm2.128,-0c0,0.485 0.023,0.926 0.07,1.323c0.047,0.397 0.121,0.74 0.224,1.029c0.103,0.289 0.243,0.513 0.42,0.672c0.177,0.159 0.397,0.238 0.658,0.238c0.261,-0 0.478,-0.079 0.651,-0.238c0.173,-0.159 0.313,-0.383 0.42,-0.672c0.107,-0.289 0.184,-0.632 0.231,-1.029c0.047,-0.397 0.07,-0.838 0.07,-1.323c0,-0.485 -0.023,-0.929 -0.07,-1.33c-0.047,-0.401 -0.124,-0.747 -0.231,-1.036c-0.107,-0.289 -0.247,-0.513 -0.42,-0.672c-0.173,-0.159 -0.39,-0.238 -0.651,-0.238c-0.261,-0 -0.481,0.079 -0.658,0.238c-0.177,0.159 -0.317,0.383 -0.42,0.672c-0.103,0.289 -0.177,0.635 -0.224,1.036c-0.047,0.401 -0.07,0.845 -0.07,1.33Z" style="fill:#030a1d;fill-rule:nonzero;"/>
    </g>
    <path d="M59.004,52.953l-0.047,0.094c-0.241,0.484 -0.476,0.969 -0.476,1.453c-0,1 0.833,2 1,3c0.164,0.986 -0,3 -0,3l3.546,-0c0.034,-0.908 0.059,-2.228 -0.041,-2.929c-0.068,-0.475 -0.304,-0.926 -0.514,-1.375c-0.264,-0.564 -0.491,-1.126 -0.491,-1.696c-0,-0.572 0.267,-1.151 0.553,-1.724c0.214,-0.427 0.447,-0.848 0.447,-1.276c-0,-0.928 -0.947,-2.776 -0.947,-2.776c-0.124,-0.247 -0.024,-0.548 0.223,-0.671c0.247,-0.124 0.548,-0.023 0.671,0.223c0,0 1.053,2.152 1.053,3.224c-0,0.572 -0.267,1.151 -0.553,1.724c-0.214,0.427 -0.447,0.848 -0.447,1.276c-0,0.43 0.198,0.846 0.397,1.272c0.252,0.539 0.517,1.088 0.598,1.657c0.105,0.736 0.082,2.116 0.049,3.071l2.832,-0c0,-0 0.224,-2.025 0,-3c-0.229,-1 -1.313,-2 -1.376,-3c-0.063,-1 1,-2 1,-3c-0,-1 -0.488,-2.079 -1,-3c-0.833,-1.5 -4,-6 -4,-6c-0,-0 -2.667,4.5 -3,6c-0.229,1.029 1,2 1,3c-0,0.484 -0.235,0.969 -0.477,1.453Z" style="fill:#030a1d;"/>
    <path d="M46.004,52.953l-0.047,0.094c-0.241,0.484 -0.476,0.969 -0.476,1.453c-0,1 0.833,2 1,3c0.164,0.986 -0,3 -0,3l3.546,-0c0.034,-0.908 0.059,-2.228 -0.041,-2.929c-0.068,-0.475 -0.304,-0.926 -0.514,-1.375c-0.264,-0.564 -0.491,-1.126 -0.491,-1.696c-0,-0.572 0.267,-1.151 0.553,-1.724c0.214,-0.427 0.447,-0.848 0.447,-1.276c-0,-0.928 -0.947,-2.776 -0.947,-2.776c-0.124,-0.247 -0.024,-0.548 0.223,-0.671c0.247,-0.124 0.548,-0.023 0.671,0.223c0,0 1.053,2.152 1.053,3.224c-0,0.572 -0.267,1.151 -0.553,1.724c-0.214,0.427 -0.447,0.848 -0.447,1.276c-0,0.43 0.198,0.846 0.397,1.272c0.252,0.539 0.517,1.088 0.598,1.657c0.105,0.736 0.082,2.116 0.049,3.071l2.832,-0c0,-0 0.224,-2.025 0,-3c-0.229,-1 -1.313,-2 -1.376,-3c-0.063,-1 1,-2 1,-3c-0,-1 -0.488,-2.079 -1,-3c-0.833,-1.5 -4,-6 -4,-6c-0,-0 -2.667,4.5 -3,6c-0.229,1.029 1,2 1,3c-0,0.484 -0.235,0.969 -0.477,1.453Z" style="fill:#030a1d;"/>
    <path d="M33.099,52.953l-0.047,0.094c-0.242,0.484 -0.476,0.969 -0.476,1.453c-0,1 0.833,2 1,3c0.164,0.986 -0,3 -0,3l3.546,-0c0.034,-0.908 0.059,-2.228 -0.041,-2.929c-0.068,-0.475 -0.304,-0.926 -0.514,-1.375c-0.264,-0.564 -0.491,-1.126 -0.491,-1.696c-0,-0.572 0.266,-1.151 0.553,-1.724c0.213,-0.427 0.447,-0.848 0.447,-1.276c-0,-0.928 -0.947,-2.776 -0.947,-2.776c-0.124,-0.247 -0.024,-0.548 0.223,-0.671c0.247,-0.124 0.548,-0.023 0.671,0.223c0,0 1.053,2.152 1.053,3.224c-0,0.572 -0.267,1.151 -0.553,1.724c-0.214,0.427 -0.447,0.848 -0.447,1.276c-0,0.43 0.198,0.846 0.397,1.272c0.252,0.539 0.516,1.088 0.598,1.657c0.105,0.736 0.082,2.116 0.049,3.071l2.832,-0c-0,-0 0.223,-2.025 -0,-3c-0.229,-1 -1.313,-2 -1.376,-3c-0.063,-1 1,-2 1,-3c-0,-1 -0.488,-2.079 -1,-3c-0.834,-1.5 -4,-6 -4,-6c-0,-0 -2.667,4.5 -3,6c-0.229,1.029 1,2 1,3c-0,0.484 -0.235,0.969 -0.477,1.453Z" style="fill:#030a1d;"/>
    <path d="M72.004,52.953l-0.047,0.094c-0.241,0.484 -0.476,0.969 -0.476,1.453c-0,1 0.833,2 1,3c0.164,0.986 -0,3 -0,3l3.546,-0c0.034,-0.908 0.059,-2.228 -0.041,-2.929c-0.068,-0.475 -0.304,-0.926 -0.514,-1.375c-0.264,-0.564 -0.491,-1.126 -0.491,-1.696c-0,-0.572 0.267,-1.151 0.553,-1.724c0.214,-0.427 0.447,-0.848 0.447,-1.276c-0,-0.928 -0.947,-2.776 -0.947,-2.776c-0.124,-0.247 -0.024,-0.548 0.223,-0.671c0.247,-0.124 0.548,-0.023 0.671,0.223c0,0 1.053,2.152 1.053,3.224c-0,0.572 -0.267,1.151 -0.553,1.724c-0.214,0.427 -0.447,0.848 -0.447,1.276c-0,0.43 0.198,0.846 0.397,1.272c0.252,0.539 0.517,1.088 0.598,1.657c0.105,0.736 0.082,2.116 0.049,3.071l2.832,-0c0,-0 0.224,-2.025 0,-3c-0.229,-1 -1.313,-2 -1.376,-3c-0.063,-1 1,-2 1,-3c-0,-1 -0.488,-2.079 -1,-3c-0.833,-1.5 -4,-6 -4,-6c-0,-0 -2.667,4.5 -3,6c-0.229,1.029 1,2 1,3c-0,0.484 -0.235,0.969 -0.477,1.453Z" style="fill:#030a1d;"/>
    <path d="M66.405,72.047l0.046,-0.094c0.242,-0.484 0.477,-0.969 0.477,-1.453c-0,-1 -0.833,-2 -1,-3c-0.164,-0.986 -0,-3 -0,-3l-3.546,-0c-0.034,0.908 -0.059,2.228 0.041,2.929c0.068,0.475 0.303,0.926 0.514,1.375c0.264,0.564 0.491,1.126 0.491,1.696c-0,0.572 -0.267,1.151 -0.553,1.724c-0.214,0.427 -0.447,0.848 -0.447,1.276c-0,0.928 0.947,2.776 0.947,2.776c0.124,0.247 0.023,0.548 -0.223,0.671c-0.247,0.124 -0.548,0.023 -0.671,-0.223c-0,-0 -1.053,-2.152 -1.053,-3.224c-0,-0.572 0.267,-1.151 0.553,-1.724c0.214,-0.427 0.447,-0.848 0.447,-1.276c-0,-0.43 -0.198,-0.846 -0.397,-1.272c-0.252,-0.539 -0.517,-1.088 -0.598,-1.657c-0.105,-0.736 -0.082,-2.116 -0.05,-3.071l-2.831,-0c-0,-0 -0.224,2.025 -0,3c0.229,1 1.313,2 1.376,3c0.063,1 -1,2 -1,3c-0,1 0.488,2.079 1,3c0.833,1.5 4,6 4,6c-0,-0 2.667,-4.5 3,-6c0.229,-1.029 -1,-2 -1,-3c-0,-0.484 0.235,-0.969 0.477,-1.453Z" style="fill:#030a1d;"/>
    <path d="M53.405,72.047l0.046,-0.094c0.242,-0.484 0.477,-0.969 0.477,-1.453c-0,-1 -0.833,-2 -1,-3c-0.164,-0.986 -0,-3 -0,-3l-3.546,-0c-0.034,0.908 -0.059,2.228 0.041,2.929c0.068,0.475 0.303,0.926 0.514,1.375c0.264,0.564 0.491,1.126 0.491,1.696c-0,0.572 -0.267,1.151 -0.553,1.724c-0.214,0.427 -0.447,0.848 -0.447,1.276c-0,0.928 0.947,2.776 0.947,2.776c0.124,0.247 0.023,0.548 -0.223,0.671c-0.247,0.124 -0.548,0.023 -0.671,-0.223c-0,-0 -1.053,-2.152 -1.053,-3.224c-0,-0.572 0.267,-1.151 0.553,-1.724c0.214,-0.427 0.447,-0.848 0.447,-1.276c-0,-0.43 -0.198,-0.846 -0.397,-1.272c-0.252,-0.539 -0.517,-1.088 -0.598,-1.657c-0.105,-0.736 -0.082,-2.116 -0.05,-3.071l-2.831,-0c-0,-0 -0.224,2.025 -0,3c0.229,1 1.313,2 1.376,3c0.063,1 -1,2 -1,3c-0,1 0.488,2.079 1,3c0.833,1.5 4,6 4,6c-0,-0 2.667,-4.5 3,-6c0.229,-1.029 -1,-2 -1,-3c-0,-0.484 0.235,-0.969 0.477,-1.453Z" style="fill:#030a1d;"/>
    <path d="M40.499,72.047l0.047,-0.094c0.242,-0.484 0.477,-0.969 0.477,-1.453c-0,-1 -0.833,-2 -1,-3c-0.165,-0.986 -0,-3 -0,-3l-3.546,-0c-0.034,0.908 -0.059,2.228 0.041,2.929c0.068,0.475 0.303,0.926 0.514,1.375c0.263,0.564 0.491,1.126 0.491,1.696c-0,0.572 -0.267,1.151 -0.553,1.724c-0.214,0.427 -0.447,0.848 -0.447,1.276c-0,0.928 0.947,2.776 0.947,2.776c0.124,0.247 0.023,0.548 -0.223,0.671c-0.247,0.124 -0.548,0.023 -0.671,-0.223c-0,-0 -1.053,-2.152 -1.053,-3.224c-0,-0.572 0.266,-1.151 0.553,-1.724c0.214,-0.427 0.447,-0.848 0.447,-1.276c-0,-0.43 -0.198,-0.846 -0.397,-1.272c-0.253,-0.539 -0.517,-1.088 -0.598,-1.657c-0.105,-0.736 -0.083,-2.116 -0.05,-3.071l-2.831,-0c-0,-0 -0.224,2.025 -0,3c0.229,1 1.313,2 1.376,3c0.063,1 -1,2 -1,3c-0,1 0.488,2.079 1,3c0.833,1.5 4,6 4,6c-0,-0 2.667,-4.5 3,-6c0.229,-1.029 -1,-2 -1,-3c-0,-0.484 0.235,-0.969 0.476,-1.453Z" style="fill:#030a1d;"/>
    <path d="M20.595,52.953l-0.046,0.094c-0.242,0.484 -0.477,0.969 -0.477,1.453c0,1 0.833,2 1,3c0.164,0.986 0,3 0,3l3.546,-0c0.034,-0.908 0.059,-2.228 -0.041,-2.929c-0.068,-0.475 -0.303,-0.926 -0.514,-1.375c-0.264,-0.564 -0.491,-1.126 -0.491,-1.696c0,-0.572 0.267,-1.151 0.553,-1.724c0.214,-0.427 0.447,-0.848 0.447,-1.276c0,-0.928 -0.947,-2.776 -0.947,-2.776c-0.124,-0.247 -0.023,-0.548 0.223,-0.671c0.247,-0.124 0.548,-0.023 0.671,0.223c0,0 1.053,2.152 1.053,3.224c0,0.572 -0.267,1.151 -0.553,1.724c-0.214,0.427 -0.447,0.848 -0.447,1.276c0,0.43 0.198,0.846 0.397,1.272c0.252,0.539 0.517,1.088 0.598,1.657c0.105,0.736 0.082,2.116 0.05,3.071l2.831,-0c0,-0 0.224,-2.025 0,-3c-0.229,-1 -1.313,-2 -1.376,-3c-0.063,-1 1,-2 1,-3c0,-1 -0.488,-2.079 -1,-3c-0.833,-1.5 -4,-6 -4,-6c0,-0 -2.667,4.5 -3,6c-0.229,1.029 1,2 1,3c0,0.484 -0.235,0.969 -0.477,1.453Z" style="fill:#030a1d;"/>
    <path d="M27.996,72.047l0.047,-0.094c0.241,-0.484 0.476,-0.969 0.476,-1.453c0,-1 -0.833,-2 -1,-3c-0.164,-0.986 0,-3 0,-3l-3.546,-0c-0.034,0.908 -0.059,2.228 0.041,2.929c0.068,0.475 0.304,0.926 0.514,1.375c0.264,0.564 0.491,1.126 0.491,1.696c0,0.572 -0.267,1.151 -0.553,1.724c-0.214,0.427 -0.447,0.848 -0.447,1.276c0,0.928 0.947,2.776 0.947,2.776c0.124,0.247 0.024,0.548 -0.223,0.671c-0.247,0.124 -0.548,0.023 -0.671,-0.223c-0,-0 -1.053,-2.152 -1.053,-3.224c0,-0.572 0.267,-1.151 0.553,-1.724c0.214,-0.427 0.447,-0.848 0.447,-1.276c0,-0.43 -0.198,-0.846 -0.397,-1.272c-0.252,-0.539 -0.517,-1.088 -0.598,-1.657c-0.105,-0.736 -0.082,-2.116 -0.049,-3.071l-2.832,-0c-0,-0 -0.224,2.025 -0,3c0.229,1 1.313,2 1.376,3c0.063,1 -1,2 -1,3c0,1 0.488,2.079 1,3c0.833,1.5 4,6 4,6c0,-0 2.667,-4.5 3,-6c0.229,-1.029 -1,-2 -1,-3c0,-0.484 0.235,-0.969 0.477,-1.453Z" style="fill:#030a1d;"/>
    <path d="M79.405,72.047l0.046,-0.094c0.242,-0.484 0.477,-0.969 0.477,-1.453c-0,-1 -0.833,-2 -1,-3c-0.164,-0.986 -0,-3 -0,-3l-3.546,-0c-0.034,0.908 -0.059,2.228 0.041,2.929c0.068,0.475 0.303,0.926 0.514,1.375c0.264,0.564 0.491,1.126 0.491,1.696c-0,0.572 -0.267,1.151 -0.553,1.724c-0.214,0.427 -0.447,0.848 -0.447,1.276c-0,0.928 0.947,2.776 0.947,2.776c0.124,0.247 0.023,0.548 -0.223,0.671c-0.247,0.124 -0.548,0.023 -0.671,-0.223c-0,-0 -1.053,-2.152 -1.053,-3.224c-0,-0.572 0.267,-1.151 0.553,-1.724c0.214,-0.427 0.447,-0.848 0.447,-1.276c-0,-0.43 -0.198,-0.846 -0.397,-1.272c-0.252,-0.539 -0.517,-1.088 -0.598,-1.657c-0.105,-0.736 -0.082,-2.116 -0.05,-3.071l-2.831,-0c-0,-0 -0.224,2.025 -0,3c0.229,1 1.313,2 1.376,3c0.063,1 -1,2 -1,3c-0,1 0.488,2.079 1,3c0.833,1.5 4,6 4,6c-0,-0 2.667,-4.5 3,-6c0.229,-1.029 -1,-2 -1,-3c-0,-0.484 0.235,-0.969 0.477,-1.453Z" style="fill:#030a1d;"/>
</svg>
