<svg clip-rule="evenodd" fill-rule="evenodd" stroke-linejoin="round" stroke-miterlimit="2" viewBox="0 0 100 125" xmlns="http://www.w3.org/2000/svg">
    <path d="m17.84 18.016c0.271-0.112 0.553-0.24 0.847-0.385s0.581-0.303 0.861-0.476 0.548-0.355 0.805-0.546 0.488-0.394 0.693-0.609h1.456v9.702h-2.086v-6.986c-0.28 0.187-0.593 0.357-0.938 0.511s-0.681 0.287-1.008 0.399l-0.63-1.61z" fill="#030a1d" fill-rule="nonzero"/>
    <path d="m32.288 20.83c-0 1.633-0.31 2.886-0.931 3.759s-1.477 1.309-2.569 1.309-1.948-0.436-2.569-1.309-0.931-2.126-0.931-3.759c-0-0.812 0.082-1.531 0.245-2.156s0.399-1.153 0.707-1.582 0.677-0.756 1.106-0.98 0.91-0.336 1.442-0.336c1.092-0 1.948 0.436 2.569 1.309s0.931 2.121 0.931 3.745zm-2.128-0c-0-0.485-0.023-0.926-0.07-1.323s-0.121-0.74-0.224-1.029-0.243-0.513-0.42-0.672-0.397-0.238-0.658-0.238-0.478 0.079-0.651 0.238-0.313 0.383-0.42 0.672-0.184 0.632-0.231 1.029-0.07 0.838-0.07 1.323 0.023 0.929 0.07 1.33 0.124 0.747 0.231 1.036 0.247 0.513 0.42 0.672 0.39 0.238 0.651 0.238 0.481-0.079 0.658-0.238 0.317-0.383 0.42-0.672 0.177-0.635 0.224-1.036 0.07-0.845 0.07-1.33z" fill="#030a1d" fill-rule="nonzero"/>
    <path d="m84.16 106.98c-0.271 0.112-0.553 0.24-0.847 0.385s-0.581 0.303-0.861 0.476-0.548 0.355-0.805 0.546-0.488 0.394-0.693 0.609h-1.456v-9.702h2.086v6.986c0.28-0.187 0.593-0.357 0.938-0.511s0.681-0.287 1.008-0.399l0.63 1.61z" fill="#030a1d" fill-rule="nonzero"/>
    <path d="m69.712 104.17c0-1.633 0.31-2.886 0.931-3.759s1.477-1.309 2.569-1.309 1.948 0.436 2.569 1.309 0.931 2.126 0.931 3.759c0 0.812-0.082 1.531-0.245 2.156s-0.399 1.153-0.707 1.582-0.677 0.756-1.106 0.98-0.91 0.336-1.442 0.336c-1.092-0-1.948-0.436-2.569-1.309s-0.931-2.121-0.931-3.745zm2.128-0c0 0.485 0.023 0.926 0.07 1.323s0.121 0.74 0.224 1.029 0.243 0.513 0.42 0.672 0.397 0.238 0.658 0.238 0.478-0.079 0.651-0.238 0.313-0.383 0.42-0.672 0.184-0.632 0.231-1.029 0.07-0.838 0.07-1.323-0.023-0.929-0.07-1.33-0.124-0.747-0.231-1.036-0.247-0.513-0.42-0.672-0.39-0.238-0.651-0.238-0.481 0.079-0.658 0.238-0.317 0.383-0.42 0.672-0.177 0.635-0.224 1.036-0.07 0.845-0.07 1.33z" fill="#030a1d" fill-rule="nonzero"/>
    <path d="m59.004 52.953-0.047 0.094c-0.241 0.484-0.476 0.969-0.476 1.453-0 1 0.833 2 1 3 0.164 0.986-0 3-0 3h3.546c0.034-0.908 0.059-2.228-0.041-2.929-0.068-0.475-0.304-0.926-0.514-1.375-0.264-0.564-0.491-1.126-0.491-1.696-0-0.572 0.267-1.151 0.553-1.724 0.214-0.427 0.447-0.848 0.447-1.276-0-0.928-0.947-2.776-0.947-2.776-0.124-0.247-0.024-0.548 0.223-0.671 0.247-0.124 0.548-0.023 0.671 0.223 0 0 1.053 2.152 1.053 3.224-0 0.572-0.267 1.151-0.553 1.724-0.214 0.427-0.447 0.848-0.447 1.276-0 0.43 0.198 0.846 0.397 1.272 0.252 0.539 0.517 1.088 0.598 1.657 0.105 0.736 0.082 2.116 0.049 3.071h2.832s0.224-2.025 0-3c-0.229-1-1.313-2-1.376-3s1-2 1-3-0.488-2.079-1-3c-0.833-1.5-4-6-4-6s-2.667 4.5-3 6c-0.229 1.029 1 2 1 3-0 0.484-0.235 0.969-0.477 1.453z" fill="#030a1d"/>
    <path d="m46.004 52.953-0.047 0.094c-0.241 0.484-0.476 0.969-0.476 1.453-0 1 0.833 2 1 3 0.164 0.986-0 3-0 3h3.546c0.034-0.908 0.059-2.228-0.041-2.929-0.068-0.475-0.304-0.926-0.514-1.375-0.264-0.564-0.491-1.126-0.491-1.696-0-0.572 0.267-1.151 0.553-1.724 0.214-0.427 0.447-0.848 0.447-1.276-0-0.928-0.947-2.776-0.947-2.776-0.124-0.247-0.024-0.548 0.223-0.671 0.247-0.124 0.548-0.023 0.671 0.223 0 0 1.053 2.152 1.053 3.224-0 0.572-0.267 1.151-0.553 1.724-0.214 0.427-0.447 0.848-0.447 1.276-0 0.43 0.198 0.846 0.397 1.272 0.252 0.539 0.517 1.088 0.598 1.657 0.105 0.736 0.082 2.116 0.049 3.071h2.832s0.224-2.025 0-3c-0.229-1-1.313-2-1.376-3s1-2 1-3-0.488-2.079-1-3c-0.833-1.5-4-6-4-6s-2.667 4.5-3 6c-0.229 1.029 1 2 1 3-0 0.484-0.235 0.969-0.477 1.453z" fill="#030a1d"/>
    <path d="m33.099 52.953-0.047 0.094c-0.242 0.484-0.476 0.969-0.476 1.453-0 1 0.833 2 1 3 0.164 0.986-0 3-0 3h3.546c0.034-0.908 0.059-2.228-0.041-2.929-0.068-0.475-0.304-0.926-0.514-1.375-0.264-0.564-0.491-1.126-0.491-1.696-0-0.572 0.266-1.151 0.553-1.724 0.213-0.427 0.447-0.848 0.447-1.276-0-0.928-0.947-2.776-0.947-2.776-0.124-0.247-0.024-0.548 0.223-0.671 0.247-0.124 0.548-0.023 0.671 0.223 0 0 1.053 2.152 1.053 3.224-0 0.572-0.267 1.151-0.553 1.724-0.214 0.427-0.447 0.848-0.447 1.276-0 0.43 0.198 0.846 0.397 1.272 0.252 0.539 0.516 1.088 0.598 1.657 0.105 0.736 0.082 2.116 0.049 3.071h2.832s0.223-2.025-0-3c-0.229-1-1.313-2-1.376-3s1-2 1-3-0.488-2.079-1-3c-0.834-1.5-4-6-4-6s-2.667 4.5-3 6c-0.229 1.029 1 2 1 3-0 0.484-0.235 0.969-0.477 1.453z" fill="#030a1d"/>
    <path d="m72.004 52.953-0.047 0.094c-0.241 0.484-0.476 0.969-0.476 1.453-0 1 0.833 2 1 3 0.164 0.986-0 3-0 3h3.546c0.034-0.908 0.059-2.228-0.041-2.929-0.068-0.475-0.304-0.926-0.514-1.375-0.264-0.564-0.491-1.126-0.491-1.696-0-0.572 0.267-1.151 0.553-1.724 0.214-0.427 0.447-0.848 0.447-1.276-0-0.928-0.947-2.776-0.947-2.776-0.124-0.247-0.024-0.548 0.223-0.671 0.247-0.124 0.548-0.023 0.671 0.223 0 0 1.053 2.152 1.053 3.224-0 0.572-0.267 1.151-0.553 1.724-0.214 0.427-0.447 0.848-0.447 1.276-0 0.43 0.198 0.846 0.397 1.272 0.252 0.539 0.517 1.088 0.598 1.657 0.105 0.736 0.082 2.116 0.049 3.071h2.832s0.224-2.025 0-3c-0.229-1-1.313-2-1.376-3s1-2 1-3-0.488-2.079-1-3c-0.833-1.5-4-6-4-6s-2.667 4.5-3 6c-0.229 1.029 1 2 1 3-0 0.484-0.235 0.969-0.477 1.453z" fill="#030a1d"/>
    <path d="m66.405 72.047 0.046-0.094c0.242-0.484 0.477-0.969 0.477-1.453-0-1-0.833-2-1-3-0.164-0.986-0-3-0-3h-3.546c-0.034 0.908-0.059 2.228 0.041 2.929 0.068 0.475 0.303 0.926 0.514 1.375 0.264 0.564 0.491 1.126 0.491 1.696-0 0.572-0.267 1.151-0.553 1.724-0.214 0.427-0.447 0.848-0.447 1.276-0 0.928 0.947 2.776 0.947 2.776 0.124 0.247 0.023 0.548-0.223 0.671-0.247 0.124-0.548 0.023-0.671-0.223-0-0-1.053-2.152-1.053-3.224-0-0.572 0.267-1.151 0.553-1.724 0.214-0.427 0.447-0.848 0.447-1.276-0-0.43-0.198-0.846-0.397-1.272-0.252-0.539-0.517-1.088-0.598-1.657-0.105-0.736-0.082-2.116-0.05-3.071h-2.831s-0.224 2.025-0 3c0.229 1 1.313 2 1.376 3s-1 2-1 3 0.488 2.079 1 3c0.833 1.5 4 6 4 6s2.667-4.5 3-6c0.229-1.029-1-2-1-3-0-0.484 0.235-0.969 0.477-1.453z" fill="#030a1d"/>
    <path d="m53.405 72.047 0.046-0.094c0.242-0.484 0.477-0.969 0.477-1.453-0-1-0.833-2-1-3-0.164-0.986-0-3-0-3h-3.546c-0.034 0.908-0.059 2.228 0.041 2.929 0.068 0.475 0.303 0.926 0.514 1.375 0.264 0.564 0.491 1.126 0.491 1.696-0 0.572-0.267 1.151-0.553 1.724-0.214 0.427-0.447 0.848-0.447 1.276-0 0.928 0.947 2.776 0.947 2.776 0.124 0.247 0.023 0.548-0.223 0.671-0.247 0.124-0.548 0.023-0.671-0.223-0-0-1.053-2.152-1.053-3.224-0-0.572 0.267-1.151 0.553-1.724 0.214-0.427 0.447-0.848 0.447-1.276-0-0.43-0.198-0.846-0.397-1.272-0.252-0.539-0.517-1.088-0.598-1.657-0.105-0.736-0.082-2.116-0.05-3.071h-2.831s-0.224 2.025-0 3c0.229 1 1.313 2 1.376 3s-1 2-1 3 0.488 2.079 1 3c0.833 1.5 4 6 4 6s2.667-4.5 3-6c0.229-1.029-1-2-1-3-0-0.484 0.235-0.969 0.477-1.453z" fill="#030a1d"/>
    <path d="m40.499 72.047 0.047-0.094c0.242-0.484 0.477-0.969 0.477-1.453-0-1-0.833-2-1-3-0.165-0.986-0-3-0-3h-3.546c-0.034 0.908-0.059 2.228 0.041 2.929 0.068 0.475 0.303 0.926 0.514 1.375 0.263 0.564 0.491 1.126 0.491 1.696-0 0.572-0.267 1.151-0.553 1.724-0.214 0.427-0.447 0.848-0.447 1.276-0 0.928 0.947 2.776 0.947 2.776 0.124 0.247 0.023 0.548-0.223 0.671-0.247 0.124-0.548 0.023-0.671-0.223-0-0-1.053-2.152-1.053-3.224-0-0.572 0.266-1.151 0.553-1.724 0.214-0.427 0.447-0.848 0.447-1.276-0-0.43-0.198-0.846-0.397-1.272-0.253-0.539-0.517-1.088-0.598-1.657-0.105-0.736-0.083-2.116-0.05-3.071h-2.831s-0.224 2.025-0 3c0.229 1 1.313 2 1.376 3s-1 2-1 3 0.488 2.079 1 3c0.833 1.5 4 6 4 6s2.667-4.5 3-6c0.229-1.029-1-2-1-3-0-0.484 0.235-0.969 0.476-1.453z" fill="#030a1d"/>
    <path d="m20.595 52.953-0.046 0.094c-0.242 0.484-0.477 0.969-0.477 1.453 0 1 0.833 2 1 3 0.164 0.986 0 3 0 3h3.546c0.034-0.908 0.059-2.228-0.041-2.929-0.068-0.475-0.303-0.926-0.514-1.375-0.264-0.564-0.491-1.126-0.491-1.696 0-0.572 0.267-1.151 0.553-1.724 0.214-0.427 0.447-0.848 0.447-1.276 0-0.928-0.947-2.776-0.947-2.776-0.124-0.247-0.023-0.548 0.223-0.671 0.247-0.124 0.548-0.023 0.671 0.223 0 0 1.053 2.152 1.053 3.224 0 0.572-0.267 1.151-0.553 1.724-0.214 0.427-0.447 0.848-0.447 1.276 0 0.43 0.198 0.846 0.397 1.272 0.252 0.539 0.517 1.088 0.598 1.657 0.105 0.736 0.082 2.116 0.05 3.071h2.831s0.224-2.025 0-3c-0.229-1-1.313-2-1.376-3s1-2 1-3-0.488-2.079-1-3c-0.833-1.5-4-6-4-6s-2.667 4.5-3 6c-0.229 1.029 1 2 1 3 0 0.484-0.235 0.969-0.477 1.453z" fill="#030a1d"/>
    <path d="m27.996 72.047 0.047-0.094c0.241-0.484 0.476-0.969 0.476-1.453 0-1-0.833-2-1-3-0.164-0.986 0-3 0-3h-3.546c-0.034 0.908-0.059 2.228 0.041 2.929 0.068 0.475 0.304 0.926 0.514 1.375 0.264 0.564 0.491 1.126 0.491 1.696 0 0.572-0.267 1.151-0.553 1.724-0.214 0.427-0.447 0.848-0.447 1.276 0 0.928 0.947 2.776 0.947 2.776 0.124 0.247 0.024 0.548-0.223 0.671-0.247 0.124-0.548 0.023-0.671-0.223-0-0-1.053-2.152-1.053-3.224 0-0.572 0.267-1.151 0.553-1.724 0.214-0.427 0.447-0.848 0.447-1.276 0-0.43-0.198-0.846-0.397-1.272-0.252-0.539-0.517-1.088-0.598-1.657-0.105-0.736-0.082-2.116-0.049-3.071h-2.832s-0.224 2.025-0 3c0.229 1 1.313 2 1.376 3s-1 2-1 3 0.488 2.079 1 3c0.833 1.5 4 6 4 6s2.667-4.5 3-6c0.229-1.029-1-2-1-3 0-0.484 0.235-0.969 0.477-1.453z" fill="#030a1d"/>
    <path d="m79.405 72.047 0.046-0.094c0.242-0.484 0.477-0.969 0.477-1.453-0-1-0.833-2-1-3-0.164-0.986-0-3-0-3h-3.546c-0.034 0.908-0.059 2.228 0.041 2.929 0.068 0.475 0.303 0.926 0.514 1.375 0.264 0.564 0.491 1.126 0.491 1.696-0 0.572-0.267 1.151-0.553 1.724-0.214 0.427-0.447 0.848-0.447 1.276-0 0.928 0.947 2.776 0.947 2.776 0.124 0.247 0.023 0.548-0.223 0.671-0.247 0.124-0.548 0.023-0.671-0.223-0-0-1.053-2.152-1.053-3.224-0-0.572 0.267-1.151 0.553-1.724 0.214-0.427 0.447-0.848 0.447-1.276-0-0.43-0.198-0.846-0.397-1.272-0.252-0.539-0.517-1.088-0.598-1.657-0.105-0.736-0.082-2.116-0.05-3.071h-2.831s-0.224 2.025-0 3c0.229 1 1.313 2 1.376 3s-1 2-1 3 0.488 2.079 1 3c0.833 1.5 4 6 4 6s2.667-4.5 3-6c0.229-1.029-1-2-1-3-0-0.484 0.235-0.969 0.477-1.453z" fill="#030a1d"/>
</svg>
