<?xml version="1.0" encoding="UTF-8" standalone="no"?>
<!DOCTYPE svg PUBLIC "-//W3C//DTD SVG 1.1//EN" "http://www.w3.org/Graphics/SVG/1.1/DTD/svg11.dtd">
<svg width="100%" height="100%" viewBox="0 0 100 125" version="1.1" xmlns="http://www.w3.org/2000/svg" xmlns:xlink="http://www.w3.org/1999/xlink" xml:space="preserve" xmlns:serif="http://www.serif.com/" style="fill-rule:evenodd;clip-rule:evenodd;stroke-linejoin:round;stroke-miterlimit:2;">
    <rect id="Three-of-Seaweed" serif:id="Three of Seaweed" x="0" y="0" width="100" height="125" style="fill:none;"/>
    <path d="M19.052,25.912c-0.252,0 -0.518,-0.016 -0.798,-0.049c-0.28,-0.033 -0.551,-0.077 -0.812,-0.133c-0.261,-0.056 -0.499,-0.117 -0.714,-0.182c-0.215,-0.065 -0.383,-0.126 -0.504,-0.182l0.406,-1.736c0.243,0.103 0.553,0.212 0.931,0.329c0.378,0.117 0.847,0.175 1.407,0.175c0.644,0 1.115,-0.121 1.414,-0.364c0.299,-0.243 0.448,-0.569 0.448,-0.98c-0,-0.252 -0.054,-0.464 -0.161,-0.637c-0.107,-0.173 -0.254,-0.313 -0.441,-0.42c-0.187,-0.107 -0.408,-0.182 -0.665,-0.224c-0.257,-0.042 -0.53,-0.063 -0.819,-0.063l-0.812,0l-0,-1.68l0.924,0c0.205,0 0.404,-0.019 0.595,-0.056c0.191,-0.037 0.362,-0.1 0.511,-0.189c0.149,-0.089 0.268,-0.21 0.357,-0.364c0.089,-0.154 0.133,-0.348 0.133,-0.581c-0,-0.177 -0.037,-0.331 -0.112,-0.462c-0.075,-0.131 -0.17,-0.238 -0.287,-0.322c-0.117,-0.084 -0.252,-0.147 -0.406,-0.189c-0.154,-0.042 -0.31,-0.063 -0.469,-0.063c-0.401,0 -0.772,0.061 -1.113,0.182c-0.341,0.121 -0.651,0.271 -0.931,0.448l-0.742,-1.526c0.149,-0.093 0.324,-0.191 0.525,-0.294c0.201,-0.103 0.422,-0.196 0.665,-0.28c0.243,-0.084 0.502,-0.154 0.777,-0.21c0.275,-0.056 0.567,-0.084 0.875,-0.084c0.569,0 1.062,0.068 1.477,0.203c0.415,0.135 0.758,0.327 1.029,0.574c0.271,0.247 0.471,0.537 0.602,0.868c0.131,0.331 0.196,0.693 0.196,1.085c-0,0.383 -0.107,0.754 -0.322,1.113c-0.215,0.359 -0.504,0.632 -0.868,0.819c0.504,0.205 0.894,0.511 1.169,0.917c0.275,0.406 0.413,0.894 0.413,1.463c-0,0.448 -0.075,0.861 -0.224,1.239c-0.149,0.378 -0.383,0.705 -0.7,0.98c-0.317,0.275 -0.721,0.49 -1.211,0.644c-0.49,0.154 -1.071,0.231 -1.743,0.231Z" style="fill:#030a1d;fill-rule:nonzero;"/>
    <path d="M80.948,99.088c0.252,0 0.518,0.016 0.798,0.049c0.28,0.033 0.551,0.077 0.812,0.133c0.261,0.056 0.499,0.117 0.714,0.182c0.215,0.065 0.383,0.126 0.504,0.182l-0.406,1.736c-0.243,-0.103 -0.553,-0.212 -0.931,-0.329c-0.378,-0.117 -0.847,-0.175 -1.407,-0.175c-0.644,0 -1.115,0.121 -1.414,0.364c-0.299,0.243 -0.448,0.569 -0.448,0.98c0,0.252 0.054,0.464 0.161,0.637c0.107,0.173 0.254,0.313 0.441,0.42c0.187,0.107 0.408,0.182 0.665,0.224c0.257,0.042 0.53,0.063 0.819,0.063l0.812,0l0,1.68l-0.924,0c-0.205,0 -0.404,0.019 -0.595,0.056c-0.191,0.037 -0.362,0.1 -0.511,0.189c-0.149,0.089 -0.268,0.21 -0.357,0.364c-0.089,0.154 -0.133,0.348 -0.133,0.581c0,0.177 0.037,0.331 0.112,0.462c0.075,0.131 0.17,0.238 0.287,0.322c0.117,0.084 0.252,0.147 0.406,0.189c0.154,0.042 0.31,0.063 0.469,0.063c0.401,0 0.772,-0.061 1.113,-0.182c0.341,-0.121 0.651,-0.271 0.931,-0.448l0.742,1.526c-0.149,0.093 -0.324,0.191 -0.525,0.294c-0.201,0.103 -0.422,0.196 -0.665,0.28c-0.243,0.084 -0.502,0.154 -0.777,0.21c-0.275,0.056 -0.567,0.084 -0.875,0.084c-0.569,0 -1.062,-0.068 -1.477,-0.203c-0.415,-0.135 -0.758,-0.327 -1.029,-0.574c-0.271,-0.247 -0.471,-0.537 -0.602,-0.868c-0.131,-0.331 -0.196,-0.693 -0.196,-1.085c0,-0.383 0.107,-0.754 0.322,-1.113c0.215,-0.359 0.504,-0.632 0.868,-0.819c-0.504,-0.205 -0.894,-0.511 -1.169,-0.917c-0.275,-0.406 -0.413,-0.894 -0.413,-1.463c0,-0.448 0.075,-0.861 0.224,-1.239c0.149,-0.378 0.383,-0.705 0.7,-0.98c0.317,-0.275 0.721,-0.49 1.211,-0.644c0.49,-0.154 1.071,-0.231 1.743,-0.231Z" style="fill:#030a1d;fill-rule:nonzero;"/>
    <path d="M58.804,63.953l-0.047,0.094c-0.242,0.484 -0.477,0.969 -0.477,1.453c0,1 0.834,2 1,3c0.165,0.986 0,3 0,3l3.547,0c0.034,-0.908 0.059,-2.228 -0.042,-2.929c-0.067,-0.475 -0.303,-0.926 -0.514,-1.375c-0.263,-0.564 -0.491,-1.126 -0.491,-1.696c0,-0.572 0.267,-1.151 0.553,-1.724c0.214,-0.427 0.447,-0.848 0.447,-1.276c0,-0.928 -0.947,-2.776 -0.947,-2.776c-0.123,-0.247 -0.023,-0.548 0.224,-0.671c0.246,-0.124 0.547,-0.023 0.67,0.223c0,0 1.053,2.152 1.053,3.224c0,0.572 -0.266,1.151 -0.553,1.724c-0.213,0.427 -0.447,0.848 -0.447,1.276c0,0.43 0.198,0.846 0.397,1.272c0.253,0.539 0.517,1.088 0.598,1.657c0.105,0.736 0.083,2.116 0.05,3.071l2.831,0c0,0 0.224,-2.025 0,-3c-0.229,-1 -1.313,-2 -1.376,-3c-0.062,-1 1,-2 1,-3c0,-1 -0.488,-2.079 -1,-3c-0.833,-1.5 -4,-6 -4,-6c0,0 -2.666,4.5 -3,6c-0.228,1.029 1,2 1,3c0,0.484 -0.234,0.969 -0.476,1.453Z" style="fill:#030a1d;"/>
    <path d="M33.796,63.953l-0.047,0.094c-0.242,0.484 -0.476,0.969 -0.476,1.453c-0,1 0.833,2 1,3c0.164,0.986 -0,3 -0,3l3.546,0c0.034,-0.908 0.059,-2.228 -0.041,-2.929c-0.068,-0.475 -0.304,-0.926 -0.514,-1.375c-0.264,-0.564 -0.491,-1.126 -0.491,-1.696c-0,-0.572 0.266,-1.151 0.552,-1.724c0.214,-0.427 0.448,-0.848 0.448,-1.276c-0,-0.928 -0.948,-2.776 -0.948,-2.776c-0.123,-0.247 -0.023,-0.548 0.224,-0.671c0.247,-0.124 0.547,-0.023 0.671,0.223c-0,0 1.053,2.152 1.053,3.224c-0,0.572 -0.267,1.151 -0.553,1.724c-0.214,0.427 -0.447,0.848 -0.447,1.276c-0,0.43 0.198,0.846 0.397,1.272c0.252,0.539 0.516,1.088 0.598,1.657c0.105,0.736 0.082,2.116 0.049,3.071l2.832,0c-0,0 0.223,-2.025 -0,-3c-0.23,-1 -1.314,-2 -1.376,-3c-0.063,-1 1,-2 1,-3c-0,-1 -0.488,-2.079 -1,-3c-0.834,-1.5 -4,-6 -4,-6c-0,0 -2.667,4.5 -3,6c-0.229,1.029 1,2 1,3c-0,0.484 -0.235,0.969 -0.477,1.453Z" style="fill:#030a1d;"/>
    <path d="M53.7,61.047l0.047,-0.094c0.242,-0.484 0.477,-0.969 0.477,-1.453c-0,-1 -0.834,-2 -1,-3c-0.165,-0.986 -0,-3 -0,-3l-3.547,0c-0.034,0.908 -0.059,2.228 0.042,2.929c0.067,0.475 0.303,0.926 0.513,1.375c0.264,0.564 0.492,1.126 0.492,1.696c-0,0.572 -0.267,1.151 -0.553,1.724c-0.214,0.427 -0.447,0.848 -0.447,1.276c-0,0.928 0.947,2.776 0.947,2.776c0.123,0.247 0.023,0.548 -0.224,0.671c-0.247,0.124 -0.547,0.023 -0.671,-0.223c0,-0 -1.052,-2.152 -1.052,-3.224c-0,-0.572 0.266,-1.151 0.552,-1.724c0.214,-0.427 0.448,-0.848 0.448,-1.276c-0,-0.43 -0.198,-0.846 -0.397,-1.272c-0.253,-0.539 -0.517,-1.088 -0.598,-1.657c-0.105,-0.736 -0.083,-2.116 -0.05,-3.071l-2.832,0c0,0 -0.223,2.025 0,3c0.23,1 1.314,2 1.377,3c0.062,1 -1,2 -1,3c-0,1 0.488,2.079 1,3c0.833,1.5 4,6 4,6c-0,0 2.666,-4.5 3,-6c0.228,-1.029 -1,-2 -1,-3c-0,-0.484 0.234,-0.969 0.476,-1.453Z" style="fill:#030a1d;"/>
</svg>
