<svg clip-rule="evenodd" fill-rule="evenodd" stroke-linejoin="round" stroke-miterlimit="2" viewBox="0 0 100 125" xmlns="http://www.w3.org/2000/svg">
    <path d="m22.804 18.548c0 0.355-0.07 0.695-0.21 1.022s-0.322 0.642-0.546 0.945-0.476 0.595-0.756 0.875-0.555 0.546-0.826 0.798c-0.14 0.131-0.292 0.278-0.455 0.441s-0.32 0.329-0.469 0.497-0.282 0.324-0.399 0.469-0.189 0.264-0.217 0.357h4.172v1.75h-6.468c-0.019-0.103-0.028-0.233-0.028-0.392v-0.336c0-0.448 0.072-0.859 0.217-1.232s0.334-0.721 0.567-1.043 0.497-0.623 0.791-0.903 0.586-0.56 0.875-0.84c0.224-0.215 0.434-0.418 0.63-0.609s0.369-0.378 0.518-0.56 0.266-0.364 0.35-0.546 0.126-0.366 0.126-0.553c0-0.411-0.117-0.7-0.35-0.868s-0.523-0.252-0.868-0.252c-0.252 0-0.488 0.04-0.707 0.119s-0.42 0.173-0.602 0.28-0.338 0.215-0.469 0.322-0.229 0.194-0.294 0.259l-1.036-1.456c0.411-0.383 0.889-0.698 1.435-0.945s1.132-0.371 1.757-0.371c0.569 0 1.059 0.065 1.47 0.196s0.749 0.315 1.015 0.553 0.462 0.527 0.588 0.868 0.189 0.726 0.189 1.155z" fill="#030a1d" fill-rule="nonzero"/>
    <path d="m77.196 106.45c0-0.355 0.07-0.695 0.21-1.022s0.322-0.642 0.546-0.945 0.476-0.595 0.756-0.875 0.555-0.546 0.826-0.798c0.14-0.131 0.292-0.278 0.455-0.441s0.32-0.329 0.469-0.497 0.282-0.324 0.399-0.469 0.189-0.264 0.217-0.357h-4.172v-1.75h6.468c0.019 0.103 0.028 0.233 0.028 0.392v0.336c0 0.448-0.072 0.859-0.217 1.232s-0.334 0.721-0.567 1.043-0.497 0.623-0.791 0.903-0.586 0.56-0.875 0.84c-0.224 0.215-0.434 0.418-0.63 0.609s-0.369 0.378-0.518 0.56-0.266 0.364-0.35 0.546-0.126 0.366-0.126 0.553c0 0.411 0.117 0.7 0.35 0.868s0.523 0.252 0.868 0.252c0.252 0 0.488-0.04 0.707-0.119s0.42-0.173 0.602-0.28 0.338-0.215 0.469-0.322 0.229-0.194 0.294-0.259l1.036 1.456c-0.411 0.383-0.889 0.698-1.435 0.945s-1.132 0.371-1.757 0.371c-0.569 0-1.059-0.065-1.47-0.196s-0.749-0.315-1.015-0.553-0.462-0.527-0.588-0.868-0.189-0.726-0.189-1.155z" fill="#030a1d" fill-rule="nonzero"/>
    <path d="m46.3 52.953-0.047 0.094c-0.242 0.484-0.477 0.969-0.477 1.453 0 1 0.834 2 1 3 0.165 0.986 0 3 0 3h3.547c0.034-0.908 0.059-2.228-0.042-2.929-0.067-0.475-0.303-0.926-0.513-1.375-0.264-0.564-0.492-1.126-0.492-1.696 0-0.572 0.267-1.151 0.553-1.724 0.214-0.427 0.447-0.848 0.447-1.276 0-0.928-0.947-2.776-0.947-2.776-0.123-0.247-0.023-0.548 0.224-0.671 0.247-0.124 0.547-0.023 0.671 0.223-0 0 1.052 2.152 1.052 3.224 0 0.572-0.266 1.151-0.552 1.724-0.214 0.427-0.448 0.848-0.448 1.276 0 0.43 0.198 0.846 0.397 1.272 0.253 0.539 0.517 1.088 0.598 1.657 0.105 0.736 0.083 2.116 0.05 3.071h2.832s0.223-2.025-0-3c-0.23-1-1.314-2-1.377-3-0.062-1 1-2 1-3s-0.488-2.079-1-3c-0.833-1.5-4-6-4-6s-2.666 4.5-3 6c-0.228 1.029 1 2 1 3 0 0.484-0.234 0.969-0.476 1.453z" fill="#030a1d"/>
    <path d="m53.7 72.047 0.047-0.094c0.242-0.484 0.477-0.969 0.477-1.453-0-1-0.834-2-1-3-0.165-0.986-0-3-0-3h-3.547c-0.034 0.908-0.059 2.228 0.042 2.929 0.067 0.475 0.303 0.926 0.513 1.375 0.264 0.564 0.492 1.126 0.492 1.696-0 0.572-0.267 1.151-0.553 1.724-0.214 0.427-0.447 0.848-0.447 1.276-0 0.928 0.947 2.776 0.947 2.776 0.123 0.247 0.023 0.548-0.224 0.671-0.247 0.124-0.547 0.023-0.671-0.223 0-0-1.052-2.152-1.052-3.224-0-0.572 0.266-1.151 0.552-1.724 0.214-0.427 0.448-0.848 0.448-1.276-0-0.43-0.198-0.846-0.397-1.272-0.253-0.539-0.517-1.088-0.598-1.657-0.105-0.736-0.083-2.116-0.05-3.071h-2.832s-0.223 2.025 0 3c0.23 1 1.314 2 1.377 3 0.062 1-1 2-1 3s0.488 2.079 1 3c0.833 1.5 4 6 4 6s2.666-4.5 3-6c0.228-1.029-1-2-1-3-0-0.484 0.234-0.969 0.476-1.453z" fill="#030a1d"/>
</svg>
