<?xml version="1.0" encoding="UTF-8" standalone="no"?>
<!DOCTYPE svg PUBLIC "-//W3C//DTD SVG 1.1//EN" "http://www.w3.org/Graphics/SVG/1.1/DTD/svg11.dtd">
<svg width="100%" height="100%" viewBox="0 0 100 125" version="1.1" xmlns="http://www.w3.org/2000/svg" xmlns:xlink="http://www.w3.org/1999/xlink" xml:space="preserve" xmlns:serif="http://www.serif.com/" style="fill-rule:evenodd;clip-rule:evenodd;stroke-linejoin:round;stroke-miterlimit:2;">
    <rect id="Two-of-Seaweed" serif:id="Two of Seaweed" x="0" y="0" width="100" height="125" style="fill:none;"/>
    <path d="M22.804,18.548c0,0.355 -0.07,0.695 -0.21,1.022c-0.14,0.327 -0.322,0.642 -0.546,0.945c-0.224,0.303 -0.476,0.595 -0.756,0.875c-0.28,0.28 -0.555,0.546 -0.826,0.798c-0.14,0.131 -0.292,0.278 -0.455,0.441c-0.163,0.163 -0.32,0.329 -0.469,0.497c-0.149,0.168 -0.282,0.324 -0.399,0.469c-0.117,0.145 -0.189,0.264 -0.217,0.357l4.172,0l0,1.75l-6.468,0c-0.019,-0.103 -0.028,-0.233 -0.028,-0.392l0,-0.336c0,-0.448 0.072,-0.859 0.217,-1.232c0.145,-0.373 0.334,-0.721 0.567,-1.043c0.233,-0.322 0.497,-0.623 0.791,-0.903c0.294,-0.28 0.586,-0.56 0.875,-0.84c0.224,-0.215 0.434,-0.418 0.63,-0.609c0.196,-0.191 0.369,-0.378 0.518,-0.56c0.149,-0.182 0.266,-0.364 0.35,-0.546c0.084,-0.182 0.126,-0.366 0.126,-0.553c0,-0.411 -0.117,-0.7 -0.35,-0.868c-0.233,-0.168 -0.523,-0.252 -0.868,-0.252c-0.252,0 -0.488,0.04 -0.707,0.119c-0.219,0.079 -0.42,0.173 -0.602,0.28c-0.182,0.107 -0.338,0.215 -0.469,0.322c-0.131,0.107 -0.229,0.194 -0.294,0.259l-1.036,-1.456c0.411,-0.383 0.889,-0.698 1.435,-0.945c0.546,-0.247 1.132,-0.371 1.757,-0.371c0.569,0 1.059,0.065 1.47,0.196c0.411,0.131 0.749,0.315 1.015,0.553c0.266,0.238 0.462,0.527 0.588,0.868c0.126,0.341 0.189,0.726 0.189,1.155Z" style="fill:#030a1d;fill-rule:nonzero;"/>
    <path d="M77.196,106.452c0,-0.355 0.07,-0.695 0.21,-1.022c0.14,-0.327 0.322,-0.642 0.546,-0.945c0.224,-0.303 0.476,-0.595 0.756,-0.875c0.28,-0.28 0.555,-0.546 0.826,-0.798c0.14,-0.131 0.292,-0.278 0.455,-0.441c0.163,-0.163 0.32,-0.329 0.469,-0.497c0.149,-0.168 0.282,-0.324 0.399,-0.469c0.117,-0.145 0.189,-0.264 0.217,-0.357l-4.172,0l0,-1.75l6.468,0c0.019,0.103 0.028,0.233 0.028,0.392l0,0.336c0,0.448 -0.072,0.859 -0.217,1.232c-0.145,0.373 -0.334,0.721 -0.567,1.043c-0.233,0.322 -0.497,0.623 -0.791,0.903c-0.294,0.28 -0.586,0.56 -0.875,0.84c-0.224,0.215 -0.434,0.418 -0.63,0.609c-0.196,0.191 -0.369,0.378 -0.518,0.56c-0.149,0.182 -0.266,0.364 -0.35,0.546c-0.084,0.182 -0.126,0.366 -0.126,0.553c0,0.411 0.117,0.7 0.35,0.868c0.233,0.168 0.523,0.252 0.868,0.252c0.252,0 0.488,-0.04 0.707,-0.119c0.219,-0.079 0.42,-0.173 0.602,-0.28c0.182,-0.107 0.338,-0.215 0.469,-0.322c0.131,-0.107 0.229,-0.194 0.294,-0.259l1.036,1.456c-0.411,0.383 -0.889,0.698 -1.435,0.945c-0.546,0.247 -1.132,0.371 -1.757,0.371c-0.569,0 -1.059,-0.065 -1.47,-0.196c-0.411,-0.131 -0.749,-0.315 -1.015,-0.553c-0.266,-0.238 -0.462,-0.527 -0.588,-0.868c-0.126,-0.341 -0.189,-0.726 -0.189,-1.155Z" style="fill:#030a1d;fill-rule:nonzero;"/>
    <path d="M46.3,52.953l-0.047,0.094c-0.242,0.484 -0.477,0.969 -0.477,1.453c0,1 0.834,2 1,3c0.165,0.986 0,3 0,3l3.547,0c0.034,-0.908 0.059,-2.228 -0.042,-2.929c-0.067,-0.475 -0.303,-0.926 -0.513,-1.375c-0.264,-0.564 -0.492,-1.126 -0.492,-1.696c0,-0.572 0.267,-1.151 0.553,-1.724c0.214,-0.427 0.447,-0.848 0.447,-1.276c0,-0.928 -0.947,-2.776 -0.947,-2.776c-0.123,-0.247 -0.023,-0.548 0.224,-0.671c0.247,-0.124 0.547,-0.023 0.671,0.223c-0,0 1.052,2.152 1.052,3.224c0,0.572 -0.266,1.151 -0.552,1.724c-0.214,0.427 -0.448,0.848 -0.448,1.276c0,0.43 0.198,0.846 0.397,1.272c0.253,0.539 0.517,1.088 0.598,1.657c0.105,0.736 0.083,2.116 0.05,3.071l2.832,0c-0,0 0.223,-2.025 -0,-3c-0.23,-1 -1.314,-2 -1.377,-3c-0.062,-1 1,-2 1,-3c0,-1 -0.488,-2.079 -1,-3c-0.833,-1.5 -4,-6 -4,-6c0,0 -2.666,4.5 -3,6c-0.228,1.029 1,2 1,3c0,0.484 -0.234,0.969 -0.476,1.453Z" style="fill:#030a1d;"/>
    <path d="M53.7,72.047l0.047,-0.094c0.242,-0.484 0.477,-0.969 0.477,-1.453c-0,-1 -0.834,-2 -1,-3c-0.165,-0.986 -0,-3 -0,-3l-3.547,0c-0.034,0.908 -0.059,2.228 0.042,2.929c0.067,0.475 0.303,0.926 0.513,1.375c0.264,0.564 0.492,1.126 0.492,1.696c-0,0.572 -0.267,1.151 -0.553,1.724c-0.214,0.427 -0.447,0.848 -0.447,1.276c-0,0.928 0.947,2.776 0.947,2.776c0.123,0.247 0.023,0.548 -0.224,0.671c-0.247,0.124 -0.547,0.023 -0.671,-0.223c0,-0 -1.052,-2.152 -1.052,-3.224c-0,-0.572 0.266,-1.151 0.552,-1.724c0.214,-0.427 0.448,-0.848 0.448,-1.276c-0,-0.43 -0.198,-0.846 -0.397,-1.272c-0.253,-0.539 -0.517,-1.088 -0.598,-1.657c-0.105,-0.736 -0.083,-2.116 -0.05,-3.071l-2.832,0c0,0 -0.223,2.025 0,3c0.23,1 1.314,2 1.377,3c0.062,1 -1,2 -1,3c-0,1 0.488,2.079 1,3c0.833,1.5 4,6 4,6c-0,0 2.666,-4.5 3,-6c0.228,-1.029 -1,-2 -1,-3c-0,-0.484 0.234,-0.969 0.476,-1.453Z" style="fill:#030a1d;"/>
</svg>
