<?xml version="1.0" encoding="UTF-8" standalone="no"?>
<!DOCTYPE svg PUBLIC "-//W3C//DTD SVG 1.1//EN" "http://www.w3.org/Graphics/SVG/1.1/DTD/svg11.dtd">
<svg width="100%" height="100%" viewBox="0 0 100 126" version="1.1" xmlns="http://www.w3.org/2000/svg" xmlns:xlink="http://www.w3.org/1999/xlink" xml:space="preserve" xmlns:serif="http://www.serif.com/" style="fill-rule:evenodd;clip-rule:evenodd;stroke-linejoin:round;stroke-miterlimit:2;">
    <g transform="matrix(1,0,0,1,-13993,-316)">
        <g id="Ace-of-Seaweed" serif:id="Ace of Seaweed" transform="matrix(1,0,0,1,0,316.878)">
            <rect x="13993" y="0" width="100" height="125" style="fill:none;"/>
            <g transform="matrix(2.49189,0,0,2.49189,2151.07,-11021.1)">
                <path d="M4767.46,4448.61C4767.75,4449.07 4767.99,4449.6 4768.26,4450.09C4768.6,4450.7 4768.98,4451.27 4769.5,4451.64C4770.01,4452.02 4770.66,4452.22 4771.35,4452.36C4771.95,4452.48 4772.59,4452.56 4773.16,4452.72C4773.42,4452.8 4773.7,4452.64 4773.77,4452.38C4773.85,4452.11 4773.7,4451.83 4773.43,4451.76C4772.84,4451.59 4772.18,4451.5 4771.55,4451.38C4771.01,4451.27 4770.49,4451.13 4770.09,4450.84C4769.69,4450.54 4769.4,4450.09 4769.14,4449.61C4768.83,4449.05 4768.55,4448.44 4768.21,4447.93C4768.2,4447.91 4768.19,4447.9 4768.18,4447.89L4768.48,4447.59C4768.49,4447.6 4768.5,4447.61 4768.52,4447.62C4770.51,4448.95 4770.84,4449.83 4772.51,4451C4773.87,4451.95 4777.16,4453.64 4778.49,4454.64C4778.71,4454.8 4779.03,4454.76 4779.19,4454.54C4779.36,4454.32 4779.32,4454.01 4779.1,4453.84C4778.63,4453.49 4777.92,4453.05 4777.14,4452.6C4777.29,4452.45 4777.34,4452.21 4777.24,4452.02C4777.08,4451.7 4776.99,4451.33 4776.86,4450.98C4776.69,4450.54 4776.47,4450.13 4776.1,4449.84C4775.76,4449.58 4775.23,4449.36 4774.65,4449.15C4773.9,4448.89 4773.04,4448.64 4772.47,4448.25C4771.56,4447.64 4770.94,4446.68 4770.18,4445.89L4770.99,4445.08C4771.44,4445.77 4771.82,4446.63 4772.27,4447.34C4772.64,4447.92 4773.05,4448.4 4773.55,4448.68C4774.18,4449.02 4775.04,4448.97 4775.9,4448.83C4776.55,4448.73 4777.19,4448.57 4777.64,4448.71C4777.99,4448.83 4778.25,4449.11 4778.49,4449.41C4778.81,4449.81 4779.09,4450.25 4779.44,4450.59C4779.64,4450.79 4779.95,4450.79 4780.15,4450.59C4780.34,4450.4 4780.34,4450.08 4780.15,4449.89C4779.83,4449.57 4779.56,4449.15 4779.27,4448.79C4778.9,4448.33 4778.49,4447.94 4777.95,4447.77C4777.39,4447.58 4776.57,4447.71 4775.75,4447.84C4775.12,4447.94 4774.49,4448.05 4774.03,4447.8C4773.57,4447.54 4773.23,4447.01 4772.9,4446.43C4772.51,4445.75 4772.15,4445 4771.73,4444.39C4771.72,4444.38 4771.72,4444.37 4771.71,4444.36L4771.87,4444.2C4772.1,4443.97 4772.23,4443.66 4772.23,4443.33C4772.23,4443.01 4772.1,4442.7 4771.87,4442.47C4771.81,4442.41 4771.75,4442.35 4771.68,4442.28C4770.86,4441.46 4769.75,4441 4768.59,4441C4767.43,4441 4766.31,4441.46 4765.49,4442.28C4765.49,4442.28 4765.49,4442.28 4765.49,4442.28C4764.67,4443.11 4764.21,4444.22 4764.21,4445.38C4764.21,4446.54 4764.67,4447.66 4765.49,4448.48C4765.55,4448.54 4765.62,4448.6 4765.68,4448.66C4765.91,4448.89 4766.22,4449.02 4766.54,4449.02C4766.86,4449.02 4767.18,4448.89 4767.4,4448.66L4767.46,4448.61ZM4769.48,4446.59L4769.2,4446.87C4771.09,4448.17 4771.45,4449.03 4773.08,4450.18C4773.78,4450.67 4774.98,4451.35 4776.16,4452.03C4776.08,4451.8 4776.01,4451.56 4775.92,4451.34C4775.82,4451.07 4775.71,4450.81 4775.49,4450.63C4775.14,4450.36 4774.54,4450.17 4773.92,4449.95C4773.19,4449.71 4772.44,4449.44 4771.91,4449.08C4770.95,4448.44 4770.28,4447.43 4769.48,4446.59ZM4768.47,4442C4769.16,4442 4769.72,4442.45 4769.72,4443C4769.72,4443.55 4769.16,4444 4768.47,4444C4767.78,4444 4767.22,4443.55 4767.22,4443C4767.22,4442.45 4767.78,4442 4768.47,4442Z" style="fill:rgb(3,10,29);"/>
            </g>
            <g transform="matrix(0.231477,0,0,0.231477,13425.4,-1265.81)">
                <path d="M2553.51,5579.45C2553.06,5578 2552.57,5576.51 2552.03,5574.98C2551.48,5573.44 2550.95,5571.91 2550.42,5570.38L2534.09,5570.38C2533.57,5571.91 2533.03,5573.44 2532.49,5574.98C2531.95,5576.51 2531.45,5578 2531.01,5579.45L2521.21,5579.45C2522.78,5574.94 2524.28,5570.76 2525.69,5566.93C2527.1,5563.1 2528.48,5559.49 2529.83,5556.11C2531.18,5552.72 2532.51,5549.5 2533.82,5546.46C2535.13,5543.41 2536.49,5540.44 2537.9,5537.54L2546.91,5537.54C2548.29,5540.44 2549.64,5543.41 2550.97,5546.46C2552.3,5549.5 2553.64,5552.72 2554.99,5556.11C2556.34,5559.49 2557.72,5563.1 2559.13,5566.93C2560.54,5570.76 2562.03,5574.94 2563.61,5579.45L2553.51,5579.45ZM2542.2,5547.03C2542,5547.64 2541.69,5548.47 2541.29,5549.51C2540.89,5550.56 2540.42,5551.77 2539.9,5553.14C2539.38,5554.51 2538.8,5556.03 2538.18,5557.68C2537.55,5559.33 2536.91,5561.07 2536.27,5562.88L2548.18,5562.88C2547.54,5561.07 2546.91,5559.33 2546.31,5557.68C2545.7,5556.03 2545.13,5554.51 2544.59,5553.14C2544.04,5551.77 2543.57,5550.56 2543.16,5549.51C2542.76,5548.47 2542.44,5547.64 2542.2,5547.03Z" style="fill:rgb(3,10,29);fill-rule:nonzero;"/>
            </g>
            <g transform="matrix(-0.231477,2.83478e-17,-2.83478e-17,-0.231477,14660.6,1390.81)">
                <path d="M2553.51,5579.45C2553.06,5578 2552.57,5576.51 2552.03,5574.98C2551.48,5573.44 2550.95,5571.91 2550.42,5570.38L2534.09,5570.38C2533.57,5571.91 2533.03,5573.44 2532.49,5574.98C2531.95,5576.51 2531.45,5578 2531.01,5579.45L2521.21,5579.45C2522.78,5574.94 2524.28,5570.76 2525.69,5566.93C2527.1,5563.1 2528.48,5559.49 2529.83,5556.11C2531.18,5552.72 2532.51,5549.5 2533.82,5546.46C2535.13,5543.41 2536.49,5540.44 2537.9,5537.54L2546.91,5537.54C2548.29,5540.44 2549.64,5543.41 2550.97,5546.46C2552.3,5549.5 2553.64,5552.72 2554.99,5556.11C2556.34,5559.49 2557.72,5563.1 2559.13,5566.93C2560.54,5570.76 2562.03,5574.94 2563.61,5579.45L2553.51,5579.45ZM2542.2,5547.03C2542,5547.64 2541.69,5548.47 2541.29,5549.51C2540.89,5550.56 2540.42,5551.77 2539.9,5553.14C2539.38,5554.51 2538.8,5556.03 2538.18,5557.68C2537.55,5559.33 2536.91,5561.07 2536.27,5562.88L2548.18,5562.88C2547.54,5561.07 2546.91,5559.33 2546.31,5557.68C2545.7,5556.03 2545.13,5554.51 2544.59,5553.14C2544.04,5551.77 2543.57,5550.56 2543.16,5549.51C2542.76,5548.47 2542.44,5547.64 2542.2,5547.03Z" style="fill:rgb(3,10,29);fill-rule:nonzero;"/>
            </g>
            <g transform="matrix(1,0,0,1,9300,-4316.7)">
                <path d="M4769.05,4400.45L4769,4400.55C4768.76,4401.03 4768.53,4401.52 4768.53,4402C4768.53,4403 4769.36,4404 4769.53,4405C4769.69,4405.99 4769.53,4408 4769.53,4408L4773.07,4408C4773.11,4407.09 4773.13,4405.77 4773.03,4405.07C4772.96,4404.6 4772.73,4404.15 4772.52,4403.7C4772.25,4403.13 4772.03,4402.57 4772.03,4402C4772.03,4401.43 4772.29,4400.85 4772.58,4400.28C4772.79,4399.85 4773.03,4399.43 4773.03,4399C4773.03,4398.07 4772.08,4396.22 4772.08,4396.22C4771.95,4395.98 4772.05,4395.68 4772.3,4395.55C4772.55,4395.43 4772.85,4395.53 4772.97,4395.78C4772.97,4395.78 4774.03,4397.93 4774.03,4399C4774.03,4399.57 4773.76,4400.15 4773.47,4400.72C4773.26,4401.15 4773.03,4401.57 4773.03,4402C4773.03,4402.43 4773.22,4402.85 4773.42,4403.27C4773.67,4403.81 4773.94,4404.36 4774.02,4404.93C4774.12,4405.66 4774.1,4407.05 4774.07,4408L4776.9,4408C4776.9,4408 4777.12,4405.98 4776.9,4405C4776.67,4404 4775.59,4403 4775.53,4402C4775.46,4401 4776.53,4400 4776.53,4399C4776.53,4398 4776.04,4396.92 4775.53,4396C4774.69,4394.5 4771.53,4390 4771.53,4390C4771.53,4390 4768.86,4394.5 4768.53,4396C4768.3,4397.03 4769.53,4398 4769.53,4399C4769.53,4399.48 4769.29,4399.97 4769.05,4400.45Z" style="fill:rgb(3,10,29);"/>
            </g>
            <g transform="matrix(-1,-1.22465e-16,1.22465e-16,-1,18786,4441.7)">
                <path d="M4769.05,4400.45L4769,4400.55C4768.76,4401.03 4768.53,4401.52 4768.53,4402C4768.53,4403 4769.36,4404 4769.53,4405C4769.69,4405.99 4769.53,4408 4769.53,4408L4773.07,4408C4773.11,4407.09 4773.13,4405.77 4773.03,4405.07C4772.96,4404.6 4772.73,4404.15 4772.52,4403.7C4772.25,4403.13 4772.03,4402.57 4772.03,4402C4772.03,4401.43 4772.29,4400.85 4772.58,4400.28C4772.79,4399.85 4773.03,4399.43 4773.03,4399C4773.03,4398.07 4772.08,4396.22 4772.08,4396.22C4771.95,4395.98 4772.05,4395.68 4772.3,4395.55C4772.55,4395.43 4772.85,4395.53 4772.97,4395.78C4772.97,4395.78 4774.03,4397.93 4774.03,4399C4774.03,4399.57 4773.76,4400.15 4773.47,4400.72C4773.26,4401.15 4773.03,4401.57 4773.03,4402C4773.03,4402.43 4773.22,4402.85 4773.42,4403.27C4773.67,4403.81 4773.94,4404.36 4774.02,4404.93C4774.12,4405.66 4774.1,4407.05 4774.07,4408L4776.9,4408C4776.9,4408 4777.12,4405.98 4776.9,4405C4776.67,4404 4775.59,4403 4775.53,4402C4775.46,4401 4776.53,4400 4776.53,4399C4776.53,4398 4776.04,4396.92 4775.53,4396C4774.69,4394.5 4771.53,4390 4771.53,4390C4771.53,4390 4768.86,4394.5 4768.53,4396C4768.3,4397.03 4769.53,4398 4769.53,4399C4769.53,4399.48 4769.29,4399.97 4769.05,4400.45Z" style="fill:rgb(3,10,29);"/>
            </g>
        </g>
    </g>
</svg>
