<?xml version="1.0" encoding="UTF-8" standalone="no"?>
<!DOCTYPE svg PUBLIC "-//W3C//DTD SVG 1.1//EN" "http://www.w3.org/Graphics/SVG/1.1/DTD/svg11.dtd">
<svg width="100%" height="100%" viewBox="0 0 100 126" version="1.1" xmlns="http://www.w3.org/2000/svg" xmlns:xlink="http://www.w3.org/1999/xlink" xml:space="preserve" xmlns:serif="http://www.serif.com/" style="fill-rule:evenodd;clip-rule:evenodd;stroke-linejoin:round;stroke-miterlimit:2;">
    <g transform="matrix(1,0,0,1,-14143,-316)">
        <g id="Back-of-card" serif:id="Back of card" transform="matrix(0.00709572,0,0,0.010038,14042.6,316.878)">
            <rect x="14143" y="0" width="14093" height="12452.7" style="fill:none;"/>
            <clipPath id="_clip1">
                <rect x="14143" y="0" width="14093" height="12452.7"/>
            </clipPath>
            <g clip-path="url(#_clip1)">
                <g transform="matrix(205.025,0,0,144.929,-946234,-632505)">
                    <path d="M4750.5,4379L4750.5,4385.2C4750.5,4385.41 4750.42,4385.62 4750.27,4385.77C4750.12,4385.92 4749.91,4386 4749.7,4386C4749.64,4386 4749.58,4386 4749.52,4386C4749.23,4386 4748.98,4385.78 4748.95,4385.48L4748.6,4382L4747.4,4382L4747.06,4385.43C4747.03,4385.75 4746.75,4386 4746.43,4386C4746.39,4386 4746.34,4386 4746.3,4386C4746.09,4386 4745.88,4385.92 4745.73,4385.77C4745.58,4385.62 4745.5,4385.41 4745.5,4385.2L4745.5,4379L4743.49,4379.8C4743.19,4379.92 4742.85,4379.85 4742.62,4379.62C4742.62,4379.62 4742.62,4379.62 4742.62,4379.62C4742.46,4379.46 4742.37,4379.24 4742.38,4379.01C4742.39,4378.79 4742.49,4378.58 4742.66,4378.43C4743.68,4377.56 4745.5,4376 4745.5,4376L4745.5,4375.33C4744.43,4374.71 4743.61,4373.7 4743.23,4372.5L4742.8,4372.5C4742.36,4372.5 4742,4372.14 4742,4371.7C4742,4371.27 4742,4370.73 4742,4370.3C4742,4369.86 4742.36,4369.5 4742.8,4369.5L4743.23,4369.5C4743.87,4367.47 4745.76,4366 4748,4366C4750.24,4366 4752.13,4367.47 4752.77,4369.5L4753.2,4369.5C4753.64,4369.5 4754,4369.86 4754,4370.3C4754,4370.73 4754,4371.27 4754,4371.7C4754,4372.14 4753.64,4372.5 4753.2,4372.5L4752.77,4372.5C4752.39,4373.7 4751.57,4374.71 4750.5,4375.33L4750.5,4376C4750.5,4376 4752.33,4377.57 4753.34,4378.44C4753.51,4378.58 4753.61,4378.79 4753.62,4379.01C4753.63,4379.24 4753.55,4379.45 4753.39,4379.61C4753.38,4379.62 4753.38,4379.62 4753.37,4379.63C4753.15,4379.85 4752.81,4379.92 4752.51,4379.8C4751.78,4379.51 4750.5,4379 4750.5,4379ZM4748,4369.5C4748.83,4369.5 4749.5,4370.17 4749.5,4371C4749.5,4371.83 4748.83,4372.5 4748,4372.5C4747.17,4372.5 4746.5,4371.83 4746.5,4371C4746.5,4370.17 4747.17,4369.5 4748,4369.5Z" style="fill:url(#_Radial2);"/>
                </g>
                <g transform="matrix(205.025,0,0,144.929,-944302,-629433)">
                    <path d="M4750.5,4379L4750.5,4385.2C4750.5,4385.41 4750.42,4385.62 4750.27,4385.77C4750.12,4385.92 4749.91,4386 4749.7,4386C4749.64,4386 4749.58,4386 4749.52,4386C4749.23,4386 4748.98,4385.78 4748.95,4385.48L4748.6,4382L4747.4,4382L4747.06,4385.43C4747.03,4385.75 4746.75,4386 4746.43,4386C4746.39,4386 4746.34,4386 4746.3,4386C4746.09,4386 4745.88,4385.92 4745.73,4385.77C4745.58,4385.62 4745.5,4385.41 4745.5,4385.2L4745.5,4379L4743.49,4379.8C4743.19,4379.92 4742.85,4379.85 4742.62,4379.62C4742.62,4379.62 4742.62,4379.62 4742.62,4379.62C4742.46,4379.46 4742.37,4379.24 4742.38,4379.01C4742.39,4378.79 4742.49,4378.58 4742.66,4378.43C4743.68,4377.56 4745.5,4376 4745.5,4376L4745.5,4375.33C4744.43,4374.71 4743.61,4373.7 4743.23,4372.5L4742.8,4372.5C4742.36,4372.5 4742,4372.14 4742,4371.7C4742,4371.27 4742,4370.73 4742,4370.3C4742,4369.86 4742.36,4369.5 4742.8,4369.5L4743.23,4369.5C4743.87,4367.47 4745.76,4366 4748,4366C4750.24,4366 4752.13,4367.47 4752.77,4369.5L4753.2,4369.5C4753.64,4369.5 4754,4369.86 4754,4370.3C4754,4370.73 4754,4371.27 4754,4371.7C4754,4372.14 4753.64,4372.5 4753.2,4372.5L4752.77,4372.5C4752.39,4373.7 4751.57,4374.71 4750.5,4375.33L4750.5,4376C4750.5,4376 4752.33,4377.57 4753.34,4378.44C4753.51,4378.58 4753.61,4378.79 4753.62,4379.01C4753.63,4379.24 4753.55,4379.45 4753.39,4379.61C4753.38,4379.62 4753.38,4379.62 4753.37,4379.63C4753.15,4379.85 4752.81,4379.92 4752.51,4379.8C4751.78,4379.51 4750.5,4379 4750.5,4379ZM4748,4369.5C4748.83,4369.5 4749.5,4370.17 4749.5,4371C4749.5,4371.83 4748.83,4372.5 4748,4372.5C4747.17,4372.5 4746.5,4371.83 4746.5,4371C4746.5,4370.17 4747.17,4369.5 4748,4369.5Z" style="fill:url(#_Radial3);"/>
                </g>
                <g transform="matrix(-205.025,0,0,-144.929,986681,642059)">
                    <path d="M4750.5,4379L4750.5,4385.2C4750.5,4385.41 4750.42,4385.62 4750.27,4385.77C4750.12,4385.92 4749.91,4386 4749.7,4386C4749.64,4386 4749.58,4386 4749.52,4386C4749.23,4386 4748.98,4385.78 4748.95,4385.48L4748.6,4382L4747.4,4382L4747.06,4385.43C4747.03,4385.75 4746.75,4386 4746.43,4386C4746.39,4386 4746.34,4386 4746.3,4386C4746.09,4386 4745.88,4385.92 4745.73,4385.77C4745.58,4385.62 4745.5,4385.41 4745.5,4385.2L4745.5,4379L4743.49,4379.8C4743.19,4379.92 4742.85,4379.85 4742.62,4379.62C4742.62,4379.62 4742.62,4379.62 4742.62,4379.62C4742.46,4379.46 4742.37,4379.24 4742.38,4379.01C4742.39,4378.79 4742.49,4378.58 4742.66,4378.43C4743.68,4377.56 4745.5,4376 4745.5,4376L4745.5,4375.33C4744.43,4374.71 4743.61,4373.7 4743.23,4372.5L4742.8,4372.5C4742.36,4372.5 4742,4372.14 4742,4371.7C4742,4371.27 4742,4370.73 4742,4370.3C4742,4369.86 4742.36,4369.5 4742.8,4369.5L4743.23,4369.5C4743.87,4367.47 4745.76,4366 4748,4366C4750.24,4366 4752.13,4367.47 4752.77,4369.5L4753.2,4369.5C4753.64,4369.5 4754,4369.86 4754,4370.3C4754,4370.73 4754,4371.27 4754,4371.7C4754,4372.14 4753.64,4372.5 4753.2,4372.5L4752.77,4372.5C4752.39,4373.7 4751.57,4374.71 4750.5,4375.33L4750.5,4376C4750.5,4376 4752.33,4377.57 4753.34,4378.44C4753.51,4378.58 4753.61,4378.79 4753.62,4379.01C4753.63,4379.24 4753.55,4379.45 4753.39,4379.61C4753.38,4379.62 4753.38,4379.62 4753.37,4379.63C4753.15,4379.85 4752.81,4379.92 4752.51,4379.8C4751.78,4379.51 4750.5,4379 4750.5,4379ZM4748,4369.5C4748.83,4369.5 4749.5,4370.17 4749.5,4371C4749.5,4371.83 4748.83,4372.5 4748,4372.5C4747.17,4372.5 4746.5,4371.83 4746.5,4371C4746.5,4370.17 4747.17,4369.5 4748,4369.5Z" style="fill:url(#_Radial4);"/>
                </g>
                <g transform="matrix(-205.025,0,0,-144.929,988545,644958)">
                    <path d="M4750.5,4379L4750.5,4385.2C4750.5,4385.41 4750.42,4385.62 4750.27,4385.77C4750.12,4385.92 4749.91,4386 4749.7,4386C4749.64,4386 4749.58,4386 4749.52,4386C4749.23,4386 4748.98,4385.78 4748.95,4385.48L4748.6,4382L4747.4,4382L4747.06,4385.43C4747.03,4385.75 4746.75,4386 4746.43,4386C4746.39,4386 4746.34,4386 4746.3,4386C4746.09,4386 4745.88,4385.92 4745.73,4385.77C4745.58,4385.62 4745.5,4385.41 4745.5,4385.2L4745.5,4379L4743.49,4379.8C4743.19,4379.92 4742.85,4379.85 4742.62,4379.62C4742.62,4379.62 4742.62,4379.62 4742.62,4379.62C4742.46,4379.46 4742.37,4379.24 4742.38,4379.01C4742.39,4378.79 4742.49,4378.58 4742.66,4378.43C4743.68,4377.56 4745.5,4376 4745.5,4376L4745.5,4375.33C4744.43,4374.71 4743.61,4373.7 4743.23,4372.5L4742.8,4372.5C4742.36,4372.5 4742,4372.14 4742,4371.7C4742,4371.27 4742,4370.73 4742,4370.3C4742,4369.86 4742.36,4369.5 4742.8,4369.5L4743.23,4369.5C4743.87,4367.47 4745.76,4366 4748,4366C4750.24,4366 4752.13,4367.47 4752.77,4369.5L4753.2,4369.5C4753.64,4369.5 4754,4369.86 4754,4370.3C4754,4370.73 4754,4371.27 4754,4371.7C4754,4372.14 4753.64,4372.5 4753.2,4372.5L4752.77,4372.5C4752.39,4373.7 4751.57,4374.71 4750.5,4375.33L4750.5,4376C4750.5,4376 4752.33,4377.57 4753.34,4378.44C4753.51,4378.58 4753.61,4378.79 4753.62,4379.01C4753.63,4379.24 4753.55,4379.45 4753.39,4379.61C4753.38,4379.62 4753.38,4379.62 4753.37,4379.63C4753.15,4379.85 4752.81,4379.92 4752.51,4379.8C4751.78,4379.51 4750.5,4379 4750.5,4379ZM4748,4369.5C4748.83,4369.5 4749.5,4370.17 4749.5,4371C4749.5,4371.83 4748.83,4372.5 4748,4372.5C4747.17,4372.5 4746.5,4371.83 4746.5,4371C4746.5,4370.17 4747.17,4369.5 4748,4369.5Z" style="fill:url(#_Radial5);"/>
                </g>
                <g transform="matrix(205.025,0,0,144.929,-949734,-632505)">
                    <path d="M4750.5,4379L4750.5,4385.2C4750.5,4385.41 4750.42,4385.62 4750.27,4385.77C4750.12,4385.92 4749.91,4386 4749.7,4386C4749.64,4386 4749.58,4386 4749.52,4386C4749.23,4386 4748.98,4385.78 4748.95,4385.48L4748.6,4382L4747.4,4382L4747.06,4385.43C4747.03,4385.75 4746.75,4386 4746.43,4386C4746.39,4386 4746.34,4386 4746.3,4386C4746.09,4386 4745.88,4385.92 4745.73,4385.77C4745.58,4385.62 4745.5,4385.41 4745.5,4385.2L4745.5,4379L4743.49,4379.8C4743.19,4379.92 4742.85,4379.85 4742.62,4379.62C4742.62,4379.62 4742.62,4379.62 4742.62,4379.62C4742.46,4379.46 4742.37,4379.24 4742.38,4379.01C4742.39,4378.79 4742.49,4378.58 4742.66,4378.43C4743.68,4377.56 4745.5,4376 4745.5,4376L4745.5,4375.33C4744.43,4374.71 4743.61,4373.7 4743.23,4372.5L4742.8,4372.5C4742.36,4372.5 4742,4372.14 4742,4371.7C4742,4371.27 4742,4370.73 4742,4370.3C4742,4369.86 4742.36,4369.5 4742.8,4369.5L4743.23,4369.5C4743.87,4367.47 4745.76,4366 4748,4366C4750.24,4366 4752.13,4367.47 4752.77,4369.5L4753.2,4369.5C4753.64,4369.5 4754,4369.86 4754,4370.3C4754,4370.73 4754,4371.27 4754,4371.7C4754,4372.14 4753.64,4372.5 4753.2,4372.5L4752.77,4372.5C4752.39,4373.7 4751.57,4374.71 4750.5,4375.33L4750.5,4376C4750.5,4376 4752.33,4377.57 4753.34,4378.44C4753.51,4378.58 4753.61,4378.79 4753.62,4379.01C4753.63,4379.24 4753.55,4379.45 4753.39,4379.61C4753.38,4379.62 4753.38,4379.62 4753.37,4379.63C4753.15,4379.85 4752.81,4379.92 4752.51,4379.8C4751.78,4379.51 4750.5,4379 4750.5,4379ZM4748,4369.5C4748.83,4369.5 4749.5,4370.17 4749.5,4371C4749.5,4371.83 4748.83,4372.5 4748,4372.5C4747.17,4372.5 4746.5,4371.83 4746.5,4371C4746.5,4370.17 4747.17,4369.5 4748,4369.5Z" style="fill:url(#_Radial6);"/>
                </g>
                <g transform="matrix(205.025,0,0,144.929,-947802,-629433)">
                    <path d="M4750.5,4379L4750.5,4385.2C4750.5,4385.41 4750.42,4385.62 4750.27,4385.77C4750.12,4385.92 4749.91,4386 4749.7,4386C4749.64,4386 4749.58,4386 4749.52,4386C4749.23,4386 4748.98,4385.78 4748.95,4385.48L4748.6,4382L4747.4,4382L4747.06,4385.43C4747.03,4385.75 4746.75,4386 4746.43,4386C4746.39,4386 4746.34,4386 4746.3,4386C4746.09,4386 4745.88,4385.92 4745.73,4385.77C4745.58,4385.62 4745.5,4385.41 4745.5,4385.2L4745.5,4379L4743.49,4379.8C4743.19,4379.92 4742.85,4379.85 4742.62,4379.62C4742.62,4379.62 4742.62,4379.62 4742.62,4379.62C4742.46,4379.46 4742.37,4379.24 4742.38,4379.01C4742.39,4378.79 4742.49,4378.58 4742.66,4378.43C4743.68,4377.56 4745.5,4376 4745.5,4376L4745.5,4375.33C4744.43,4374.71 4743.61,4373.7 4743.23,4372.5L4742.8,4372.5C4742.36,4372.5 4742,4372.14 4742,4371.7C4742,4371.27 4742,4370.73 4742,4370.3C4742,4369.86 4742.36,4369.5 4742.8,4369.5L4743.23,4369.5C4743.87,4367.47 4745.76,4366 4748,4366C4750.24,4366 4752.13,4367.47 4752.77,4369.5L4753.2,4369.5C4753.64,4369.5 4754,4369.86 4754,4370.3C4754,4370.73 4754,4371.27 4754,4371.7C4754,4372.14 4753.64,4372.5 4753.2,4372.5L4752.77,4372.5C4752.39,4373.7 4751.57,4374.71 4750.5,4375.33L4750.5,4376C4750.5,4376 4752.33,4377.57 4753.34,4378.44C4753.51,4378.58 4753.61,4378.79 4753.62,4379.01C4753.63,4379.24 4753.55,4379.45 4753.39,4379.61C4753.38,4379.62 4753.38,4379.62 4753.37,4379.63C4753.15,4379.85 4752.81,4379.92 4752.51,4379.8C4751.78,4379.51 4750.5,4379 4750.5,4379ZM4748,4369.5C4748.83,4369.5 4749.5,4370.17 4749.5,4371C4749.5,4371.83 4748.83,4372.5 4748,4372.5C4747.17,4372.5 4746.5,4371.83 4746.5,4371C4746.5,4370.17 4747.17,4369.5 4748,4369.5Z" style="fill:url(#_Radial7);"/>
                </g>
                <g transform="matrix(-205.025,0,0,-144.929,990181,642059)">
                    <path d="M4750.5,4379L4750.5,4385.2C4750.5,4385.41 4750.42,4385.62 4750.27,4385.77C4750.12,4385.92 4749.91,4386 4749.7,4386C4749.64,4386 4749.58,4386 4749.52,4386C4749.23,4386 4748.98,4385.78 4748.95,4385.48L4748.6,4382L4747.4,4382L4747.06,4385.43C4747.03,4385.75 4746.75,4386 4746.43,4386C4746.39,4386 4746.34,4386 4746.3,4386C4746.09,4386 4745.88,4385.92 4745.73,4385.77C4745.58,4385.62 4745.5,4385.41 4745.5,4385.2L4745.5,4379L4743.49,4379.8C4743.19,4379.92 4742.85,4379.85 4742.62,4379.62C4742.62,4379.62 4742.62,4379.62 4742.62,4379.62C4742.46,4379.46 4742.37,4379.24 4742.38,4379.01C4742.39,4378.79 4742.49,4378.58 4742.66,4378.43C4743.68,4377.56 4745.5,4376 4745.5,4376L4745.5,4375.33C4744.43,4374.71 4743.61,4373.7 4743.23,4372.5L4742.8,4372.5C4742.36,4372.5 4742,4372.14 4742,4371.7C4742,4371.27 4742,4370.73 4742,4370.3C4742,4369.86 4742.36,4369.5 4742.8,4369.5L4743.23,4369.5C4743.87,4367.47 4745.76,4366 4748,4366C4750.24,4366 4752.13,4367.47 4752.77,4369.5L4753.2,4369.5C4753.64,4369.5 4754,4369.86 4754,4370.3C4754,4370.73 4754,4371.27 4754,4371.7C4754,4372.14 4753.64,4372.5 4753.2,4372.5L4752.77,4372.5C4752.39,4373.7 4751.57,4374.71 4750.5,4375.33L4750.5,4376C4750.5,4376 4752.33,4377.57 4753.34,4378.44C4753.51,4378.58 4753.61,4378.79 4753.62,4379.01C4753.63,4379.24 4753.55,4379.45 4753.39,4379.61C4753.38,4379.62 4753.38,4379.62 4753.37,4379.63C4753.15,4379.85 4752.81,4379.92 4752.51,4379.8C4751.78,4379.51 4750.5,4379 4750.5,4379ZM4748,4369.5C4748.83,4369.5 4749.5,4370.17 4749.5,4371C4749.5,4371.83 4748.83,4372.5 4748,4372.5C4747.17,4372.5 4746.5,4371.83 4746.5,4371C4746.5,4370.17 4747.17,4369.5 4748,4369.5Z" style="fill:url(#_Radial8);"/>
                </g>
                <g transform="matrix(-205.025,0,0,-144.929,992046,644958)">
                    <path d="M4750.5,4379L4750.5,4385.2C4750.5,4385.41 4750.42,4385.62 4750.27,4385.77C4750.12,4385.92 4749.91,4386 4749.7,4386C4749.64,4386 4749.58,4386 4749.52,4386C4749.23,4386 4748.98,4385.78 4748.95,4385.48L4748.6,4382L4747.4,4382L4747.06,4385.43C4747.03,4385.75 4746.75,4386 4746.43,4386C4746.39,4386 4746.34,4386 4746.3,4386C4746.09,4386 4745.88,4385.92 4745.73,4385.77C4745.58,4385.62 4745.5,4385.41 4745.5,4385.2L4745.5,4379L4743.49,4379.8C4743.19,4379.92 4742.85,4379.85 4742.62,4379.62C4742.62,4379.62 4742.62,4379.62 4742.62,4379.62C4742.46,4379.46 4742.37,4379.24 4742.38,4379.01C4742.39,4378.79 4742.49,4378.58 4742.66,4378.43C4743.68,4377.56 4745.5,4376 4745.5,4376L4745.5,4375.33C4744.43,4374.71 4743.61,4373.7 4743.23,4372.5L4742.8,4372.5C4742.36,4372.5 4742,4372.14 4742,4371.7C4742,4371.27 4742,4370.73 4742,4370.3C4742,4369.86 4742.36,4369.5 4742.8,4369.5L4743.23,4369.5C4743.87,4367.47 4745.76,4366 4748,4366C4750.24,4366 4752.13,4367.47 4752.77,4369.5L4753.2,4369.5C4753.64,4369.5 4754,4369.86 4754,4370.3C4754,4370.73 4754,4371.27 4754,4371.7C4754,4372.14 4753.64,4372.5 4753.2,4372.5L4752.77,4372.5C4752.39,4373.7 4751.57,4374.71 4750.5,4375.33L4750.5,4376C4750.5,4376 4752.33,4377.57 4753.34,4378.44C4753.51,4378.58 4753.61,4378.79 4753.62,4379.01C4753.63,4379.24 4753.55,4379.45 4753.39,4379.61C4753.38,4379.62 4753.38,4379.62 4753.37,4379.63C4753.15,4379.85 4752.81,4379.92 4752.51,4379.8C4751.78,4379.51 4750.5,4379 4750.5,4379ZM4748,4369.5C4748.83,4369.5 4749.5,4370.17 4749.5,4371C4749.5,4371.83 4748.83,4372.5 4748,4372.5C4747.17,4372.5 4746.5,4371.83 4746.5,4371C4746.5,4370.17 4747.17,4369.5 4748,4369.5Z" style="fill:url(#_Radial9);"/>
                </g>
                <g transform="matrix(205.025,0,0,144.929,-953234,-632505)">
                    <path d="M4750.5,4379L4750.5,4385.2C4750.5,4385.41 4750.42,4385.62 4750.27,4385.77C4750.12,4385.92 4749.91,4386 4749.7,4386C4749.64,4386 4749.58,4386 4749.52,4386C4749.23,4386 4748.98,4385.78 4748.95,4385.48L4748.6,4382L4747.4,4382L4747.06,4385.43C4747.03,4385.75 4746.75,4386 4746.43,4386C4746.39,4386 4746.34,4386 4746.3,4386C4746.09,4386 4745.88,4385.92 4745.73,4385.77C4745.58,4385.62 4745.5,4385.41 4745.5,4385.2L4745.5,4379L4743.49,4379.8C4743.19,4379.92 4742.85,4379.85 4742.62,4379.62C4742.62,4379.62 4742.62,4379.62 4742.62,4379.62C4742.46,4379.46 4742.37,4379.24 4742.38,4379.01C4742.39,4378.79 4742.49,4378.58 4742.66,4378.43C4743.68,4377.56 4745.5,4376 4745.5,4376L4745.5,4375.33C4744.43,4374.71 4743.61,4373.7 4743.23,4372.5L4742.8,4372.5C4742.36,4372.5 4742,4372.14 4742,4371.7C4742,4371.27 4742,4370.73 4742,4370.3C4742,4369.86 4742.36,4369.5 4742.8,4369.5L4743.23,4369.5C4743.87,4367.47 4745.76,4366 4748,4366C4750.24,4366 4752.13,4367.47 4752.77,4369.5L4753.2,4369.5C4753.64,4369.5 4754,4369.86 4754,4370.3C4754,4370.73 4754,4371.27 4754,4371.7C4754,4372.14 4753.64,4372.5 4753.2,4372.5L4752.77,4372.5C4752.39,4373.7 4751.57,4374.71 4750.5,4375.33L4750.5,4376C4750.5,4376 4752.33,4377.57 4753.34,4378.44C4753.51,4378.58 4753.61,4378.79 4753.62,4379.01C4753.63,4379.24 4753.55,4379.45 4753.39,4379.61C4753.38,4379.62 4753.38,4379.62 4753.37,4379.63C4753.15,4379.85 4752.81,4379.92 4752.51,4379.8C4751.78,4379.51 4750.5,4379 4750.5,4379ZM4748,4369.5C4748.83,4369.5 4749.5,4370.17 4749.5,4371C4749.5,4371.83 4748.83,4372.5 4748,4372.5C4747.17,4372.5 4746.5,4371.83 4746.5,4371C4746.5,4370.17 4747.17,4369.5 4748,4369.5Z" style="fill:url(#_Radial10);"/>
                </g>
                <g transform="matrix(205.025,0,0,144.929,-951303,-629433)">
                    <path d="M4750.5,4379L4750.5,4385.2C4750.5,4385.41 4750.42,4385.62 4750.27,4385.77C4750.12,4385.92 4749.91,4386 4749.7,4386C4749.64,4386 4749.58,4386 4749.52,4386C4749.23,4386 4748.98,4385.78 4748.95,4385.48L4748.6,4382L4747.4,4382L4747.06,4385.43C4747.03,4385.75 4746.75,4386 4746.43,4386C4746.39,4386 4746.34,4386 4746.3,4386C4746.09,4386 4745.88,4385.92 4745.73,4385.77C4745.58,4385.62 4745.5,4385.41 4745.5,4385.2L4745.5,4379L4743.49,4379.8C4743.19,4379.92 4742.85,4379.85 4742.62,4379.62C4742.62,4379.62 4742.62,4379.62 4742.62,4379.62C4742.46,4379.46 4742.37,4379.24 4742.38,4379.01C4742.39,4378.79 4742.49,4378.58 4742.66,4378.43C4743.68,4377.56 4745.5,4376 4745.5,4376L4745.5,4375.33C4744.43,4374.71 4743.61,4373.7 4743.23,4372.5L4742.8,4372.5C4742.36,4372.5 4742,4372.14 4742,4371.7C4742,4371.27 4742,4370.73 4742,4370.3C4742,4369.86 4742.36,4369.5 4742.8,4369.5L4743.23,4369.5C4743.87,4367.47 4745.76,4366 4748,4366C4750.24,4366 4752.13,4367.47 4752.77,4369.5L4753.2,4369.5C4753.64,4369.5 4754,4369.86 4754,4370.3C4754,4370.73 4754,4371.27 4754,4371.7C4754,4372.14 4753.64,4372.5 4753.2,4372.5L4752.77,4372.5C4752.39,4373.7 4751.57,4374.71 4750.5,4375.33L4750.5,4376C4750.5,4376 4752.33,4377.57 4753.34,4378.44C4753.51,4378.58 4753.61,4378.79 4753.62,4379.01C4753.63,4379.24 4753.55,4379.45 4753.39,4379.61C4753.38,4379.62 4753.38,4379.62 4753.37,4379.63C4753.15,4379.85 4752.81,4379.92 4752.51,4379.8C4751.78,4379.51 4750.5,4379 4750.5,4379ZM4748,4369.5C4748.83,4369.5 4749.5,4370.17 4749.5,4371C4749.5,4371.83 4748.83,4372.5 4748,4372.5C4747.17,4372.5 4746.5,4371.83 4746.5,4371C4746.5,4370.17 4747.17,4369.5 4748,4369.5Z" style="fill:url(#_Radial11);"/>
                </g>
                <g transform="matrix(-205.025,0,0,-144.929,993682,642059)">
                    <path d="M4750.5,4379L4750.5,4385.2C4750.5,4385.41 4750.42,4385.62 4750.27,4385.77C4750.12,4385.92 4749.91,4386 4749.7,4386C4749.64,4386 4749.58,4386 4749.52,4386C4749.23,4386 4748.98,4385.78 4748.95,4385.48L4748.6,4382L4747.4,4382L4747.06,4385.43C4747.03,4385.75 4746.75,4386 4746.43,4386C4746.39,4386 4746.34,4386 4746.3,4386C4746.09,4386 4745.88,4385.92 4745.73,4385.77C4745.58,4385.62 4745.5,4385.41 4745.5,4385.2L4745.5,4379L4743.49,4379.8C4743.19,4379.92 4742.85,4379.85 4742.62,4379.62C4742.62,4379.62 4742.62,4379.62 4742.62,4379.62C4742.46,4379.46 4742.37,4379.24 4742.38,4379.01C4742.39,4378.79 4742.49,4378.58 4742.66,4378.43C4743.68,4377.56 4745.5,4376 4745.5,4376L4745.5,4375.33C4744.43,4374.71 4743.61,4373.7 4743.23,4372.5L4742.8,4372.5C4742.36,4372.5 4742,4372.14 4742,4371.7C4742,4371.27 4742,4370.73 4742,4370.3C4742,4369.86 4742.36,4369.5 4742.8,4369.5L4743.23,4369.5C4743.87,4367.47 4745.76,4366 4748,4366C4750.24,4366 4752.13,4367.47 4752.77,4369.5L4753.2,4369.5C4753.64,4369.5 4754,4369.86 4754,4370.3C4754,4370.73 4754,4371.27 4754,4371.7C4754,4372.14 4753.64,4372.5 4753.2,4372.5L4752.77,4372.5C4752.39,4373.7 4751.57,4374.71 4750.5,4375.33L4750.5,4376C4750.5,4376 4752.33,4377.57 4753.34,4378.44C4753.51,4378.58 4753.61,4378.79 4753.62,4379.01C4753.63,4379.24 4753.55,4379.45 4753.39,4379.61C4753.38,4379.62 4753.38,4379.62 4753.37,4379.63C4753.15,4379.85 4752.81,4379.92 4752.51,4379.8C4751.78,4379.51 4750.5,4379 4750.5,4379ZM4748,4369.5C4748.83,4369.5 4749.5,4370.17 4749.5,4371C4749.5,4371.83 4748.83,4372.5 4748,4372.5C4747.17,4372.5 4746.5,4371.83 4746.5,4371C4746.5,4370.17 4747.17,4369.5 4748,4369.5Z" style="fill:url(#_Radial12);"/>
                </g>
                <g transform="matrix(-205.025,0,0,-144.929,995546,644958)">
                    <path d="M4750.5,4379L4750.5,4385.2C4750.5,4385.41 4750.42,4385.62 4750.27,4385.77C4750.12,4385.92 4749.91,4386 4749.7,4386C4749.64,4386 4749.58,4386 4749.52,4386C4749.23,4386 4748.98,4385.78 4748.95,4385.48L4748.6,4382L4747.4,4382L4747.06,4385.43C4747.03,4385.75 4746.75,4386 4746.43,4386C4746.39,4386 4746.34,4386 4746.3,4386C4746.09,4386 4745.88,4385.92 4745.73,4385.77C4745.58,4385.62 4745.5,4385.41 4745.5,4385.2L4745.5,4379L4743.49,4379.8C4743.19,4379.92 4742.85,4379.85 4742.62,4379.62C4742.62,4379.62 4742.62,4379.62 4742.62,4379.62C4742.46,4379.46 4742.37,4379.24 4742.38,4379.01C4742.39,4378.79 4742.49,4378.58 4742.66,4378.43C4743.68,4377.56 4745.5,4376 4745.5,4376L4745.5,4375.33C4744.43,4374.71 4743.61,4373.7 4743.23,4372.5L4742.8,4372.5C4742.36,4372.5 4742,4372.14 4742,4371.7C4742,4371.27 4742,4370.73 4742,4370.3C4742,4369.86 4742.36,4369.5 4742.8,4369.5L4743.23,4369.5C4743.87,4367.47 4745.76,4366 4748,4366C4750.24,4366 4752.13,4367.47 4752.77,4369.5L4753.2,4369.5C4753.64,4369.5 4754,4369.86 4754,4370.3C4754,4370.73 4754,4371.27 4754,4371.7C4754,4372.14 4753.64,4372.5 4753.2,4372.5L4752.77,4372.5C4752.39,4373.7 4751.57,4374.71 4750.5,4375.33L4750.5,4376C4750.5,4376 4752.33,4377.57 4753.34,4378.44C4753.51,4378.58 4753.61,4378.79 4753.62,4379.01C4753.63,4379.24 4753.55,4379.45 4753.39,4379.61C4753.38,4379.62 4753.38,4379.62 4753.37,4379.63C4753.15,4379.85 4752.81,4379.92 4752.51,4379.8C4751.78,4379.51 4750.5,4379 4750.5,4379ZM4748,4369.5C4748.83,4369.5 4749.5,4370.17 4749.5,4371C4749.5,4371.83 4748.83,4372.5 4748,4372.5C4747.17,4372.5 4746.5,4371.83 4746.5,4371C4746.5,4370.17 4747.17,4369.5 4748,4369.5Z" style="fill:url(#_Radial13);"/>
                </g>
                <g transform="matrix(205.025,0,0,144.929,-956735,-632505)">
                    <path d="M4750.5,4379L4750.5,4385.2C4750.5,4385.41 4750.42,4385.62 4750.27,4385.77C4750.12,4385.92 4749.91,4386 4749.7,4386C4749.64,4386 4749.58,4386 4749.52,4386C4749.23,4386 4748.98,4385.78 4748.95,4385.48L4748.6,4382L4747.4,4382L4747.06,4385.43C4747.03,4385.75 4746.75,4386 4746.43,4386C4746.39,4386 4746.34,4386 4746.3,4386C4746.09,4386 4745.88,4385.92 4745.73,4385.77C4745.58,4385.62 4745.5,4385.41 4745.5,4385.2L4745.5,4379L4743.49,4379.8C4743.19,4379.92 4742.85,4379.85 4742.62,4379.62C4742.62,4379.62 4742.62,4379.62 4742.62,4379.62C4742.46,4379.46 4742.37,4379.24 4742.38,4379.01C4742.39,4378.79 4742.49,4378.58 4742.66,4378.43C4743.68,4377.56 4745.5,4376 4745.5,4376L4745.5,4375.33C4744.43,4374.71 4743.61,4373.7 4743.23,4372.5L4742.8,4372.5C4742.36,4372.5 4742,4372.14 4742,4371.7C4742,4371.27 4742,4370.73 4742,4370.3C4742,4369.86 4742.36,4369.5 4742.8,4369.5L4743.23,4369.5C4743.87,4367.47 4745.76,4366 4748,4366C4750.24,4366 4752.13,4367.47 4752.77,4369.5L4753.2,4369.5C4753.64,4369.5 4754,4369.86 4754,4370.3C4754,4370.73 4754,4371.27 4754,4371.7C4754,4372.14 4753.64,4372.5 4753.2,4372.5L4752.77,4372.5C4752.39,4373.7 4751.57,4374.71 4750.5,4375.33L4750.5,4376C4750.5,4376 4752.33,4377.57 4753.34,4378.44C4753.51,4378.58 4753.61,4378.79 4753.62,4379.01C4753.63,4379.24 4753.55,4379.45 4753.39,4379.61C4753.38,4379.62 4753.38,4379.62 4753.37,4379.63C4753.15,4379.85 4752.81,4379.92 4752.51,4379.8C4751.78,4379.51 4750.5,4379 4750.5,4379ZM4748,4369.5C4748.83,4369.5 4749.5,4370.17 4749.5,4371C4749.5,4371.83 4748.83,4372.5 4748,4372.5C4747.17,4372.5 4746.5,4371.83 4746.5,4371C4746.5,4370.17 4747.17,4369.5 4748,4369.5Z" style="fill:url(#_Radial14);"/>
                </g>
                <g transform="matrix(205.025,0,0,144.929,-954803,-629433)">
                    <path d="M4750.5,4379L4750.5,4385.2C4750.5,4385.41 4750.42,4385.62 4750.27,4385.77C4750.12,4385.92 4749.91,4386 4749.7,4386C4749.64,4386 4749.58,4386 4749.52,4386C4749.23,4386 4748.98,4385.78 4748.95,4385.48L4748.6,4382L4747.4,4382L4747.06,4385.43C4747.03,4385.75 4746.75,4386 4746.43,4386C4746.39,4386 4746.34,4386 4746.3,4386C4746.09,4386 4745.88,4385.92 4745.73,4385.77C4745.58,4385.62 4745.5,4385.41 4745.5,4385.2L4745.5,4379L4743.49,4379.8C4743.19,4379.92 4742.85,4379.85 4742.62,4379.62C4742.62,4379.62 4742.62,4379.62 4742.62,4379.62C4742.46,4379.46 4742.37,4379.24 4742.38,4379.01C4742.39,4378.79 4742.49,4378.58 4742.66,4378.43C4743.68,4377.56 4745.5,4376 4745.5,4376L4745.5,4375.33C4744.43,4374.71 4743.61,4373.7 4743.23,4372.5L4742.8,4372.5C4742.36,4372.5 4742,4372.14 4742,4371.7C4742,4371.27 4742,4370.73 4742,4370.3C4742,4369.86 4742.36,4369.5 4742.8,4369.5L4743.23,4369.5C4743.87,4367.47 4745.76,4366 4748,4366C4750.24,4366 4752.13,4367.47 4752.77,4369.5L4753.2,4369.5C4753.64,4369.5 4754,4369.86 4754,4370.3C4754,4370.73 4754,4371.27 4754,4371.7C4754,4372.14 4753.64,4372.5 4753.2,4372.5L4752.77,4372.5C4752.39,4373.7 4751.57,4374.71 4750.5,4375.33L4750.5,4376C4750.5,4376 4752.33,4377.57 4753.34,4378.44C4753.51,4378.58 4753.61,4378.79 4753.62,4379.01C4753.63,4379.24 4753.55,4379.45 4753.39,4379.61C4753.38,4379.62 4753.38,4379.62 4753.37,4379.63C4753.15,4379.85 4752.81,4379.92 4752.51,4379.8C4751.78,4379.51 4750.5,4379 4750.5,4379ZM4748,4369.5C4748.83,4369.5 4749.5,4370.17 4749.5,4371C4749.5,4371.83 4748.83,4372.5 4748,4372.5C4747.17,4372.5 4746.5,4371.83 4746.5,4371C4746.5,4370.17 4747.17,4369.5 4748,4369.5Z" style="fill:url(#_Radial15);"/>
                </g>
                <g transform="matrix(-205.025,0,0,-144.929,997182,642059)">
                    <path d="M4750.5,4379L4750.5,4385.2C4750.5,4385.41 4750.42,4385.62 4750.27,4385.77C4750.12,4385.92 4749.91,4386 4749.7,4386C4749.64,4386 4749.58,4386 4749.52,4386C4749.23,4386 4748.98,4385.78 4748.95,4385.48L4748.6,4382L4747.4,4382L4747.06,4385.43C4747.03,4385.75 4746.75,4386 4746.43,4386C4746.39,4386 4746.34,4386 4746.3,4386C4746.09,4386 4745.88,4385.92 4745.73,4385.77C4745.58,4385.62 4745.5,4385.41 4745.5,4385.2L4745.5,4379L4743.49,4379.8C4743.19,4379.92 4742.85,4379.85 4742.62,4379.62C4742.62,4379.62 4742.62,4379.62 4742.62,4379.62C4742.46,4379.46 4742.37,4379.24 4742.38,4379.01C4742.39,4378.79 4742.49,4378.58 4742.66,4378.43C4743.68,4377.56 4745.5,4376 4745.5,4376L4745.5,4375.33C4744.43,4374.71 4743.61,4373.7 4743.23,4372.5L4742.8,4372.5C4742.36,4372.5 4742,4372.14 4742,4371.7C4742,4371.27 4742,4370.73 4742,4370.3C4742,4369.86 4742.36,4369.5 4742.8,4369.5L4743.23,4369.5C4743.87,4367.47 4745.76,4366 4748,4366C4750.24,4366 4752.13,4367.47 4752.77,4369.5L4753.2,4369.5C4753.64,4369.5 4754,4369.86 4754,4370.3C4754,4370.73 4754,4371.27 4754,4371.7C4754,4372.14 4753.64,4372.5 4753.2,4372.5L4752.77,4372.5C4752.39,4373.7 4751.57,4374.71 4750.5,4375.33L4750.5,4376C4750.5,4376 4752.33,4377.57 4753.34,4378.44C4753.51,4378.58 4753.61,4378.79 4753.62,4379.01C4753.63,4379.24 4753.55,4379.45 4753.39,4379.61C4753.38,4379.62 4753.38,4379.62 4753.37,4379.63C4753.15,4379.85 4752.81,4379.92 4752.51,4379.8C4751.78,4379.51 4750.5,4379 4750.5,4379ZM4748,4369.5C4748.83,4369.5 4749.5,4370.17 4749.5,4371C4749.5,4371.83 4748.83,4372.5 4748,4372.5C4747.17,4372.5 4746.5,4371.83 4746.5,4371C4746.5,4370.17 4747.17,4369.5 4748,4369.5Z" style="fill:url(#_Radial16);"/>
                </g>
                <g transform="matrix(-205.025,0,0,-144.929,999046,644958)">
                    <path d="M4750.5,4379L4750.5,4385.2C4750.5,4385.41 4750.42,4385.62 4750.27,4385.77C4750.12,4385.92 4749.91,4386 4749.7,4386C4749.64,4386 4749.58,4386 4749.52,4386C4749.23,4386 4748.98,4385.78 4748.95,4385.48L4748.6,4382L4747.4,4382L4747.06,4385.43C4747.03,4385.75 4746.75,4386 4746.43,4386C4746.39,4386 4746.34,4386 4746.3,4386C4746.09,4386 4745.88,4385.92 4745.73,4385.77C4745.58,4385.62 4745.5,4385.41 4745.5,4385.2L4745.5,4379L4743.49,4379.8C4743.19,4379.92 4742.85,4379.85 4742.62,4379.62C4742.62,4379.62 4742.62,4379.62 4742.62,4379.62C4742.46,4379.46 4742.37,4379.24 4742.38,4379.01C4742.39,4378.79 4742.49,4378.58 4742.66,4378.43C4743.68,4377.56 4745.5,4376 4745.5,4376L4745.5,4375.33C4744.43,4374.71 4743.61,4373.7 4743.23,4372.5L4742.8,4372.5C4742.36,4372.5 4742,4372.14 4742,4371.7C4742,4371.27 4742,4370.73 4742,4370.3C4742,4369.86 4742.36,4369.5 4742.8,4369.5L4743.23,4369.5C4743.87,4367.47 4745.76,4366 4748,4366C4750.24,4366 4752.13,4367.47 4752.77,4369.5L4753.2,4369.5C4753.64,4369.5 4754,4369.86 4754,4370.3C4754,4370.73 4754,4371.27 4754,4371.7C4754,4372.14 4753.64,4372.5 4753.2,4372.5L4752.77,4372.5C4752.39,4373.7 4751.57,4374.71 4750.5,4375.33L4750.5,4376C4750.5,4376 4752.33,4377.57 4753.34,4378.44C4753.51,4378.58 4753.61,4378.79 4753.62,4379.01C4753.63,4379.24 4753.55,4379.45 4753.39,4379.61C4753.38,4379.62 4753.38,4379.62 4753.37,4379.63C4753.15,4379.85 4752.81,4379.92 4752.51,4379.8C4751.78,4379.51 4750.5,4379 4750.5,4379ZM4748,4369.5C4748.83,4369.5 4749.5,4370.17 4749.5,4371C4749.5,4371.83 4748.83,4372.5 4748,4372.5C4747.17,4372.5 4746.5,4371.83 4746.5,4371C4746.5,4370.17 4747.17,4369.5 4748,4369.5Z" style="fill:url(#_Radial17);"/>
                </g>
                <g transform="matrix(205.025,0,0,144.929,-960235,-632505)">
                    <path d="M4750.5,4379L4750.5,4385.2C4750.5,4385.41 4750.42,4385.62 4750.27,4385.77C4750.12,4385.92 4749.91,4386 4749.7,4386C4749.64,4386 4749.58,4386 4749.52,4386C4749.23,4386 4748.98,4385.78 4748.95,4385.48L4748.6,4382L4747.4,4382L4747.06,4385.43C4747.03,4385.75 4746.75,4386 4746.43,4386C4746.39,4386 4746.34,4386 4746.3,4386C4746.09,4386 4745.88,4385.92 4745.73,4385.77C4745.58,4385.62 4745.5,4385.41 4745.5,4385.2L4745.5,4379L4743.49,4379.8C4743.19,4379.92 4742.85,4379.85 4742.62,4379.62C4742.62,4379.62 4742.62,4379.62 4742.62,4379.62C4742.46,4379.46 4742.37,4379.24 4742.38,4379.01C4742.39,4378.79 4742.49,4378.58 4742.66,4378.43C4743.68,4377.56 4745.5,4376 4745.5,4376L4745.5,4375.33C4744.43,4374.71 4743.61,4373.7 4743.23,4372.5L4742.8,4372.5C4742.36,4372.5 4742,4372.14 4742,4371.7C4742,4371.27 4742,4370.73 4742,4370.3C4742,4369.86 4742.36,4369.5 4742.8,4369.5L4743.23,4369.5C4743.87,4367.47 4745.76,4366 4748,4366C4750.24,4366 4752.13,4367.47 4752.77,4369.5L4753.2,4369.5C4753.64,4369.5 4754,4369.86 4754,4370.3C4754,4370.73 4754,4371.27 4754,4371.7C4754,4372.14 4753.64,4372.5 4753.2,4372.5L4752.77,4372.5C4752.39,4373.7 4751.57,4374.71 4750.5,4375.33L4750.5,4376C4750.5,4376 4752.33,4377.57 4753.34,4378.44C4753.51,4378.58 4753.61,4378.79 4753.62,4379.01C4753.63,4379.24 4753.55,4379.45 4753.39,4379.61C4753.38,4379.62 4753.38,4379.62 4753.37,4379.63C4753.15,4379.85 4752.81,4379.92 4752.51,4379.8C4751.78,4379.51 4750.5,4379 4750.5,4379ZM4748,4369.5C4748.83,4369.5 4749.5,4370.17 4749.5,4371C4749.5,4371.83 4748.83,4372.5 4748,4372.5C4747.17,4372.5 4746.5,4371.83 4746.5,4371C4746.5,4370.17 4747.17,4369.5 4748,4369.5Z" style="fill:url(#_Radial18);"/>
                </g>
                <g transform="matrix(205.025,0,0,144.929,-958303,-629433)">
                    <path d="M4750.5,4379L4750.5,4385.2C4750.5,4385.41 4750.42,4385.62 4750.27,4385.77C4750.12,4385.92 4749.91,4386 4749.7,4386C4749.64,4386 4749.58,4386 4749.52,4386C4749.23,4386 4748.98,4385.78 4748.95,4385.48L4748.6,4382L4747.4,4382L4747.06,4385.43C4747.03,4385.75 4746.75,4386 4746.43,4386C4746.39,4386 4746.34,4386 4746.3,4386C4746.09,4386 4745.88,4385.92 4745.73,4385.77C4745.58,4385.62 4745.5,4385.41 4745.5,4385.2L4745.5,4379L4743.49,4379.8C4743.19,4379.92 4742.85,4379.85 4742.62,4379.62C4742.62,4379.62 4742.62,4379.62 4742.62,4379.62C4742.46,4379.46 4742.37,4379.24 4742.38,4379.01C4742.39,4378.79 4742.49,4378.58 4742.66,4378.43C4743.68,4377.56 4745.5,4376 4745.5,4376L4745.5,4375.33C4744.43,4374.71 4743.61,4373.7 4743.23,4372.5L4742.8,4372.5C4742.36,4372.5 4742,4372.14 4742,4371.7C4742,4371.27 4742,4370.73 4742,4370.3C4742,4369.86 4742.36,4369.5 4742.8,4369.5L4743.23,4369.5C4743.87,4367.47 4745.76,4366 4748,4366C4750.24,4366 4752.13,4367.47 4752.77,4369.5L4753.2,4369.5C4753.64,4369.5 4754,4369.86 4754,4370.3C4754,4370.73 4754,4371.27 4754,4371.7C4754,4372.14 4753.64,4372.5 4753.2,4372.5L4752.77,4372.5C4752.39,4373.7 4751.57,4374.71 4750.5,4375.33L4750.5,4376C4750.5,4376 4752.33,4377.57 4753.34,4378.44C4753.51,4378.58 4753.61,4378.79 4753.62,4379.01C4753.63,4379.24 4753.55,4379.45 4753.39,4379.61C4753.38,4379.62 4753.38,4379.62 4753.37,4379.63C4753.15,4379.85 4752.81,4379.92 4752.51,4379.8C4751.78,4379.51 4750.5,4379 4750.5,4379ZM4748,4369.5C4748.83,4369.5 4749.5,4370.17 4749.5,4371C4749.5,4371.83 4748.83,4372.5 4748,4372.5C4747.17,4372.5 4746.5,4371.83 4746.5,4371C4746.5,4370.17 4747.17,4369.5 4748,4369.5Z" style="fill:url(#_Radial19);"/>
                </g>
                <g transform="matrix(-205.025,0,0,-144.929,1.00068e+06,642059)">
                    <path d="M4750.5,4379L4750.5,4385.2C4750.5,4385.41 4750.42,4385.62 4750.27,4385.77C4750.12,4385.92 4749.91,4386 4749.7,4386C4749.64,4386 4749.58,4386 4749.52,4386C4749.23,4386 4748.98,4385.78 4748.95,4385.48L4748.6,4382L4747.4,4382L4747.06,4385.43C4747.03,4385.75 4746.75,4386 4746.43,4386C4746.39,4386 4746.34,4386 4746.3,4386C4746.09,4386 4745.88,4385.92 4745.73,4385.77C4745.58,4385.62 4745.5,4385.41 4745.5,4385.2L4745.5,4379L4743.49,4379.8C4743.19,4379.92 4742.85,4379.85 4742.62,4379.62C4742.62,4379.62 4742.62,4379.62 4742.62,4379.62C4742.46,4379.46 4742.37,4379.24 4742.38,4379.01C4742.39,4378.79 4742.49,4378.58 4742.66,4378.43C4743.68,4377.56 4745.5,4376 4745.5,4376L4745.5,4375.33C4744.43,4374.71 4743.61,4373.7 4743.23,4372.5L4742.8,4372.5C4742.36,4372.5 4742,4372.14 4742,4371.7C4742,4371.27 4742,4370.73 4742,4370.3C4742,4369.86 4742.36,4369.5 4742.8,4369.5L4743.23,4369.5C4743.87,4367.47 4745.76,4366 4748,4366C4750.24,4366 4752.13,4367.47 4752.77,4369.5L4753.2,4369.5C4753.64,4369.5 4754,4369.86 4754,4370.3C4754,4370.73 4754,4371.27 4754,4371.7C4754,4372.14 4753.64,4372.5 4753.2,4372.5L4752.77,4372.5C4752.39,4373.7 4751.57,4374.71 4750.5,4375.33L4750.5,4376C4750.5,4376 4752.33,4377.57 4753.34,4378.44C4753.51,4378.58 4753.61,4378.79 4753.62,4379.01C4753.63,4379.24 4753.55,4379.45 4753.39,4379.61C4753.38,4379.62 4753.38,4379.62 4753.37,4379.63C4753.15,4379.85 4752.81,4379.92 4752.51,4379.8C4751.78,4379.51 4750.5,4379 4750.5,4379ZM4748,4369.5C4748.83,4369.5 4749.5,4370.17 4749.5,4371C4749.5,4371.83 4748.83,4372.5 4748,4372.5C4747.17,4372.5 4746.5,4371.83 4746.5,4371C4746.5,4370.17 4747.17,4369.5 4748,4369.5Z" style="fill:url(#_Radial20);"/>
                </g>
                <g transform="matrix(-205.025,0,0,-144.929,1.00255e+06,644958)">
                    <path d="M4750.5,4379L4750.5,4385.2C4750.5,4385.41 4750.42,4385.62 4750.27,4385.77C4750.12,4385.92 4749.91,4386 4749.7,4386C4749.64,4386 4749.58,4386 4749.52,4386C4749.23,4386 4748.98,4385.78 4748.95,4385.48L4748.6,4382L4747.4,4382L4747.06,4385.43C4747.03,4385.75 4746.75,4386 4746.43,4386C4746.39,4386 4746.34,4386 4746.3,4386C4746.09,4386 4745.88,4385.92 4745.73,4385.77C4745.58,4385.62 4745.5,4385.41 4745.5,4385.2L4745.5,4379L4743.49,4379.8C4743.19,4379.92 4742.85,4379.85 4742.62,4379.62C4742.62,4379.62 4742.62,4379.62 4742.62,4379.62C4742.46,4379.46 4742.37,4379.24 4742.38,4379.01C4742.39,4378.79 4742.49,4378.58 4742.66,4378.43C4743.68,4377.56 4745.5,4376 4745.5,4376L4745.5,4375.33C4744.43,4374.71 4743.61,4373.7 4743.23,4372.5L4742.8,4372.5C4742.36,4372.5 4742,4372.14 4742,4371.7C4742,4371.27 4742,4370.73 4742,4370.3C4742,4369.86 4742.36,4369.5 4742.8,4369.5L4743.23,4369.5C4743.87,4367.47 4745.76,4366 4748,4366C4750.24,4366 4752.13,4367.47 4752.77,4369.5L4753.2,4369.5C4753.64,4369.5 4754,4369.86 4754,4370.3C4754,4370.73 4754,4371.27 4754,4371.7C4754,4372.14 4753.64,4372.5 4753.2,4372.5L4752.77,4372.5C4752.39,4373.7 4751.57,4374.71 4750.5,4375.33L4750.5,4376C4750.5,4376 4752.33,4377.57 4753.34,4378.44C4753.51,4378.58 4753.61,4378.79 4753.62,4379.01C4753.63,4379.24 4753.55,4379.45 4753.39,4379.61C4753.38,4379.62 4753.38,4379.62 4753.37,4379.63C4753.15,4379.85 4752.81,4379.92 4752.51,4379.8C4751.78,4379.51 4750.5,4379 4750.5,4379ZM4748,4369.5C4748.83,4369.5 4749.5,4370.17 4749.5,4371C4749.5,4371.83 4748.83,4372.5 4748,4372.5C4747.17,4372.5 4746.5,4371.83 4746.5,4371C4746.5,4370.17 4747.17,4369.5 4748,4369.5Z" style="fill:url(#_Radial21);"/>
                </g>
            </g>
        </g>
    </g>
    <defs>
        <radialGradient id="_Radial2" cx="0" cy="0" r="1" gradientUnits="userSpaceOnUse" gradientTransform="matrix(-78.1397,-85.9225,85.9225,-78.1397,4757.09,4450.16)"><stop offset="0" style="stop-color:rgb(85,102,114);stop-opacity:0.517647"/><stop offset="0.24" style="stop-color:rgb(85,102,114);stop-opacity:0.160784"/><stop offset="0.5" style="stop-color:rgb(85,102,114);stop-opacity:0.0470588"/><stop offset="1" style="stop-color:rgb(85,102,114);stop-opacity:0.717647"/></radialGradient>
        <radialGradient id="_Radial3" cx="0" cy="0" r="1" gradientUnits="userSpaceOnUse" gradientTransform="matrix(-78.1397,-85.9225,85.9225,-78.1397,4747.67,4428.96)"><stop offset="0" style="stop-color:rgb(85,102,114);stop-opacity:0.517647"/><stop offset="0.24" style="stop-color:rgb(85,102,114);stop-opacity:0.160784"/><stop offset="0.5" style="stop-color:rgb(85,102,114);stop-opacity:0.0470588"/><stop offset="1" style="stop-color:rgb(85,102,114);stop-opacity:0.717647"/></radialGradient>
        <radialGradient id="_Radial4" cx="0" cy="0" r="1" gradientUnits="userSpaceOnUse" gradientTransform="matrix(78.1397,85.9225,-85.9225,78.1397,4670.62,4344.23)"><stop offset="0" style="stop-color:rgb(85,102,114);stop-opacity:0.517647"/><stop offset="0.24" style="stop-color:rgb(85,102,114);stop-opacity:0.160784"/><stop offset="0.5" style="stop-color:rgb(85,102,114);stop-opacity:0.0470588"/><stop offset="1" style="stop-color:rgb(85,102,114);stop-opacity:0.717647"/></radialGradient>
        <radialGradient id="_Radial5" cx="0" cy="0" r="1" gradientUnits="userSpaceOnUse" gradientTransform="matrix(78.1397,85.9225,-85.9225,78.1397,4679.71,4364.23)"><stop offset="0" style="stop-color:rgb(85,102,114);stop-opacity:0.517647"/><stop offset="0.24" style="stop-color:rgb(85,102,114);stop-opacity:0.160784"/><stop offset="0.5" style="stop-color:rgb(85,102,114);stop-opacity:0.0470588"/><stop offset="1" style="stop-color:rgb(85,102,114);stop-opacity:0.717647"/></radialGradient>
        <radialGradient id="_Radial6" cx="0" cy="0" r="1" gradientUnits="userSpaceOnUse" gradientTransform="matrix(-78.1397,-85.9225,85.9225,-78.1397,4774.16,4450.16)"><stop offset="0" style="stop-color:rgb(85,102,114);stop-opacity:0.517647"/><stop offset="0.24" style="stop-color:rgb(85,102,114);stop-opacity:0.160784"/><stop offset="0.5" style="stop-color:rgb(85,102,114);stop-opacity:0.0470588"/><stop offset="1" style="stop-color:rgb(85,102,114);stop-opacity:0.717647"/></radialGradient>
        <radialGradient id="_Radial7" cx="0" cy="0" r="1" gradientUnits="userSpaceOnUse" gradientTransform="matrix(-78.1397,-85.9225,85.9225,-78.1397,4764.74,4428.96)"><stop offset="0" style="stop-color:rgb(85,102,114);stop-opacity:0.517647"/><stop offset="0.24" style="stop-color:rgb(85,102,114);stop-opacity:0.160784"/><stop offset="0.5" style="stop-color:rgb(85,102,114);stop-opacity:0.0470588"/><stop offset="1" style="stop-color:rgb(85,102,114);stop-opacity:0.717647"/></radialGradient>
        <radialGradient id="_Radial8" cx="0" cy="0" r="1" gradientUnits="userSpaceOnUse" gradientTransform="matrix(78.1397,85.9225,-85.9225,78.1397,4687.69,4344.23)"><stop offset="0" style="stop-color:rgb(85,102,114);stop-opacity:0.517647"/><stop offset="0.24" style="stop-color:rgb(85,102,114);stop-opacity:0.160784"/><stop offset="0.5" style="stop-color:rgb(85,102,114);stop-opacity:0.0470588"/><stop offset="1" style="stop-color:rgb(85,102,114);stop-opacity:0.717647"/></radialGradient>
        <radialGradient id="_Radial9" cx="0" cy="0" r="1" gradientUnits="userSpaceOnUse" gradientTransform="matrix(78.1397,85.9225,-85.9225,78.1397,4696.78,4364.23)"><stop offset="0" style="stop-color:rgb(85,102,114);stop-opacity:0.517647"/><stop offset="0.24" style="stop-color:rgb(85,102,114);stop-opacity:0.160784"/><stop offset="0.5" style="stop-color:rgb(85,102,114);stop-opacity:0.0470588"/><stop offset="1" style="stop-color:rgb(85,102,114);stop-opacity:0.717647"/></radialGradient>
        <radialGradient id="_Radial10" cx="0" cy="0" r="1" gradientUnits="userSpaceOnUse" gradientTransform="matrix(-78.1397,-85.9225,85.9225,-78.1397,4791.24,4450.16)"><stop offset="0" style="stop-color:rgb(85,102,114);stop-opacity:0.517647"/><stop offset="0.24" style="stop-color:rgb(85,102,114);stop-opacity:0.160784"/><stop offset="0.5" style="stop-color:rgb(85,102,114);stop-opacity:0.0470588"/><stop offset="1" style="stop-color:rgb(85,102,114);stop-opacity:0.717647"/></radialGradient>
        <radialGradient id="_Radial11" cx="0" cy="0" r="1" gradientUnits="userSpaceOnUse" gradientTransform="matrix(-78.1397,-85.9225,85.9225,-78.1397,4781.81,4428.96)"><stop offset="0" style="stop-color:rgb(85,102,114);stop-opacity:0.517647"/><stop offset="0.24" style="stop-color:rgb(85,102,114);stop-opacity:0.160784"/><stop offset="0.5" style="stop-color:rgb(85,102,114);stop-opacity:0.0470588"/><stop offset="1" style="stop-color:rgb(85,102,114);stop-opacity:0.717647"/></radialGradient>
        <radialGradient id="_Radial12" cx="0" cy="0" r="1" gradientUnits="userSpaceOnUse" gradientTransform="matrix(78.1397,85.9225,-85.9225,78.1397,4704.76,4344.23)"><stop offset="0" style="stop-color:rgb(85,102,114);stop-opacity:0.517647"/><stop offset="0.24" style="stop-color:rgb(85,102,114);stop-opacity:0.160784"/><stop offset="0.5" style="stop-color:rgb(85,102,114);stop-opacity:0.0470588"/><stop offset="1" style="stop-color:rgb(85,102,114);stop-opacity:0.717647"/></radialGradient>
        <radialGradient id="_Radial13" cx="0" cy="0" r="1" gradientUnits="userSpaceOnUse" gradientTransform="matrix(78.1397,85.9225,-85.9225,78.1397,4713.86,4364.23)"><stop offset="0" style="stop-color:rgb(85,102,114);stop-opacity:0.517647"/><stop offset="0.24" style="stop-color:rgb(85,102,114);stop-opacity:0.160784"/><stop offset="0.5" style="stop-color:rgb(85,102,114);stop-opacity:0.0470588"/><stop offset="1" style="stop-color:rgb(85,102,114);stop-opacity:0.717647"/></radialGradient>
        <radialGradient id="_Radial14" cx="0" cy="0" r="1" gradientUnits="userSpaceOnUse" gradientTransform="matrix(-78.1397,-85.9225,85.9225,-78.1397,4808.31,4450.16)"><stop offset="0" style="stop-color:rgb(85,102,114);stop-opacity:0.517647"/><stop offset="0.24" style="stop-color:rgb(85,102,114);stop-opacity:0.160784"/><stop offset="0.5" style="stop-color:rgb(85,102,114);stop-opacity:0.0470588"/><stop offset="1" style="stop-color:rgb(85,102,114);stop-opacity:0.717647"/></radialGradient>
        <radialGradient id="_Radial15" cx="0" cy="0" r="1" gradientUnits="userSpaceOnUse" gradientTransform="matrix(-78.1397,-85.9225,85.9225,-78.1397,4798.89,4428.96)"><stop offset="0" style="stop-color:rgb(85,102,114);stop-opacity:0.517647"/><stop offset="0.24" style="stop-color:rgb(85,102,114);stop-opacity:0.160784"/><stop offset="0.5" style="stop-color:rgb(85,102,114);stop-opacity:0.0470588"/><stop offset="1" style="stop-color:rgb(85,102,114);stop-opacity:0.717647"/></radialGradient>
        <radialGradient id="_Radial16" cx="0" cy="0" r="1" gradientUnits="userSpaceOnUse" gradientTransform="matrix(78.1397,85.9225,-85.9225,78.1397,4721.84,4344.23)"><stop offset="0" style="stop-color:rgb(85,102,114);stop-opacity:0.517647"/><stop offset="0.24" style="stop-color:rgb(85,102,114);stop-opacity:0.160784"/><stop offset="0.5" style="stop-color:rgb(85,102,114);stop-opacity:0.0470588"/><stop offset="1" style="stop-color:rgb(85,102,114);stop-opacity:0.717647"/></radialGradient>
        <radialGradient id="_Radial17" cx="0" cy="0" r="1" gradientUnits="userSpaceOnUse" gradientTransform="matrix(78.1397,85.9225,-85.9225,78.1397,4730.93,4364.23)"><stop offset="0" style="stop-color:rgb(85,102,114);stop-opacity:0.517647"/><stop offset="0.24" style="stop-color:rgb(85,102,114);stop-opacity:0.160784"/><stop offset="0.5" style="stop-color:rgb(85,102,114);stop-opacity:0.0470588"/><stop offset="1" style="stop-color:rgb(85,102,114);stop-opacity:0.717647"/></radialGradient>
        <radialGradient id="_Radial18" cx="0" cy="0" r="1" gradientUnits="userSpaceOnUse" gradientTransform="matrix(-78.1397,-85.9225,85.9225,-78.1397,4825.38,4450.16)"><stop offset="0" style="stop-color:rgb(85,102,114);stop-opacity:0.517647"/><stop offset="0.24" style="stop-color:rgb(85,102,114);stop-opacity:0.160784"/><stop offset="0.5" style="stop-color:rgb(85,102,114);stop-opacity:0.0470588"/><stop offset="1" style="stop-color:rgb(85,102,114);stop-opacity:0.717647"/></radialGradient>
        <radialGradient id="_Radial19" cx="0" cy="0" r="1" gradientUnits="userSpaceOnUse" gradientTransform="matrix(-78.1397,-85.9225,85.9225,-78.1397,4815.96,4428.96)"><stop offset="0" style="stop-color:rgb(85,102,114);stop-opacity:0.517647"/><stop offset="0.24" style="stop-color:rgb(85,102,114);stop-opacity:0.160784"/><stop offset="0.5" style="stop-color:rgb(85,102,114);stop-opacity:0.0470588"/><stop offset="1" style="stop-color:rgb(85,102,114);stop-opacity:0.717647"/></radialGradient>
        <radialGradient id="_Radial20" cx="0" cy="0" r="1" gradientUnits="userSpaceOnUse" gradientTransform="matrix(78.1397,85.9225,-85.9225,78.1397,4738.91,4344.23)"><stop offset="0" style="stop-color:rgb(85,102,114);stop-opacity:0.517647"/><stop offset="0.24" style="stop-color:rgb(85,102,114);stop-opacity:0.160784"/><stop offset="0.5" style="stop-color:rgb(85,102,114);stop-opacity:0.0470588"/><stop offset="1" style="stop-color:rgb(85,102,114);stop-opacity:0.717647"/></radialGradient>
        <radialGradient id="_Radial21" cx="0" cy="0" r="1" gradientUnits="userSpaceOnUse" gradientTransform="matrix(78.1397,85.9225,-85.9225,78.1397,4748,4364.23)"><stop offset="0" style="stop-color:rgb(85,102,114);stop-opacity:0.517647"/><stop offset="0.24" style="stop-color:rgb(85,102,114);stop-opacity:0.160784"/><stop offset="0.5" style="stop-color:rgb(85,102,114);stop-opacity:0.0470588"/><stop offset="1" style="stop-color:rgb(85,102,114);stop-opacity:0.717647"/></radialGradient>
    </defs>
</svg>
