<?xml version="1.0" encoding="UTF-8" standalone="no"?><!DOCTYPE svg PUBLIC "-//W3C//DTD SVG 1.1//EN" "http://www.w3.org/Graphics/SVG/1.1/DTD/svg11.dtd"><svg width="100%" height="100%" viewBox="0 0 100 126" version="1.1" xmlns="http://www.w3.org/2000/svg" xmlns:xlink="http://www.w3.org/1999/xlink" xml:space="preserve" xmlns:serif="http://www.serif.com/" style="fill-rule:evenodd;clip-rule:evenodd;stroke-linejoin:round;stroke-miterlimit:2;"><rect id="Back-of-card" serif:id="Back of card" x="0" y="0.878" width="100" height="125" style="fill:none;"/><clipPath id="_clip1"><rect x="0" y="0.878" width="100" height="125"/></clipPath><g clip-path="url(#_clip1)"><path d="M96.456,22.358l-0,9.023c-0,0.309 -0.123,0.605 -0.341,0.823c-0.218,0.218 -0.514,0.341 -0.823,0.341c-0.087,-0 -0.174,-0 -0.258,-0c-0.432,-0 -0.793,-0.327 -0.836,-0.756l-0.506,-5.063l-1.746,-0l-0.499,4.992c-0.047,0.47 -0.442,0.827 -0.914,0.827c-0.061,-0 -0.124,-0 -0.187,-0c-0.309,-0 -0.605,-0.123 -0.823,-0.341c-0.218,-0.218 -0.341,-0.514 -0.341,-0.823l-0,-9.02l-2.917,1.167c-0.437,0.175 -0.936,0.072 -1.269,-0.261c-0.002,-0.002 -0.005,-0.005 -0.008,-0.008c-0.232,-0.232 -0.356,-0.549 -0.343,-0.877c0.012,-0.327 0.161,-0.635 0.41,-0.848c1.476,-1.265 4.127,-3.537 4.127,-3.537l-0,-0.974c-1.559,-0.903 -2.753,-2.368 -3.304,-4.118l-0.624,0c-0.643,0 -1.164,-0.521 -1.164,-1.164c0,-0.63 0,-1.406 0,-2.036c0,-0.643 0.521,-1.164 1.164,-1.164l0.624,-0c0.928,-2.95 3.686,-5.092 6.941,-5.092c3.255,-0 6.013,2.142 6.94,5.092l0.625,-0c0.643,-0 1.164,0.521 1.164,1.164c-0,0.63 -0,1.406 -0,2.036c-0,0.643 -0.521,1.164 -1.164,1.164l-0.625,0c-0.55,1.749 -1.743,3.214 -3.303,4.118l-0,0.971c-0,0 2.664,2.285 4.138,3.549c0.246,0.211 0.393,0.515 0.405,0.839c0.013,0.324 -0.11,0.638 -0.339,0.867c-0.008,0.008 -0.016,0.016 -0.024,0.024c-0.329,0.329 -0.824,0.431 -1.256,0.257c-1.059,-0.424 -2.924,-1.172 -2.924,-1.172Zm-3.637,-13.817c1.204,-0 2.182,0.978 2.182,2.182c0,1.204 -0.978,2.182 -2.182,2.182c-1.204,0 -2.182,-0.978 -2.182,-2.182c-0,-1.204 0.978,-2.182 2.182,-2.182Z" style="fill:url(#_Radial2);"/><path d="M110.164,53.191l-0,9.023c-0,0.309 -0.123,0.605 -0.341,0.823c-0.218,0.219 -0.514,0.341 -0.823,0.341c-0.087,0 -0.174,0 -0.258,0c-0.432,0 -0.793,-0.327 -0.836,-0.756l-0.506,-5.063l-1.746,0l-0.499,4.993c-0.047,0.469 -0.442,0.826 -0.914,0.826c-0.061,0 -0.124,0 -0.187,0c-0.309,0 -0.605,-0.122 -0.823,-0.341c-0.218,-0.218 -0.341,-0.514 -0.341,-0.823l-0,-9.02l-2.917,1.167c-0.437,0.175 -0.936,0.073 -1.269,-0.26c-0.002,-0.003 -0.005,-0.006 -0.008,-0.009c-0.231,-0.231 -0.356,-0.549 -0.343,-0.876c0.012,-0.328 0.161,-0.635 0.41,-0.848c1.476,-1.266 4.127,-3.538 4.127,-3.538l-0,-0.974c-1.559,-0.903 -2.753,-2.368 -3.303,-4.117l-0.625,-0c-0.643,-0 -1.164,-0.522 -1.164,-1.164c0,-0.63 0,-1.407 0,-2.037c0,-0.643 0.521,-1.164 1.164,-1.164l0.625,0c0.927,-2.949 3.685,-5.092 6.94,-5.092c3.255,0 6.013,2.143 6.94,5.092l0.625,0c0.643,0 1.164,0.521 1.164,1.164c-0,0.63 -0,1.407 -0,2.037c-0,0.642 -0.521,1.164 -1.164,1.164l-0.625,-0c-0.55,1.749 -1.743,3.214 -3.303,4.117l-0,0.972c-0,-0 2.664,2.284 4.138,3.548c0.246,0.211 0.393,0.515 0.406,0.839c0.012,0.324 -0.111,0.638 -0.34,0.868c-0.008,0.008 -0.016,0.015 -0.024,0.023c-0.329,0.33 -0.824,0.431 -1.256,0.258c-1.059,-0.425 -2.924,-1.173 -2.924,-1.173Zm-3.637,-13.817c1.204,0 2.182,0.978 2.182,2.182c0,1.205 -0.978,2.183 -2.182,2.183c-1.204,-0 -2.182,-0.978 -2.182,-2.183c-0,-1.204 0.978,-2.182 2.182,-2.182Z" style="fill:url(#_Radial3);"/><path d="M-10.164,75.303l0,-9.023c0,-0.309 0.123,-0.605 0.341,-0.823c0.218,-0.219 0.514,-0.341 0.823,-0.341c0.087,-0 0.174,-0 0.258,-0c0.432,-0 0.793,0.327 0.836,0.756l0.506,5.063l1.746,-0l0.499,-4.993c0.047,-0.469 0.442,-0.826 0.914,-0.826c0.061,-0 0.124,-0 0.187,-0c0.309,-0 0.605,0.122 0.823,0.341c0.218,0.218 0.341,0.514 0.341,0.823l0,9.02l2.917,-1.167c0.437,-0.175 0.936,-0.073 1.269,0.26c0.002,0.003 0.005,0.006 0.008,0.009c0.231,0.231 0.356,0.549 0.343,0.877c-0.012,0.327 -0.161,0.634 -0.41,0.847c-1.476,1.266 -4.127,3.538 -4.127,3.538l0,0.974c1.559,0.903 2.753,2.368 3.303,4.118l0.625,-0c0.643,-0 1.164,0.521 1.164,1.163c-0,0.631 -0,1.407 -0,2.037c-0,0.643 -0.521,1.164 -1.164,1.164l-0.625,-0c-0.927,2.95 -3.685,5.092 -6.94,5.092c-3.255,-0 -6.013,-2.142 -6.94,-5.092l-0.625,-0c-0.643,-0 -1.164,-0.521 -1.164,-1.164c0,-0.63 0,-1.406 0,-2.037c0,-0.642 0.521,-1.163 1.164,-1.163l0.625,-0c0.55,-1.75 1.743,-3.215 3.303,-4.118l0,-0.972c0,0 -2.664,-2.284 -4.138,-3.548c-0.246,-0.211 -0.393,-0.515 -0.406,-0.839c-0.012,-0.324 0.111,-0.638 0.34,-0.868c0.008,-0.007 0.016,-0.015 0.024,-0.023c0.329,-0.33 0.824,-0.431 1.256,-0.258c1.059,0.425 2.924,1.173 2.924,1.173Zm3.637,13.817c-1.204,-0 -2.182,-0.978 -2.182,-2.182c-0,-1.205 0.978,-2.182 2.182,-2.182c1.204,-0 2.182,0.977 2.182,2.182c0,1.204 -0.978,2.182 -2.182,2.182Z" style="fill:url(#_Radial4);"/><path d="M3.064,104.399l-0,-9.023c-0,-0.309 0.123,-0.605 0.341,-0.823c0.218,-0.219 0.514,-0.341 0.823,-0.341c0.087,-0 0.174,-0 0.258,-0c0.432,-0 0.793,0.327 0.836,0.756l0.506,5.063l1.746,-0l0.499,-4.993c0.047,-0.469 0.442,-0.826 0.914,-0.826c0.061,-0 0.124,-0 0.187,-0c0.309,-0 0.605,0.122 0.823,0.341c0.218,0.218 0.341,0.514 0.341,0.823l-0,9.02l2.917,-1.167c0.437,-0.175 0.936,-0.073 1.269,0.26c0.002,0.003 0.005,0.006 0.008,0.009c0.231,0.231 0.356,0.549 0.343,0.877c-0.012,0.327 -0.161,0.634 -0.41,0.847c-1.476,1.266 -4.127,3.538 -4.127,3.538l-0,0.974c1.559,0.903 2.753,2.368 3.303,4.118l0.625,-0c0.643,-0 1.164,0.521 1.164,1.163c-0,0.631 -0,1.407 -0,2.037c-0,0.643 -0.521,1.164 -1.164,1.164l-0.625,-0c-0.927,2.95 -3.685,5.092 -6.94,5.092c-3.255,-0 -6.013,-2.142 -6.94,-5.092l-0.625,-0c-0.643,-0 -1.164,-0.521 -1.164,-1.164c0,-0.63 0,-1.406 0,-2.037c0,-0.642 0.521,-1.163 1.164,-1.163l0.625,-0c0.55,-1.75 1.743,-3.215 3.303,-4.118l-0,-0.972c-0,0 -2.664,-2.284 -4.138,-3.548c-0.246,-0.211 -0.393,-0.515 -0.406,-0.839c-0.012,-0.324 0.111,-0.638 0.34,-0.868c0.008,-0.007 0.016,-0.015 0.024,-0.023c0.329,-0.33 0.824,-0.431 1.256,-0.258c1.059,0.425 2.924,1.173 2.924,1.173Zm3.637,13.817c-1.204,-0 -2.182,-0.978 -2.182,-2.182c-0,-1.205 0.978,-2.182 2.182,-2.182c1.204,-0 2.182,0.977 2.182,2.182c0,1.204 -0.978,2.182 -2.182,2.182Z" style="fill:url(#_Radial5);"/><path d="M71.619,22.358l0,9.023c0,0.309 -0.122,0.605 -0.34,0.823c-0.219,0.218 -0.515,0.341 -0.823,0.341c-0.088,-0 -0.175,-0 -0.259,-0c-0.431,-0 -0.792,-0.327 -0.835,-0.756l-0.507,-5.063l-1.745,-0l-0.5,4.992c-0.047,0.47 -0.442,0.827 -0.913,0.827c-0.062,-0 -0.125,-0 -0.188,-0c-0.308,-0 -0.604,-0.123 -0.823,-0.341c-0.218,-0.218 -0.341,-0.514 -0.341,-0.823l0,-9.02l-2.916,1.167c-0.437,0.175 -0.936,0.072 -1.269,-0.261c-0.003,-0.002 -0.006,-0.005 -0.008,-0.008c-0.232,-0.232 -0.357,-0.549 -0.344,-0.877c0.013,-0.327 0.161,-0.635 0.41,-0.848c1.476,-1.265 4.127,-3.537 4.127,-3.537l0,-0.974c-1.559,-0.903 -2.753,-2.368 -3.303,-4.118l-0.625,0c-0.642,0 -1.163,-0.521 -1.163,-1.164c-0,-0.63 -0,-1.406 -0,-2.036c-0,-0.643 0.521,-1.164 1.163,-1.164l0.625,-0c0.927,-2.95 3.686,-5.092 6.94,-5.092c3.255,-0 6.013,2.142 6.941,5.092l0.624,-0c0.643,-0 1.164,0.521 1.164,1.164c0,0.63 0,1.406 0,2.036c0,0.643 -0.521,1.164 -1.164,1.164l-0.624,0c-0.55,1.749 -1.744,3.214 -3.304,4.118l0,0.971c0,0 2.664,2.285 4.139,3.549c0.246,0.211 0.393,0.515 0.405,0.839c0.012,0.324 -0.111,0.638 -0.34,0.867c-0.008,0.008 -0.016,0.016 -0.023,0.024c-0.33,0.329 -0.824,0.431 -1.257,0.257c-1.059,-0.424 -2.924,-1.172 -2.924,-1.172Zm-3.637,-13.817c1.205,-0 2.183,0.978 2.183,2.182c-0,1.204 -0.978,2.182 -2.183,2.182c-1.204,0 -2.182,-0.978 -2.182,-2.182c0,-1.204 0.978,-2.182 2.182,-2.182Z" style="fill:url(#_Radial6);"/><path d="M85.328,53.191l-0,9.023c-0,0.309 -0.123,0.605 -0.341,0.823c-0.219,0.219 -0.515,0.341 -0.823,0.341c-0.088,0 -0.175,0 -0.259,0c-0.431,0 -0.792,-0.327 -0.835,-0.756l-0.507,-5.063l-1.745,0l-0.5,4.993c-0.047,0.469 -0.441,0.826 -0.913,0.826c-0.062,0 -0.124,0 -0.188,0c-0.308,0 -0.604,-0.122 -0.823,-0.341c-0.218,-0.218 -0.34,-0.514 -0.34,-0.823l-0,-9.02l-2.917,1.167c-0.437,0.175 -0.936,0.073 -1.269,-0.26c-0.003,-0.003 -0.006,-0.006 -0.008,-0.009c-0.232,-0.231 -0.356,-0.549 -0.344,-0.876c0.013,-0.328 0.161,-0.635 0.41,-0.848c1.476,-1.266 4.128,-3.538 4.128,-3.538l-0,-0.974c-1.56,-0.903 -2.754,-2.368 -3.304,-4.117l-0.624,-0c-0.643,-0 -1.164,-0.522 -1.164,-1.164c-0,-0.63 -0,-1.407 -0,-2.037c-0,-0.643 0.521,-1.164 1.164,-1.164l0.624,0c0.928,-2.949 3.686,-5.092 6.941,-5.092c3.254,0 6.012,2.143 6.94,5.092l0.624,0c0.643,0 1.164,0.521 1.164,1.164c0,0.63 0,1.407 0,2.037c0,0.642 -0.521,1.164 -1.164,1.164l-0.624,-0c-0.55,1.749 -1.744,3.214 -3.303,4.117l-0,0.972c-0,-0 2.664,2.284 4.138,3.548c0.246,0.211 0.393,0.515 0.405,0.839c0.012,0.324 -0.111,0.638 -0.34,0.868c-0.008,0.008 -0.016,0.015 -0.023,0.023c-0.33,0.33 -0.824,0.431 -1.257,0.258c-1.059,-0.425 -2.923,-1.173 -2.923,-1.173Zm-3.637,-13.817c1.204,0 2.182,0.978 2.182,2.182c-0,1.205 -0.978,2.183 -2.182,2.183c-1.205,-0 -2.183,-0.978 -2.183,-2.183c0,-1.204 0.978,-2.182 2.183,-2.182Z" style="fill:url(#_Radial7);"/><path d="M14.672,75.303l0,-9.023c0,-0.309 0.123,-0.605 0.341,-0.823c0.219,-0.219 0.515,-0.341 0.823,-0.341c0.088,-0 0.175,-0 0.259,-0c0.431,-0 0.792,0.327 0.835,0.756l0.507,5.063l1.745,-0l0.5,-4.993c0.047,-0.469 0.441,-0.826 0.913,-0.826c0.062,-0 0.124,-0 0.188,-0c0.308,-0 0.604,0.122 0.823,0.341c0.218,0.218 0.34,0.514 0.34,0.823l0,9.02l2.917,-1.167c0.437,-0.175 0.936,-0.073 1.269,0.26c0.003,0.003 0.006,0.006 0.008,0.009c0.232,0.231 0.356,0.549 0.344,0.877c-0.013,0.327 -0.161,0.634 -0.41,0.847c-1.476,1.266 -4.128,3.538 -4.128,3.538l0,0.974c1.56,0.903 2.754,2.368 3.304,4.118l0.624,-0c0.643,-0 1.164,0.521 1.164,1.163c0,0.631 0,1.407 0,2.037c0,0.643 -0.521,1.164 -1.164,1.164l-0.624,-0c-0.928,2.95 -3.686,5.092 -6.941,5.092c-3.254,-0 -6.012,-2.142 -6.94,-5.092l-0.624,-0c-0.643,-0 -1.164,-0.521 -1.164,-1.164c-0,-0.63 -0,-1.406 -0,-2.037c-0,-0.642 0.521,-1.163 1.164,-1.163l0.624,-0c0.55,-1.75 1.744,-3.215 3.303,-4.118l0,-0.972c0,0 -2.664,-2.284 -4.138,-3.548c-0.246,-0.211 -0.393,-0.515 -0.405,-0.839c-0.012,-0.324 0.111,-0.638 0.34,-0.868c0.008,-0.007 0.016,-0.015 0.023,-0.023c0.33,-0.33 0.824,-0.431 1.257,-0.258c1.059,0.425 2.923,1.173 2.923,1.173Zm3.637,13.817c-1.204,-0 -2.182,-0.978 -2.182,-2.182c0,-1.205 0.978,-2.182 2.182,-2.182c1.205,-0 2.183,0.977 2.183,2.182c-0,1.204 -0.978,2.182 -2.183,2.182Z" style="fill:url(#_Radial8);"/><path d="M27.9,104.399l0,-9.023c0,-0.309 0.123,-0.605 0.341,-0.823c0.219,-0.219 0.515,-0.341 0.823,-0.341c0.088,-0 0.175,-0 0.259,-0c0.431,-0 0.792,0.327 0.835,0.756l0.507,5.063l1.745,-0l0.5,-4.993c0.047,-0.469 0.441,-0.826 0.913,-0.826c0.062,-0 0.124,-0 0.188,-0c0.308,-0 0.604,0.122 0.823,0.341c0.218,0.218 0.34,0.514 0.34,0.823l0,9.02l2.917,-1.167c0.437,-0.175 0.936,-0.073 1.269,0.26c0.003,0.003 0.006,0.006 0.008,0.009c0.232,0.231 0.356,0.549 0.344,0.877c-0.013,0.327 -0.161,0.634 -0.41,0.847c-1.476,1.266 -4.128,3.538 -4.128,3.538l0,0.974c1.56,0.903 2.754,2.368 3.304,4.118l0.624,-0c0.643,-0 1.164,0.521 1.164,1.163c0,0.631 0,1.407 0,2.037c0,0.643 -0.521,1.164 -1.164,1.164l-0.624,-0c-0.928,2.95 -3.686,5.092 -6.941,5.092c-3.254,-0 -6.012,-2.142 -6.94,-5.092l-0.624,-0c-0.643,-0 -1.164,-0.521 -1.164,-1.164c-0,-0.63 -0,-1.406 -0,-2.037c-0,-0.642 0.521,-1.163 1.164,-1.163l0.624,-0c0.55,-1.75 1.744,-3.215 3.303,-4.118l0,-0.972c0,0 -2.664,-2.284 -4.138,-3.548c-0.246,-0.211 -0.393,-0.515 -0.405,-0.839c-0.012,-0.324 0.111,-0.638 0.34,-0.868c0.008,-0.007 0.016,-0.015 0.023,-0.023c0.33,-0.33 0.824,-0.431 1.257,-0.258c1.059,0.425 2.923,1.173 2.923,1.173Zm3.637,13.817c-1.204,-0 -2.182,-0.978 -2.182,-2.182c0,-1.205 0.978,-2.182 2.182,-2.182c1.205,-0 2.183,0.977 2.183,2.182c-0,1.204 -0.978,2.182 -2.183,2.182Z" style="fill:url(#_Radial9);"/><path d="M46.783,22.358l-0,9.023c-0,0.309 -0.123,0.605 -0.341,0.823c-0.218,0.218 -0.514,0.341 -0.823,0.341c-0.087,-0 -0.174,-0 -0.258,-0c-0.432,-0 -0.793,-0.327 -0.836,-0.756l-0.506,-5.063l-1.746,-0l-0.499,4.992c-0.047,0.47 -0.442,0.827 -0.914,0.827c-0.061,-0 -0.124,-0 -0.187,-0c-0.309,-0 -0.605,-0.123 -0.823,-0.341c-0.218,-0.218 -0.341,-0.514 -0.341,-0.823l-0,-9.02l-2.917,1.167c-0.437,0.175 -0.936,0.072 -1.269,-0.261c-0.002,-0.002 -0.005,-0.005 -0.008,-0.008c-0.232,-0.232 -0.356,-0.549 -0.343,-0.877c0.012,-0.327 0.161,-0.635 0.41,-0.848c1.476,-1.265 4.127,-3.537 4.127,-3.537l-0,-0.974c-1.559,-0.903 -2.753,-2.368 -3.303,-4.118l-0.625,0c-0.643,0 -1.164,-0.521 -1.164,-1.164c0,-0.63 0,-1.406 0,-2.036c0,-0.643 0.521,-1.164 1.164,-1.164l0.625,-0c0.927,-2.95 3.685,-5.092 6.94,-5.092c3.255,-0 6.013,2.142 6.94,5.092l0.625,-0c0.643,-0 1.164,0.521 1.164,1.164c-0,0.63 -0,1.406 -0,2.036c-0,0.643 -0.521,1.164 -1.164,1.164l-0.625,0c-0.55,1.749 -1.743,3.214 -3.303,4.118l-0,0.971c-0,0 2.664,2.285 4.138,3.549c0.246,0.211 0.393,0.515 0.405,0.839c0.013,0.324 -0.11,0.638 -0.339,0.867c-0.008,0.008 -0.016,0.016 -0.024,0.024c-0.329,0.329 -0.824,0.431 -1.256,0.257c-1.059,-0.424 -2.924,-1.172 -2.924,-1.172Zm-3.637,-13.817c1.204,-0 2.182,0.978 2.182,2.182c0,1.204 -0.978,2.182 -2.182,2.182c-1.204,0 -2.182,-0.978 -2.182,-2.182c-0,-1.204 0.978,-2.182 2.182,-2.182Z" style="fill:url(#_Radial10);"/><path d="M60.491,53.191l0,9.023c0,0.309 -0.123,0.605 -0.341,0.823c-0.218,0.219 -0.514,0.341 -0.823,0.341c-0.087,0 -0.174,0 -0.258,0c-0.432,0 -0.793,-0.327 -0.836,-0.756l-0.506,-5.063l-1.746,0l-0.499,4.993c-0.047,0.469 -0.442,0.826 -0.914,0.826c-0.061,0 -0.124,0 -0.187,0c-0.309,0 -0.605,-0.122 -0.823,-0.341c-0.218,-0.218 -0.341,-0.514 -0.341,-0.823l0,-9.02l-2.917,1.167c-0.437,0.175 -0.936,0.073 -1.269,-0.26c-0.002,-0.003 -0.005,-0.006 -0.008,-0.009c-0.231,-0.231 -0.356,-0.549 -0.343,-0.876c0.012,-0.328 0.161,-0.635 0.41,-0.848c1.476,-1.266 4.127,-3.538 4.127,-3.538l0,-0.974c-1.559,-0.903 -2.753,-2.368 -3.303,-4.117l-0.625,-0c-0.643,-0 -1.164,-0.522 -1.164,-1.164c0,-0.63 0,-1.407 0,-2.037c0,-0.643 0.521,-1.164 1.164,-1.164l0.625,0c0.927,-2.949 3.685,-5.092 6.94,-5.092c3.255,0 6.013,2.143 6.94,5.092l0.625,0c0.643,0 1.164,0.521 1.164,1.164c-0,0.63 -0,1.407 -0,2.037c-0,0.642 -0.521,1.164 -1.164,1.164l-0.625,-0c-0.55,1.749 -1.743,3.214 -3.303,4.117l0,0.972c0,-0 2.664,2.284 4.138,3.548c0.246,0.211 0.393,0.515 0.406,0.839c0.012,0.324 -0.111,0.638 -0.34,0.868c-0.008,0.008 -0.016,0.015 -0.024,0.023c-0.329,0.33 -0.824,0.431 -1.256,0.258c-1.059,-0.425 -2.924,-1.173 -2.924,-1.173Zm-3.637,-13.817c1.204,0 2.182,0.978 2.182,2.182c0,1.205 -0.978,2.183 -2.182,2.183c-1.204,-0 -2.182,-0.978 -2.182,-2.183c-0,-1.204 0.978,-2.182 2.182,-2.182Z" style="fill:url(#_Radial11);"/><path d="M39.509,75.303l-0,-9.023c-0,-0.309 0.123,-0.605 0.341,-0.823c0.218,-0.219 0.514,-0.341 0.823,-0.341c0.087,-0 0.174,-0 0.258,-0c0.432,-0 0.793,0.327 0.836,0.756l0.506,5.063l1.746,-0l0.499,-4.993c0.047,-0.469 0.442,-0.826 0.914,-0.826c0.061,-0 0.124,-0 0.187,-0c0.309,-0 0.605,0.122 0.823,0.341c0.218,0.218 0.341,0.514 0.341,0.823l-0,9.02l2.917,-1.167c0.437,-0.175 0.936,-0.073 1.269,0.26c0.002,0.003 0.005,0.006 0.008,0.009c0.231,0.231 0.356,0.549 0.343,0.877c-0.012,0.327 -0.161,0.634 -0.41,0.847c-1.476,1.266 -4.127,3.538 -4.127,3.538l-0,0.974c1.559,0.903 2.753,2.368 3.303,4.118l0.625,-0c0.643,-0 1.164,0.521 1.164,1.163c-0,0.631 -0,1.407 -0,2.037c-0,0.643 -0.521,1.164 -1.164,1.164l-0.625,-0c-0.927,2.95 -3.685,5.092 -6.94,5.092c-3.255,-0 -6.013,-2.142 -6.94,-5.092l-0.625,-0c-0.643,-0 -1.164,-0.521 -1.164,-1.164c0,-0.63 0,-1.406 0,-2.037c0,-0.642 0.521,-1.163 1.164,-1.163l0.625,-0c0.55,-1.75 1.743,-3.215 3.303,-4.118l-0,-0.972c-0,0 -2.664,-2.284 -4.138,-3.548c-0.246,-0.211 -0.393,-0.515 -0.406,-0.839c-0.012,-0.324 0.111,-0.638 0.34,-0.868c0.008,-0.007 0.016,-0.015 0.024,-0.023c0.329,-0.33 0.824,-0.431 1.256,-0.258c1.059,0.425 2.924,1.173 2.924,1.173Zm3.637,13.817c-1.204,-0 -2.182,-0.978 -2.182,-2.182c-0,-1.205 0.978,-2.182 2.182,-2.182c1.204,-0 2.182,0.977 2.182,2.182c0,1.204 -0.978,2.182 -2.182,2.182Z" style="fill:url(#_Radial12);"/><path d="M52.737,104.399l-0,-9.023c-0,-0.309 0.123,-0.605 0.341,-0.823c0.218,-0.219 0.514,-0.341 0.823,-0.341c0.087,-0 0.174,-0 0.258,-0c0.432,-0 0.793,0.327 0.836,0.756l0.506,5.063l1.746,-0l0.499,-4.993c0.047,-0.469 0.442,-0.826 0.914,-0.826c0.061,-0 0.124,-0 0.187,-0c0.309,-0 0.605,0.122 0.823,0.341c0.218,0.218 0.341,0.514 0.341,0.823l-0,9.02l2.917,-1.167c0.437,-0.175 0.936,-0.073 1.269,0.26c0.002,0.003 0.005,0.006 0.008,0.009c0.231,0.231 0.356,0.549 0.343,0.877c-0.012,0.327 -0.161,0.634 -0.41,0.847c-1.476,1.266 -4.127,3.538 -4.127,3.538l-0,0.974c1.559,0.903 2.753,2.368 3.303,4.118l0.625,-0c0.643,-0 1.164,0.521 1.164,1.163c-0,0.631 -0,1.407 -0,2.037c-0,0.643 -0.521,1.164 -1.164,1.164l-0.625,-0c-0.927,2.95 -3.685,5.092 -6.94,5.092c-3.255,-0 -6.013,-2.142 -6.94,-5.092l-0.625,-0c-0.643,-0 -1.164,-0.521 -1.164,-1.164c0,-0.63 0,-1.406 0,-2.037c0,-0.642 0.521,-1.163 1.164,-1.163l0.625,-0c0.55,-1.75 1.743,-3.215 3.303,-4.118l-0,-0.972c-0,0 -2.664,-2.284 -4.138,-3.548c-0.246,-0.211 -0.393,-0.515 -0.406,-0.839c-0.012,-0.324 0.111,-0.638 0.34,-0.868c0.008,-0.007 0.016,-0.015 0.024,-0.023c0.329,-0.33 0.824,-0.431 1.256,-0.258c1.059,0.425 2.924,1.173 2.924,1.173Zm3.637,13.817c-1.204,-0 -2.182,-0.978 -2.182,-2.182c-0,-1.205 0.978,-2.182 2.182,-2.182c1.204,-0 2.182,0.977 2.182,2.182c0,1.204 -0.978,2.182 -2.182,2.182Z" style="fill:url(#_Radial13);"/><path d="M21.946,22.358l0,9.023c0,0.309 -0.122,0.605 -0.34,0.823c-0.219,0.218 -0.515,0.341 -0.823,0.341c-0.088,-0 -0.175,-0 -0.259,-0c-0.431,-0 -0.792,-0.327 -0.835,-0.756l-0.507,-5.063l-1.745,-0l-0.5,4.992c-0.047,0.47 -0.441,0.827 -0.913,0.827c-0.062,-0 -0.125,-0 -0.188,-0c-0.308,-0 -0.604,-0.123 -0.823,-0.341c-0.218,-0.218 -0.341,-0.514 -0.341,-0.823l0,-9.02l-2.916,1.167c-0.437,0.175 -0.936,0.072 -1.269,-0.261c-0.003,-0.002 -0.006,-0.005 -0.008,-0.008c-0.232,-0.232 -0.356,-0.549 -0.344,-0.877c0.013,-0.327 0.161,-0.635 0.41,-0.848c1.476,-1.265 4.127,-3.537 4.127,-3.537l0,-0.974c-1.559,-0.903 -2.753,-2.368 -3.303,-4.118l-0.624,0c-0.643,0 -1.164,-0.521 -1.164,-1.164c-0,-0.63 -0,-1.406 -0,-2.036c-0,-0.643 0.521,-1.164 1.164,-1.164l0.624,-0c0.928,-2.95 3.686,-5.092 6.94,-5.092c3.255,-0 6.013,2.142 6.941,5.092l0.624,-0c0.643,-0 1.164,0.521 1.164,1.164c0,0.63 0,1.406 0,2.036c0,0.643 -0.521,1.164 -1.164,1.164l-0.624,0c-0.55,1.749 -1.744,3.214 -3.304,4.118l0,0.971c0,0 2.664,2.285 4.139,3.549c0.246,0.211 0.393,0.515 0.405,0.839c0.012,0.324 -0.111,0.638 -0.34,0.867c-0.008,0.008 -0.016,0.016 -0.023,0.024c-0.33,0.329 -0.824,0.431 -1.257,0.257c-1.059,-0.424 -2.924,-1.172 -2.924,-1.172Zm-3.637,-13.817c1.205,-0 2.183,0.978 2.183,2.182c-0,1.204 -0.978,2.182 -2.183,2.182c-1.204,0 -2.182,-0.978 -2.182,-2.182c0,-1.204 0.978,-2.182 2.182,-2.182Z" style="fill:url(#_Radial14);"/><path d="M35.655,53.191l-0,9.023c-0,0.309 -0.123,0.605 -0.341,0.823c-0.219,0.219 -0.515,0.341 -0.823,0.341c-0.088,0 -0.175,0 -0.259,0c-0.431,0 -0.792,-0.327 -0.835,-0.756l-0.507,-5.063l-1.745,0l-0.5,4.993c-0.046,0.469 -0.441,0.826 -0.913,0.826c-0.062,0 -0.124,0 -0.188,0c-0.308,0 -0.604,-0.122 -0.823,-0.341c-0.218,-0.218 -0.34,-0.514 -0.34,-0.823l-0,-9.02l-2.917,1.167c-0.437,0.175 -0.936,0.073 -1.269,-0.26c-0.003,-0.003 -0.006,-0.006 -0.008,-0.009c-0.232,-0.231 -0.356,-0.549 -0.344,-0.876c0.013,-0.328 0.161,-0.635 0.41,-0.848c1.477,-1.266 4.128,-3.538 4.128,-3.538l-0,-0.974c-1.56,-0.903 -2.754,-2.368 -3.304,-4.117l-0.624,-0c-0.643,-0 -1.164,-0.522 -1.164,-1.164c-0,-0.63 -0,-1.407 -0,-2.037c-0,-0.643 0.521,-1.164 1.164,-1.164l0.624,0c0.928,-2.949 3.686,-5.092 6.941,-5.092c3.254,0 6.013,2.143 6.94,5.092l0.625,0c0.642,0 1.163,0.521 1.163,1.164c0,0.63 0,1.407 0,2.037c0,0.642 -0.521,1.164 -1.163,1.164l-0.625,-0c-0.55,1.749 -1.744,3.214 -3.303,4.117l-0,0.972c-0,-0 2.664,2.284 4.138,3.548c0.246,0.211 0.393,0.515 0.405,0.839c0.013,0.324 -0.111,0.638 -0.34,0.868c-0.008,0.008 -0.015,0.015 -0.023,0.023c-0.33,0.33 -0.824,0.431 -1.257,0.258c-1.058,-0.425 -2.923,-1.173 -2.923,-1.173Zm-3.637,-13.817c1.204,0 2.182,0.978 2.182,2.182c-0,1.205 -0.978,2.183 -2.182,2.183c-1.205,-0 -2.183,-0.978 -2.183,-2.183c0,-1.204 0.978,-2.182 2.183,-2.182Z" style="fill:url(#_Radial15);"/><path d="M64.345,75.303l0,-9.023c0,-0.309 0.123,-0.605 0.341,-0.823c0.219,-0.219 0.515,-0.341 0.823,-0.341c0.088,-0 0.175,-0 0.259,-0c0.431,-0 0.792,0.327 0.835,0.756l0.507,5.063l1.745,-0l0.5,-4.993c0.046,-0.469 0.441,-0.826 0.913,-0.826c0.062,-0 0.124,-0 0.188,-0c0.308,-0 0.604,0.122 0.823,0.341c0.218,0.218 0.34,0.514 0.34,0.823l0,9.02l2.917,-1.167c0.437,-0.175 0.936,-0.073 1.269,0.26c0.003,0.003 0.006,0.006 0.008,0.009c0.232,0.231 0.356,0.549 0.344,0.877c-0.013,0.327 -0.161,0.634 -0.41,0.847c-1.477,1.266 -4.128,3.538 -4.128,3.538l0,0.974c1.56,0.903 2.754,2.368 3.304,4.118l0.624,-0c0.643,-0 1.164,0.521 1.164,1.163c0,0.631 0,1.407 0,2.037c0,0.643 -0.521,1.164 -1.164,1.164l-0.624,-0c-0.928,2.95 -3.686,5.092 -6.941,5.092c-3.254,-0 -6.013,-2.142 -6.94,-5.092l-0.625,-0c-0.642,-0 -1.163,-0.521 -1.163,-1.164c-0,-0.63 -0,-1.406 -0,-2.037c-0,-0.642 0.521,-1.163 1.163,-1.163l0.625,-0c0.55,-1.75 1.744,-3.215 3.303,-4.118l0,-0.972c0,0 -2.664,-2.284 -4.138,-3.548c-0.246,-0.211 -0.393,-0.515 -0.405,-0.839c-0.013,-0.324 0.111,-0.638 0.34,-0.868c0.008,-0.007 0.015,-0.015 0.023,-0.023c0.33,-0.33 0.824,-0.431 1.257,-0.258c1.058,0.425 2.923,1.173 2.923,1.173Zm3.637,13.817c-1.204,-0 -2.182,-0.978 -2.182,-2.182c0,-1.205 0.978,-2.182 2.182,-2.182c1.205,-0 2.183,0.977 2.183,2.182c-0,1.204 -0.978,2.182 -2.183,2.182Z" style="fill:url(#_Radial16);"/><path d="M77.573,104.399l0,-9.023c0,-0.309 0.123,-0.605 0.341,-0.823c0.219,-0.219 0.515,-0.341 0.823,-0.341c0.088,-0 0.175,-0 0.259,-0c0.431,-0 0.792,0.327 0.835,0.756l0.507,5.063l1.745,-0l0.5,-4.993c0.046,-0.469 0.441,-0.826 0.913,-0.826c0.062,-0 0.124,-0 0.188,-0c0.308,-0 0.604,0.122 0.823,0.341c0.218,0.218 0.34,0.514 0.34,0.823l0,9.02l2.917,-1.167c0.437,-0.175 0.936,-0.073 1.269,0.26c0.003,0.003 0.005,0.006 0.008,0.009c0.232,0.231 0.356,0.549 0.344,0.877c-0.013,0.327 -0.161,0.634 -0.41,0.847c-1.477,1.266 -4.128,3.538 -4.128,3.538l0,0.974c1.56,0.903 2.754,2.368 3.304,4.118l0.624,-0c0.643,-0 1.164,0.521 1.164,1.163c0,0.631 0,1.407 0,2.037c0,0.643 -0.521,1.164 -1.164,1.164l-0.624,-0c-0.928,2.95 -3.686,5.092 -6.941,5.092c-3.254,-0 -6.013,-2.142 -6.94,-5.092l-0.625,-0c-0.642,-0 -1.163,-0.521 -1.163,-1.164c-0,-0.63 -0,-1.406 -0,-2.037c-0,-0.642 0.521,-1.163 1.163,-1.163l0.625,-0c0.55,-1.75 1.744,-3.215 3.303,-4.118l0,-0.972c0,0 -2.664,-2.284 -4.138,-3.548c-0.246,-0.211 -0.393,-0.515 -0.405,-0.839c-0.013,-0.324 0.111,-0.638 0.34,-0.868c0.008,-0.007 0.015,-0.015 0.023,-0.023c0.33,-0.33 0.824,-0.431 1.256,-0.258c1.059,0.425 2.924,1.173 2.924,1.173Zm3.637,13.817c-1.204,-0 -2.182,-0.978 -2.182,-2.182c0,-1.205 0.978,-2.182 2.182,-2.182c1.205,-0 2.183,0.977 2.183,2.182c-0,1.204 -0.978,2.182 -2.183,2.182Z" style="fill:url(#_Radial17);"/><path d="M-2.89,22.358l0,9.023c0,0.309 -0.123,0.605 -0.341,0.823c-0.218,0.218 -0.514,0.341 -0.823,0.341c-0.087,-0 -0.174,-0 -0.258,-0c-0.432,-0 -0.793,-0.327 -0.836,-0.756l-0.506,-5.063l-1.746,-0l-0.499,4.992c-0.047,0.47 -0.442,0.827 -0.914,0.827c-0.061,-0 -0.124,-0 -0.187,-0c-0.309,-0 -0.605,-0.123 -0.823,-0.341c-0.218,-0.218 -0.341,-0.514 -0.341,-0.823l0,-9.02l-2.917,1.167c-0.437,0.175 -0.936,0.072 -1.269,-0.261c-0.002,-0.002 -0.005,-0.005 -0.008,-0.008c-0.231,-0.232 -0.356,-0.549 -0.343,-0.877c0.012,-0.327 0.161,-0.635 0.41,-0.848c1.476,-1.265 4.127,-3.537 4.127,-3.537l0,-0.974c-1.559,-0.903 -2.753,-2.368 -3.303,-4.118l-0.625,0c-0.643,0 -1.164,-0.521 -1.164,-1.164c0,-0.63 0,-1.406 0,-2.036c0,-0.643 0.521,-1.164 1.164,-1.164l0.625,-0c0.927,-2.95 3.685,-5.092 6.94,-5.092c3.255,-0 6.013,2.142 6.94,5.092l0.625,-0c0.643,-0 1.164,0.521 1.164,1.164c-0,0.63 -0,1.406 -0,2.036c-0,0.643 -0.521,1.164 -1.164,1.164l-0.625,0c-0.55,1.749 -1.743,3.214 -3.303,4.118l0,0.971c0,0 2.664,2.285 4.138,3.549c0.246,0.211 0.393,0.515 0.406,0.839c0.012,0.324 -0.111,0.638 -0.34,0.867c-0.008,0.008 -0.016,0.016 -0.024,0.024c-0.329,0.329 -0.824,0.431 -1.256,0.257c-1.059,-0.424 -2.924,-1.172 -2.924,-1.172Zm-3.637,-13.817c1.204,-0 2.182,0.978 2.182,2.182c0,1.204 -0.978,2.182 -2.182,2.182c-1.204,0 -2.182,-0.978 -2.182,-2.182c-0,-1.204 0.978,-2.182 2.182,-2.182Z" style="fill:url(#_Radial18);"/><path d="M10.818,53.191l0,9.023c0,0.309 -0.123,0.605 -0.341,0.823c-0.218,0.219 -0.514,0.341 -0.823,0.341c-0.087,0 -0.174,0 -0.258,0c-0.431,0 -0.793,-0.327 -0.836,-0.756l-0.506,-5.063l-1.746,0l-0.499,4.993c-0.047,0.469 -0.442,0.826 -0.913,0.826c-0.062,0 -0.125,0 -0.188,0c-0.309,0 -0.605,-0.122 -0.823,-0.341c-0.218,-0.218 -0.341,-0.514 -0.341,-0.823l0,-9.02l-2.916,1.167c-0.438,0.175 -0.937,0.073 -1.269,-0.26c-0.003,-0.003 -0.006,-0.006 -0.009,-0.009c-0.231,-0.231 -0.356,-0.549 -0.343,-0.876c0.012,-0.328 0.161,-0.635 0.41,-0.848c1.476,-1.266 4.127,-3.538 4.127,-3.538l0,-0.974c-1.559,-0.903 -2.753,-2.368 -3.303,-4.117l-0.625,-0c-0.643,-0 -1.164,-0.522 -1.164,-1.164c0,-0.63 0,-1.407 0,-2.037c0,-0.643 0.521,-1.164 1.164,-1.164l0.625,0c0.927,-2.949 3.685,-5.092 6.94,-5.092c3.255,0 6.013,2.143 6.941,5.092l0.624,0c0.643,0 1.164,0.521 1.164,1.164c-0,0.63 -0,1.407 -0,2.037c-0,0.642 -0.521,1.164 -1.164,1.164l-0.624,-0c-0.55,1.749 -1.744,3.214 -3.304,4.117l0,0.972c0,-0 2.664,2.284 4.138,3.548c0.246,0.211 0.393,0.515 0.406,0.839c0.012,0.324 -0.111,0.638 -0.34,0.868c-0.008,0.008 -0.016,0.015 -0.024,0.023c-0.329,0.33 -0.823,0.431 -1.256,0.258c-1.059,-0.425 -2.924,-1.173 -2.924,-1.173Zm-3.637,-13.817c1.204,0 2.182,0.978 2.182,2.182c0,1.205 -0.978,2.183 -2.182,2.183c-1.204,-0 -2.182,-0.978 -2.182,-2.183c-0,-1.204 0.978,-2.182 2.182,-2.182Z" style="fill:url(#_Radial19);"/><path d="M89.182,75.303l-0,-9.023c-0,-0.309 0.123,-0.605 0.341,-0.823c0.218,-0.219 0.514,-0.341 0.823,-0.341c0.087,-0 0.174,-0 0.258,-0c0.431,-0 0.793,0.327 0.836,0.756l0.506,5.063l1.746,-0l0.499,-4.993c0.047,-0.469 0.442,-0.826 0.913,-0.826c0.062,-0 0.125,-0 0.188,-0c0.309,-0 0.605,0.122 0.823,0.341c0.218,0.218 0.341,0.514 0.341,0.823l-0,9.02l2.916,-1.167c0.438,-0.175 0.937,-0.073 1.269,0.26c0.003,0.003 0.006,0.006 0.009,0.009c0.231,0.231 0.356,0.549 0.343,0.877c-0.012,0.327 -0.161,0.634 -0.41,0.847c-1.476,1.266 -4.127,3.538 -4.127,3.538l-0,0.974c1.559,0.903 2.753,2.368 3.303,4.118l0.625,-0c0.643,-0 1.164,0.521 1.164,1.163c-0,0.631 -0,1.407 -0,2.037c-0,0.643 -0.521,1.164 -1.164,1.164l-0.625,-0c-0.927,2.95 -3.685,5.092 -6.94,5.092c-3.255,-0 -6.013,-2.142 -6.941,-5.092l-0.624,-0c-0.643,-0 -1.164,-0.521 -1.164,-1.164c0,-0.63 0,-1.406 0,-2.037c0,-0.642 0.521,-1.163 1.164,-1.163l0.624,-0c0.55,-1.75 1.744,-3.215 3.304,-4.118l-0,-0.972c-0,0 -2.664,-2.284 -4.138,-3.548c-0.246,-0.211 -0.393,-0.515 -0.406,-0.839c-0.012,-0.324 0.111,-0.638 0.34,-0.868c0.008,-0.007 0.016,-0.015 0.024,-0.023c0.329,-0.33 0.823,-0.431 1.256,-0.258c1.059,0.425 2.924,1.173 2.924,1.173Zm3.637,13.817c-1.204,-0 -2.182,-0.978 -2.182,-2.182c-0,-1.205 0.978,-2.182 2.182,-2.182c1.204,-0 2.182,0.977 2.182,2.182c0,1.204 -0.978,2.182 -2.182,2.182Z" style="fill:url(#_Radial20);"/><path d="M102.41,104.399l-0,-9.023c-0,-0.309 0.123,-0.605 0.341,-0.823c0.218,-0.219 0.514,-0.341 0.823,-0.341c0.087,-0 0.174,-0 0.258,-0c0.431,-0 0.793,0.327 0.836,0.756l0.506,5.063l1.746,-0l0.499,-4.993c0.047,-0.469 0.442,-0.826 0.913,-0.826c0.062,-0 0.125,-0 0.188,-0c0.309,-0 0.605,0.122 0.823,0.341c0.218,0.218 0.341,0.514 0.341,0.823l-0,9.02l2.916,-1.167c0.437,-0.175 0.937,-0.073 1.269,0.26c0.003,0.003 0.006,0.006 0.009,0.009c0.231,0.231 0.356,0.549 0.343,0.877c-0.012,0.327 -0.161,0.634 -0.41,0.847c-1.476,1.266 -4.127,3.538 -4.127,3.538l-0,0.974c1.559,0.903 2.753,2.368 3.303,4.118l0.625,-0c0.643,-0 1.164,0.521 1.164,1.163c-0,0.631 -0,1.407 -0,2.037c-0,0.643 -0.521,1.164 -1.164,1.164l-0.625,-0c-0.927,2.95 -3.685,5.092 -6.94,5.092c-3.255,-0 -6.013,-2.142 -6.941,-5.092l-0.624,-0c-0.643,-0 -1.164,-0.521 -1.164,-1.164c0,-0.63 0,-1.406 0,-2.037c0,-0.642 0.521,-1.163 1.164,-1.163l0.624,-0c0.55,-1.75 1.744,-3.215 3.304,-4.118l-0,-0.972c-0,0 -2.664,-2.284 -4.138,-3.548c-0.246,-0.211 -0.393,-0.515 -0.406,-0.839c-0.012,-0.324 0.111,-0.638 0.34,-0.868c0.008,-0.007 0.016,-0.015 0.024,-0.023c0.329,-0.33 0.823,-0.431 1.256,-0.258c1.059,0.425 2.924,1.173 2.924,1.173Zm3.637,13.817c-1.204,-0 -2.182,-0.978 -2.182,-2.182c-0,-1.205 0.978,-2.182 2.182,-2.182c1.204,-0 2.182,0.977 2.182,2.182c0,1.204 -0.978,2.182 -2.182,2.182Z" style="fill:url(#_Radial21);"/></g><defs><radialGradient id="_Radial2" cx="0" cy="0" r="1" gradientUnits="userSpaceOnUse" gradientTransform="matrix(-113.678,-125,125,-113.678,106.047,125.878)"><stop offset="0" style="stop-color:#556672;stop-opacity:0.517647"/><stop offset="0.24" style="stop-color:#556672;stop-opacity:0.160784"/><stop offset="0.5" style="stop-color:#556672;stop-opacity:0.0470588"/><stop offset="1" style="stop-color:#556672;stop-opacity:0.717647"/></radialGradient><radialGradient id="_Radial3" cx="0" cy="0" r="1" gradientUnits="userSpaceOnUse" gradientTransform="matrix(-113.678,-125,125,-113.678,106.047,125.878)"><stop offset="0" style="stop-color:#556672;stop-opacity:0.517647"/><stop offset="0.24" style="stop-color:#556672;stop-opacity:0.160784"/><stop offset="0.5" style="stop-color:#556672;stop-opacity:0.0470588"/><stop offset="1" style="stop-color:#556672;stop-opacity:0.717647"/></radialGradient><radialGradient id="_Radial4" cx="0" cy="0" r="1" gradientUnits="userSpaceOnUse" gradientTransform="matrix(-113.678,-125,125,-113.678,106.047,125.878)"><stop offset="0" style="stop-color:#556672;stop-opacity:0.517647"/><stop offset="0.24" style="stop-color:#556672;stop-opacity:0.160784"/><stop offset="0.5" style="stop-color:#556672;stop-opacity:0.0470588"/><stop offset="1" style="stop-color:#556672;stop-opacity:0.717647"/></radialGradient><radialGradient id="_Radial5" cx="0" cy="0" r="1" gradientUnits="userSpaceOnUse" gradientTransform="matrix(-113.678,-125,125,-113.678,106.047,125.878)"><stop offset="0" style="stop-color:#556672;stop-opacity:0.517647"/><stop offset="0.24" style="stop-color:#556672;stop-opacity:0.160784"/><stop offset="0.5" style="stop-color:#556672;stop-opacity:0.0470588"/><stop offset="1" style="stop-color:#556672;stop-opacity:0.717647"/></radialGradient><radialGradient id="_Radial6" cx="0" cy="0" r="1" gradientUnits="userSpaceOnUse" gradientTransform="matrix(-113.678,-125,125,-113.678,106.047,125.878)"><stop offset="0" style="stop-color:#556672;stop-opacity:0.517647"/><stop offset="0.24" style="stop-color:#556672;stop-opacity:0.160784"/><stop offset="0.5" style="stop-color:#556672;stop-opacity:0.0470588"/><stop offset="1" style="stop-color:#556672;stop-opacity:0.717647"/></radialGradient><radialGradient id="_Radial7" cx="0" cy="0" r="1" gradientUnits="userSpaceOnUse" gradientTransform="matrix(-113.678,-125,125,-113.678,106.047,125.878)"><stop offset="0" style="stop-color:#556672;stop-opacity:0.517647"/><stop offset="0.24" style="stop-color:#556672;stop-opacity:0.160784"/><stop offset="0.5" style="stop-color:#556672;stop-opacity:0.0470588"/><stop offset="1" style="stop-color:#556672;stop-opacity:0.717647"/></radialGradient><radialGradient id="_Radial8" cx="0" cy="0" r="1" gradientUnits="userSpaceOnUse" gradientTransform="matrix(-113.678,-125,125,-113.678,106.047,125.878)"><stop offset="0" style="stop-color:#556672;stop-opacity:0.517647"/><stop offset="0.24" style="stop-color:#556672;stop-opacity:0.160784"/><stop offset="0.5" style="stop-color:#556672;stop-opacity:0.0470588"/><stop offset="1" style="stop-color:#556672;stop-opacity:0.717647"/></radialGradient><radialGradient id="_Radial9" cx="0" cy="0" r="1" gradientUnits="userSpaceOnUse" gradientTransform="matrix(-113.678,-125,125,-113.678,106.047,125.878)"><stop offset="0" style="stop-color:#556672;stop-opacity:0.517647"/><stop offset="0.24" style="stop-color:#556672;stop-opacity:0.160784"/><stop offset="0.5" style="stop-color:#556672;stop-opacity:0.0470588"/><stop offset="1" style="stop-color:#556672;stop-opacity:0.717647"/></radialGradient><radialGradient id="_Radial10" cx="0" cy="0" r="1" gradientUnits="userSpaceOnUse" gradientTransform="matrix(-113.678,-125,125,-113.678,106.047,125.878)"><stop offset="0" style="stop-color:#556672;stop-opacity:0.517647"/><stop offset="0.24" style="stop-color:#556672;stop-opacity:0.160784"/><stop offset="0.5" style="stop-color:#556672;stop-opacity:0.0470588"/><stop offset="1" style="stop-color:#556672;stop-opacity:0.717647"/></radialGradient><radialGradient id="_Radial11" cx="0" cy="0" r="1" gradientUnits="userSpaceOnUse" gradientTransform="matrix(-113.678,-125,125,-113.678,106.047,125.878)"><stop offset="0" style="stop-color:#556672;stop-opacity:0.517647"/><stop offset="0.24" style="stop-color:#556672;stop-opacity:0.160784"/><stop offset="0.5" style="stop-color:#556672;stop-opacity:0.0470588"/><stop offset="1" style="stop-color:#556672;stop-opacity:0.717647"/></radialGradient><radialGradient id="_Radial12" cx="0" cy="0" r="1" gradientUnits="userSpaceOnUse" gradientTransform="matrix(-113.678,-125,125,-113.678,106.047,125.878)"><stop offset="0" style="stop-color:#556672;stop-opacity:0.517647"/><stop offset="0.24" style="stop-color:#556672;stop-opacity:0.160784"/><stop offset="0.5" style="stop-color:#556672;stop-opacity:0.0470588"/><stop offset="1" style="stop-color:#556672;stop-opacity:0.717647"/></radialGradient><radialGradient id="_Radial13" cx="0" cy="0" r="1" gradientUnits="userSpaceOnUse" gradientTransform="matrix(-113.678,-125,125,-113.678,106.047,125.878)"><stop offset="0" style="stop-color:#556672;stop-opacity:0.517647"/><stop offset="0.24" style="stop-color:#556672;stop-opacity:0.160784"/><stop offset="0.5" style="stop-color:#556672;stop-opacity:0.0470588"/><stop offset="1" style="stop-color:#556672;stop-opacity:0.717647"/></radialGradient><radialGradient id="_Radial14" cx="0" cy="0" r="1" gradientUnits="userSpaceOnUse" gradientTransform="matrix(-113.678,-125,125,-113.678,106.047,125.878)"><stop offset="0" style="stop-color:#556672;stop-opacity:0.517647"/><stop offset="0.24" style="stop-color:#556672;stop-opacity:0.160784"/><stop offset="0.5" style="stop-color:#556672;stop-opacity:0.0470588"/><stop offset="1" style="stop-color:#556672;stop-opacity:0.717647"/></radialGradient><radialGradient id="_Radial15" cx="0" cy="0" r="1" gradientUnits="userSpaceOnUse" gradientTransform="matrix(-113.678,-125,125,-113.678,106.047,125.878)"><stop offset="0" style="stop-color:#556672;stop-opacity:0.517647"/><stop offset="0.24" style="stop-color:#556672;stop-opacity:0.160784"/><stop offset="0.5" style="stop-color:#556672;stop-opacity:0.0470588"/><stop offset="1" style="stop-color:#556672;stop-opacity:0.717647"/></radialGradient><radialGradient id="_Radial16" cx="0" cy="0" r="1" gradientUnits="userSpaceOnUse" gradientTransform="matrix(-113.678,-125,125,-113.678,106.047,125.878)"><stop offset="0" style="stop-color:#556672;stop-opacity:0.517647"/><stop offset="0.24" style="stop-color:#556672;stop-opacity:0.160784"/><stop offset="0.5" style="stop-color:#556672;stop-opacity:0.0470588"/><stop offset="1" style="stop-color:#556672;stop-opacity:0.717647"/></radialGradient><radialGradient id="_Radial17" cx="0" cy="0" r="1" gradientUnits="userSpaceOnUse" gradientTransform="matrix(-113.678,-125,125,-113.678,106.047,125.878)"><stop offset="0" style="stop-color:#556672;stop-opacity:0.517647"/><stop offset="0.24" style="stop-color:#556672;stop-opacity:0.160784"/><stop offset="0.5" style="stop-color:#556672;stop-opacity:0.0470588"/><stop offset="1" style="stop-color:#556672;stop-opacity:0.717647"/></radialGradient><radialGradient id="_Radial18" cx="0" cy="0" r="1" gradientUnits="userSpaceOnUse" gradientTransform="matrix(-113.678,-125,125,-113.678,106.047,125.878)"><stop offset="0" style="stop-color:#556672;stop-opacity:0.517647"/><stop offset="0.24" style="stop-color:#556672;stop-opacity:0.160784"/><stop offset="0.5" style="stop-color:#556672;stop-opacity:0.0470588"/><stop offset="1" style="stop-color:#556672;stop-opacity:0.717647"/></radialGradient><radialGradient id="_Radial19" cx="0" cy="0" r="1" gradientUnits="userSpaceOnUse" gradientTransform="matrix(-113.678,-125,125,-113.678,106.047,125.878)"><stop offset="0" style="stop-color:#556672;stop-opacity:0.517647"/><stop offset="0.24" style="stop-color:#556672;stop-opacity:0.160784"/><stop offset="0.5" style="stop-color:#556672;stop-opacity:0.0470588"/><stop offset="1" style="stop-color:#556672;stop-opacity:0.717647"/></radialGradient><radialGradient id="_Radial20" cx="0" cy="0" r="1" gradientUnits="userSpaceOnUse" gradientTransform="matrix(-113.678,-125,125,-113.678,106.047,125.878)"><stop offset="0" style="stop-color:#556672;stop-opacity:0.517647"/><stop offset="0.24" style="stop-color:#556672;stop-opacity:0.160784"/><stop offset="0.5" style="stop-color:#556672;stop-opacity:0.0470588"/><stop offset="1" style="stop-color:#556672;stop-opacity:0.717647"/></radialGradient><radialGradient id="_Radial21" cx="0" cy="0" r="1" gradientUnits="userSpaceOnUse" gradientTransform="matrix(-113.678,-125,125,-113.678,106.047,125.878)"><stop offset="0" style="stop-color:#556672;stop-opacity:0.517647"/><stop offset="0.24" style="stop-color:#556672;stop-opacity:0.160784"/><stop offset="0.5" style="stop-color:#556672;stop-opacity:0.0470588"/><stop offset="1" style="stop-color:#556672;stop-opacity:0.717647"/></radialGradient></defs></svg>