<?xml version="1.0" encoding="UTF-8" standalone="no"?>
<!DOCTYPE svg PUBLIC "-//W3C//DTD SVG 1.1//EN" "http://www.w3.org/Graphics/SVG/1.1/DTD/svg11.dtd">
<svg width="100%" height="100%" viewBox="0 0 100 126" version="1.1" xmlns="http://www.w3.org/2000/svg" xmlns:xlink="http://www.w3.org/1999/xlink" xml:space="preserve" xmlns:serif="http://www.serif.com/" style="fill-rule:evenodd;clip-rule:evenodd;stroke-linejoin:round;stroke-miterlimit:2;">
    <g transform="matrix(1,0,0,1,-13093,-316)">
        <g id="Eight-of-Seaweed" serif:id="Eight of Seaweed" transform="matrix(1,0,0,1,0,316.878)">
            <rect x="13093" y="0" width="100" height="125" style="fill:none;"/>
            <g transform="matrix(0.231477,0,0,0.231477,12526.4,-1265.81)">
                <path d="M2552.66,5567.78C2552.66,5569.59 2552.35,5571.26 2551.72,5572.77C2551.1,5574.28 2550.16,5575.6 2548.91,5576.73C2547.66,5577.86 2546.1,5578.74 2544.22,5579.36C2542.35,5579.99 2540.18,5580.3 2537.72,5580.3C2534.9,5580.3 2532.55,5579.9 2530.68,5579.12C2528.8,5578.33 2527.29,5577.36 2526.14,5576.19C2524.99,5575.02 2524.17,5573.74 2523.69,5572.35C2523.21,5570.95 2522.96,5569.67 2522.96,5568.5C2522.96,5567.3 2523.12,5566.19 2523.45,5565.18C2523.77,5564.17 2524.21,5563.25 2524.78,5562.43C2525.34,5561.6 2525.98,5560.84 2526.68,5560.16C2527.39,5559.47 2528.14,5558.83 2528.95,5558.22C2527.22,5556.81 2525.94,5555.42 2525.11,5554.05C2524.28,5552.68 2523.87,5550.93 2523.87,5548.79C2523.87,5547.18 2524.2,5545.62 2524.87,5544.13C2525.53,5542.64 2526.47,5541.34 2527.68,5540.23C2528.89,5539.12 2530.35,5538.23 2532.07,5537.57C2533.78,5536.9 2535.68,5536.57 2537.78,5536.57C2540.24,5536.57 2542.35,5536.92 2544.1,5537.63C2545.86,5538.33 2547.3,5539.23 2548.43,5540.32C2549.56,5541.41 2550.37,5542.63 2550.88,5543.98C2551.38,5545.33 2551.63,5546.67 2551.63,5548C2551.63,5549.94 2551.12,5551.74 2550.09,5553.41C2549.06,5555.09 2547.78,5556.41 2546.25,5557.38C2548.55,5558.87 2550.19,5560.43 2551.18,5562.06C2552.17,5563.7 2552.66,5565.6 2552.66,5567.78ZM2531.73,5568.14C2531.73,5568.62 2531.85,5569.16 2532.07,5569.74C2532.29,5570.33 2532.64,5570.86 2533.12,5571.35C2533.61,5571.83 2534.23,5572.23 2535,5572.56C2535.77,5572.88 2536.69,5573.04 2537.78,5573.04C2539.88,5573.04 2541.41,5572.54 2542.38,5571.53C2543.35,5570.52 2543.83,5569.39 2543.83,5568.14C2543.83,5567.21 2543.62,5566.39 2543.2,5565.66C2542.77,5564.94 2542.2,5564.3 2541.47,5563.76C2540.75,5563.21 2539.89,5562.73 2538.9,5562.31C2537.91,5561.88 2536.86,5561.49 2535.73,5561.13C2534.6,5561.97 2533.65,5562.96 2532.88,5564.09C2532.12,5565.22 2531.73,5566.57 2531.73,5568.14ZM2542.92,5548.24C2542.92,5547.8 2542.83,5547.33 2542.65,5546.82C2542.47,5546.32 2542.17,5545.84 2541.74,5545.4C2541.32,5544.96 2540.79,5544.58 2540.14,5544.28C2539.5,5543.98 2538.71,5543.83 2537.78,5543.83C2536.89,5543.83 2536.13,5543.97 2535.48,5544.25C2534.84,5544.53 2534.3,5544.91 2533.88,5545.37C2533.46,5545.83 2533.14,5546.33 2532.94,5546.85C2532.74,5547.38 2532.64,5547.88 2532.64,5548.36C2532.64,5549.65 2533.12,5550.86 2534.06,5551.99C2535.01,5553.12 2536.63,5554.09 2538.93,5554.9C2540.22,5554.09 2541.21,5553.16 2541.89,5552.11C2542.58,5551.07 2542.92,5549.78 2542.92,5548.24Z" style="fill:rgb(3,10,29);fill-rule:nonzero;"/>
            </g>
            <g transform="matrix(-0.231477,2.83478e-17,-2.83478e-17,-0.231477,13761.6,1390.81)">
                <path d="M2552.66,5567.78C2552.66,5569.59 2552.35,5571.26 2551.72,5572.77C2551.1,5574.28 2550.16,5575.6 2548.91,5576.73C2547.66,5577.86 2546.1,5578.74 2544.22,5579.36C2542.35,5579.99 2540.18,5580.3 2537.72,5580.3C2534.9,5580.3 2532.55,5579.9 2530.68,5579.12C2528.8,5578.33 2527.29,5577.36 2526.14,5576.19C2524.99,5575.02 2524.17,5573.74 2523.69,5572.35C2523.21,5570.95 2522.96,5569.67 2522.96,5568.5C2522.96,5567.3 2523.12,5566.19 2523.45,5565.18C2523.77,5564.17 2524.21,5563.25 2524.78,5562.43C2525.34,5561.6 2525.98,5560.84 2526.68,5560.16C2527.39,5559.47 2528.14,5558.83 2528.95,5558.22C2527.22,5556.81 2525.94,5555.42 2525.11,5554.05C2524.28,5552.68 2523.87,5550.93 2523.87,5548.79C2523.87,5547.18 2524.2,5545.62 2524.87,5544.13C2525.53,5542.64 2526.47,5541.34 2527.68,5540.23C2528.89,5539.12 2530.35,5538.23 2532.07,5537.57C2533.78,5536.9 2535.68,5536.57 2537.78,5536.57C2540.24,5536.57 2542.35,5536.92 2544.1,5537.63C2545.86,5538.33 2547.3,5539.23 2548.43,5540.32C2549.56,5541.41 2550.37,5542.63 2550.88,5543.98C2551.38,5545.33 2551.63,5546.67 2551.63,5548C2551.63,5549.94 2551.12,5551.74 2550.09,5553.41C2549.06,5555.09 2547.78,5556.41 2546.25,5557.38C2548.55,5558.87 2550.19,5560.43 2551.18,5562.06C2552.17,5563.7 2552.66,5565.6 2552.66,5567.78ZM2531.73,5568.14C2531.73,5568.62 2531.85,5569.16 2532.07,5569.74C2532.29,5570.33 2532.64,5570.86 2533.12,5571.35C2533.61,5571.83 2534.23,5572.23 2535,5572.56C2535.77,5572.88 2536.69,5573.04 2537.78,5573.04C2539.88,5573.04 2541.41,5572.54 2542.38,5571.53C2543.35,5570.52 2543.83,5569.39 2543.83,5568.14C2543.83,5567.21 2543.62,5566.39 2543.2,5565.66C2542.77,5564.94 2542.2,5564.3 2541.47,5563.76C2540.75,5563.21 2539.89,5562.73 2538.9,5562.31C2537.91,5561.88 2536.86,5561.49 2535.73,5561.13C2534.6,5561.97 2533.65,5562.96 2532.88,5564.09C2532.12,5565.22 2531.73,5566.57 2531.73,5568.14ZM2542.92,5548.24C2542.92,5547.8 2542.83,5547.33 2542.65,5546.82C2542.47,5546.32 2542.17,5545.84 2541.74,5545.4C2541.32,5544.96 2540.79,5544.58 2540.14,5544.28C2539.5,5543.98 2538.71,5543.83 2537.78,5543.83C2536.89,5543.83 2536.13,5543.97 2535.48,5544.25C2534.84,5544.53 2534.3,5544.91 2533.88,5545.37C2533.46,5545.83 2533.14,5546.33 2532.94,5546.85C2532.74,5547.38 2532.64,5547.88 2532.64,5548.36C2532.64,5549.65 2533.12,5550.86 2534.06,5551.99C2535.01,5553.12 2536.63,5554.09 2538.93,5554.9C2540.22,5554.09 2541.21,5553.16 2541.89,5552.11C2542.58,5551.07 2542.92,5549.78 2542.92,5548.24Z" style="fill:rgb(3,10,29);fill-rule:nonzero;"/>
            </g>
            <g transform="matrix(1,0,0,1,8376.7,-4347.5)">
                <path d="M4769.05,4400.45L4769,4400.55C4768.76,4401.03 4768.53,4401.52 4768.53,4402C4768.53,4403 4769.36,4404 4769.53,4405C4769.69,4405.99 4769.53,4408 4769.53,4408L4773.07,4408C4773.11,4407.09 4773.13,4405.77 4773.03,4405.07C4772.96,4404.6 4772.73,4404.15 4772.52,4403.7C4772.25,4403.13 4772.03,4402.57 4772.03,4402C4772.03,4401.43 4772.29,4400.85 4772.58,4400.28C4772.79,4399.85 4773.03,4399.43 4773.03,4399C4773.03,4398.07 4772.08,4396.22 4772.08,4396.22C4771.95,4395.98 4772.05,4395.68 4772.3,4395.55C4772.55,4395.43 4772.85,4395.53 4772.97,4395.78C4772.97,4395.78 4774.03,4397.93 4774.03,4399C4774.03,4399.57 4773.76,4400.15 4773.47,4400.72C4773.26,4401.15 4773.03,4401.57 4773.03,4402C4773.03,4402.43 4773.22,4402.85 4773.42,4403.27C4773.67,4403.81 4773.94,4404.36 4774.02,4404.93C4774.12,4405.66 4774.1,4407.05 4774.07,4408L4776.9,4408C4776.9,4408 4777.12,4405.98 4776.9,4405C4776.67,4404 4775.59,4403 4775.53,4402C4775.46,4401 4776.53,4400 4776.53,4399C4776.53,4398 4776.04,4396.92 4775.53,4396C4774.69,4394.5 4771.53,4390 4771.53,4390C4771.53,4390 4768.86,4394.5 4768.53,4396C4768.3,4397.03 4769.53,4398 4769.53,4399C4769.53,4399.48 4769.29,4399.97 4769.05,4400.45Z" style="fill:rgb(3,10,29);"/>
            </g>
            <g transform="matrix(1,0,0,1,8363.7,-4347.5)">
                <path d="M4769.05,4400.45L4769,4400.55C4768.76,4401.03 4768.53,4401.52 4768.53,4402C4768.53,4403 4769.36,4404 4769.53,4405C4769.69,4405.99 4769.53,4408 4769.53,4408L4773.07,4408C4773.11,4407.09 4773.13,4405.77 4773.03,4405.07C4772.96,4404.6 4772.73,4404.15 4772.52,4403.7C4772.25,4403.13 4772.03,4402.57 4772.03,4402C4772.03,4401.43 4772.29,4400.85 4772.58,4400.28C4772.79,4399.85 4773.03,4399.43 4773.03,4399C4773.03,4398.07 4772.08,4396.22 4772.08,4396.22C4771.95,4395.98 4772.05,4395.68 4772.3,4395.55C4772.55,4395.43 4772.85,4395.53 4772.97,4395.78C4772.97,4395.78 4774.03,4397.93 4774.03,4399C4774.03,4399.57 4773.76,4400.15 4773.47,4400.72C4773.26,4401.15 4773.03,4401.57 4773.03,4402C4773.03,4402.43 4773.22,4402.85 4773.42,4403.27C4773.67,4403.81 4773.94,4404.36 4774.02,4404.93C4774.12,4405.66 4774.1,4407.05 4774.07,4408L4776.9,4408C4776.9,4408 4777.12,4405.98 4776.9,4405C4776.67,4404 4775.59,4403 4775.53,4402C4775.46,4401 4776.53,4400 4776.53,4399C4776.53,4398 4776.04,4396.92 4775.53,4396C4774.69,4394.5 4771.53,4390 4771.53,4390C4771.53,4390 4768.86,4394.5 4768.53,4396C4768.3,4397.03 4769.53,4398 4769.53,4399C4769.53,4399.48 4769.29,4399.97 4769.05,4400.45Z" style="fill:rgb(3,10,29);"/>
            </g>
            <g transform="matrix(1,0,0,1,8350.8,-4347.5)">
                <path d="M4769.05,4400.45L4769,4400.55C4768.76,4401.03 4768.53,4401.52 4768.53,4402C4768.53,4403 4769.36,4404 4769.53,4405C4769.69,4405.99 4769.53,4408 4769.53,4408L4773.07,4408C4773.11,4407.09 4773.13,4405.77 4773.03,4405.07C4772.96,4404.6 4772.73,4404.15 4772.52,4403.7C4772.25,4403.13 4772.03,4402.57 4772.03,4402C4772.03,4401.43 4772.29,4400.85 4772.58,4400.28C4772.79,4399.85 4773.03,4399.43 4773.03,4399C4773.03,4398.07 4772.08,4396.22 4772.08,4396.22C4771.95,4395.98 4772.05,4395.68 4772.3,4395.55C4772.55,4395.43 4772.85,4395.53 4772.97,4395.78C4772.97,4395.78 4774.03,4397.93 4774.03,4399C4774.03,4399.57 4773.76,4400.15 4773.47,4400.72C4773.26,4401.15 4773.03,4401.57 4773.03,4402C4773.03,4402.43 4773.22,4402.85 4773.42,4403.27C4773.67,4403.81 4773.94,4404.36 4774.02,4404.93C4774.12,4405.66 4774.1,4407.05 4774.07,4408L4776.9,4408C4776.9,4408 4777.12,4405.98 4776.9,4405C4776.67,4404 4775.59,4403 4775.53,4402C4775.46,4401 4776.53,4400 4776.53,4399C4776.53,4398 4776.04,4396.92 4775.53,4396C4774.69,4394.5 4771.53,4390 4771.53,4390C4771.53,4390 4768.86,4394.5 4768.53,4396C4768.3,4397.03 4769.53,4398 4769.53,4399C4769.53,4399.48 4769.29,4399.97 4769.05,4400.45Z" style="fill:rgb(3,10,29);"/>
            </g>
            <g transform="matrix(1,0,0,1,8389.7,-4347.5)">
                <path d="M4769.05,4400.45L4769,4400.55C4768.76,4401.03 4768.53,4401.52 4768.53,4402C4768.53,4403 4769.36,4404 4769.53,4405C4769.69,4405.99 4769.53,4408 4769.53,4408L4773.07,4408C4773.11,4407.09 4773.13,4405.77 4773.03,4405.07C4772.96,4404.6 4772.73,4404.15 4772.52,4403.7C4772.25,4403.13 4772.03,4402.57 4772.03,4402C4772.03,4401.43 4772.29,4400.85 4772.58,4400.28C4772.79,4399.85 4773.03,4399.43 4773.03,4399C4773.03,4398.07 4772.08,4396.22 4772.08,4396.22C4771.95,4395.98 4772.05,4395.68 4772.3,4395.55C4772.55,4395.43 4772.85,4395.53 4772.97,4395.78C4772.97,4395.78 4774.03,4397.93 4774.03,4399C4774.03,4399.57 4773.76,4400.15 4773.47,4400.72C4773.26,4401.15 4773.03,4401.57 4773.03,4402C4773.03,4402.43 4773.22,4402.85 4773.42,4403.27C4773.67,4403.81 4773.94,4404.36 4774.02,4404.93C4774.12,4405.66 4774.1,4407.05 4774.07,4408L4776.9,4408C4776.9,4408 4777.12,4405.98 4776.9,4405C4776.67,4404 4775.59,4403 4775.53,4402C4775.46,4401 4776.53,4400 4776.53,4399C4776.53,4398 4776.04,4396.92 4775.53,4396C4774.69,4394.5 4771.53,4390 4771.53,4390C4771.53,4390 4768.86,4394.5 4768.53,4396C4768.3,4397.03 4769.53,4398 4769.53,4399C4769.53,4399.48 4769.29,4399.97 4769.05,4400.45Z" style="fill:rgb(3,10,29);"/>
            </g>
            <g transform="matrix(-1,-1.22465e-16,1.22465e-16,-1,17922.2,4472.5)">
                <path d="M4769.05,4400.45L4769,4400.55C4768.76,4401.03 4768.53,4401.52 4768.53,4402C4768.53,4403 4769.36,4404 4769.53,4405C4769.69,4405.99 4769.53,4408 4769.53,4408L4773.07,4408C4773.11,4407.09 4773.13,4405.77 4773.03,4405.07C4772.96,4404.6 4772.73,4404.15 4772.52,4403.7C4772.25,4403.13 4772.03,4402.57 4772.03,4402C4772.03,4401.43 4772.29,4400.85 4772.58,4400.28C4772.79,4399.85 4773.03,4399.43 4773.03,4399C4773.03,4398.07 4772.08,4396.22 4772.08,4396.22C4771.95,4395.98 4772.05,4395.68 4772.3,4395.55C4772.55,4395.43 4772.85,4395.53 4772.97,4395.78C4772.97,4395.78 4774.03,4397.93 4774.03,4399C4774.03,4399.57 4773.76,4400.15 4773.47,4400.72C4773.26,4401.15 4773.03,4401.57 4773.03,4402C4773.03,4402.43 4773.22,4402.85 4773.42,4403.27C4773.67,4403.81 4773.94,4404.36 4774.02,4404.93C4774.12,4405.66 4774.1,4407.05 4774.07,4408L4776.9,4408C4776.9,4408 4777.12,4405.98 4776.9,4405C4776.67,4404 4775.59,4403 4775.53,4402C4775.46,4401 4776.53,4400 4776.53,4399C4776.53,4398 4776.04,4396.92 4775.53,4396C4774.69,4394.5 4771.53,4390 4771.53,4390C4771.53,4390 4768.86,4394.5 4768.53,4396C4768.3,4397.03 4769.53,4398 4769.53,4399C4769.53,4399.48 4769.29,4399.97 4769.05,4400.45Z" style="fill:rgb(3,10,29);"/>
            </g>
            <g transform="matrix(-1,-1.22465e-16,1.22465e-16,-1,17909.2,4472.5)">
                <path d="M4769.05,4400.45L4769,4400.55C4768.76,4401.03 4768.53,4401.52 4768.53,4402C4768.53,4403 4769.36,4404 4769.53,4405C4769.69,4405.99 4769.53,4408 4769.53,4408L4773.07,4408C4773.11,4407.09 4773.13,4405.77 4773.03,4405.07C4772.96,4404.6 4772.73,4404.15 4772.52,4403.7C4772.25,4403.13 4772.03,4402.57 4772.03,4402C4772.03,4401.43 4772.29,4400.85 4772.58,4400.28C4772.79,4399.85 4773.03,4399.43 4773.03,4399C4773.03,4398.07 4772.08,4396.22 4772.08,4396.22C4771.95,4395.98 4772.05,4395.68 4772.3,4395.55C4772.55,4395.43 4772.85,4395.53 4772.97,4395.78C4772.97,4395.78 4774.03,4397.93 4774.03,4399C4774.03,4399.57 4773.76,4400.15 4773.47,4400.72C4773.26,4401.15 4773.03,4401.57 4773.03,4402C4773.03,4402.43 4773.22,4402.85 4773.42,4403.27C4773.67,4403.81 4773.94,4404.36 4774.02,4404.93C4774.12,4405.66 4774.1,4407.05 4774.07,4408L4776.9,4408C4776.9,4408 4777.12,4405.98 4776.9,4405C4776.67,4404 4775.59,4403 4775.53,4402C4775.46,4401 4776.53,4400 4776.53,4399C4776.53,4398 4776.04,4396.92 4775.53,4396C4774.69,4394.5 4771.53,4390 4771.53,4390C4771.53,4390 4768.86,4394.5 4768.53,4396C4768.3,4397.03 4769.53,4398 4769.53,4399C4769.53,4399.48 4769.29,4399.97 4769.05,4400.45Z" style="fill:rgb(3,10,29);"/>
            </g>
            <g transform="matrix(-1,-1.22465e-16,1.22465e-16,-1,17896.3,4472.5)">
                <path d="M4769.05,4400.45L4769,4400.55C4768.76,4401.03 4768.53,4401.52 4768.53,4402C4768.53,4403 4769.36,4404 4769.53,4405C4769.69,4405.99 4769.53,4408 4769.53,4408L4773.07,4408C4773.11,4407.09 4773.13,4405.77 4773.03,4405.07C4772.96,4404.6 4772.73,4404.15 4772.52,4403.7C4772.25,4403.13 4772.03,4402.57 4772.03,4402C4772.03,4401.43 4772.29,4400.85 4772.58,4400.28C4772.79,4399.85 4773.03,4399.43 4773.03,4399C4773.03,4398.07 4772.08,4396.22 4772.08,4396.22C4771.95,4395.98 4772.05,4395.68 4772.3,4395.55C4772.55,4395.43 4772.85,4395.53 4772.97,4395.78C4772.97,4395.78 4774.03,4397.93 4774.03,4399C4774.03,4399.57 4773.76,4400.15 4773.47,4400.72C4773.26,4401.15 4773.03,4401.57 4773.03,4402C4773.03,4402.43 4773.22,4402.85 4773.42,4403.27C4773.67,4403.81 4773.94,4404.36 4774.02,4404.93C4774.12,4405.66 4774.1,4407.05 4774.07,4408L4776.9,4408C4776.9,4408 4777.12,4405.98 4776.9,4405C4776.67,4404 4775.59,4403 4775.53,4402C4775.46,4401 4776.53,4400 4776.53,4399C4776.53,4398 4776.04,4396.92 4775.53,4396C4774.69,4394.5 4771.53,4390 4771.53,4390C4771.53,4390 4768.86,4394.5 4768.53,4396C4768.3,4397.03 4769.53,4398 4769.53,4399C4769.53,4399.48 4769.29,4399.97 4769.05,4400.45Z" style="fill:rgb(3,10,29);"/>
            </g>
            <g transform="matrix(-1,-1.22465e-16,1.22465e-16,-1,17935.2,4472.5)">
                <path d="M4769.05,4400.45L4769,4400.55C4768.76,4401.03 4768.53,4401.52 4768.53,4402C4768.53,4403 4769.36,4404 4769.53,4405C4769.69,4405.99 4769.53,4408 4769.53,4408L4773.07,4408C4773.11,4407.09 4773.13,4405.77 4773.03,4405.07C4772.96,4404.6 4772.73,4404.15 4772.52,4403.7C4772.25,4403.13 4772.03,4402.57 4772.03,4402C4772.03,4401.43 4772.29,4400.85 4772.58,4400.28C4772.79,4399.85 4773.03,4399.43 4773.03,4399C4773.03,4398.07 4772.08,4396.22 4772.08,4396.22C4771.95,4395.98 4772.05,4395.68 4772.3,4395.55C4772.55,4395.43 4772.85,4395.53 4772.97,4395.78C4772.97,4395.78 4774.03,4397.93 4774.03,4399C4774.03,4399.57 4773.76,4400.15 4773.47,4400.72C4773.26,4401.15 4773.03,4401.57 4773.03,4402C4773.03,4402.43 4773.22,4402.85 4773.42,4403.27C4773.67,4403.81 4773.94,4404.36 4774.02,4404.93C4774.12,4405.66 4774.1,4407.05 4774.07,4408L4776.9,4408C4776.9,4408 4777.12,4405.98 4776.9,4405C4776.67,4404 4775.59,4403 4775.53,4402C4775.46,4401 4776.53,4400 4776.53,4399C4776.53,4398 4776.04,4396.92 4775.53,4396C4774.69,4394.5 4771.53,4390 4771.53,4390C4771.53,4390 4768.86,4394.5 4768.53,4396C4768.3,4397.03 4769.53,4398 4769.53,4399C4769.53,4399.48 4769.29,4399.97 4769.05,4400.45Z" style="fill:rgb(3,10,29);"/>
            </g>
        </g>
    </g>
</svg>
