<?xml version="1.0" encoding="UTF-8" standalone="no"?>
<!DOCTYPE svg PUBLIC "-//W3C//DTD SVG 1.1//EN" "http://www.w3.org/Graphics/SVG/1.1/DTD/svg11.dtd">
<svg width="100%" height="100%" viewBox="0 0 100 126" version="1.1" xmlns="http://www.w3.org/2000/svg" xmlns:xlink="http://www.w3.org/1999/xlink" xml:space="preserve" xmlns:serif="http://www.serif.com/" style="fill-rule:evenodd;clip-rule:evenodd;stroke-linejoin:round;stroke-miterlimit:2;">
    <g transform="matrix(1,0,0,1,-13543,-316)">
        <g id="Jack-of-Seaweed" serif:id="Jack of Seaweed" transform="matrix(1,0,0,1,0,316.878)">
            <rect x="13543" y="0" width="100" height="125" style="fill:none;"/>
            <g transform="matrix(0.231477,0,0,0.231477,12976.4,-1265.81)">
                <path d="M2548.37,5565.36C2548.37,5567.42 2548.13,5569.35 2547.67,5571.17C2547.21,5572.98 2546.4,5574.56 2545.25,5575.91C2544.1,5577.26 2542.55,5578.33 2540.59,5579.12C2538.64,5579.9 2536.17,5580.3 2533.18,5580.3C2530.44,5580.3 2528.09,5579.97 2526.11,5579.3C2524.13,5578.64 2522.5,5577.86 2521.21,5576.97L2524.36,5569.65C2525.53,5570.34 2526.77,5570.94 2528.11,5571.47C2529.44,5571.99 2530.89,5572.25 2532.46,5572.25C2534.76,5572.25 2536.41,5571.69 2537.42,5570.56C2538.43,5569.43 2538.93,5567.54 2538.93,5564.88L2538.93,5537.54L2548.37,5537.54L2548.37,5565.36Z" style="fill:rgb(3,10,29);fill-rule:nonzero;"/>
            </g>
            <g transform="matrix(-0.231477,2.83478e-17,-2.83478e-17,-0.231477,14211.6,1390.81)">
                <path d="M2548.37,5565.36C2548.37,5567.42 2548.13,5569.35 2547.67,5571.17C2547.21,5572.98 2546.4,5574.56 2545.25,5575.91C2544.1,5577.26 2542.55,5578.33 2540.59,5579.12C2538.64,5579.9 2536.17,5580.3 2533.18,5580.3C2530.44,5580.3 2528.09,5579.97 2526.11,5579.3C2524.13,5578.64 2522.5,5577.86 2521.21,5576.97L2524.36,5569.65C2525.53,5570.34 2526.77,5570.94 2528.11,5571.47C2529.44,5571.99 2530.89,5572.25 2532.46,5572.25C2534.76,5572.25 2536.41,5571.69 2537.42,5570.56C2538.43,5569.43 2538.93,5567.54 2538.93,5564.88L2538.93,5537.54L2548.37,5537.54L2548.37,5565.36Z" style="fill:rgb(3,10,29);fill-rule:nonzero;"/>
            </g>
            <g transform="matrix(2.11181,0,0,2.11181,3566.15,-9178.76)">
                <path d="M4750.5,4379L4750.5,4385.2C4750.5,4385.41 4750.42,4385.62 4750.27,4385.77C4750.12,4385.92 4749.91,4386 4749.7,4386C4749.64,4386 4749.58,4386 4749.52,4386C4749.23,4386 4748.98,4385.78 4748.95,4385.48L4748.6,4382L4747.4,4382L4747.06,4385.43C4747.03,4385.75 4746.75,4386 4746.43,4386C4746.39,4386 4746.34,4386 4746.3,4386C4746.09,4386 4745.88,4385.92 4745.73,4385.77C4745.58,4385.62 4745.5,4385.41 4745.5,4385.2L4745.5,4379L4743.49,4379.8C4743.19,4379.92 4742.85,4379.85 4742.62,4379.62C4742.62,4379.62 4742.62,4379.62 4742.62,4379.62C4742.46,4379.46 4742.37,4379.24 4742.38,4379.01C4742.39,4378.79 4742.49,4378.58 4742.66,4378.43C4743.68,4377.56 4745.5,4376 4745.5,4376L4745.5,4375.33C4744.43,4374.71 4743.61,4373.7 4743.23,4372.5L4742.8,4372.5C4742.36,4372.5 4742,4372.14 4742,4371.7C4742,4371.27 4742,4370.73 4742,4370.3C4742,4369.86 4742.36,4369.5 4742.8,4369.5L4743.23,4369.5C4743.87,4367.47 4745.76,4366 4748,4366C4750.24,4366 4752.13,4367.47 4752.77,4369.5L4753.2,4369.5C4753.64,4369.5 4754,4369.86 4754,4370.3C4754,4370.73 4754,4371.27 4754,4371.7C4754,4372.14 4753.64,4372.5 4753.2,4372.5L4752.77,4372.5C4752.39,4373.7 4751.57,4374.71 4750.5,4375.33L4750.5,4376C4750.5,4376 4752.33,4377.57 4753.34,4378.44C4753.51,4378.58 4753.61,4378.79 4753.62,4379.01C4753.63,4379.24 4753.55,4379.45 4753.39,4379.61C4753.38,4379.62 4753.38,4379.62 4753.37,4379.63C4753.15,4379.85 4752.81,4379.92 4752.51,4379.8C4751.78,4379.51 4750.5,4379 4750.5,4379ZM4748,4369.5C4748.83,4369.5 4749.5,4370.17 4749.5,4371C4749.5,4371.83 4748.83,4372.5 4748,4372.5C4747.17,4372.5 4746.5,4371.83 4746.5,4371C4746.5,4370.17 4747.17,4369.5 4748,4369.5Z" style="fill:rgb(3,10,29);"/>
            </g>
            <g transform="matrix(1,0,0,1,8850,-4316.9)">
                <path d="M4769.05,4400.45L4769,4400.55C4768.76,4401.03 4768.53,4401.52 4768.53,4402C4768.53,4403 4769.36,4404 4769.53,4405C4769.69,4405.99 4769.53,4408 4769.53,4408L4773.07,4408C4773.11,4407.09 4773.13,4405.77 4773.03,4405.07C4772.96,4404.6 4772.73,4404.15 4772.52,4403.7C4772.25,4403.13 4772.03,4402.57 4772.03,4402C4772.03,4401.43 4772.29,4400.85 4772.58,4400.28C4772.79,4399.85 4773.03,4399.43 4773.03,4399C4773.03,4398.07 4772.08,4396.22 4772.08,4396.22C4771.95,4395.98 4772.05,4395.68 4772.3,4395.55C4772.55,4395.43 4772.85,4395.53 4772.97,4395.78C4772.97,4395.78 4774.03,4397.93 4774.03,4399C4774.03,4399.57 4773.76,4400.15 4773.47,4400.72C4773.26,4401.15 4773.03,4401.57 4773.03,4402C4773.03,4402.43 4773.22,4402.85 4773.42,4403.27C4773.67,4403.81 4773.94,4404.36 4774.02,4404.93C4774.12,4405.66 4774.1,4407.05 4774.07,4408L4776.9,4408C4776.9,4408 4777.12,4405.98 4776.9,4405C4776.67,4404 4775.59,4403 4775.53,4402C4775.46,4401 4776.53,4400 4776.53,4399C4776.53,4398 4776.04,4396.92 4775.53,4396C4774.69,4394.5 4771.53,4390 4771.53,4390C4771.53,4390 4768.86,4394.5 4768.53,4396C4768.3,4397.03 4769.53,4398 4769.53,4399C4769.53,4399.48 4769.29,4399.97 4769.05,4400.45Z" style="fill:rgb(3,10,29);"/>
            </g>
            <g transform="matrix(-1,-1.22465e-16,1.22465e-16,-1,18336,4441.9)">
                <path d="M4769.05,4400.45L4769,4400.55C4768.76,4401.03 4768.53,4401.52 4768.53,4402C4768.53,4403 4769.36,4404 4769.53,4405C4769.69,4405.99 4769.53,4408 4769.53,4408L4773.07,4408C4773.11,4407.09 4773.13,4405.77 4773.03,4405.07C4772.96,4404.6 4772.73,4404.15 4772.52,4403.7C4772.25,4403.13 4772.03,4402.57 4772.03,4402C4772.03,4401.43 4772.29,4400.85 4772.58,4400.28C4772.79,4399.85 4773.03,4399.43 4773.03,4399C4773.03,4398.07 4772.08,4396.22 4772.08,4396.22C4771.95,4395.98 4772.05,4395.68 4772.3,4395.55C4772.55,4395.43 4772.85,4395.53 4772.97,4395.78C4772.97,4395.78 4774.03,4397.93 4774.03,4399C4774.03,4399.57 4773.76,4400.15 4773.47,4400.72C4773.26,4401.15 4773.03,4401.57 4773.03,4402C4773.03,4402.43 4773.22,4402.85 4773.42,4403.27C4773.67,4403.81 4773.94,4404.36 4774.02,4404.93C4774.12,4405.66 4774.1,4407.05 4774.07,4408L4776.9,4408C4776.9,4408 4777.12,4405.98 4776.9,4405C4776.67,4404 4775.59,4403 4775.53,4402C4775.46,4401 4776.53,4400 4776.53,4399C4776.53,4398 4776.04,4396.92 4775.53,4396C4774.69,4394.5 4771.53,4390 4771.53,4390C4771.53,4390 4768.86,4394.5 4768.53,4396C4768.3,4397.03 4769.53,4398 4769.53,4399C4769.53,4399.48 4769.29,4399.97 4769.05,4400.45Z" style="fill:rgb(3,10,29);"/>
            </g>
        </g>
    </g>
</svg>
