<?xml version="1.0" encoding="UTF-8" standalone="no"?>
<!DOCTYPE svg PUBLIC "-//W3C//DTD SVG 1.1//EN" "http://www.w3.org/Graphics/SVG/1.1/DTD/svg11.dtd">
<svg width="100%" height="100%" viewBox="0 0 100 126" version="1.1" xmlns="http://www.w3.org/2000/svg" xmlns:xlink="http://www.w3.org/1999/xlink" xml:space="preserve" xmlns:serif="http://www.serif.com/" style="fill-rule:evenodd;clip-rule:evenodd;stroke-linejoin:round;stroke-miterlimit:2;">
    <g transform="matrix(1,0,0,1,-13843,-316)">
        <g id="King-of-Seaweed" serif:id="King of Seaweed" transform="matrix(1,0,0,1,0,316.878)">
            <rect x="13843" y="0" width="100" height="125" style="fill:none;"/>
            <g transform="matrix(0.231477,0,0,0.231477,13276.4,-1265.81)">
                <path d="M2550.18,5579.45C2549.33,5578.08 2548.34,5576.6 2547.19,5575.01C2546.04,5573.41 2544.79,5571.82 2543.44,5570.23C2542.09,5568.64 2540.68,5567.1 2539.23,5565.63C2537.78,5564.16 2536.33,5562.86 2534.88,5561.73L2534.88,5579.45L2525.44,5579.45L2525.44,5537.54L2534.88,5537.54L2534.88,5553.38C2537.34,5550.8 2539.81,5548.11 2542.29,5545.31C2544.77,5542.51 2547.08,5539.92 2549.21,5537.54L2560.4,5537.54C2557.54,5540.93 2554.67,5544.19 2551.78,5547.34C2548.9,5550.48 2545.87,5553.65 2542.68,5556.83C2546.03,5559.61 2549.26,5562.92 2552.39,5566.75C2555.51,5570.58 2558.51,5574.82 2561.37,5579.45L2550.18,5579.45Z" style="fill:rgb(3,10,29);fill-rule:nonzero;"/>
            </g>
            <g transform="matrix(-0.231477,2.83478e-17,-2.83478e-17,-0.231477,14511.6,1390.81)">
                <path d="M2550.18,5579.45C2549.33,5578.08 2548.34,5576.6 2547.19,5575.01C2546.04,5573.41 2544.79,5571.82 2543.44,5570.23C2542.09,5568.64 2540.68,5567.1 2539.23,5565.63C2537.78,5564.16 2536.33,5562.86 2534.88,5561.73L2534.88,5579.45L2525.44,5579.45L2525.44,5537.54L2534.88,5537.54L2534.88,5553.38C2537.34,5550.8 2539.81,5548.11 2542.29,5545.31C2544.77,5542.51 2547.08,5539.92 2549.21,5537.54L2560.4,5537.54C2557.54,5540.93 2554.67,5544.19 2551.78,5547.34C2548.9,5550.48 2545.87,5553.65 2542.68,5556.83C2546.03,5559.61 2549.26,5562.92 2552.39,5566.75C2555.51,5570.58 2558.51,5574.82 2561.37,5579.45L2550.18,5579.45Z" style="fill:rgb(3,10,29);fill-rule:nonzero;"/>
            </g>
            <g transform="matrix(0.572522,0,0,0.572522,10868.2,-3892.35)">
                <path d="M5280.44,6892.98C5279.52,6892.27 5278.95,6891.19 5278.9,6890.02C5278.85,6888.69 5279.48,6887.41 5280.57,6886.65C5287.53,6881.77 5300.15,6872.94 5308.04,6867.42C5309.3,6866.54 5310.95,6866.47 5312.27,6867.25C5313.6,6868.02 5314.35,6869.5 5314.2,6871.02C5313.24,6880.6 5311.72,6895.93 5310.88,6904.38C5310.75,6905.72 5309.95,6906.89 5308.76,6907.49C5307.57,6908.1 5306.15,6908.06 5304.99,6907.38L5304.96,6907.36C5304.64,6908.76 5304.05,6910.17 5303.16,6911.53C5300.68,6915.33 5296.82,6917.15 5293.45,6917.01C5292.51,6918.45 5291.86,6919.58 5291.52,6920.1C5290.5,6921.66 5287.68,6923.58 5287.67,6925.66C5287.65,6927.86 5300.34,6930.9 5299.56,6933.47C5298.75,6936.12 5289.23,6931.26 5287.67,6933.2C5285.71,6935.63 5295.44,6938.74 5293.85,6940.25C5292.06,6941.96 5287.53,6939.98 5283.36,6937.88C5279.51,6935.94 5274.47,6932.76 5272.76,6926.62C5272.63,6926.93 5272.51,6927.25 5272.42,6927.58C5271.88,6929.39 5271.77,6931.4 5272.37,6933.36C5273.05,6935.59 5274.81,6937.32 5276.45,6939.41C5276.67,6939.69 5276.91,6939.95 5277.09,6940.27C5277.21,6940.49 5277.28,6940.72 5277.35,6940.96C5278.07,6943.49 5278.19,6945.59 5279.16,6948.22C5279.3,6948.37 5279.29,6948.59 5279.15,6948.73C5279.01,6948.87 5278.78,6948.87 5278.64,6948.72C5276.65,6947.95 5275.26,6947.3 5273.48,6946.27C5272.71,6945.82 5272.13,6945.4 5271.46,6944.83C5271.23,6944.63 5271.03,6944.41 5270.85,6944.16C5270.59,6943.79 5270.41,6943.37 5270.25,6942.95C5269.44,6940.83 5269.12,6938.81 5268.87,6936.74C5268.77,6935.82 5268.67,6934.95 5268.59,6934.07C5268.32,6931.43 5268.29,6928.94 5268.95,6926.58C5269.54,6924.5 5270.58,6922.52 5272.2,6920.74C5272.21,6920.52 5272.23,6920.3 5272.25,6920.07C5272.36,6918.88 5272.61,6917.76 5272.96,6916.7C5272.36,6917.14 5271.76,6917.61 5271.17,6918.09C5269.8,6919.21 5268.46,6920.46 5267.23,6921.9C5265.77,6923.74 5264.57,6926.23 5263.65,6929.03C5263.44,6929.69 5263.28,6930.36 5263.14,6931.06C5262.77,6932.8 5262.56,6934.45 5261.97,6936.16C5261.76,6936.78 5261.56,6937.42 5261.15,6937.93C5260.56,6938.64 5259.87,6939.09 5259.05,6939.53C5257.06,6940.58 5255.57,6941.12 5253.2,6941.38C5253.03,6941.49 5252.81,6941.44 5252.7,6941.27C5252.59,6941.1 5252.64,6940.88 5252.8,6940.77C5253.54,6939.48 5253.76,6938.53 5254.19,6937.19C5254.39,6936.56 5254.38,6936.07 5254.57,6935.44C5254.74,6934.9 5254.72,6934.36 5255.02,6933.86C5256.45,6931.45 5258.82,6929.89 5260.12,6927.54C5261.73,6924.62 5262.67,6921.62 5264.36,6919.57C5265.65,6917.89 5267.09,6916.43 5268.55,6915.08C5271.77,6912.1 5275.17,6909.78 5277.68,6907.09C5275.85,6904.04 5275.8,6899.42 5278.47,6895.34C5279.06,6894.44 5279.72,6893.65 5280.44,6892.98ZM5299.93,6909.15L5299.41,6909.92L5298.88,6910.55L5298.23,6911.2L5297.83,6911.55L5297.74,6911.62C5295.79,6913.14 5293.51,6913.57 5291.89,6912.51C5289.63,6911.03 5289.52,6907.2 5291.63,6903.97C5293.75,6900.74 5297.3,6899.32 5299.56,6900.8C5301.78,6902.25 5301.93,6905.96 5299.93,6909.15ZM5284.52,6898.89L5284.52,6898.89C5284.46,6899.01 5284.4,6899.12 5284.34,6899.24L5284.32,6899.28L5284.3,6899.32C5284.25,6899.41 5284.2,6899.49 5284.16,6899.58L5284.14,6899.61L5284.1,6899.69L5284.05,6899.77L5284.01,6899.86C5283.99,6899.88 5283.98,6899.91 5283.96,6899.94L5283.92,6900.02L5283.87,6900.1L5283.82,6900.18L5283.78,6900.27L5283.73,6900.35L5283.68,6900.43L5283.64,6900.51L5283.59,6900.59L5283.54,6900.67L5283.49,6900.75L5283.45,6900.83L5283.4,6900.91L5283.35,6900.99L5283.3,6901.07L5283.25,6901.15L5283.21,6901.22L5283.16,6901.3L5283.1,6901.39L5283.06,6901.46L5283.01,6901.54L5282.96,6901.61L5282.91,6901.69L5282.86,6901.78L5282.81,6901.85L5282.76,6901.93L5282.71,6902L5282.66,6902.08L5282.61,6902.16L5282.56,6902.23L5282.51,6902.31L5282.46,6902.38L5282.4,6902.47L5282.35,6902.54L5282.31,6902.61L5282.25,6902.69L5282.2,6902.76L5282.14,6902.85L5282.1,6902.91L5282.05,6902.99L5282,6903.06L5281.94,6903.13L5281.89,6903.21L5281.84,6903.28L5281.79,6903.36L5281.73,6903.43L5281.68,6903.5L5281.63,6903.58L5281.58,6903.65L5281.52,6903.72L5281.47,6903.8L5281.41,6903.89L5281.37,6903.94L5281.31,6904.02L5281.27,6904.07C5281.24,6904.11 5281.22,6904.15 5281.19,6904.18L5281.18,6904.19C5281.13,6904.27 5281.07,6904.35 5281.01,6904.42L5281.01,6904.43C5280.98,6904.47 5280.95,6904.5 5280.92,6904.54L5280.92,6904.55C5280.89,6904.59 5280.86,6904.62 5280.83,6904.66C5279.94,6902.92 5280.17,6900.32 5281.55,6897.97C5281.63,6897.82 5281.72,6897.68 5281.82,6897.53L5281.85,6897.49L5281.88,6897.44L5281.91,6897.39L5281.94,6897.35L5281.97,6897.31L5282,6897.26L5282.03,6897.22L5282.06,6897.17L5282.09,6897.13L5282.13,6897.08L5282.16,6897.04L5282.19,6897L5282.22,6896.95L5282.25,6896.91L5282.29,6896.87L5282.32,6896.83L5282.36,6896.78L5282.39,6896.74L5282.43,6896.7L5282.46,6896.66L5282.49,6896.62L5282.52,6896.58C5282.57,6896.53 5282.61,6896.48 5282.66,6896.42L5282.7,6896.38L5282.73,6896.34L5282.77,6896.3L5282.8,6896.26L5282.84,6896.22L5282.87,6896.19L5282.89,6896.17L5282.92,6896.13L5282.96,6896.1L5282.99,6896.06L5283.02,6896.03L5283.06,6895.99L5283.09,6895.96L5283.12,6895.93C5284.13,6894.93 5285.29,6894.25 5286.42,6893.94C5285.94,6895.74 5285.29,6897.37 5284.52,6898.89Z" style="fill:rgb(3,10,29);"/>
            </g>
            <g transform="matrix(1,0,0,1,9148.86,-4316.7)">
                <path d="M4769.05,4400.45L4769,4400.55C4768.76,4401.03 4768.53,4401.52 4768.53,4402C4768.53,4403 4769.36,4404 4769.53,4405C4769.69,4405.99 4769.53,4408 4769.53,4408L4773.07,4408C4773.11,4407.09 4773.13,4405.77 4773.03,4405.07C4772.96,4404.6 4772.73,4404.15 4772.52,4403.7C4772.25,4403.13 4772.03,4402.57 4772.03,4402C4772.03,4401.43 4772.29,4400.85 4772.58,4400.28C4772.79,4399.85 4773.03,4399.43 4773.03,4399C4773.03,4398.07 4772.08,4396.22 4772.08,4396.22C4771.95,4395.98 4772.05,4395.68 4772.3,4395.55C4772.55,4395.43 4772.85,4395.53 4772.97,4395.78C4772.97,4395.78 4774.03,4397.93 4774.03,4399C4774.03,4399.57 4773.76,4400.15 4773.47,4400.72C4773.26,4401.15 4773.03,4401.57 4773.03,4402C4773.03,4402.43 4773.22,4402.85 4773.42,4403.27C4773.67,4403.81 4773.94,4404.36 4774.02,4404.93C4774.12,4405.66 4774.1,4407.05 4774.07,4408L4776.9,4408C4776.9,4408 4777.12,4405.98 4776.9,4405C4776.67,4404 4775.59,4403 4775.53,4402C4775.46,4401 4776.53,4400 4776.53,4399C4776.53,4398 4776.04,4396.92 4775.53,4396C4774.69,4394.5 4771.53,4390 4771.53,4390C4771.53,4390 4768.86,4394.5 4768.53,4396C4768.3,4397.03 4769.53,4398 4769.53,4399C4769.53,4399.48 4769.29,4399.97 4769.05,4400.45Z" style="fill:rgb(3,10,29);"/>
            </g>
            <g transform="matrix(-1,-1.22465e-16,1.22465e-16,-1,18637,4441.7)">
                <path d="M4769.05,4400.45L4769,4400.55C4768.76,4401.03 4768.53,4401.52 4768.53,4402C4768.53,4403 4769.36,4404 4769.53,4405C4769.69,4405.99 4769.53,4408 4769.53,4408L4773.07,4408C4773.11,4407.09 4773.13,4405.77 4773.03,4405.07C4772.96,4404.6 4772.73,4404.15 4772.52,4403.7C4772.25,4403.13 4772.03,4402.57 4772.03,4402C4772.03,4401.43 4772.29,4400.85 4772.58,4400.28C4772.79,4399.85 4773.03,4399.43 4773.03,4399C4773.03,4398.07 4772.08,4396.22 4772.08,4396.22C4771.95,4395.98 4772.05,4395.68 4772.3,4395.55C4772.55,4395.43 4772.85,4395.53 4772.97,4395.78C4772.97,4395.78 4774.03,4397.93 4774.03,4399C4774.03,4399.57 4773.76,4400.15 4773.47,4400.72C4773.26,4401.15 4773.03,4401.57 4773.03,4402C4773.03,4402.43 4773.22,4402.85 4773.42,4403.27C4773.67,4403.81 4773.94,4404.36 4774.02,4404.93C4774.12,4405.66 4774.1,4407.05 4774.07,4408L4776.9,4408C4776.9,4408 4777.12,4405.98 4776.9,4405C4776.67,4404 4775.59,4403 4775.53,4402C4775.46,4401 4776.53,4400 4776.53,4399C4776.53,4398 4776.04,4396.92 4775.53,4396C4774.69,4394.5 4771.53,4390 4771.53,4390C4771.53,4390 4768.86,4394.5 4768.53,4396C4768.3,4397.03 4769.53,4398 4769.53,4399C4769.53,4399.48 4769.29,4399.97 4769.05,4400.45Z" style="fill:rgb(3,10,29);"/>
            </g>
        </g>
    </g>
</svg>
