<?xml version="1.0" encoding="UTF-8" standalone="no"?>
<!DOCTYPE svg PUBLIC "-//W3C//DTD SVG 1.1//EN" "http://www.w3.org/Graphics/SVG/1.1/DTD/svg11.dtd">
<svg width="100%" height="100%" viewBox="0 0 100 126" version="1.1" xmlns="http://www.w3.org/2000/svg" xmlns:xlink="http://www.w3.org/1999/xlink" xml:space="preserve" xmlns:serif="http://www.serif.com/" style="fill-rule:evenodd;clip-rule:evenodd;stroke-linejoin:round;stroke-miterlimit:2;">
    <g transform="matrix(1,0,0,1,-13243,-316)">
        <g id="Nine-of-Seaweed" serif:id="Nine of Seaweed" transform="matrix(1,0,0,1,0,316.878)">
            <rect x="13243" y="0" width="100" height="125" style="fill:none;"/>
            <g transform="matrix(0.231477,0,0,0.231477,12676.4,-1265.81)">
                <path d="M2538.08,5556.95C2539.01,5556.95 2539.98,5556.86 2540.99,5556.68C2542,5556.5 2542.74,5556.25 2543.22,5555.92L2543.22,5555.38C2543.22,5555.22 2543.24,5555.06 2543.26,5554.9C2543.28,5554.73 2543.29,5554.59 2543.29,5554.47C2543.24,5553.02 2543.12,5551.66 2542.92,5550.39C2542.72,5549.12 2542.38,5548.01 2541.89,5547.06C2541.41,5546.12 2540.76,5545.37 2539.93,5544.83C2539.1,5544.28 2538.08,5544.01 2536.88,5544.01C2535.91,5544.01 2535.06,5544.21 2534.34,5544.61C2533.61,5545.02 2533.02,5545.54 2532.58,5546.19C2532.14,5546.83 2531.8,5547.54 2531.58,5548.3C2531.36,5549.07 2531.25,5549.82 2531.25,5550.54C2531.25,5552.72 2531.78,5554.33 2532.85,5555.38C2533.92,5556.43 2535.66,5556.95 2538.08,5556.95ZM2542.5,5562.82C2541.65,5563.22 2540.72,5563.52 2539.69,5563.7C2538.66,5563.88 2537.78,5563.97 2537.06,5563.97C2534.43,5563.97 2532.2,5563.66 2530.34,5563.03C2528.49,5562.41 2526.97,5561.52 2525.78,5560.37C2524.59,5559.22 2523.71,5557.84 2523.15,5556.23C2522.58,5554.61 2522.3,5552.84 2522.3,5550.9C2522.3,5549.29 2522.57,5547.64 2523.12,5545.94C2523.66,5544.25 2524.52,5542.71 2525.69,5541.32C2526.86,5539.93 2528.34,5538.78 2530.13,5537.87C2531.93,5536.96 2534.09,5536.51 2536.63,5536.51C2541.83,5536.51 2545.76,5538.11 2548.4,5541.32C2551.04,5544.52 2552.36,5549.13 2552.36,5555.14C2552.36,5559.09 2551.84,5562.58 2550.82,5565.6C2549.79,5568.62 2548.2,5571.17 2546.04,5573.22C2543.88,5575.28 2541.13,5576.84 2537.78,5577.91C2534.43,5578.98 2530.46,5579.53 2525.87,5579.57C2525.83,5578.28 2525.77,5577.03 2525.69,5575.82C2525.61,5574.61 2525.53,5573.36 2525.44,5572.07C2527.74,5572.03 2529.82,5571.86 2531.67,5571.56C2533.53,5571.26 2535.16,5570.75 2536.57,5570.05C2537.98,5569.34 2539.18,5568.4 2540.17,5567.23C2541.16,5566.07 2541.93,5564.59 2542.5,5562.82Z" style="fill:rgb(3,10,29);fill-rule:nonzero;"/>
            </g>
            <g transform="matrix(-0.231477,2.83478e-17,-2.83478e-17,-0.231477,13911.6,1390.81)">
                <path d="M2538.08,5556.95C2539.01,5556.95 2539.98,5556.86 2540.99,5556.68C2542,5556.5 2542.74,5556.25 2543.22,5555.92L2543.22,5555.38C2543.22,5555.22 2543.24,5555.06 2543.26,5554.9C2543.28,5554.73 2543.29,5554.59 2543.29,5554.47C2543.24,5553.02 2543.12,5551.66 2542.92,5550.39C2542.72,5549.12 2542.38,5548.01 2541.89,5547.06C2541.41,5546.12 2540.76,5545.37 2539.93,5544.83C2539.1,5544.28 2538.08,5544.01 2536.88,5544.01C2535.91,5544.01 2535.06,5544.21 2534.34,5544.61C2533.61,5545.02 2533.02,5545.54 2532.58,5546.19C2532.14,5546.83 2531.8,5547.54 2531.58,5548.3C2531.36,5549.07 2531.25,5549.82 2531.25,5550.54C2531.25,5552.72 2531.78,5554.33 2532.85,5555.38C2533.92,5556.43 2535.66,5556.95 2538.08,5556.95ZM2542.5,5562.82C2541.65,5563.22 2540.72,5563.52 2539.69,5563.7C2538.66,5563.88 2537.78,5563.97 2537.06,5563.97C2534.43,5563.97 2532.2,5563.66 2530.34,5563.03C2528.49,5562.41 2526.97,5561.52 2525.78,5560.37C2524.59,5559.22 2523.71,5557.84 2523.15,5556.23C2522.58,5554.61 2522.3,5552.84 2522.3,5550.9C2522.3,5549.29 2522.57,5547.64 2523.12,5545.94C2523.66,5544.25 2524.52,5542.71 2525.69,5541.32C2526.86,5539.93 2528.34,5538.78 2530.13,5537.87C2531.93,5536.96 2534.09,5536.51 2536.63,5536.51C2541.83,5536.51 2545.76,5538.11 2548.4,5541.32C2551.04,5544.52 2552.36,5549.13 2552.36,5555.14C2552.36,5559.09 2551.84,5562.58 2550.82,5565.6C2549.79,5568.62 2548.2,5571.17 2546.04,5573.22C2543.88,5575.28 2541.13,5576.84 2537.78,5577.91C2534.43,5578.98 2530.46,5579.53 2525.87,5579.57C2525.83,5578.28 2525.77,5577.03 2525.69,5575.82C2525.61,5574.61 2525.53,5573.36 2525.44,5572.07C2527.74,5572.03 2529.82,5571.86 2531.67,5571.56C2533.53,5571.26 2535.16,5570.75 2536.57,5570.05C2537.98,5569.34 2539.18,5568.4 2540.17,5567.23C2541.16,5566.07 2541.93,5564.59 2542.5,5562.82Z" style="fill:rgb(3,10,29);fill-rule:nonzero;"/>
            </g>
            <g transform="matrix(1,0,0,1,8532.76,-4356.5)">
                <path d="M4769.05,4400.45L4769,4400.55C4768.76,4401.03 4768.53,4401.52 4768.53,4402C4768.53,4403 4769.36,4404 4769.53,4405C4769.69,4405.99 4769.53,4408 4769.53,4408L4773.07,4408C4773.11,4407.09 4773.13,4405.77 4773.03,4405.07C4772.96,4404.6 4772.73,4404.15 4772.52,4403.7C4772.25,4403.13 4772.03,4402.57 4772.03,4402C4772.03,4401.43 4772.29,4400.85 4772.58,4400.28C4772.79,4399.85 4773.03,4399.43 4773.03,4399C4773.03,4398.07 4772.08,4396.22 4772.08,4396.22C4771.95,4395.98 4772.05,4395.68 4772.3,4395.55C4772.55,4395.43 4772.85,4395.53 4772.97,4395.78C4772.97,4395.78 4774.03,4397.93 4774.03,4399C4774.03,4399.57 4773.76,4400.15 4773.47,4400.72C4773.26,4401.15 4773.03,4401.57 4773.03,4402C4773.03,4402.43 4773.22,4402.85 4773.42,4403.27C4773.67,4403.81 4773.94,4404.36 4774.02,4404.93C4774.12,4405.66 4774.1,4407.05 4774.07,4408L4776.9,4408C4776.9,4408 4777.12,4405.98 4776.9,4405C4776.67,4404 4775.59,4403 4775.53,4402C4775.46,4401 4776.53,4400 4776.53,4399C4776.53,4398 4776.04,4396.92 4775.53,4396C4774.69,4394.5 4771.53,4390 4771.53,4390C4771.53,4390 4768.86,4394.5 4768.53,4396C4768.3,4397.03 4769.53,4398 4769.53,4399C4769.53,4399.48 4769.29,4399.97 4769.05,4400.45Z" style="fill:rgb(3,10,29);"/>
            </g>
            <g transform="matrix(-1,1.22465e-16,-1.22465e-16,-1,18053.2,4463.5)">
                <path d="M4769.05,4400.45L4769,4400.55C4768.76,4401.03 4768.53,4401.52 4768.53,4402C4768.53,4403 4769.36,4404 4769.53,4405C4769.69,4405.99 4769.53,4408 4769.53,4408L4773.07,4408C4773.11,4407.09 4773.13,4405.77 4773.03,4405.07C4772.96,4404.6 4772.73,4404.15 4772.52,4403.7C4772.25,4403.13 4772.03,4402.57 4772.03,4402C4772.03,4401.43 4772.29,4400.85 4772.58,4400.28C4772.79,4399.85 4773.03,4399.43 4773.03,4399C4773.03,4398.07 4772.08,4396.22 4772.08,4396.22C4771.95,4395.98 4772.05,4395.68 4772.3,4395.55C4772.55,4395.43 4772.85,4395.53 4772.97,4395.78C4772.97,4395.78 4774.03,4397.93 4774.03,4399C4774.03,4399.57 4773.76,4400.15 4773.47,4400.72C4773.26,4401.15 4773.03,4401.57 4773.03,4402C4773.03,4402.43 4773.22,4402.85 4773.42,4403.27C4773.67,4403.81 4773.94,4404.36 4774.02,4404.93C4774.12,4405.66 4774.1,4407.05 4774.07,4408L4776.9,4408C4776.9,4408 4777.12,4405.98 4776.9,4405C4776.67,4404 4775.59,4403 4775.53,4402C4775.46,4401 4776.53,4400 4776.53,4399C4776.53,4398 4776.04,4396.92 4775.53,4396C4774.69,4394.5 4771.53,4390 4771.53,4390C4771.53,4390 4768.86,4394.5 4768.53,4396C4768.3,4397.03 4769.53,4398 4769.53,4399C4769.53,4399.48 4769.29,4399.97 4769.05,4400.45Z" style="fill:rgb(3,10,29);"/>
            </g>
            <g transform="matrix(1,0,0,1,8507.75,-4356.5)">
                <path d="M4769.05,4400.45L4769,4400.55C4768.76,4401.03 4768.53,4401.52 4768.53,4402C4768.53,4403 4769.36,4404 4769.53,4405C4769.69,4405.99 4769.53,4408 4769.53,4408L4773.07,4408C4773.11,4407.09 4773.13,4405.77 4773.03,4405.07C4772.96,4404.6 4772.73,4404.15 4772.52,4403.7C4772.25,4403.13 4772.03,4402.57 4772.03,4402C4772.03,4401.43 4772.29,4400.85 4772.58,4400.28C4772.79,4399.85 4773.03,4399.43 4773.03,4399C4773.03,4398.07 4772.08,4396.22 4772.08,4396.22C4771.95,4395.98 4772.05,4395.68 4772.3,4395.55C4772.55,4395.43 4772.85,4395.53 4772.97,4395.78C4772.97,4395.78 4774.03,4397.93 4774.03,4399C4774.03,4399.57 4773.76,4400.15 4773.47,4400.72C4773.26,4401.15 4773.03,4401.57 4773.03,4402C4773.03,4402.43 4773.22,4402.85 4773.42,4403.27C4773.67,4403.81 4773.94,4404.36 4774.02,4404.93C4774.12,4405.66 4774.1,4407.05 4774.07,4408L4776.9,4408C4776.9,4408 4777.12,4405.98 4776.9,4405C4776.67,4404 4775.59,4403 4775.53,4402C4775.46,4401 4776.53,4400 4776.53,4399C4776.53,4398 4776.04,4396.92 4775.53,4396C4774.69,4394.5 4771.53,4390 4771.53,4390C4771.53,4390 4768.86,4394.5 4768.53,4396C4768.3,4397.03 4769.53,4398 4769.53,4399C4769.53,4399.48 4769.29,4399.97 4769.05,4400.45Z" style="fill:rgb(3,10,29);"/>
            </g>
            <g transform="matrix(1,0,0,1,8507.75,-4312.5)">
                <path d="M4769.05,4400.45L4769,4400.55C4768.76,4401.03 4768.53,4401.52 4768.53,4402C4768.53,4403 4769.36,4404 4769.53,4405C4769.69,4405.99 4769.53,4408 4769.53,4408L4773.07,4408C4773.11,4407.09 4773.13,4405.77 4773.03,4405.07C4772.96,4404.6 4772.73,4404.15 4772.52,4403.7C4772.25,4403.13 4772.03,4402.57 4772.03,4402C4772.03,4401.43 4772.29,4400.85 4772.58,4400.28C4772.79,4399.85 4773.03,4399.43 4773.03,4399C4773.03,4398.07 4772.08,4396.22 4772.08,4396.22C4771.95,4395.98 4772.05,4395.68 4772.3,4395.55C4772.55,4395.43 4772.85,4395.53 4772.97,4395.78C4772.97,4395.78 4774.03,4397.93 4774.03,4399C4774.03,4399.57 4773.76,4400.15 4773.47,4400.72C4773.26,4401.15 4773.03,4401.57 4773.03,4402C4773.03,4402.43 4773.22,4402.85 4773.42,4403.27C4773.67,4403.81 4773.94,4404.36 4774.02,4404.93C4774.12,4405.66 4774.1,4407.05 4774.07,4408L4776.9,4408C4776.9,4408 4777.12,4405.98 4776.9,4405C4776.67,4404 4775.59,4403 4775.53,4402C4775.46,4401 4776.53,4400 4776.53,4399C4776.53,4398 4776.04,4396.92 4775.53,4396C4774.69,4394.5 4771.53,4390 4771.53,4390C4771.53,4390 4768.86,4394.5 4768.53,4396C4768.3,4397.03 4769.53,4398 4769.53,4399C4769.53,4399.48 4769.29,4399.97 4769.05,4400.45Z" style="fill:rgb(3,10,29);"/>
            </g>
            <g transform="matrix(-1,1.22465e-16,-1.22465e-16,-1,18078.3,4463.5)">
                <path d="M4769.05,4400.45L4769,4400.55C4768.76,4401.03 4768.53,4401.52 4768.53,4402C4768.53,4403 4769.36,4404 4769.53,4405C4769.69,4405.99 4769.53,4408 4769.53,4408L4773.07,4408C4773.11,4407.09 4773.13,4405.77 4773.03,4405.07C4772.96,4404.6 4772.73,4404.15 4772.52,4403.7C4772.25,4403.13 4772.03,4402.57 4772.03,4402C4772.03,4401.43 4772.29,4400.85 4772.58,4400.28C4772.79,4399.85 4773.03,4399.43 4773.03,4399C4773.03,4398.07 4772.08,4396.22 4772.08,4396.22C4771.95,4395.98 4772.05,4395.68 4772.3,4395.55C4772.55,4395.43 4772.85,4395.53 4772.97,4395.78C4772.97,4395.78 4774.03,4397.93 4774.03,4399C4774.03,4399.57 4773.76,4400.15 4773.47,4400.72C4773.26,4401.15 4773.03,4401.57 4773.03,4402C4773.03,4402.43 4773.22,4402.85 4773.42,4403.27C4773.67,4403.81 4773.94,4404.36 4774.02,4404.93C4774.12,4405.66 4774.1,4407.05 4774.07,4408L4776.9,4408C4776.9,4408 4777.12,4405.98 4776.9,4405C4776.67,4404 4775.59,4403 4775.53,4402C4775.46,4401 4776.53,4400 4776.53,4399C4776.53,4398 4776.04,4396.92 4775.53,4396C4774.69,4394.5 4771.53,4390 4771.53,4390C4771.53,4390 4768.86,4394.5 4768.53,4396C4768.3,4397.03 4769.53,4398 4769.53,4399C4769.53,4399.48 4769.29,4399.97 4769.05,4400.45Z" style="fill:rgb(3,10,29);"/>
            </g>
            <g transform="matrix(1,-2.44929e-16,2.44929e-16,1,8532.76,-4312.5)">
                <path d="M4769.05,4400.45L4769,4400.55C4768.76,4401.03 4768.53,4401.52 4768.53,4402C4768.53,4403 4769.36,4404 4769.53,4405C4769.69,4405.99 4769.53,4408 4769.53,4408L4773.07,4408C4773.11,4407.09 4773.13,4405.77 4773.03,4405.07C4772.96,4404.6 4772.73,4404.15 4772.52,4403.7C4772.25,4403.13 4772.03,4402.57 4772.03,4402C4772.03,4401.43 4772.29,4400.85 4772.58,4400.28C4772.79,4399.85 4773.03,4399.43 4773.03,4399C4773.03,4398.07 4772.08,4396.22 4772.08,4396.22C4771.95,4395.98 4772.05,4395.68 4772.3,4395.55C4772.55,4395.43 4772.85,4395.53 4772.97,4395.78C4772.97,4395.78 4774.03,4397.93 4774.03,4399C4774.03,4399.57 4773.76,4400.15 4773.47,4400.72C4773.26,4401.15 4773.03,4401.57 4773.03,4402C4773.03,4402.43 4773.22,4402.85 4773.42,4403.27C4773.67,4403.81 4773.94,4404.36 4774.02,4404.93C4774.12,4405.66 4774.1,4407.05 4774.07,4408L4776.9,4408C4776.9,4408 4777.12,4405.98 4776.9,4405C4776.67,4404 4775.59,4403 4775.53,4402C4775.46,4401 4776.53,4400 4776.53,4399C4776.53,4398 4776.04,4396.92 4775.53,4396C4774.69,4394.5 4771.53,4390 4771.53,4390C4771.53,4390 4768.86,4394.5 4768.53,4396C4768.3,4397.03 4769.53,4398 4769.53,4399C4769.53,4399.48 4769.29,4399.97 4769.05,4400.45Z" style="fill:rgb(3,10,29);"/>
            </g>
            <g transform="matrix(-1,-1.22465e-16,1.22465e-16,-1,18065.7,4463.5)">
                <path d="M4769.05,4400.45L4769,4400.55C4768.76,4401.03 4768.53,4401.52 4768.53,4402C4768.53,4403 4769.36,4404 4769.53,4405C4769.69,4405.99 4769.53,4408 4769.53,4408L4773.07,4408C4773.11,4407.09 4773.13,4405.77 4773.03,4405.07C4772.96,4404.6 4772.73,4404.15 4772.52,4403.7C4772.25,4403.13 4772.03,4402.57 4772.03,4402C4772.03,4401.43 4772.29,4400.85 4772.58,4400.28C4772.79,4399.85 4773.03,4399.43 4773.03,4399C4773.03,4398.07 4772.08,4396.22 4772.08,4396.22C4771.95,4395.98 4772.05,4395.68 4772.3,4395.55C4772.55,4395.43 4772.85,4395.53 4772.97,4395.78C4772.97,4395.78 4774.03,4397.93 4774.03,4399C4774.03,4399.57 4773.76,4400.15 4773.47,4400.72C4773.26,4401.15 4773.03,4401.57 4773.03,4402C4773.03,4402.43 4773.22,4402.85 4773.42,4403.27C4773.67,4403.81 4773.94,4404.36 4774.02,4404.93C4774.12,4405.66 4774.1,4407.05 4774.07,4408L4776.9,4408C4776.9,4408 4777.12,4405.98 4776.9,4405C4776.67,4404 4775.59,4403 4775.53,4402C4775.46,4401 4776.53,4400 4776.53,4399C4776.53,4398 4776.04,4396.92 4775.53,4396C4774.69,4394.5 4771.53,4390 4771.53,4390C4771.53,4390 4768.86,4394.5 4768.53,4396C4768.3,4397.03 4769.53,4398 4769.53,4399C4769.53,4399.48 4769.29,4399.97 4769.05,4400.45Z" style="fill:rgb(3,10,29);"/>
            </g>
            <g transform="matrix(-1,-1.22465e-16,1.22465e-16,-1,18065.7,4485.5)">
                <path d="M4769.05,4400.45L4769,4400.55C4768.76,4401.03 4768.53,4401.52 4768.53,4402C4768.53,4403 4769.36,4404 4769.53,4405C4769.69,4405.99 4769.53,4408 4769.53,4408L4773.07,4408C4773.11,4407.09 4773.13,4405.77 4773.03,4405.07C4772.96,4404.6 4772.73,4404.15 4772.52,4403.7C4772.25,4403.13 4772.03,4402.57 4772.03,4402C4772.03,4401.43 4772.29,4400.85 4772.58,4400.28C4772.79,4399.85 4773.03,4399.43 4773.03,4399C4773.03,4398.07 4772.08,4396.22 4772.08,4396.22C4771.95,4395.98 4772.05,4395.68 4772.3,4395.55C4772.55,4395.43 4772.85,4395.53 4772.97,4395.78C4772.97,4395.78 4774.03,4397.93 4774.03,4399C4774.03,4399.57 4773.76,4400.15 4773.47,4400.72C4773.26,4401.15 4773.03,4401.57 4773.03,4402C4773.03,4402.43 4773.22,4402.85 4773.42,4403.27C4773.67,4403.81 4773.94,4404.36 4774.02,4404.93C4774.12,4405.66 4774.1,4407.05 4774.07,4408L4776.9,4408C4776.9,4408 4777.12,4405.98 4776.9,4405C4776.67,4404 4775.59,4403 4775.53,4402C4775.46,4401 4776.53,4400 4776.53,4399C4776.53,4398 4776.04,4396.92 4775.53,4396C4774.69,4394.5 4771.53,4390 4771.53,4390C4771.53,4390 4768.86,4394.5 4768.53,4396C4768.3,4397.03 4769.53,4398 4769.53,4399C4769.53,4399.48 4769.29,4399.97 4769.05,4400.45Z" style="fill:rgb(3,10,29);"/>
            </g>
            <g transform="matrix(-1,-1.22465e-16,1.22465e-16,-1,18065.7,4441.5)">
                <path d="M4769.05,4400.45L4769,4400.55C4768.76,4401.03 4768.53,4401.52 4768.53,4402C4768.53,4403 4769.36,4404 4769.53,4405C4769.69,4405.99 4769.53,4408 4769.53,4408L4773.07,4408C4773.11,4407.09 4773.13,4405.77 4773.03,4405.07C4772.96,4404.6 4772.73,4404.15 4772.52,4403.7C4772.25,4403.13 4772.03,4402.57 4772.03,4402C4772.03,4401.43 4772.29,4400.85 4772.58,4400.28C4772.79,4399.85 4773.03,4399.43 4773.03,4399C4773.03,4398.07 4772.08,4396.22 4772.08,4396.22C4771.95,4395.98 4772.05,4395.68 4772.3,4395.55C4772.55,4395.43 4772.85,4395.53 4772.97,4395.78C4772.97,4395.78 4774.03,4397.93 4774.03,4399C4774.03,4399.57 4773.76,4400.15 4773.47,4400.72C4773.26,4401.15 4773.03,4401.57 4773.03,4402C4773.03,4402.43 4773.22,4402.85 4773.42,4403.27C4773.67,4403.81 4773.94,4404.36 4774.02,4404.93C4774.12,4405.66 4774.1,4407.05 4774.07,4408L4776.9,4408C4776.9,4408 4777.12,4405.98 4776.9,4405C4776.67,4404 4775.59,4403 4775.53,4402C4775.46,4401 4776.53,4400 4776.53,4399C4776.53,4398 4776.04,4396.92 4775.53,4396C4774.69,4394.5 4771.53,4390 4771.53,4390C4771.53,4390 4768.86,4394.5 4768.53,4396C4768.3,4397.03 4769.53,4398 4769.53,4399C4769.53,4399.48 4769.29,4399.97 4769.05,4400.45Z" style="fill:rgb(3,10,29);"/>
            </g>
        </g>
    </g>
</svg>
