<?xml version="1.0" encoding="UTF-8" standalone="no"?>
<!DOCTYPE svg PUBLIC "-//W3C//DTD SVG 1.1//EN" "http://www.w3.org/Graphics/SVG/1.1/DTD/svg11.dtd">
<svg width="100%" height="100%" viewBox="0 0 100 126" version="1.1" xmlns="http://www.w3.org/2000/svg" xmlns:xlink="http://www.w3.org/1999/xlink" xml:space="preserve" xmlns:serif="http://www.serif.com/" style="fill-rule:evenodd;clip-rule:evenodd;stroke-linejoin:round;stroke-miterlimit:2;">
    <g transform="matrix(1,0,0,1,-13693,-316)">
        <g id="Queen-of-Seaweed" serif:id="Queen of Seaweed" transform="matrix(1,0,0,1,0,316.878)">
            <rect x="13693" y="0" width="100" height="125" style="fill:none;"/>
            <g transform="matrix(0.231477,0,0,0.231477,13126.4,-1265.81)">
                <path d="M2533.37,5558.46C2533.37,5560.52 2533.62,5562.38 2534.12,5564.03C2534.63,5565.68 2535.35,5567.1 2536.3,5568.29C2537.25,5569.48 2538.41,5570.4 2539.78,5571.05C2541.15,5571.69 2542.72,5572.01 2544.49,5572.01C2546.23,5572.01 2547.79,5571.69 2549.18,5571.05C2550.57,5570.4 2551.74,5569.48 2552.69,5568.29C2553.64,5567.1 2554.36,5565.68 2554.87,5564.03C2555.37,5562.38 2555.62,5560.52 2555.62,5558.46C2555.62,5556.41 2555.37,5554.54 2554.87,5552.87C2554.36,5551.2 2553.64,5549.77 2552.69,5548.58C2551.74,5547.39 2550.57,5546.47 2549.18,5545.82C2547.79,5545.18 2546.23,5544.86 2544.49,5544.86C2542.72,5544.86 2541.15,5545.19 2539.78,5545.85C2538.41,5546.52 2537.25,5547.45 2536.3,5548.64C2535.35,5549.83 2534.63,5551.26 2534.12,5552.93C2533.62,5554.6 2533.37,5556.45 2533.37,5558.46ZM2565.36,5558.46C2565.36,5561.41 2565,5564.06 2564.27,5566.42C2563.55,5568.78 2562.53,5570.84 2561.22,5572.62C2559.91,5574.39 2558.35,5575.86 2556.53,5577.03C2554.72,5578.2 2552.72,5579.05 2550.54,5579.57C2550.74,5580.38 2551.19,5581.03 2551.87,5581.54C2552.56,5582.04 2553.43,5582.45 2554.47,5582.78C2555.52,5583.1 2556.74,5583.34 2558.13,5583.5C2559.53,5583.66 2561.03,5583.81 2562.64,5583.93L2560.7,5590.82C2557.56,5590.7 2554.87,5590.39 2552.63,5589.88C2550.39,5589.38 2548.5,5588.69 2546.95,5587.8C2545.39,5586.91 2544.16,5585.82 2543.26,5584.53C2542.35,5583.24 2541.65,5581.75 2541.17,5580.06C2538.67,5579.73 2536.35,5579.04 2534.21,5577.97C2532.08,5576.9 2530.22,5575.46 2528.65,5573.65C2527.08,5571.83 2525.85,5569.65 2524.96,5567.11C2524.07,5564.57 2523.63,5561.69 2523.63,5558.46C2523.63,5554.88 2524.19,5551.72 2525.32,5549C2526.45,5546.28 2527.97,5543.99 2529.89,5542.14C2531.8,5540.28 2534.02,5538.89 2536.54,5537.96C2539.06,5537.03 2541.71,5536.57 2544.49,5536.57C2547.36,5536.57 2550.06,5537.03 2552.6,5537.96C2555.14,5538.89 2557.36,5540.28 2559.25,5542.14C2561.15,5543.99 2562.64,5546.28 2563.73,5549C2564.82,5551.72 2565.36,5554.88 2565.36,5558.46Z" style="fill:rgb(3,10,29);fill-rule:nonzero;"/>
            </g>
            <g transform="matrix(-0.231477,2.83478e-17,-2.83478e-17,-0.231477,14361.6,1390.81)">
                <path d="M2533.37,5558.46C2533.37,5560.52 2533.62,5562.38 2534.12,5564.03C2534.63,5565.68 2535.35,5567.1 2536.3,5568.29C2537.25,5569.48 2538.41,5570.4 2539.78,5571.05C2541.15,5571.69 2542.72,5572.01 2544.49,5572.01C2546.23,5572.01 2547.79,5571.69 2549.18,5571.05C2550.57,5570.4 2551.74,5569.48 2552.69,5568.29C2553.64,5567.1 2554.36,5565.68 2554.87,5564.03C2555.37,5562.38 2555.62,5560.52 2555.62,5558.46C2555.62,5556.41 2555.37,5554.54 2554.87,5552.87C2554.36,5551.2 2553.64,5549.77 2552.69,5548.58C2551.74,5547.39 2550.57,5546.47 2549.18,5545.82C2547.79,5545.18 2546.23,5544.86 2544.49,5544.86C2542.72,5544.86 2541.15,5545.19 2539.78,5545.85C2538.41,5546.52 2537.25,5547.45 2536.3,5548.64C2535.35,5549.83 2534.63,5551.26 2534.12,5552.93C2533.62,5554.6 2533.37,5556.45 2533.37,5558.46ZM2565.36,5558.46C2565.36,5561.41 2565,5564.06 2564.27,5566.42C2563.55,5568.78 2562.53,5570.84 2561.22,5572.62C2559.91,5574.39 2558.35,5575.86 2556.53,5577.03C2554.72,5578.2 2552.72,5579.05 2550.54,5579.57C2550.74,5580.38 2551.19,5581.03 2551.87,5581.54C2552.56,5582.04 2553.43,5582.45 2554.47,5582.78C2555.52,5583.1 2556.74,5583.34 2558.13,5583.5C2559.53,5583.66 2561.03,5583.81 2562.64,5583.93L2560.7,5590.82C2557.56,5590.7 2554.87,5590.39 2552.63,5589.88C2550.39,5589.38 2548.5,5588.69 2546.95,5587.8C2545.39,5586.91 2544.16,5585.82 2543.26,5584.53C2542.35,5583.24 2541.65,5581.75 2541.17,5580.06C2538.67,5579.73 2536.35,5579.04 2534.21,5577.97C2532.08,5576.9 2530.22,5575.46 2528.65,5573.65C2527.08,5571.83 2525.85,5569.65 2524.96,5567.11C2524.07,5564.57 2523.63,5561.69 2523.63,5558.46C2523.63,5554.88 2524.19,5551.72 2525.32,5549C2526.45,5546.28 2527.97,5543.99 2529.89,5542.14C2531.8,5540.28 2534.02,5538.89 2536.54,5537.96C2539.06,5537.03 2541.71,5536.57 2544.49,5536.57C2547.36,5536.57 2550.06,5537.03 2552.6,5537.96C2555.14,5538.89 2557.36,5540.28 2559.25,5542.14C2561.15,5543.99 2562.64,5546.28 2563.73,5549C2564.82,5551.72 2565.36,5554.88 2565.36,5558.46Z" style="fill:rgb(3,10,29);fill-rule:nonzero;"/>
            </g>
            <g transform="matrix(0.338159,-0.338159,0.338159,0.338159,9409.65,924.39)">
                <path d="M7644.79,5147.88L7647.26,5144.78C7648.87,5141.86 7649.81,5138.86 7651.5,5136.81C7652.79,5135.12 7654.24,5133.67 7655.69,5132.32C7658.91,5129.34 7662.31,5127.02 7664.82,5124.32C7663.61,5122.32 7663.18,5119.63 7663.78,5116.87C7658.1,5112.81 7653.86,5108.62 7651.7,5104.95C7650.4,5102.72 7649.84,5100.65 7650.06,5098.88L7650.05,5098.87C7650.13,5098.27 7650.29,5097.7 7650.55,5097.17L7650.65,5096.97C7651.44,5095.48 7652.92,5094.37 7655.01,5093.71C7655.39,5093.59 7655.8,5093.48 7656.23,5093.39L7656.32,5093.37C7656.64,5093.3 7656.98,5093.24 7657.33,5093.19C7658.27,5093.05 7659.29,5092.97 7660.39,5092.96C7662.38,5092.94 7664.62,5093.12 7667.04,5093.51L7667.04,5093.51C7669.04,5093.82 7671.08,5093.28 7672.67,5092L7672.68,5091.99C7675.72,5089.66 7680.48,5086.39 7686.97,5083.06C7689.98,5081.51 7695.1,5079.78 7699.65,5079.87C7702.89,5079.93 7705.82,5080.91 7707.65,5083.35C7709.73,5086.11 7709.63,5089.06 7708.73,5091.6C7707.46,5095.21 7704.54,5097.94 7704.54,5097.94L7703.52,5098.89C7703.52,5098.89 7702.67,5097.03 7702.67,5097.03C7703.01,5100.52 7703.75,5105.39 7705.29,5110.57C7708.72,5113.22 7711.5,5115.89 7713.47,5118.41L7713.56,5118.52C7714.17,5119.32 7714.71,5120.1 7715.15,5120.86C7715.22,5120.97 7715.28,5121.08 7715.34,5121.19L7715.69,5121.85C7716.89,5124.25 7717.16,5126.43 7716.48,5128.23L7716.2,5128.84C7715.79,5129.62 7715.18,5130.3 7714.39,5130.86L7714.39,5130.86C7713.17,5131.73 7711.53,5132.32 7709.52,5132.62C7704.68,5133.33 7697.57,5132.34 7689.58,5129.76C7687.11,5132.88 7683.65,5134.37 7680.59,5134.24C7679.65,5135.68 7678.99,5136.82 7678.66,5137.34C7677.64,5138.9 7674.82,5140.82 7674.81,5142.9C7674.79,5145.1 7687.48,5148.14 7686.7,5150.7C7685.89,5153.36 7676.37,5148.5 7674.81,5150.44C7673.38,5152.21 7678.18,5154.35 7680.26,5155.96L7682.25,5156.42L7683.14,5155.41C7684.11,5154.3 7685.8,5154.2 7686.9,5155.17L7687.19,5155.48C7688.13,5155.01 7689.3,5155.13 7690.14,5155.87L7690.43,5156.17C7691.37,5155.7 7692.54,5155.82 7693.38,5156.56L7693.67,5156.86C7694.44,5156.48 7695.37,5156.49 7696.14,5156.92C7697.96,5155.87 7700.17,5155.48 7702.38,5155.99C7709.74,5157.7 7725.18,5169.2 7725.18,5169.2C7725.49,5169.43 7725.64,5169.84 7725.55,5170.22C7725.46,5170.61 7725.15,5170.91 7724.76,5170.98C7724.76,5170.98 7705.84,5174.52 7698.49,5172.82C7695.18,5172.06 7692.77,5169.49 7692.03,5166.4C7691.04,5167.17 7689.61,5167.15 7688.64,5166.29L7688.35,5165.99C7687.4,5166.45 7686.24,5166.33 7685.4,5165.6L7685.11,5165.29C7684.17,5165.76 7683,5165.64 7682.16,5164.9L7681.87,5164.6C7680.93,5165.06 7679.76,5164.94 7678.93,5164.21L7678.93,5164.21C7678.17,5163.54 7677.89,5162.54 7678.09,5161.62L7664.58,5158.55C7665.22,5160.93 7665.37,5162.95 7666.3,5165.46C7666.44,5165.6 7666.44,5165.83 7666.29,5165.97C7666.15,5166.11 7665.92,5166.1 7665.78,5165.96C7663.79,5165.19 7662.4,5164.54 7660.62,5163.51C7659.85,5163.05 7659.27,5162.64 7658.6,5162.07C7658.37,5161.86 7658.17,5161.65 7657.99,5161.4C7657.73,5161.03 7657.55,5160.61 7657.39,5160.19C7656.94,5159 7656.64,5157.84 7656.41,5156.68L7648.49,5154.88C7648.49,5154.88 7648.3,5155.15 7648.28,5155.16C7647.7,5155.88 7647.01,5156.33 7646.19,5156.76C7645.82,5156.96 7645.4,5157.05 7644.96,5157.06L7644.9,5157.06C7643.02,5157.06 7640.85,5155.67 7640.84,5155.51C7640.73,5154.34 7641.64,5155.33 7641.71,5153.68L7641.73,5153.34L7621.74,5148.78C7620.12,5148.41 7619.11,5146.81 7619.48,5145.19C7619.85,5143.58 7621.46,5142.57 7623.07,5142.93L7644.79,5147.88ZM7689.82,5164.61C7689.86,5164.68 7689.9,5164.74 7689.96,5164.79C7689.96,5164.79 7689.96,5164.79 7689.96,5164.79C7690.24,5165.03 7690.66,5165.01 7690.9,5164.73L7692.05,5163.42C7692.33,5163.11 7692.78,5163 7693.18,5163.16C7693.57,5163.32 7693.82,5163.7 7693.8,5164.13C7693.67,5167.26 7695.78,5170.14 7698.94,5170.87C7704.52,5172.16 7716.95,5170.3 7722.1,5169.42C7717.86,5166.38 7707.51,5159.23 7701.93,5157.94C7700.03,5157.5 7698.14,5157.93 7696.65,5158.96C7696.24,5159.24 7695.68,5159.18 7695.34,5158.81L7695.29,5158.75C7695.01,5158.51 7694.59,5158.54 7694.35,5158.81L7694.25,5158.93C7694.18,5159.43 7693.97,5159.91 7693.61,5160.32L7689.82,5164.61ZM7692.11,5159L7692.18,5158.91L7692.23,5158.81L7692.25,5158.74C7692.26,5158.69 7692.27,5158.65 7692.27,5158.6L7692.28,5158.53C7692.27,5158.43 7692.24,5158.33 7692.2,5158.24C7692.18,5158.21 7692.16,5158.18 7692.14,5158.15L7692.05,5158.06L7691.99,5158.01L7691.88,5157.95L7691.82,5157.93L7691.69,5157.9L7691.57,5157.9L7691.46,5157.91L7691.37,5157.94C7691.28,5157.98 7691.19,5158.04 7691.11,5158.12L7686.65,5163.17L7686.58,5163.28L7686.53,5163.4L7686.51,5163.53L7686.5,5163.54C7686.49,5163.7 7686.53,5163.87 7686.64,5164L7686.73,5164.1L7686.83,5164.17L7686.88,5164.2L7686.98,5164.23L7687.09,5164.26C7687.21,5164.27 7687.34,5164.25 7687.45,5164.2C7687.47,5164.19 7687.49,5164.18 7687.51,5164.16L7687.59,5164.11L7687.76,5163.92L7692.11,5159ZM7689.03,5157.97C7689.06,5157.79 7689.02,5157.61 7688.9,5157.46L7688.81,5157.37C7688.76,5157.32 7688.69,5157.28 7688.62,5157.25L7688.5,5157.21L7688.37,5157.2L7688.25,5157.21L7688.13,5157.25C7688.07,5157.27 7688.02,5157.3 7687.97,5157.34L7687.88,5157.43L7683.42,5162.48L7683.35,5162.58L7683.29,5162.7L7683.27,5162.8C7683.24,5162.98 7683.29,5163.16 7683.4,5163.31L7683.49,5163.4L7683.55,5163.45L7683.64,5163.5L7683.74,5163.54L7683.84,5163.56L7683.94,5163.57L7684.01,5163.56L7684.1,5163.54L7684.19,5163.51C7684.22,5163.5 7684.25,5163.49 7684.27,5163.47C7684.31,5163.45 7684.35,5163.42 7684.38,5163.39L7684.63,5163.11L7688.87,5158.3C7688.96,5158.21 7689.01,5158.09 7689.03,5157.97ZM7681.42,5162.38L7685.64,5157.61C7685.72,5157.51 7685.77,5157.4 7685.79,5157.27C7685.81,5157.16 7685.8,5157.05 7685.76,5156.94C7685.74,5156.88 7685.71,5156.82 7685.67,5156.77L7685.59,5156.68L7685.58,5156.67C7685.53,5156.63 7685.49,5156.6 7685.43,5156.58L7685.35,5156.54C7685.33,5156.54 7685.32,5156.53 7685.3,5156.53C7685.22,5156.51 7685.13,5156.5 7685.04,5156.51L7684.93,5156.54L7684.89,5156.55C7684.8,5156.59 7684.71,5156.65 7684.64,5156.73L7680.18,5161.79L7680.13,5161.85L7680.07,5161.97L7680.04,5162.08C7680.04,5162.09 7680.04,5162.1 7680.03,5162.1C7680.01,5162.23 7680.03,5162.36 7680.09,5162.48L7680.12,5162.55C7680.15,5162.6 7680.19,5162.66 7680.24,5162.7L7680.34,5162.77L7680.43,5162.82L7680.5,5162.85C7680.55,5162.86 7680.6,5162.87 7680.65,5162.87L7680.78,5162.87L7680.86,5162.85L7680.93,5162.83C7680.99,5162.81 7681.03,5162.78 7681.08,5162.75C7681.09,5162.74 7681.1,5162.73 7681.11,5162.73L7681.42,5162.38ZM7679.24,5159.83L7649.24,5153L7649.73,5151.06L7680.74,5158.12L7679.24,5159.83ZM7666.65,5152.86L7659.76,5151.29C7659.66,5151.07 7659.58,5150.83 7659.51,5150.6C7658.91,5148.64 7659.03,5146.63 7659.56,5144.82C7659.65,5144.49 7659.77,5144.17 7659.9,5143.86C7661.07,5148.06 7663.8,5150.88 7666.65,5152.86ZM7643.25,5149.58L7642.03,5151.35L7622.18,5146.83C7621.65,5146.71 7621.31,5146.17 7621.43,5145.64C7621.55,5145.1 7622.09,5144.76 7622.63,5144.88L7643.25,5149.58ZM7655.64,5150.35L7650.11,5149.09L7650.28,5148.3C7650.42,5147.6 7650.58,5146.93 7650.79,5146.27C7651.71,5143.47 7652.91,5140.97 7654.37,5139.14C7655.6,5137.69 7656.94,5136.45 7658.31,5135.33C7658.9,5134.84 7659.5,5134.38 7660.1,5133.93C7659.75,5135 7659.5,5136.12 7659.39,5137.31C7659.37,5137.53 7659.35,5137.76 7659.34,5137.98C7657.73,5139.76 7656.68,5141.74 7656.09,5143.82C7655.51,5145.89 7655.47,5148.07 7655.64,5150.35ZM7690.75,5128.04C7691.39,5126.91 7691.84,5125.75 7692.1,5124.6L7692.13,5124.62C7693.29,5125.3 7694.7,5125.34 7695.9,5124.73C7697.09,5124.12 7697.89,5122.95 7698.02,5121.62L7698.42,5117.62C7695.24,5114.4 7690.28,5110.97 7684.34,5108.13C7678.66,5105.41 7673.12,5103.73 7668.71,5103.19L7667.72,5103.88C7666.62,5104.65 7665.99,5105.92 7666.05,5107.26C7666.09,5108.43 7666.66,5109.51 7667.58,5110.22C7666.86,5110.89 7666.2,5111.68 7665.61,5112.58C7665.12,5113.33 7664.72,5114.1 7664.41,5114.87C7660.55,5112.06 7657.42,5109.21 7655.25,5106.52C7653.84,5104.78 7652.84,5103.12 7652.35,5101.6C7652.11,5100.88 7651.99,5100.2 7652,5099.57C7654.03,5098.34 7657.3,5097.98 7661.35,5098.31C7668.17,5098.87 7677.13,5101.47 7686.34,5105.88C7696.04,5110.52 7703.99,5116.19 7708.62,5121.37C7711.33,5124.4 7712.92,5127.19 7712.85,5129.48C7712.52,5129.69 7712.14,5129.86 7711.73,5130.02C7710.24,5130.59 7708.32,5130.85 7706.08,5130.85C7701.87,5130.84 7696.56,5129.88 7690.75,5128.04ZM7687.07,5126.39L7686.55,5127.15L7686.02,5127.79L7685.46,5128.36L7685.06,5128.71C7683.08,5130.35 7680.7,5130.84 7679.03,5129.75C7676.77,5128.27 7676.66,5124.44 7678.77,5121.21C7680.89,5117.98 7684.44,5116.56 7686.7,5118.03C7688.92,5119.49 7689.07,5123.2 7687.07,5126.39ZM7699.21,5081.86C7699.01,5081.87 7698.82,5081.87 7698.61,5081.88L7698.11,5081.91C7697.8,5081.93 7697.48,5081.96 7697.16,5081.99L7696.69,5082.05C7696.12,5082.13 7695.56,5082.23 7695,5082.35L7694.19,5082.53L7693.41,5082.73L7692.53,5082.98C7691.92,5083.17 7691.33,5083.37 7690.76,5083.58C7690.54,5083.67 7690.31,5083.75 7690.1,5083.84C7689.93,5083.9 7689.78,5083.97 7689.62,5084.03C7689.06,5084.27 7688.55,5084.5 7688.08,5084.74C7688.01,5084.77 7687.95,5084.8 7687.89,5084.84C7686.13,5085.74 7684.51,5086.63 7683.01,5087.51L7682.48,5087.82C7682.27,5087.94 7682.07,5088.06 7681.87,5088.19C7680.96,5088.73 7680.11,5089.26 7679.31,5089.78C7679.19,5089.86 7679.07,5089.93 7678.96,5090.01C7676.96,5091.31 7675.3,5092.51 7673.97,5093.53L7673.28,5094.03L7672.72,5094.38L7672.3,5094.61C7670.64,5095.45 7668.75,5095.77 7666.88,5095.51L7665.7,5095.33L7665.35,5095.28L7664.71,5095.2C7664.5,5095.18 7664.29,5095.16 7664.09,5095.14C7661.12,5094.83 7658.55,5094.9 7656.51,5095.37L7656.28,5095.43C7656.05,5095.48 7655.83,5095.55 7655.61,5095.62C7654.63,5095.93 7653.81,5096.35 7653.2,5096.91L7653.96,5096.71L7654.87,5096.52L7655.84,5096.37L7657,5096.27L7658.21,5096.21L7659.13,5096.21L7660,5096.23L7660.9,5096.28L7661.51,5096.32C7663.53,5096.48 7665.72,5096.82 7668.05,5097.32C7673.44,5098.48 7679.55,5100.54 7685.82,5103.42C7686.28,5103.64 7686.74,5103.85 7687.21,5104.07C7697.18,5108.85 7705.35,5114.71 7710.11,5120.03C7712.5,5122.71 7714.03,5125.28 7714.6,5127.54C7715.09,5126.31 7714.86,5124.84 7714.13,5123.21L7713.9,5122.74L7713.57,5122.12L7713.21,5121.51C7711.95,5119.48 7710.02,5117.28 7707.55,5115.05L7706.85,5114.43L7705.8,5113.54L7704.5,5112.48L7703.56,5111.77L7703.47,5111.46C7703.18,5110.51 7702.92,5109.58 7702.69,5108.66L7702.58,5108.23C7702.26,5106.96 7701.99,5105.72 7701.75,5104.53L7701.51,5103.23L7701.31,5102.04L7701.15,5100.99L7701,5099.94L7700.82,5098.53L7700.68,5097.26L7700.56,5095.89L7700.46,5094.48L7700.4,5093.28L7700.36,5091.88L7700.36,5091.78L7702.27,5091.37L7704.14,5095.44C7704.71,5094.77 7705.44,5093.81 7706.06,5092.67L7706.29,5092.23L7706.54,5091.7C7706.6,5091.56 7706.66,5091.42 7706.72,5091.27C7706.81,5091.05 7706.89,5090.81 7706.97,5090.57C7707.02,5090.39 7707.07,5090.21 7707.12,5090.02L7707.15,5089.9C7707.19,5089.73 7707.22,5089.55 7707.25,5089.38C7707.39,5088.49 7707.37,5087.58 7707.11,5086.66L7707.11,5086.64C7706.95,5086.09 7706.71,5085.53 7706.36,5084.99L7706.05,5084.55C7705.98,5084.45 7705.9,5084.35 7705.82,5084.26C7705.67,5084.08 7705.51,5083.91 7705.34,5083.76L7704.97,5083.44L7704.52,5083.13L7704.41,5083.06C7704.3,5082.99 7704.18,5082.93 7704.07,5082.86C7704.01,5082.83 7703.95,5082.81 7703.9,5082.78C7703.74,5082.7 7703.57,5082.62 7703.41,5082.56C7703.35,5082.53 7703.29,5082.51 7703.23,5082.49C7702.74,5082.3 7702.23,5082.17 7701.7,5082.07L7701.16,5081.98L7700.43,5081.9L7700.09,5081.88C7699.93,5081.88 7699.77,5081.87 7699.61,5081.87C7699.48,5081.86 7699.35,5081.86 7699.21,5081.86ZM7671.24,5112.33L7671.77,5111.97L7672.08,5111.79C7672.57,5111.52 7673.07,5111.31 7673.56,5111.18C7672.41,5115.48 7670.26,5118.85 7667.97,5121.9C7667.03,5120.05 7667.34,5117.24 7668.96,5114.77C7669.61,5113.77 7670.4,5112.95 7671.24,5112.33Z" style="fill:rgb(3,10,29);"/>
            </g>
            <g transform="matrix(1,0,0,1,8999.44,-4319.64)">
                <path d="M4769.05,4400.45L4769,4400.55C4768.76,4401.03 4768.53,4401.52 4768.53,4402C4768.53,4403 4769.36,4404 4769.53,4405C4769.69,4405.99 4769.53,4408 4769.53,4408L4773.07,4408C4773.11,4407.09 4773.13,4405.77 4773.03,4405.07C4772.96,4404.6 4772.73,4404.15 4772.52,4403.7C4772.25,4403.13 4772.03,4402.57 4772.03,4402C4772.03,4401.43 4772.29,4400.85 4772.58,4400.28C4772.79,4399.85 4773.03,4399.43 4773.03,4399C4773.03,4398.07 4772.08,4396.22 4772.08,4396.22C4771.95,4395.98 4772.05,4395.68 4772.3,4395.55C4772.55,4395.43 4772.85,4395.53 4772.97,4395.78C4772.97,4395.78 4774.03,4397.93 4774.03,4399C4774.03,4399.57 4773.76,4400.15 4773.47,4400.72C4773.26,4401.15 4773.03,4401.57 4773.03,4402C4773.03,4402.43 4773.22,4402.85 4773.42,4403.27C4773.67,4403.81 4773.94,4404.36 4774.02,4404.93C4774.12,4405.66 4774.1,4407.05 4774.07,4408L4776.9,4408C4776.9,4408 4777.12,4405.98 4776.9,4405C4776.67,4404 4775.59,4403 4775.53,4402C4775.46,4401 4776.53,4400 4776.53,4399C4776.53,4398 4776.04,4396.92 4775.53,4396C4774.69,4394.5 4771.53,4390 4771.53,4390C4771.53,4390 4768.86,4394.5 4768.53,4396C4768.3,4397.03 4769.53,4398 4769.53,4399C4769.53,4399.48 4769.29,4399.97 4769.05,4400.45Z" style="fill:rgb(3,10,29);"/>
            </g>
            <g transform="matrix(-1,-1.22465e-16,1.22465e-16,-1,18486.6,4439.15)">
                <path d="M4769.05,4400.45L4769,4400.55C4768.76,4401.03 4768.53,4401.52 4768.53,4402C4768.53,4403 4769.36,4404 4769.53,4405C4769.69,4405.99 4769.53,4408 4769.53,4408L4773.07,4408C4773.11,4407.09 4773.13,4405.77 4773.03,4405.07C4772.96,4404.6 4772.73,4404.15 4772.52,4403.7C4772.25,4403.13 4772.03,4402.57 4772.03,4402C4772.03,4401.43 4772.29,4400.85 4772.58,4400.28C4772.79,4399.85 4773.03,4399.43 4773.03,4399C4773.03,4398.07 4772.08,4396.22 4772.08,4396.22C4771.95,4395.98 4772.05,4395.68 4772.3,4395.55C4772.55,4395.43 4772.85,4395.53 4772.97,4395.78C4772.97,4395.78 4774.03,4397.93 4774.03,4399C4774.03,4399.57 4773.76,4400.15 4773.47,4400.72C4773.26,4401.15 4773.03,4401.57 4773.03,4402C4773.03,4402.43 4773.22,4402.85 4773.42,4403.27C4773.67,4403.81 4773.94,4404.36 4774.02,4404.93C4774.12,4405.66 4774.1,4407.05 4774.07,4408L4776.9,4408C4776.9,4408 4777.12,4405.98 4776.9,4405C4776.67,4404 4775.59,4403 4775.53,4402C4775.46,4401 4776.53,4400 4776.53,4399C4776.53,4398 4776.04,4396.92 4775.53,4396C4774.69,4394.5 4771.53,4390 4771.53,4390C4771.53,4390 4768.86,4394.5 4768.53,4396C4768.3,4397.03 4769.53,4398 4769.53,4399C4769.53,4399.48 4769.29,4399.97 4769.05,4400.45Z" style="fill:rgb(3,10,29);"/>
            </g>
        </g>
    </g>
</svg>
