<?xml version="1.0" encoding="UTF-8" standalone="no"?>
<!DOCTYPE svg PUBLIC "-//W3C//DTD SVG 1.1//EN" "http://www.w3.org/Graphics/SVG/1.1/DTD/svg11.dtd">
<svg width="100%" height="100%" viewBox="0 0 100 126" version="1.1" xmlns="http://www.w3.org/2000/svg" xmlns:xlink="http://www.w3.org/1999/xlink" xml:space="preserve" xmlns:serif="http://www.serif.com/" style="fill-rule:evenodd;clip-rule:evenodd;stroke-linejoin:round;stroke-miterlimit:2;">
    <g transform="matrix(1,0,0,1,-12943,-316)">
        <g id="Seven-of-Seaweed" serif:id="Seven of Seaweed" transform="matrix(1,0,0,1,0,316.878)">
            <rect x="12943" y="0" width="100" height="125" style="fill:none;"/>
            <g transform="matrix(0.231477,0,0,0.231477,12376.4,-1265.81)">
                <path d="M2529.19,5579.45C2529.44,5576.51 2529.94,5573.44 2530.71,5570.26C2531.47,5567.07 2532.41,5563.95 2533.52,5560.88C2534.63,5557.82 2535.87,5554.93 2537.24,5552.2C2538.61,5549.48 2540,5547.13 2541.41,5545.16L2523.21,5545.16L2523.21,5537.48L2552.54,5537.48L2552.54,5544.01C2551.25,5545.42 2549.83,5547.38 2548.28,5549.88C2546.72,5552.38 2545.25,5555.21 2543.86,5558.37C2542.47,5561.54 2541.26,5564.94 2540.23,5568.57C2539.2,5572.19 2538.57,5575.82 2538.33,5579.45L2529.19,5579.45Z" style="fill:rgb(3,10,29);fill-rule:nonzero;"/>
            </g>
            <g transform="matrix(-0.231477,2.83478e-17,-2.83478e-17,-0.231477,13611.6,1390.81)">
                <path d="M2529.19,5579.45C2529.44,5576.51 2529.94,5573.44 2530.71,5570.26C2531.47,5567.07 2532.41,5563.95 2533.52,5560.88C2534.63,5557.82 2535.87,5554.93 2537.24,5552.2C2538.61,5549.48 2540,5547.13 2541.41,5545.16L2523.21,5545.16L2523.21,5537.48L2552.54,5537.48L2552.54,5544.01C2551.25,5545.42 2549.83,5547.38 2548.28,5549.88C2546.72,5552.38 2545.25,5555.21 2543.86,5558.37C2542.47,5561.54 2541.26,5564.94 2540.23,5568.57C2539.2,5572.19 2538.57,5575.82 2538.33,5579.45L2529.19,5579.45Z" style="fill:rgb(3,10,29);fill-rule:nonzero;"/>
            </g>
            <g transform="matrix(1,0,0,1,8232.76,-4347.5)">
                <path d="M4769.05,4400.45L4769,4400.55C4768.76,4401.03 4768.53,4401.52 4768.53,4402C4768.53,4403 4769.36,4404 4769.53,4405C4769.69,4405.99 4769.53,4408 4769.53,4408L4773.07,4408C4773.11,4407.09 4773.13,4405.77 4773.03,4405.07C4772.96,4404.6 4772.73,4404.15 4772.52,4403.7C4772.25,4403.13 4772.03,4402.57 4772.03,4402C4772.03,4401.43 4772.29,4400.85 4772.58,4400.28C4772.79,4399.85 4773.03,4399.43 4773.03,4399C4773.03,4398.07 4772.08,4396.22 4772.08,4396.22C4771.95,4395.98 4772.05,4395.68 4772.3,4395.55C4772.55,4395.43 4772.85,4395.53 4772.97,4395.78C4772.97,4395.78 4774.03,4397.93 4774.03,4399C4774.03,4399.57 4773.76,4400.15 4773.47,4400.72C4773.26,4401.15 4773.03,4401.57 4773.03,4402C4773.03,4402.43 4773.22,4402.85 4773.42,4403.27C4773.67,4403.81 4773.94,4404.36 4774.02,4404.93C4774.12,4405.66 4774.1,4407.05 4774.07,4408L4776.9,4408C4776.9,4408 4777.12,4405.98 4776.9,4405C4776.67,4404 4775.59,4403 4775.53,4402C4775.46,4401 4776.53,4400 4776.53,4399C4776.53,4398 4776.04,4396.92 4775.53,4396C4774.69,4394.5 4771.53,4390 4771.53,4390C4771.53,4390 4768.86,4394.5 4768.53,4396C4768.3,4397.03 4769.53,4398 4769.53,4399C4769.53,4399.48 4769.29,4399.97 4769.05,4400.45Z" style="fill:rgb(3,10,29);"/>
            </g>
            <g transform="matrix(-1,1.22465e-16,-1.22465e-16,-1,17753.2,4472.5)">
                <path d="M4769.05,4400.45L4769,4400.55C4768.76,4401.03 4768.53,4401.52 4768.53,4402C4768.53,4403 4769.36,4404 4769.53,4405C4769.69,4405.99 4769.53,4408 4769.53,4408L4773.07,4408C4773.11,4407.09 4773.13,4405.77 4773.03,4405.07C4772.96,4404.6 4772.73,4404.15 4772.52,4403.7C4772.25,4403.13 4772.03,4402.57 4772.03,4402C4772.03,4401.43 4772.29,4400.85 4772.58,4400.28C4772.79,4399.85 4773.03,4399.43 4773.03,4399C4773.03,4398.07 4772.08,4396.22 4772.08,4396.22C4771.95,4395.98 4772.05,4395.68 4772.3,4395.55C4772.55,4395.43 4772.85,4395.53 4772.97,4395.78C4772.97,4395.78 4774.03,4397.93 4774.03,4399C4774.03,4399.57 4773.76,4400.15 4773.47,4400.72C4773.26,4401.15 4773.03,4401.57 4773.03,4402C4773.03,4402.43 4773.22,4402.85 4773.42,4403.27C4773.67,4403.81 4773.94,4404.36 4774.02,4404.93C4774.12,4405.66 4774.1,4407.05 4774.07,4408L4776.9,4408C4776.9,4408 4777.12,4405.98 4776.9,4405C4776.67,4404 4775.59,4403 4775.53,4402C4775.46,4401 4776.53,4400 4776.53,4399C4776.53,4398 4776.04,4396.92 4775.53,4396C4774.69,4394.5 4771.53,4390 4771.53,4390C4771.53,4390 4768.86,4394.5 4768.53,4396C4768.3,4397.03 4769.53,4398 4769.53,4399C4769.53,4399.48 4769.29,4399.97 4769.05,4400.45Z" style="fill:rgb(3,10,29);"/>
            </g>
            <g transform="matrix(1,0,0,1,8207.75,-4347.5)">
                <path d="M4769.05,4400.45L4769,4400.55C4768.76,4401.03 4768.53,4401.52 4768.53,4402C4768.53,4403 4769.36,4404 4769.53,4405C4769.69,4405.99 4769.53,4408 4769.53,4408L4773.07,4408C4773.11,4407.09 4773.13,4405.77 4773.03,4405.07C4772.96,4404.6 4772.73,4404.15 4772.52,4403.7C4772.25,4403.13 4772.03,4402.57 4772.03,4402C4772.03,4401.43 4772.29,4400.85 4772.58,4400.28C4772.79,4399.85 4773.03,4399.43 4773.03,4399C4773.03,4398.07 4772.08,4396.22 4772.08,4396.22C4771.95,4395.98 4772.05,4395.68 4772.3,4395.55C4772.55,4395.43 4772.85,4395.53 4772.97,4395.78C4772.97,4395.78 4774.03,4397.93 4774.03,4399C4774.03,4399.57 4773.76,4400.15 4773.47,4400.72C4773.26,4401.15 4773.03,4401.57 4773.03,4402C4773.03,4402.43 4773.22,4402.85 4773.42,4403.27C4773.67,4403.81 4773.94,4404.36 4774.02,4404.93C4774.12,4405.66 4774.1,4407.05 4774.07,4408L4776.9,4408C4776.9,4408 4777.12,4405.98 4776.9,4405C4776.67,4404 4775.59,4403 4775.53,4402C4775.46,4401 4776.53,4400 4776.53,4399C4776.53,4398 4776.04,4396.92 4775.53,4396C4774.69,4394.5 4771.53,4390 4771.53,4390C4771.53,4390 4768.86,4394.5 4768.53,4396C4768.3,4397.03 4769.53,4398 4769.53,4399C4769.53,4399.48 4769.29,4399.97 4769.05,4400.45Z" style="fill:rgb(3,10,29);"/>
            </g>
            <g transform="matrix(-1,1.22465e-16,-1.22465e-16,-1,17778.3,4472.5)">
                <path d="M4769.05,4400.45L4769,4400.55C4768.76,4401.03 4768.53,4401.52 4768.53,4402C4768.53,4403 4769.36,4404 4769.53,4405C4769.69,4405.99 4769.53,4408 4769.53,4408L4773.07,4408C4773.11,4407.09 4773.13,4405.77 4773.03,4405.07C4772.96,4404.6 4772.73,4404.15 4772.52,4403.7C4772.25,4403.13 4772.03,4402.57 4772.03,4402C4772.03,4401.43 4772.29,4400.85 4772.58,4400.28C4772.79,4399.85 4773.03,4399.43 4773.03,4399C4773.03,4398.07 4772.08,4396.22 4772.08,4396.22C4771.95,4395.98 4772.05,4395.68 4772.3,4395.55C4772.55,4395.43 4772.85,4395.53 4772.97,4395.78C4772.97,4395.78 4774.03,4397.93 4774.03,4399C4774.03,4399.57 4773.76,4400.15 4773.47,4400.72C4773.26,4401.15 4773.03,4401.57 4773.03,4402C4773.03,4402.43 4773.22,4402.85 4773.42,4403.27C4773.67,4403.81 4773.94,4404.36 4774.02,4404.93C4774.12,4405.66 4774.1,4407.05 4774.07,4408L4776.9,4408C4776.9,4408 4777.12,4405.98 4776.9,4405C4776.67,4404 4775.59,4403 4775.53,4402C4775.46,4401 4776.53,4400 4776.53,4399C4776.53,4398 4776.04,4396.92 4775.53,4396C4774.69,4394.5 4771.53,4390 4771.53,4390C4771.53,4390 4768.86,4394.5 4768.53,4396C4768.3,4397.03 4769.53,4398 4769.53,4399C4769.53,4399.48 4769.29,4399.97 4769.05,4400.45Z" style="fill:rgb(3,10,29);"/>
            </g>
            <g transform="matrix(-1,-1.22465e-16,1.22465e-16,-1,17765.7,4463.5)">
                <path d="M4769.05,4400.45L4769,4400.55C4768.76,4401.03 4768.53,4401.52 4768.53,4402C4768.53,4403 4769.36,4404 4769.53,4405C4769.69,4405.99 4769.53,4408 4769.53,4408L4773.07,4408C4773.11,4407.09 4773.13,4405.77 4773.03,4405.07C4772.96,4404.6 4772.73,4404.15 4772.52,4403.7C4772.25,4403.13 4772.03,4402.57 4772.03,4402C4772.03,4401.43 4772.29,4400.85 4772.58,4400.28C4772.79,4399.85 4773.03,4399.43 4773.03,4399C4773.03,4398.07 4772.08,4396.22 4772.08,4396.22C4771.95,4395.98 4772.05,4395.68 4772.3,4395.55C4772.55,4395.43 4772.85,4395.53 4772.97,4395.78C4772.97,4395.78 4774.03,4397.93 4774.03,4399C4774.03,4399.57 4773.76,4400.15 4773.47,4400.72C4773.26,4401.15 4773.03,4401.57 4773.03,4402C4773.03,4402.43 4773.22,4402.85 4773.42,4403.27C4773.67,4403.81 4773.94,4404.36 4774.02,4404.93C4774.12,4405.66 4774.1,4407.05 4774.07,4408L4776.9,4408C4776.9,4408 4777.12,4405.98 4776.9,4405C4776.67,4404 4775.59,4403 4775.53,4402C4775.46,4401 4776.53,4400 4776.53,4399C4776.53,4398 4776.04,4396.92 4775.53,4396C4774.69,4394.5 4771.53,4390 4771.53,4390C4771.53,4390 4768.86,4394.5 4768.53,4396C4768.3,4397.03 4769.53,4398 4769.53,4399C4769.53,4399.48 4769.29,4399.97 4769.05,4400.45Z" style="fill:rgb(3,10,29);"/>
            </g>
            <g transform="matrix(-1,-1.22465e-16,1.22465e-16,-1,17765.7,4485.5)">
                <path d="M4769.05,4400.45L4769,4400.55C4768.76,4401.03 4768.53,4401.52 4768.53,4402C4768.53,4403 4769.36,4404 4769.53,4405C4769.69,4405.99 4769.53,4408 4769.53,4408L4773.07,4408C4773.11,4407.09 4773.13,4405.77 4773.03,4405.07C4772.96,4404.6 4772.73,4404.15 4772.52,4403.7C4772.25,4403.13 4772.03,4402.57 4772.03,4402C4772.03,4401.43 4772.29,4400.85 4772.58,4400.28C4772.79,4399.85 4773.03,4399.43 4773.03,4399C4773.03,4398.07 4772.08,4396.22 4772.08,4396.22C4771.95,4395.98 4772.05,4395.68 4772.3,4395.55C4772.55,4395.43 4772.85,4395.53 4772.97,4395.78C4772.97,4395.78 4774.03,4397.93 4774.03,4399C4774.03,4399.57 4773.76,4400.15 4773.47,4400.72C4773.26,4401.15 4773.03,4401.57 4773.03,4402C4773.03,4402.43 4773.22,4402.85 4773.42,4403.27C4773.67,4403.81 4773.94,4404.36 4774.02,4404.93C4774.12,4405.66 4774.1,4407.05 4774.07,4408L4776.9,4408C4776.9,4408 4777.12,4405.98 4776.9,4405C4776.67,4404 4775.59,4403 4775.53,4402C4775.46,4401 4776.53,4400 4776.53,4399C4776.53,4398 4776.04,4396.92 4775.53,4396C4774.69,4394.5 4771.53,4390 4771.53,4390C4771.53,4390 4768.86,4394.5 4768.53,4396C4768.3,4397.03 4769.53,4398 4769.53,4399C4769.53,4399.48 4769.29,4399.97 4769.05,4400.45Z" style="fill:rgb(3,10,29);"/>
            </g>
            <g transform="matrix(-1,-1.22465e-16,1.22465e-16,-1,17765.7,4441.5)">
                <path d="M4769.05,4400.45L4769,4400.55C4768.76,4401.03 4768.53,4401.52 4768.53,4402C4768.53,4403 4769.36,4404 4769.53,4405C4769.69,4405.99 4769.53,4408 4769.53,4408L4773.07,4408C4773.11,4407.09 4773.13,4405.77 4773.03,4405.07C4772.96,4404.6 4772.73,4404.15 4772.52,4403.7C4772.25,4403.13 4772.03,4402.57 4772.03,4402C4772.03,4401.43 4772.29,4400.85 4772.58,4400.28C4772.79,4399.85 4773.03,4399.43 4773.03,4399C4773.03,4398.07 4772.08,4396.22 4772.08,4396.22C4771.95,4395.98 4772.05,4395.68 4772.3,4395.55C4772.55,4395.43 4772.85,4395.53 4772.97,4395.78C4772.97,4395.78 4774.03,4397.93 4774.03,4399C4774.03,4399.57 4773.76,4400.15 4773.47,4400.72C4773.26,4401.15 4773.03,4401.57 4773.03,4402C4773.03,4402.43 4773.22,4402.85 4773.42,4403.27C4773.67,4403.81 4773.94,4404.36 4774.02,4404.93C4774.12,4405.66 4774.1,4407.05 4774.07,4408L4776.9,4408C4776.9,4408 4777.12,4405.98 4776.9,4405C4776.67,4404 4775.59,4403 4775.53,4402C4775.46,4401 4776.53,4400 4776.53,4399C4776.53,4398 4776.04,4396.92 4775.53,4396C4774.69,4394.5 4771.53,4390 4771.53,4390C4771.53,4390 4768.86,4394.5 4768.53,4396C4768.3,4397.03 4769.53,4398 4769.53,4399C4769.53,4399.48 4769.29,4399.97 4769.05,4400.45Z" style="fill:rgb(3,10,29);"/>
            </g>
        </g>
    </g>
</svg>
