<?xml version="1.0" encoding="UTF-8" standalone="no"?>
<!DOCTYPE svg PUBLIC "-//W3C//DTD SVG 1.1//EN" "http://www.w3.org/Graphics/SVG/1.1/DTD/svg11.dtd">
<svg width="100%" height="100%" viewBox="0 0 100 126" version="1.1" xmlns="http://www.w3.org/2000/svg" xmlns:xlink="http://www.w3.org/1999/xlink" xml:space="preserve" xmlns:serif="http://www.serif.com/" style="fill-rule:evenodd;clip-rule:evenodd;stroke-linejoin:round;stroke-miterlimit:2;">
    <g transform="matrix(1,0,0,1,-12793,-316)">
        <g id="Six-of-Seaweed" serif:id="Six of Seaweed" transform="matrix(1,0,0,1,0,316.878)">
            <rect x="12793" y="0" width="100" height="125" style="fill:none;"/>
            <g transform="matrix(0.231477,0,0,0.231477,12226.4,-1265.81)">
                <path d="M2537.18,5559.73C2536.29,5559.73 2535.34,5559.82 2534.34,5559.98C2533.33,5560.14 2532.54,5560.36 2531.98,5560.64C2531.98,5560.8 2531.97,5561.05 2531.95,5561.37C2531.93,5561.69 2531.91,5561.97 2531.91,5562.21C2531.91,5563.67 2532.02,5565.04 2532.22,5566.33C2532.42,5567.62 2532.76,5568.75 2533.25,5569.71C2533.73,5570.68 2534.38,5571.44 2535.18,5571.98C2535.99,5572.53 2537,5572.8 2538.2,5572.8C2539.21,5572.8 2540.07,5572.59 2540.78,5572.16C2541.48,5571.74 2542.07,5571.21 2542.53,5570.56C2542.99,5569.92 2543.34,5569.2 2543.56,5568.41C2543.78,5567.63 2543.89,5566.87 2543.89,5566.15C2543.89,5564.09 2543.38,5562.51 2542.35,5561.4C2541.32,5560.29 2539.6,5559.73 2537.18,5559.73ZM2538.33,5552.72C2540.95,5552.72 2543.18,5553.07 2545.01,5553.78C2546.84,5554.48 2548.35,5555.44 2549.51,5556.65C2550.68,5557.86 2551.53,5559.27 2552.06,5560.88C2552.58,5562.5 2552.84,5564.21 2552.84,5566.03C2552.84,5567.64 2552.55,5569.29 2551.97,5570.98C2551.38,5572.68 2550.49,5574.21 2549.3,5575.58C2548.11,5576.95 2546.6,5578.08 2544.77,5578.97C2542.93,5579.86 2540.77,5580.3 2538.27,5580.3C2533.23,5580.3 2529.39,5578.7 2526.77,5575.52C2524.15,5572.34 2522.84,5567.94 2522.84,5562.34C2522.84,5558.3 2523.47,5554.73 2524.72,5551.63C2525.97,5548.53 2527.75,5545.91 2530.07,5543.8C2532.39,5541.68 2535.19,5540.07 2538.48,5538.96C2541.76,5537.85 2545.46,5537.28 2549.58,5537.24C2549.66,5538.49 2549.74,5539.7 2549.82,5540.9C2549.9,5542.08 2549.98,5543.32 2550.06,5544.61C2548,5544.65 2546.08,5544.85 2544.28,5545.19C2542.49,5545.53 2540.86,5546.07 2539.39,5546.79C2537.91,5547.52 2536.63,5548.45 2535.54,5549.6C2534.46,5550.75 2533.61,5552.15 2533,5553.81C2533.89,5553.4 2534.8,5553.12 2535.73,5552.96C2536.65,5552.8 2537.52,5552.72 2538.33,5552.72Z" style="fill:rgb(3,10,29);fill-rule:nonzero;"/>
            </g>
            <g transform="matrix(-0.231477,2.83478e-17,-2.83478e-17,-0.231477,13461.6,1390.81)">
                <path d="M2537.18,5559.73C2536.29,5559.73 2535.34,5559.82 2534.34,5559.98C2533.33,5560.14 2532.54,5560.36 2531.98,5560.64C2531.98,5560.8 2531.97,5561.05 2531.95,5561.37C2531.93,5561.69 2531.91,5561.97 2531.91,5562.21C2531.91,5563.67 2532.02,5565.04 2532.22,5566.33C2532.42,5567.62 2532.76,5568.75 2533.25,5569.71C2533.73,5570.68 2534.38,5571.44 2535.18,5571.98C2535.99,5572.53 2537,5572.8 2538.2,5572.8C2539.21,5572.8 2540.07,5572.59 2540.78,5572.16C2541.48,5571.74 2542.07,5571.21 2542.53,5570.56C2542.99,5569.92 2543.34,5569.2 2543.56,5568.41C2543.78,5567.63 2543.89,5566.87 2543.89,5566.15C2543.89,5564.09 2543.38,5562.51 2542.35,5561.4C2541.32,5560.29 2539.6,5559.73 2537.18,5559.73ZM2538.33,5552.72C2540.95,5552.72 2543.18,5553.07 2545.01,5553.78C2546.84,5554.48 2548.35,5555.44 2549.51,5556.65C2550.68,5557.86 2551.53,5559.27 2552.06,5560.88C2552.58,5562.5 2552.84,5564.21 2552.84,5566.03C2552.84,5567.64 2552.55,5569.29 2551.97,5570.98C2551.38,5572.68 2550.49,5574.21 2549.3,5575.58C2548.11,5576.95 2546.6,5578.08 2544.77,5578.97C2542.93,5579.86 2540.77,5580.3 2538.27,5580.3C2533.23,5580.3 2529.39,5578.7 2526.77,5575.52C2524.15,5572.34 2522.84,5567.94 2522.84,5562.34C2522.84,5558.3 2523.47,5554.73 2524.72,5551.63C2525.97,5548.53 2527.75,5545.91 2530.07,5543.8C2532.39,5541.68 2535.19,5540.07 2538.48,5538.96C2541.76,5537.85 2545.46,5537.28 2549.58,5537.24C2549.66,5538.49 2549.74,5539.7 2549.82,5540.9C2549.9,5542.08 2549.98,5543.32 2550.06,5544.61C2548,5544.65 2546.08,5544.85 2544.28,5545.19C2542.49,5545.53 2540.86,5546.07 2539.39,5546.79C2537.91,5547.52 2536.63,5548.45 2535.54,5549.6C2534.46,5550.75 2533.61,5552.15 2533,5553.81C2533.89,5553.4 2534.8,5553.12 2535.73,5552.96C2536.65,5552.8 2537.52,5552.72 2538.33,5552.72Z" style="fill:rgb(3,10,29);fill-rule:nonzero;"/>
            </g>
            <g transform="matrix(1,0,0,1,8070.25,-4347.5)">
                <path d="M4769.05,4400.45L4769,4400.55C4768.76,4401.03 4768.53,4401.52 4768.53,4402C4768.53,4403 4769.36,4404 4769.53,4405C4769.69,4405.99 4769.53,4408 4769.53,4408L4773.07,4408C4773.11,4407.09 4773.13,4405.77 4773.03,4405.07C4772.96,4404.6 4772.73,4404.15 4772.52,4403.7C4772.25,4403.13 4772.03,4402.57 4772.03,4402C4772.03,4401.43 4772.29,4400.85 4772.58,4400.28C4772.79,4399.85 4773.03,4399.43 4773.03,4399C4773.03,4398.07 4772.08,4396.22 4772.08,4396.22C4771.95,4395.98 4772.05,4395.68 4772.3,4395.55C4772.55,4395.43 4772.85,4395.53 4772.97,4395.78C4772.97,4395.78 4774.03,4397.93 4774.03,4399C4774.03,4399.57 4773.76,4400.15 4773.47,4400.72C4773.26,4401.15 4773.03,4401.57 4773.03,4402C4773.03,4402.43 4773.22,4402.85 4773.42,4403.27C4773.67,4403.81 4773.94,4404.36 4774.02,4404.93C4774.12,4405.66 4774.1,4407.05 4774.07,4408L4776.9,4408C4776.9,4408 4777.12,4405.98 4776.9,4405C4776.67,4404 4775.59,4403 4775.53,4402C4775.46,4401 4776.53,4400 4776.53,4399C4776.53,4398 4776.04,4396.92 4775.53,4396C4774.69,4394.5 4771.53,4390 4771.53,4390C4771.53,4390 4768.86,4394.5 4768.53,4396C4768.3,4397.03 4769.53,4398 4769.53,4399C4769.53,4399.48 4769.29,4399.97 4769.05,4400.45Z" style="fill:rgb(3,10,29);"/>
            </g>
            <g transform="matrix(1,0,0,1,8057.25,-4347.5)">
                <path d="M4769.05,4400.45L4769,4400.55C4768.76,4401.03 4768.53,4401.52 4768.53,4402C4768.53,4403 4769.36,4404 4769.53,4405C4769.69,4405.99 4769.53,4408 4769.53,4408L4773.07,4408C4773.11,4407.09 4773.13,4405.77 4773.03,4405.07C4772.96,4404.6 4772.73,4404.15 4772.52,4403.7C4772.25,4403.13 4772.03,4402.57 4772.03,4402C4772.03,4401.43 4772.29,4400.85 4772.58,4400.28C4772.79,4399.85 4773.03,4399.43 4773.03,4399C4773.03,4398.07 4772.08,4396.22 4772.08,4396.22C4771.95,4395.98 4772.05,4395.68 4772.3,4395.55C4772.55,4395.43 4772.85,4395.53 4772.97,4395.78C4772.97,4395.78 4774.03,4397.93 4774.03,4399C4774.03,4399.57 4773.76,4400.15 4773.47,4400.72C4773.26,4401.15 4773.03,4401.57 4773.03,4402C4773.03,4402.43 4773.22,4402.85 4773.42,4403.27C4773.67,4403.81 4773.94,4404.36 4774.02,4404.93C4774.12,4405.66 4774.1,4407.05 4774.07,4408L4776.9,4408C4776.9,4408 4777.12,4405.98 4776.9,4405C4776.67,4404 4775.59,4403 4775.53,4402C4775.46,4401 4776.53,4400 4776.53,4399C4776.53,4398 4776.04,4396.92 4775.53,4396C4774.69,4394.5 4771.53,4390 4771.53,4390C4771.53,4390 4768.86,4394.5 4768.53,4396C4768.3,4397.03 4769.53,4398 4769.53,4399C4769.53,4399.48 4769.29,4399.97 4769.05,4400.45Z" style="fill:rgb(3,10,29);"/>
            </g>
            <g transform="matrix(1,0,0,1,8083.25,-4347.5)">
                <path d="M4769.05,4400.45L4769,4400.55C4768.76,4401.03 4768.53,4401.52 4768.53,4402C4768.53,4403 4769.36,4404 4769.53,4405C4769.69,4405.99 4769.53,4408 4769.53,4408L4773.07,4408C4773.11,4407.09 4773.13,4405.77 4773.03,4405.07C4772.96,4404.6 4772.73,4404.15 4772.52,4403.7C4772.25,4403.13 4772.03,4402.57 4772.03,4402C4772.03,4401.43 4772.29,4400.85 4772.58,4400.28C4772.79,4399.85 4773.03,4399.43 4773.03,4399C4773.03,4398.07 4772.08,4396.22 4772.08,4396.22C4771.95,4395.98 4772.05,4395.68 4772.3,4395.55C4772.55,4395.43 4772.85,4395.53 4772.97,4395.78C4772.97,4395.78 4774.03,4397.93 4774.03,4399C4774.03,4399.57 4773.76,4400.15 4773.47,4400.72C4773.26,4401.15 4773.03,4401.57 4773.03,4402C4773.03,4402.43 4773.22,4402.85 4773.42,4403.27C4773.67,4403.81 4773.94,4404.36 4774.02,4404.93C4774.12,4405.66 4774.1,4407.05 4774.07,4408L4776.9,4408C4776.9,4408 4777.12,4405.98 4776.9,4405C4776.67,4404 4775.59,4403 4775.53,4402C4775.46,4401 4776.53,4400 4776.53,4399C4776.53,4398 4776.04,4396.92 4775.53,4396C4774.69,4394.5 4771.53,4390 4771.53,4390C4771.53,4390 4768.86,4394.5 4768.53,4396C4768.3,4397.03 4769.53,4398 4769.53,4399C4769.53,4399.48 4769.29,4399.97 4769.05,4400.45Z" style="fill:rgb(3,10,29);"/>
            </g>
            <g transform="matrix(-1,-1.22465e-16,1.22465e-16,-1,17615.7,4472.5)">
                <path d="M4769.05,4400.45L4769,4400.55C4768.76,4401.03 4768.53,4401.52 4768.53,4402C4768.53,4403 4769.36,4404 4769.53,4405C4769.69,4405.99 4769.53,4408 4769.53,4408L4773.07,4408C4773.11,4407.09 4773.13,4405.77 4773.03,4405.07C4772.96,4404.6 4772.73,4404.15 4772.52,4403.7C4772.25,4403.13 4772.03,4402.57 4772.03,4402C4772.03,4401.43 4772.29,4400.85 4772.58,4400.28C4772.79,4399.85 4773.03,4399.43 4773.03,4399C4773.03,4398.07 4772.08,4396.22 4772.08,4396.22C4771.95,4395.98 4772.05,4395.68 4772.3,4395.55C4772.55,4395.43 4772.85,4395.53 4772.97,4395.78C4772.97,4395.78 4774.03,4397.93 4774.03,4399C4774.03,4399.57 4773.76,4400.15 4773.47,4400.72C4773.26,4401.15 4773.03,4401.57 4773.03,4402C4773.03,4402.43 4773.22,4402.85 4773.42,4403.27C4773.67,4403.81 4773.94,4404.36 4774.02,4404.93C4774.12,4405.66 4774.1,4407.05 4774.07,4408L4776.9,4408C4776.9,4408 4777.12,4405.98 4776.9,4405C4776.67,4404 4775.59,4403 4775.53,4402C4775.46,4401 4776.53,4400 4776.53,4399C4776.53,4398 4776.04,4396.92 4775.53,4396C4774.69,4394.5 4771.53,4390 4771.53,4390C4771.53,4390 4768.86,4394.5 4768.53,4396C4768.3,4397.03 4769.53,4398 4769.53,4399C4769.53,4399.48 4769.29,4399.97 4769.05,4400.45Z" style="fill:rgb(3,10,29);"/>
            </g>
            <g transform="matrix(-1,-1.22465e-16,1.22465e-16,-1,17602.7,4472.5)">
                <path d="M4769.05,4400.45L4769,4400.55C4768.76,4401.03 4768.53,4401.52 4768.53,4402C4768.53,4403 4769.36,4404 4769.53,4405C4769.69,4405.99 4769.53,4408 4769.53,4408L4773.07,4408C4773.11,4407.09 4773.13,4405.77 4773.03,4405.07C4772.96,4404.6 4772.73,4404.15 4772.52,4403.7C4772.25,4403.13 4772.03,4402.57 4772.03,4402C4772.03,4401.43 4772.29,4400.85 4772.58,4400.28C4772.79,4399.85 4773.03,4399.43 4773.03,4399C4773.03,4398.07 4772.08,4396.22 4772.08,4396.22C4771.95,4395.98 4772.05,4395.68 4772.3,4395.55C4772.55,4395.43 4772.85,4395.53 4772.97,4395.78C4772.97,4395.78 4774.03,4397.93 4774.03,4399C4774.03,4399.57 4773.76,4400.15 4773.47,4400.72C4773.26,4401.15 4773.03,4401.57 4773.03,4402C4773.03,4402.43 4773.22,4402.85 4773.42,4403.27C4773.67,4403.81 4773.94,4404.36 4774.02,4404.93C4774.12,4405.66 4774.1,4407.05 4774.07,4408L4776.9,4408C4776.9,4408 4777.12,4405.98 4776.9,4405C4776.67,4404 4775.59,4403 4775.53,4402C4775.46,4401 4776.53,4400 4776.53,4399C4776.53,4398 4776.04,4396.92 4775.53,4396C4774.69,4394.5 4771.53,4390 4771.53,4390C4771.53,4390 4768.86,4394.5 4768.53,4396C4768.3,4397.03 4769.53,4398 4769.53,4399C4769.53,4399.48 4769.29,4399.97 4769.05,4400.45Z" style="fill:rgb(3,10,29);"/>
            </g>
            <g transform="matrix(-1,-1.22465e-16,1.22465e-16,-1,17628.7,4472.5)">
                <path d="M4769.05,4400.45L4769,4400.55C4768.76,4401.03 4768.53,4401.52 4768.53,4402C4768.53,4403 4769.36,4404 4769.53,4405C4769.69,4405.99 4769.53,4408 4769.53,4408L4773.07,4408C4773.11,4407.09 4773.13,4405.77 4773.03,4405.07C4772.96,4404.6 4772.73,4404.15 4772.52,4403.7C4772.25,4403.13 4772.03,4402.57 4772.03,4402C4772.03,4401.43 4772.29,4400.85 4772.58,4400.28C4772.79,4399.85 4773.03,4399.43 4773.03,4399C4773.03,4398.07 4772.08,4396.22 4772.08,4396.22C4771.95,4395.98 4772.05,4395.68 4772.3,4395.55C4772.55,4395.43 4772.85,4395.53 4772.97,4395.78C4772.97,4395.78 4774.03,4397.93 4774.03,4399C4774.03,4399.57 4773.76,4400.15 4773.47,4400.72C4773.26,4401.15 4773.03,4401.57 4773.03,4402C4773.03,4402.43 4773.22,4402.85 4773.42,4403.27C4773.67,4403.81 4773.94,4404.36 4774.02,4404.93C4774.12,4405.66 4774.1,4407.05 4774.07,4408L4776.9,4408C4776.9,4408 4777.12,4405.98 4776.9,4405C4776.67,4404 4775.59,4403 4775.53,4402C4775.46,4401 4776.53,4400 4776.53,4399C4776.53,4398 4776.04,4396.92 4775.53,4396C4774.69,4394.5 4771.53,4390 4771.53,4390C4771.53,4390 4768.86,4394.5 4768.53,4396C4768.3,4397.03 4769.53,4398 4769.53,4399C4769.53,4399.48 4769.29,4399.97 4769.05,4400.45Z" style="fill:rgb(3,10,29);"/>
            </g>
        </g>
    </g>
</svg>
