<?xml version="1.0" encoding="UTF-8" standalone="no"?>
<!DOCTYPE svg PUBLIC "-//W3C//DTD SVG 1.1//EN" "http://www.w3.org/Graphics/SVG/1.1/DTD/svg11.dtd">
<svg width="100%" height="100%" viewBox="0 0 100 126" version="1.1" xmlns="http://www.w3.org/2000/svg" xmlns:xlink="http://www.w3.org/1999/xlink" xml:space="preserve" xmlns:serif="http://www.serif.com/" style="fill-rule:evenodd;clip-rule:evenodd;stroke-linejoin:round;stroke-miterlimit:2;">
    <g transform="matrix(1,0,0,1,-12343,-316)">
        <g id="Three-of-Seaweed" serif:id="Three of Seaweed" transform="matrix(1,0,0,1,0,316.878)">
            <rect x="12343" y="0" width="100" height="125" style="fill:none;"/>
            <g transform="matrix(0.231477,0,0,0.231477,11775.4,-1265.81)">
                <path d="M2534.39,5580.36C2533.31,5580.36 2532.16,5580.29 2530.95,5580.15C2529.74,5580.01 2528.57,5579.81 2527.44,5579.57C2526.31,5579.33 2525.28,5579.07 2524.36,5578.79C2523.43,5578.5 2522.7,5578.24 2522.18,5578L2523.93,5570.5C2524.98,5570.94 2526.32,5571.42 2527.95,5571.92C2529.59,5572.43 2531.61,5572.68 2534.03,5572.68C2536.81,5572.68 2538.85,5572.15 2540.14,5571.11C2541.43,5570.06 2542.08,5568.65 2542.08,5566.87C2542.08,5565.78 2541.84,5564.86 2541.38,5564.12C2540.92,5563.37 2540.28,5562.77 2539.47,5562.31C2538.67,5561.84 2537.71,5561.52 2536.6,5561.34C2535.49,5561.16 2534.31,5561.07 2533.06,5561.07L2529.56,5561.07L2529.56,5553.81L2533.55,5553.81C2534.43,5553.81 2535.29,5553.73 2536.12,5553.57C2536.95,5553.4 2537.68,5553.13 2538.33,5552.75C2538.97,5552.37 2539.49,5551.84 2539.87,5551.18C2540.25,5550.51 2540.44,5549.68 2540.44,5548.67C2540.44,5547.9 2540.28,5547.23 2539.96,5546.67C2539.64,5546.11 2539.22,5545.64 2538.72,5545.28C2538.22,5544.92 2537.63,5544.65 2536.97,5544.46C2536.3,5544.28 2535.62,5544.19 2534.94,5544.19C2533.21,5544.19 2531.6,5544.45 2530.13,5544.98C2528.66,5545.5 2527.32,5546.15 2526.11,5546.91L2522.9,5540.32C2523.55,5539.92 2524.3,5539.49 2525.17,5539.05C2526.04,5538.61 2527,5538.2 2528.05,5537.84C2529.09,5537.48 2530.21,5537.18 2531.4,5536.93C2532.59,5536.69 2533.85,5536.57 2535.18,5536.57C2537.64,5536.57 2539.77,5536.86 2541.56,5537.45C2543.36,5538.03 2544.84,5538.86 2546.01,5539.93C2547.18,5541 2548.04,5542.24 2548.61,5543.68C2549.17,5545.11 2549.45,5546.67 2549.45,5548.36C2549.45,5550.02 2548.99,5551.62 2548.06,5553.17C2547.14,5554.73 2545.89,5555.9 2544.31,5556.71C2546.49,5557.6 2548.18,5558.92 2549.36,5560.67C2550.55,5562.43 2551.15,5564.53 2551.15,5566.99C2551.15,5568.93 2550.83,5570.71 2550.18,5572.35C2549.54,5573.98 2548.53,5575.39 2547.16,5576.58C2545.79,5577.77 2544.04,5578.69 2541.93,5579.36C2539.81,5580.03 2537.3,5580.36 2534.39,5580.36Z" style="fill:rgb(3,10,29);fill-rule:nonzero;"/>
            </g>
            <g transform="matrix(-0.231477,2.83478e-17,-2.83478e-17,-0.231477,13010.6,1390.81)">
                <path d="M2534.39,5580.36C2533.31,5580.36 2532.16,5580.29 2530.95,5580.15C2529.74,5580.01 2528.57,5579.81 2527.44,5579.57C2526.31,5579.33 2525.28,5579.07 2524.36,5578.79C2523.43,5578.5 2522.7,5578.24 2522.18,5578L2523.93,5570.5C2524.98,5570.94 2526.32,5571.42 2527.95,5571.92C2529.59,5572.43 2531.61,5572.68 2534.03,5572.68C2536.81,5572.68 2538.85,5572.15 2540.14,5571.11C2541.43,5570.06 2542.08,5568.65 2542.08,5566.87C2542.08,5565.78 2541.84,5564.86 2541.38,5564.12C2540.92,5563.37 2540.28,5562.77 2539.47,5562.31C2538.67,5561.84 2537.71,5561.52 2536.6,5561.34C2535.49,5561.16 2534.31,5561.07 2533.06,5561.07L2529.56,5561.07L2529.56,5553.81L2533.55,5553.81C2534.43,5553.81 2535.29,5553.73 2536.12,5553.57C2536.95,5553.4 2537.68,5553.13 2538.33,5552.75C2538.97,5552.37 2539.49,5551.84 2539.87,5551.18C2540.25,5550.51 2540.44,5549.68 2540.44,5548.67C2540.44,5547.9 2540.28,5547.23 2539.96,5546.67C2539.64,5546.11 2539.22,5545.64 2538.72,5545.28C2538.22,5544.92 2537.63,5544.65 2536.97,5544.46C2536.3,5544.28 2535.62,5544.19 2534.94,5544.19C2533.21,5544.19 2531.6,5544.45 2530.13,5544.98C2528.66,5545.5 2527.32,5546.15 2526.11,5546.91L2522.9,5540.32C2523.55,5539.92 2524.3,5539.49 2525.17,5539.05C2526.04,5538.61 2527,5538.2 2528.05,5537.84C2529.09,5537.48 2530.21,5537.18 2531.4,5536.93C2532.59,5536.69 2533.85,5536.57 2535.18,5536.57C2537.64,5536.57 2539.77,5536.86 2541.56,5537.45C2543.36,5538.03 2544.84,5538.86 2546.01,5539.93C2547.18,5541 2548.04,5542.24 2548.61,5543.68C2549.17,5545.11 2549.45,5546.67 2549.45,5548.36C2549.45,5550.02 2548.99,5551.62 2548.06,5553.17C2547.14,5554.73 2545.89,5555.9 2544.31,5556.71C2546.49,5557.6 2548.18,5558.92 2549.36,5560.67C2550.55,5562.43 2551.15,5564.53 2551.15,5566.99C2551.15,5568.93 2550.83,5570.71 2550.18,5572.35C2549.54,5573.98 2548.53,5575.39 2547.16,5576.58C2545.79,5577.77 2544.04,5578.69 2541.93,5579.36C2539.81,5580.03 2537.3,5580.36 2534.39,5580.36Z" style="fill:rgb(3,10,29);fill-rule:nonzero;"/>
            </g>
            <g transform="matrix(1,0,0,1,7632.76,-4336.5)">
                <path d="M4769.05,4400.45L4769,4400.55C4768.76,4401.03 4768.53,4401.52 4768.53,4402C4768.53,4403 4769.36,4404 4769.53,4405C4769.69,4405.99 4769.53,4408 4769.53,4408L4773.07,4408C4773.11,4407.09 4773.13,4405.77 4773.03,4405.07C4772.96,4404.6 4772.73,4404.15 4772.52,4403.7C4772.25,4403.13 4772.03,4402.57 4772.03,4402C4772.03,4401.43 4772.29,4400.85 4772.58,4400.28C4772.79,4399.85 4773.03,4399.43 4773.03,4399C4773.03,4398.07 4772.08,4396.22 4772.08,4396.22C4771.95,4395.98 4772.05,4395.68 4772.3,4395.55C4772.55,4395.43 4772.85,4395.53 4772.97,4395.78C4772.97,4395.78 4774.03,4397.93 4774.03,4399C4774.03,4399.57 4773.76,4400.15 4773.47,4400.72C4773.26,4401.15 4773.03,4401.57 4773.03,4402C4773.03,4402.43 4773.22,4402.85 4773.42,4403.27C4773.67,4403.81 4773.94,4404.36 4774.02,4404.93C4774.12,4405.66 4774.1,4407.05 4774.07,4408L4776.9,4408C4776.9,4408 4777.12,4405.98 4776.9,4405C4776.67,4404 4775.59,4403 4775.53,4402C4775.46,4401 4776.53,4400 4776.53,4399C4776.53,4398 4776.04,4396.92 4775.53,4396C4774.69,4394.5 4771.53,4390 4771.53,4390C4771.53,4390 4768.86,4394.5 4768.53,4396C4768.3,4397.03 4769.53,4398 4769.53,4399C4769.53,4399.48 4769.29,4399.97 4769.05,4400.45Z" style="fill:rgb(3,10,29);"/>
            </g>
            <g transform="matrix(1,0,0,1,7607.75,-4336.5)">
                <path d="M4769.05,4400.45L4769,4400.55C4768.76,4401.03 4768.53,4401.52 4768.53,4402C4768.53,4403 4769.36,4404 4769.53,4405C4769.69,4405.99 4769.53,4408 4769.53,4408L4773.07,4408C4773.11,4407.09 4773.13,4405.77 4773.03,4405.07C4772.96,4404.6 4772.73,4404.15 4772.52,4403.7C4772.25,4403.13 4772.03,4402.57 4772.03,4402C4772.03,4401.43 4772.29,4400.85 4772.58,4400.28C4772.79,4399.85 4773.03,4399.43 4773.03,4399C4773.03,4398.07 4772.08,4396.22 4772.08,4396.22C4771.95,4395.98 4772.05,4395.68 4772.3,4395.55C4772.55,4395.43 4772.85,4395.53 4772.97,4395.78C4772.97,4395.78 4774.03,4397.93 4774.03,4399C4774.03,4399.57 4773.76,4400.15 4773.47,4400.72C4773.26,4401.15 4773.03,4401.57 4773.03,4402C4773.03,4402.43 4773.22,4402.85 4773.42,4403.27C4773.67,4403.81 4773.94,4404.36 4774.02,4404.93C4774.12,4405.66 4774.1,4407.05 4774.07,4408L4776.9,4408C4776.9,4408 4777.12,4405.98 4776.9,4405C4776.67,4404 4775.59,4403 4775.53,4402C4775.46,4401 4776.53,4400 4776.53,4399C4776.53,4398 4776.04,4396.92 4775.53,4396C4774.69,4394.5 4771.53,4390 4771.53,4390C4771.53,4390 4768.86,4394.5 4768.53,4396C4768.3,4397.03 4769.53,4398 4769.53,4399C4769.53,4399.48 4769.29,4399.97 4769.05,4400.45Z" style="fill:rgb(3,10,29);"/>
            </g>
            <g transform="matrix(-1,-1.22465e-16,1.22465e-16,-1,17165.7,4461.5)">
                <path d="M4769.05,4400.45L4769,4400.55C4768.76,4401.03 4768.53,4401.52 4768.53,4402C4768.53,4403 4769.36,4404 4769.53,4405C4769.69,4405.99 4769.53,4408 4769.53,4408L4773.07,4408C4773.11,4407.09 4773.13,4405.77 4773.03,4405.07C4772.96,4404.6 4772.73,4404.15 4772.52,4403.7C4772.25,4403.13 4772.03,4402.57 4772.03,4402C4772.03,4401.43 4772.29,4400.85 4772.58,4400.28C4772.79,4399.85 4773.03,4399.43 4773.03,4399C4773.03,4398.07 4772.08,4396.22 4772.08,4396.22C4771.95,4395.98 4772.05,4395.68 4772.3,4395.55C4772.55,4395.43 4772.85,4395.53 4772.97,4395.78C4772.97,4395.78 4774.03,4397.93 4774.03,4399C4774.03,4399.57 4773.76,4400.15 4773.47,4400.72C4773.26,4401.15 4773.03,4401.57 4773.03,4402C4773.03,4402.43 4773.22,4402.85 4773.42,4403.27C4773.67,4403.81 4773.94,4404.36 4774.02,4404.93C4774.12,4405.66 4774.1,4407.05 4774.07,4408L4776.9,4408C4776.9,4408 4777.12,4405.98 4776.9,4405C4776.67,4404 4775.59,4403 4775.53,4402C4775.46,4401 4776.53,4400 4776.53,4399C4776.53,4398 4776.04,4396.92 4775.53,4396C4774.69,4394.5 4771.53,4390 4771.53,4390C4771.53,4390 4768.86,4394.5 4768.53,4396C4768.3,4397.03 4769.53,4398 4769.53,4399C4769.53,4399.48 4769.29,4399.97 4769.05,4400.45Z" style="fill:rgb(3,10,29);"/>
            </g>
        </g>
    </g>
</svg>
