<?xml version="1.0" encoding="UTF-8" standalone="no"?>
<!DOCTYPE svg PUBLIC "-//W3C//DTD SVG 1.1//EN" "http://www.w3.org/Graphics/SVG/1.1/DTD/svg11.dtd">
<svg width="100%" height="100%" viewBox="0 0 100 126" version="1.1" xmlns="http://www.w3.org/2000/svg" xmlns:xlink="http://www.w3.org/1999/xlink" xml:space="preserve" xmlns:serif="http://www.serif.com/" style="fill-rule:evenodd;clip-rule:evenodd;stroke-linejoin:round;stroke-miterlimit:2;">
    <g transform="matrix(1,0,0,1,-12193,-316)">
        <g id="Two-of-Seaweed" serif:id="Two of Seaweed" transform="matrix(1,0,0,1,-0.0993319,316.878)">
            <rect x="12193.1" y="0" width="100" height="125" style="fill:none;"/>
            <g transform="matrix(0.231477,0,0,0.231477,11625.5,-1265.81)">
                <path d="M2550.6,5548.55C2550.6,5550.08 2550.3,5551.55 2549.7,5552.96C2549.09,5554.37 2548.31,5555.73 2547.34,5557.04C2546.37,5558.35 2545.28,5559.61 2544.07,5560.82C2542.86,5562.03 2541.67,5563.18 2540.5,5564.27C2539.9,5564.84 2539.24,5565.47 2538.54,5566.18C2537.83,5566.88 2537.16,5567.6 2536.51,5568.32C2535.87,5569.05 2535.29,5569.72 2534.79,5570.35C2534.28,5570.97 2533.97,5571.49 2533.85,5571.89L2551.87,5571.89L2551.87,5579.45L2523.93,5579.45C2523.85,5579.01 2523.81,5578.44 2523.81,5577.76L2523.81,5576.31C2523.81,5574.37 2524.12,5572.6 2524.75,5570.98C2525.37,5569.37 2526.19,5567.87 2527.2,5566.48C2528.21,5565.09 2529.35,5563.79 2530.62,5562.58C2531.89,5561.37 2533.14,5560.16 2534.39,5558.95C2535.36,5558.02 2536.27,5557.14 2537.12,5556.32C2537.96,5555.49 2538.71,5554.68 2539.36,5553.9C2540,5553.11 2540.5,5552.33 2540.87,5551.54C2541.23,5550.75 2541.41,5549.96 2541.41,5549.15C2541.41,5547.38 2540.91,5546.13 2539.9,5545.4C2538.89,5544.68 2537.64,5544.31 2536.15,5544.31C2535.06,5544.31 2534.04,5544.48 2533.1,5544.83C2532.15,5545.17 2531.28,5545.57 2530.49,5546.04C2529.71,5546.5 2529.03,5546.96 2528.47,5547.43C2527.9,5547.89 2527.48,5548.26 2527.2,5548.55L2522.72,5542.26C2524.5,5540.6 2526.56,5539.24 2528.92,5538.17C2531.28,5537.11 2533.81,5536.57 2536.51,5536.57C2538.97,5536.57 2541.09,5536.85 2542.86,5537.42C2544.64,5537.98 2546.1,5538.78 2547.25,5539.81C2548.4,5540.83 2549.24,5542.08 2549.79,5543.56C2550.33,5545.03 2550.6,5546.69 2550.6,5548.55Z" style="fill:rgb(3,10,29);fill-rule:nonzero;"/>
            </g>
            <g transform="matrix(-0.231477,2.83478e-17,-2.83478e-17,-0.231477,12860.7,1390.81)">
                <path d="M2550.6,5548.55C2550.6,5550.08 2550.3,5551.55 2549.7,5552.96C2549.09,5554.37 2548.31,5555.73 2547.34,5557.04C2546.37,5558.35 2545.28,5559.61 2544.07,5560.82C2542.86,5562.03 2541.67,5563.18 2540.5,5564.27C2539.9,5564.84 2539.24,5565.47 2538.54,5566.18C2537.83,5566.88 2537.16,5567.6 2536.51,5568.32C2535.87,5569.05 2535.29,5569.72 2534.79,5570.35C2534.28,5570.97 2533.97,5571.49 2533.85,5571.89L2551.87,5571.89L2551.87,5579.45L2523.93,5579.45C2523.85,5579.01 2523.81,5578.44 2523.81,5577.76L2523.81,5576.31C2523.81,5574.37 2524.12,5572.6 2524.75,5570.98C2525.37,5569.37 2526.19,5567.87 2527.2,5566.48C2528.21,5565.09 2529.35,5563.79 2530.62,5562.58C2531.89,5561.37 2533.14,5560.16 2534.39,5558.95C2535.36,5558.02 2536.27,5557.14 2537.12,5556.32C2537.96,5555.49 2538.71,5554.68 2539.36,5553.9C2540,5553.11 2540.5,5552.33 2540.87,5551.54C2541.23,5550.75 2541.41,5549.96 2541.41,5549.15C2541.41,5547.38 2540.91,5546.13 2539.9,5545.4C2538.89,5544.68 2537.64,5544.31 2536.15,5544.31C2535.06,5544.31 2534.04,5544.48 2533.1,5544.83C2532.15,5545.17 2531.28,5545.57 2530.49,5546.04C2529.71,5546.5 2529.03,5546.96 2528.47,5547.43C2527.9,5547.89 2527.48,5548.26 2527.2,5548.55L2522.72,5542.26C2524.5,5540.6 2526.56,5539.24 2528.92,5538.17C2531.28,5537.11 2533.81,5536.57 2536.51,5536.57C2538.97,5536.57 2541.09,5536.85 2542.86,5537.42C2544.64,5537.98 2546.1,5538.78 2547.25,5539.81C2548.4,5540.83 2549.24,5542.08 2549.79,5543.56C2550.33,5545.03 2550.6,5546.69 2550.6,5548.55Z" style="fill:rgb(3,10,29);fill-rule:nonzero;"/>
            </g>
            <g transform="matrix(1,0,0,1,7470.35,-4347.5)">
                <path d="M4769.05,4400.45L4769,4400.55C4768.76,4401.03 4768.53,4401.52 4768.53,4402C4768.53,4403 4769.36,4404 4769.53,4405C4769.69,4405.99 4769.53,4408 4769.53,4408L4773.07,4408C4773.11,4407.09 4773.13,4405.77 4773.03,4405.07C4772.96,4404.6 4772.73,4404.15 4772.52,4403.7C4772.25,4403.13 4772.03,4402.57 4772.03,4402C4772.03,4401.43 4772.29,4400.85 4772.58,4400.28C4772.79,4399.85 4773.03,4399.43 4773.03,4399C4773.03,4398.07 4772.08,4396.22 4772.08,4396.22C4771.95,4395.98 4772.05,4395.68 4772.3,4395.55C4772.55,4395.43 4772.85,4395.53 4772.97,4395.78C4772.97,4395.78 4774.03,4397.93 4774.03,4399C4774.03,4399.57 4773.76,4400.15 4773.47,4400.72C4773.26,4401.15 4773.03,4401.57 4773.03,4402C4773.03,4402.43 4773.22,4402.85 4773.42,4403.27C4773.67,4403.81 4773.94,4404.36 4774.02,4404.93C4774.12,4405.66 4774.1,4407.05 4774.07,4408L4776.9,4408C4776.9,4408 4777.12,4405.98 4776.9,4405C4776.67,4404 4775.59,4403 4775.53,4402C4775.46,4401 4776.53,4400 4776.53,4399C4776.53,4398 4776.04,4396.92 4775.53,4396C4774.69,4394.5 4771.53,4390 4771.53,4390C4771.53,4390 4768.86,4394.5 4768.53,4396C4768.3,4397.03 4769.53,4398 4769.53,4399C4769.53,4399.48 4769.29,4399.97 4769.05,4400.45Z" style="fill:rgb(3,10,29);"/>
            </g>
            <g transform="matrix(-1,-1.22465e-16,1.22465e-16,-1,17015.8,4472.5)">
                <path d="M4769.05,4400.45L4769,4400.55C4768.76,4401.03 4768.53,4401.52 4768.53,4402C4768.53,4403 4769.36,4404 4769.53,4405C4769.69,4405.99 4769.53,4408 4769.53,4408L4773.07,4408C4773.11,4407.09 4773.13,4405.77 4773.03,4405.07C4772.96,4404.6 4772.73,4404.15 4772.52,4403.7C4772.25,4403.13 4772.03,4402.57 4772.03,4402C4772.03,4401.43 4772.29,4400.85 4772.58,4400.28C4772.79,4399.85 4773.03,4399.43 4773.03,4399C4773.03,4398.07 4772.08,4396.22 4772.08,4396.22C4771.95,4395.98 4772.05,4395.68 4772.3,4395.55C4772.55,4395.43 4772.85,4395.53 4772.97,4395.78C4772.97,4395.78 4774.03,4397.93 4774.03,4399C4774.03,4399.57 4773.76,4400.15 4773.47,4400.72C4773.26,4401.15 4773.03,4401.57 4773.03,4402C4773.03,4402.43 4773.22,4402.85 4773.42,4403.27C4773.67,4403.81 4773.94,4404.36 4774.02,4404.93C4774.12,4405.66 4774.1,4407.05 4774.07,4408L4776.9,4408C4776.9,4408 4777.12,4405.98 4776.9,4405C4776.67,4404 4775.59,4403 4775.53,4402C4775.46,4401 4776.53,4400 4776.53,4399C4776.53,4398 4776.04,4396.92 4775.53,4396C4774.69,4394.5 4771.53,4390 4771.53,4390C4771.53,4390 4768.86,4394.5 4768.53,4396C4768.3,4397.03 4769.53,4398 4769.53,4399C4769.53,4399.48 4769.29,4399.97 4769.05,4400.45Z" style="fill:rgb(3,10,29);"/>
            </g>
        </g>
    </g>
</svg>
